<?xml version="1.0" encoding="UTF-8"?><svg id="eddie-smiling_svg__Layer_1" xmlns="http://www.w3.org/2000/svg" version="1.1" viewBox="0 0 500 500"><!--Generator: Adobe Illustrator 29.8.3, SVG Export Plug-In . SVG Version: 2.1.1 Build 3)--><defs><style>.eddie-smiling_svg__st0{fill:#8ab61e}.eddie-smiling_svg__st1{fill:#ffa700}</style></defs><path class="eddie-smiling_svg__st0" d="M477.74,234.79c0,146.47-100.1,265.21-223.58,265.21S30.59,381.26,30.59,234.79h447.15Z"/><path class="eddie-smiling_svg__st1" d="M111.54,227.08c56.63,0,102.54-45.91,102.54-102.54S168.17,22.01,111.54,22.01,9,67.92,9,124.55s45.91,102.54,102.54,102.54"/><path class="eddie-smiling_svg__st1" d="M253.39,227.08c56.63,0,102.54-45.91,102.54-102.54s-45.91-102.54-102.54-102.54-102.54,45.91-102.54,102.54,45.91,102.54,102.54,102.54"/><path class="eddie-smiling_svg__st1" d="M395.25,227.08c56.63,0,102.54-45.91,102.54-102.54s-45.91-102.54-102.54-102.54-102.54,45.91-102.54,102.54,45.91,102.54,102.54,102.54"/><path class="eyes" d="M154.88,300.18c-1.47,5.53-4.99,10.29-9.84,13.33l-32.02-8.58c-2.69-5.05-3.36-10.94-1.86-16.46,3.24-12.08,15.65-19.26,27.73-16.02s19.24,15.66,16,27.74M347.87,282.16c2.87,4.95,3.75,10.81,2.46,16.38l-28.71,16.58c-5.47-1.67-10.11-5.36-12.96-10.32-6.25-10.83-2.55-24.68,8.28-30.93,10.83-6.25,24.68-2.53,30.93,8.3"/></svg>