<?xml version="1.0" encoding="UTF-8"?><svg id="eddie-happy_svg__Layer_1" xmlns="http://www.w3.org/2000/svg" version="1.1" viewBox="0 0 500 500"><!--Generator: Adobe Illustrator 29.8.3, SVG Export Plug-In . SVG Version: 2.1.1 Build 3)--><defs><style>.eddie-happy_svg__st0{fill:#8ab61e}.eddie-happy_svg__st1{fill:#fff}.eddie-happy_svg__st2{fill:#ffa700}</style></defs><path class="eddie-happy_svg__st0" d="M469.93,231.77c0,143.71-98.22,260.23-219.38,260.23S31.18,375.49,31.18,231.77h438.75Z"/><path class="eddie-happy_svg__st2" d="M110.61,224.21c55.57,0,100.61-45.04,100.61-100.61S166.18,22.99,110.61,22.99,10,68.03,10,123.6s45.04,100.61,100.61,100.61"/><path class="eddie-happy_svg__st2" d="M249.8,224.21c55.57,0,100.61-45.04,100.61-100.61s-45.04-100.61-100.61-100.61-100.61,45.04-100.61,100.61,45.04,100.61,100.61,100.61"/><path class="eddie-happy_svg__st2" d="M388.99,224.21c55.57,0,100.61-45.04,100.61-100.61s-45.04-100.61-100.61-100.61-100.61,45.04-100.61,100.61,45.04,100.61,100.61,100.61"/><path class="eddie-happy_svg__st1" d="M96.16,305.44h84.42c0-23.31-18.9-42.21-42.21-42.21s-42.21,18.9-42.21,42.21M288.38,305.76h84.42c0-23.31-18.9-42.21-42.21-42.21s-42.21,18.9-42.21,42.21"/><path d="M135.32,278.71c6.61-1.86,13.34,0,20.21,3.58,3.4,1.77,4.35,6.11,2.3,9.36s-6.3,4.13-9.75,2.45c-4.77-2.33-7.37-2.47-9-2.01-1.72.49-3.91,2.06-6.94,6.45-2.17,3.16-6.33,4.44-9.69,2.58s-4.63-6.11-2.53-9.32c4.13-6.3,8.92-11.27,15.39-13.09M333.13,276.32c6.73,1.39,11.84,6.13,16.31,12.47,2.21,3.14,1.05,7.43-2.26,9.37s-7.49.77-9.78-2.3c-3.17-4.26-5.4-5.58-7.07-5.92-1.76-.36-4.42.03-9.13,2.54-3.38,1.81-7.66,1.03-9.79-2.16-2.13-3.19-1.3-7.55,2.04-9.44,6.56-3.7,13.11-5.91,19.68-4.55"/></svg>