<?xml version="1.0" encoding="UTF-8"?><svg id="eddie-base_svg__Layer_1" xmlns="http://www.w3.org/2000/svg" version="1.1" viewBox="0 0 500 500"><!--Generator: Adobe Illustrator 29.8.3, SVG Export Plug-In . SVG Version: 2.1.1 Build 3)--><defs><style>.eddie-base_svg__st0{fill:#8ab61e}.eddie-base_svg__st1{fill:#fff}.eddie-base_svg__st2{fill:#ffa700}</style></defs><path class="eddie-base_svg__st0" d="M467.85,229.26c0,144-98.42,260.74-219.81,260.74S28.22,373.26,28.22,229.26h439.63Z"/><path class="eddie-base_svg__st2" d="M107.81,221.68c55.68,0,100.81-45.13,100.81-100.81S163.49,20.05,107.81,20.05,7,65.18,7,120.86s45.13,100.81,100.81,100.81"/><path class="eddie-base_svg__st2" d="M247.28,221.68c55.68,0,100.81-45.13,100.81-100.81s-45.13-100.81-100.81-100.81-100.81,45.13-100.81,100.81,45.13,100.81,100.81,100.81"/><path class="eddie-base_svg__st2" d="M386.75,221.68c55.68,0,100.81-45.13,100.81-100.81s-45.13-100.81-100.81-100.81-100.81,45.13-100.81,100.81,45.13,100.81,100.81,100.81"/><g class="eyes"><path class="eddie-base_svg__st1" d="M146.15,303.07c3.7-3.96,5.96-9.31,5.96-15.16,0-12.29-9.96-22.27-22.25-22.27s-22.25,9.97-22.25,22.27c0,5.85,2.26,11.2,5.96,15.16h-20.22c0-23.36,18.93-42.3,42.3-42.3s42.3,18.93,42.3,42.3h-31.77Z"/><path d="M152.11,287.91c0,5.85-2.26,11.2-5.96,15.16h-32.59c-3.84-4.11-5.97-9.53-5.96-15.16,0-12.29,9.96-22.27,22.25-22.27s22.25,9.97,22.25,22.27"/><path class="eddie-base_svg__st1" d="M323.52,303.54c3.7-3.96,5.96-9.31,5.96-15.16,0-12.29-9.96-22.27-22.25-22.27s-22.25,9.97-22.25,22.27c0,5.85,2.26,11.2,5.96,15.16h-20.22c0-23.36,18.93-42.3,42.3-42.3s42.3,18.93,42.3,42.3h-31.77Z"/><path d="M329.47,288.38c0,5.85-2.26,11.2-5.96,15.16h-32.59c-3.84-4.11-5.97-9.53-5.96-15.16,0-12.29,9.96-22.27,22.25-22.27s22.25,9.97,22.25,22.27"/></g></svg>