<svg xmlns="http://www.w3.org/2000/svg" width="500" height="500" fill="none" viewBox="0 0 500 500"><path fill="#8ab61e" d="M404 249c0 94.99-64.92 172-145 172s-145-77.01-145-172z"/><path fill="#ffa700" d="M166.5 244c36.727 0 66.5-29.773 66.5-66.5S203.227 111 166.5 111 100 140.773 100 177.5s29.773 66.5 66.5 66.5"/><path fill="#ffa700" d="M258.5 244c36.727 0 66.5-29.773 66.5-66.5S295.227 111 258.5 111 192 140.773 192 177.5s29.773 66.5 66.5 66.5"/><path fill="#ffa700" d="M350.5 244c36.727 0 66.5-29.773 66.5-66.5S387.227 111 350.5 111 284 140.773 284 177.5s29.773 66.5 66.5 66.5"/><path fill="#000" d="M194.613 291.409a14.62 14.62 0 0 1-6.384 8.643l-20.768-5.565a14.61 14.61 0 0 1-1.208-10.676c2.099-7.834 10.148-12.489 17.982-10.39s12.477 10.155 10.378 17.988M319.772 279.722a14.6 14.6 0 0 1 1.596 10.625l-18.619 10.75a14.6 14.6 0 0 1-8.404-6.695c-4.055-7.024-1.655-16.007 5.368-20.062s16.004-1.642 20.059 5.382"/></svg>