<svg xmlns="http://www.w3.org/2000/svg" id="Layer_1" viewBox="0 0 500 500"><defs><style>.st1{fill:#901065}.st2{fill:#ffa700}</style></defs><path d="M404 249c0 94.99-64.92 172-145 172s-145-77.01-145-172z" style="fill:#8ab61e"/><path d="M166.5 244c36.73 0 66.5-29.77 66.5-66.5S203.23 111 166.5 111 100 140.77 100 177.5s29.77 66.5 66.5 66.5" class="st2"/><path d="M258.5 244c36.73 0 66.5-29.77 66.5-66.5S295.23 111 258.5 111 192 140.77 192 177.5s29.77 66.5 66.5 66.5" class="st2"/><path d="M350.5 244c36.73 0 66.5-29.77 66.5-66.5S387.23 111 350.5 111 284 140.77 284 177.5s29.77 66.5 66.5 66.5" class="st2"/><g class="throb"><path d="M135.92 249.97c.2-3.87 5.24-5.22 7.35-1.97l22.67 34.91a4.02 4.02 0 0 0 4.39 1.69l40.2-10.77c3.74-1 6.58 3.37 4.14 6.38l-26.19 32.35a4.01 4.01 0 0 0-.25 4.7l22.67 34.91c2.11 3.25-1.17 7.3-4.79 5.91l-38.86-14.92a3.99 3.99 0 0 0-4.54 1.22l-26.19 32.35c-2.44 3.01-7.31 1.14-7.1-2.73l2.18-41.57c.09-1.73-.94-3.32-2.56-3.94l-38.86-14.92c-3.62-1.39-3.34-6.6.4-7.6l40.2-10.77a4 4 0 0 0 2.96-3.65l2.18-41.57ZM340.39 254.35c2.88-2.59 7.39.01 6.59 3.8l-8.65 40.71a3.99 3.99 0 0 0 1.91 4.29l36.05 20.81c3.36 1.94 2.27 7.04-1.58 7.44l-41.39 4.35a4.02 4.02 0 0 0-3.5 3.15l-8.65 40.71c-.81 3.79-5.99 4.33-7.57.8l-16.93-38.02a4 4 0 0 0-4.07-2.35l-41.4 4.35c-3.85.4-5.97-4.36-3.09-6.95l30.93-27.85a4.01 4.01 0 0 0 .98-4.6l-16.93-38.02c-1.58-3.54 2.3-7.03 5.65-5.09l36.05 20.81a4 4 0 0 0 4.68-.49l30.93-27.85Z" class="st1"/></g></svg>