<svg xmlns="http://www.w3.org/2000/svg" id="Layer_1" viewBox="0 0 500 500"><defs><style>.st1{fill:#fff}.st2{fill:#ffa700}</style></defs><path d="M404 249c0 94.99-64.92 172-145 172s-145-77.01-145-172z" style="fill:#8ab61e"/><path d="M166.5 244c36.73 0 66.5-29.77 66.5-66.5S203.23 111 166.5 111 100 140.77 100 177.5s29.77 66.5 66.5 66.5" class="st2"/><path d="M258.5 244c36.73 0 66.5-29.77 66.5-66.5S295.23 111 258.5 111 192 140.77 192 177.5s29.77 66.5 66.5 66.5" class="st2"/><path d="M350.5 244c36.73 0 66.5-29.77 66.5-66.5S387.23 111 350.5 111 284 140.77 284 177.5s29.77 66.5 66.5 66.5" class="st2"/><g class="eyes"><path d="M191.79 297.69c2.44-2.61 3.93-6.14 3.93-10 0-8.11-6.57-14.69-14.68-14.69s-14.68 6.58-14.68 14.69c0 3.86 1.49 7.39 3.93 10h-13.34c0-15.41 12.49-27.9 27.9-27.9s27.9 12.49 27.9 27.9z" class="st1"/><path d="M195.72 287.69c0 3.86-1.49 7.39-3.93 10h-21.5a14.6 14.6 0 0 1-3.93-10c0-8.11 6.57-14.69 14.68-14.69s14.68 6.58 14.68 14.69"/><path d="M308.79 298c2.44-2.61 3.93-6.14 3.93-10 0-8.11-6.57-14.69-14.68-14.69s-14.68 6.58-14.68 14.69c0 3.86 1.49 7.39 3.93 10h-13.34c0-15.41 12.49-27.9 27.9-27.9s27.9 12.49 27.9 27.9z" class="st1"/><path d="M312.72 288c0 3.86-1.49 7.39-3.93 10h-21.5a14.6 14.6 0 0 1-3.93-10c0-8.11 6.57-14.69 14.68-14.69s14.68 6.58 14.68 14.69"/></g></svg>