<svg xmlns="http://www.w3.org/2000/svg" width="500" height="500" fill="none" viewBox="0 0 500 500"><path fill="#8ab61e" d="M404 249c0 94.99-64.92 172-145 172s-145-77.01-145-172z"/><path fill="#ffa700" d="M166.5 244c36.727 0 66.5-29.773 66.5-66.5S203.227 111 166.5 111 100 140.773 100 177.5s29.773 66.5 66.5 66.5"/><path fill="#ffa700" d="M258.5 228c36.727 0 66.5-29.773 66.5-66.5S295.227 95 258.5 95 192 124.773 192 161.5s29.773 66.5 66.5 66.5"/><path fill="#ffa700" d="M356.5 214c36.727 0 66.5-29.773 66.5-66.5S393.227 81 356.5 81 290 110.773 290 147.5s29.773 66.5 66.5 66.5"/><path fill="#000" stroke="#000" stroke-miterlimit="10" stroke-width="10" d="M220 300.46c0 30.68-24.842 55.54-55.5 55.54S109 331.14 109 300.46 133.842 259 164.5 259s55.5 10.78 55.5 41.46ZM357 300.46c0 30.68-24.842 55.54-55.5 55.54S246 331.14 246 300.46 270.842 259 301.5 259s55.5 10.78 55.5 41.46Z"/><path stroke="#000" stroke-miterlimit="10" stroke-width="10" d="M198 300c21.339-14.536 42.661-14.666 64-.387"/></svg>