<?xml version="1.0" encoding="UTF-8"?><svg id="fred-boom_svg__Layer_1" xmlns="http://www.w3.org/2000/svg" version="1.1" viewBox="0 0 500 578"><!--Generator: Adobe Illustrator 29.8.3, SVG Export Plug-In . SVG Version: 2.1.1 Build 3)--><defs><style>.fred-boom_svg__st0{fill:#901065}.fred-boom_svg__st1{fill:#fff}.fred-boom_svg__st2{fill:#4c4c4c}.fred-boom_svg__st3{fill:#ffc628}.fred-boom_svg__st4{fill:#0083d7}.fred-boom_svg__st5{fill:#00316a}.fred-boom_svg__st6{stroke:#fff;stroke-miterlimit:10}</style></defs><path class="fred-boom_svg__st5" d="M353.41,369.41c-6.7,9.45,39.74,32.91,49.64,36.76,9.9,3.85,21.67,1.47,31.65-10.1,9.99-11.58-15.84-33.56-15.84-33.56,0,0,43.19,17.37,45-11,1.82-28.36-106.38-100.02-106.38-100.02,0,0,2.62,108.47-4.07,117.92h0Z"/><path class="fred-boom_svg__st3" d="M105.4,100.9l5.94,18.28h19.23l-15.56,11.3,5.94,18.28-15.56-11.3-15.56,11.3,5.94-18.28-15.56-11.3h19.23l5.94-18.28h.02Z"/><path class="fred-boom_svg__st3" d="M111.16,143.47l9.3,28.63h30.1l-24.35,17.69,9.3,28.63-24.35-17.69-24.35,17.69,9.3-28.63-24.35-17.69h30.1l9.3-28.63ZM292.96,112.41l9.3,28.63h30.09l-24.35,17.69,9.3,28.63-24.35-17.69-24.35,17.69,9.3-28.63-24.35-17.69h30.1l9.3-28.63h.01Z"/><path class="fred-boom_svg__st2" d="M123.02,111.23c-.51-2.75-.77-5.58-.77-8.47,0-25.81,20.98-46.74,46.84-46.74,11.92,0,22.81,4.44,31.08,11.76,4.92-1.76,10.24-2.72,15.78-2.72,8.77,0,16.96,2.4,23.98,6.58,8.58-9.58,21.07-15.63,34.96-15.63,25.88,0,46.84,20.93,46.84,46.74,0,16.59-8.66,31.16-21.72,39.46.37,2.37.56,4.81.56,7.28,0,25.81-20.98,46.74-46.84,46.74-5.29,0-10.37-.87-15.11-2.49v37.17h-80.1v-33.18c-5.17,1.96-10.77,3.03-16.63,3.03-25.88,0-46.84-20.93-46.84-46.74,0-19.11,11.49-35.54,27.97-42.79"/><path class="fred-boom_svg__st4" d="M388.3,311.66c5.82,28.72,5.44,50.17-1.25,76.18-19.56,75.94,39.27,120.25-48.33,171.44-61.35,35.85-143.7-49.33-175.17-68.28-39.72-23.92-70.37-65.76-80.84-117.36-9.16-45.2-1.15-89.52,19.3-125.03,21.39-37.17,63.55-11.39,106.7-20.14,52.22-10.6,96.98-44.53,133.42-6.33,22.46,23.54,39.04,54.24,46.19,89.51"/><g class="eyes"><path class="fred-boom_svg__st1" d="M154.77,319.29c17.73,0,32.1-14.37,32.1-32.1s-14.37-32.1-32.1-32.1-32.1,14.37-32.1,32.1,14.37,32.1,32.1,32.1"/><path class="fred-boom_svg__st6" d="M157.39,312.45c9.33,0,16.89-7.56,16.89-16.89s-7.56-16.89-16.89-16.89-16.89,7.56-16.89,16.89,7.56,16.89,16.89,16.89Z"/></g><gclass="eyes"><path class="fred-boom_svg__st1" d="M256.02,311.24c17.73,0,32.1-14.37,32.1-32.1s-14.37-32.1-32.1-32.1-32.1,14.37-32.1,32.1,14.37,32.1,32.1,32.1"/><path class="fred-boom_svg__st6" d="M255.54,304.4c9.33,0,16.89-7.56,16.89-16.89s-7.56-16.89-16.89-16.89-16.89,7.56-16.89,16.89,7.56,16.89,16.89,16.89h0Z"/></g><circle class="fred-boom_svg__st5" cx="216.44" cy="344.26" r="22.44"/><path class="fred-boom_svg__st3" d="M263.04,153.83l9.3,28.63h30.1l-24.35,17.69,9.3,28.63-24.35-17.69-24.35,17.69,9.3-28.63-24.35-17.69h30.1l9.3-28.63ZM317.12,83.64l5.42,16.7h17.56l-14.2,10.32,5.42,16.7-14.2-10.32-14.2,10.32,5.42-16.7-14.2-10.32h17.56l5.42-16.7Z"/><path class="fred-boom_svg__st0" d="M144.53,10l5.94,18.28h19.23l-15.56,11.3,5.94,18.28-15.56-11.3-15.56,11.3,5.94-18.28-15.56-11.3h19.23l5.94-18.28h.02ZM168.11,143.47l2.97,9.15h9.61l-7.78,5.65,2.97,9.15-7.78-5.65-7.78,5.65,2.97-9.15-7.78-5.65h9.61l2.97-9.15h.02ZM314.82,30.71l5.94,18.28h19.23l-15.56,11.3,5.94,18.28-15.56-11.3-15.56,11.3,5.94-18.28-15.56-11.3h19.23l5.94-18.28h.02Z"/></svg>