<?xml version="1.0" encoding="UTF-8"?><svg id="fred-heart-eyes_svg__Layer_1" xmlns="http://www.w3.org/2000/svg" version="1.1" viewBox="0 0 500 500"><!--Generator: Adobe Illustrator 29.8.3, SVG Export Plug-In . SVG Version: 2.1.1 Build 3)--><defs><style>.fred-heart-eyes_svg__st0{fill:#901065}.fred-heart-eyes_svg__st1{fill:#0083d7}.fred-heart-eyes_svg__st2{fill:#00316a}</style></defs><path class="fred-heart-eyes_svg__st2" d="M314.44,115.3c10.82,5.4,27.61-46.32,30-57.15s-1.95-22.61-15.51-31.07c-13.55-8.46-32.12,21.74-32.12,21.74,0,0,11.01-47.39-18.57-44.71-29.58,2.68-86.24,125.88-86.24,125.88,0,0,111.6-20.09,122.42-14.69h.01Z"/><path class="fred-heart-eyes_svg__st1" d="M444.1,225.8c6.08,30.01,5.69,52.42-1.31,79.61-20.44,79.36,41.04,125.66-50.5,179.16-64.11,37.47-150.17-51.55-183.05-71.35-41.51-25-73.54-68.72-84.48-122.65-19.6-96.65,36-189.5,124.18-207.38,88.18-17.89,175.56,45.96,195.16,142.61"/><path class="fred-heart-eyes_svg__st2" d="M195.09,296.51l32.67,11.82c7.36,2.67,14.97-3.26,14.2-11.05l-2.93-29.77c-.77-7.79-9.39-12.11-16.09-8.07l-29.75,17.95c-7.67,4.63-6.54,16.06,1.88,19.12h.02Z"/><path class="fred-heart-eyes_svg__st0" d="M215.43,234.85c19.06-11,40.34-71.94,17.68-111.2-11.6-20.09-36.44-27.45-55.5-16.46-11.68,6.73-18.46,18.81-19.31,31.77-10.81-4.1-23.01-3.61-33.49,2.44-19.06,11-25.09,36.2-13.5,56.3,23.35,40.44,83.74,48.93,102.78,37.92l1.32-.77h.02Z"/><path  class="fred-heart-eyes_svg__st0 throb" d="M216.01,235.34c19.06-11,40.34-71.94,17.68-111.2-11.6-20.09-36.44-27.45-55.5-16.46-11.68,6.73-18.46,18.81-19.3,31.77-10.81-4.1-23.01-3.61-33.49,2.44-19.06,11-25.09,36.2-13.5,56.3,23.35,40.44,83.74,48.93,102.78,37.92l1.32-.77h.01ZM303.99,228.47c19.05,11,82.47-1.03,105.14-40.29,11.6-20.09,5.56-45.29-13.5-56.3-11.68-6.75-25.52-6.59-37.17-.83-1.85-11.41-8.39-21.74-18.85-27.78-19.06-11-43.9-3.63-55.5,16.45-23.35,40.44-.51,96.97,18.55,107.98l1.32.77h.01Z"/></svg>