<svg xmlns="http://www.w3.org/2000/svg" width="500" height="500" fill="none" viewBox="0 0 500 500"><path fill="#00316a" d="M316.082 162.397c1.756 9.906 44.62-4.504 53.043-8.268s14.133-12.503 13.071-25.751c-1.063-13.248-30.429-10.686-30.429-10.686s37.111-16.117 20.669-34.554-126.808 4.748-126.808 4.748 68.703 64.596 70.459 74.502z"/><path fill="#0083d7" d="M343.09 188.79c5.06 24.96 4.73 43.6-1.09 66.21-17 66 34.13 104.51-42 149-53.32 31.16-124.89-42.87-152.24-59.34-34.52-20.79-61.16-57.15-70.26-102-16.3-80.38 29.94-157.6 103.28-172.47 73.34-14.88 146.01 38.22 162.31 118.6"/><path fill="#fff" d="M130.4 193.3c15.409 0 27.9-12.491 27.9-27.9s-12.491-27.9-27.9-27.9-27.9 12.491-27.9 27.9 12.491 27.9 27.9 27.9M214.1 193.3c15.409 0 27.9-12.491 27.9-27.9s-12.491-27.9-27.9-27.9-27.9 12.491-27.9 27.9 12.491 27.9 27.9 27.9"/><path fill="#00316a" d="m127.593 227.31 32.453 23.886c7.306 5.384 17.721 1.298 19.427-7.617l6.529-34.072c1.705-8.915-6.462-16.56-15.239-14.264l-38.981 10.188c-10.047 2.621-12.557 15.715-4.201 21.872z"/><path fill="#000" d="M148.853 162.775c2.523 1.564 2.523 5.235 0 6.799l-23.657 14.668a4 4 0 0 1-5.507-1.292l-1.581-2.55a4 4 0 0 1 1.292-5.508l8.577-5.318c2.523-1.564 2.523-5.235 0-6.799l-8.577-5.318a4 4 0 0 1-1.292-5.507l1.581-2.55a4 4 0 0 1 5.507-1.292zM196.289 167.812c-2.444-1.684-2.266-5.351.33-6.791l24.339-13.504a4 4 0 0 1 5.438 1.557l1.456 2.624a4 4 0 0 1-1.557 5.438l-8.825 4.896c-2.595 1.441-2.773 5.107-.329 6.792l8.309 5.727a4 4 0 0 1 1.024 5.563l-1.703 2.471a4 4 0 0 1-5.564 1.024z"/><path fill="#00316a" d="m146.699 263.845 26.245-11.609c5.913-2.611 7.073-10.494 2.166-14.703l-18.751-16.09c-4.907-4.208-12.522-1.865-14.208 4.373l-7.495 27.699c-1.934 7.138 5.272 13.322 12.034 10.335z"/></svg>