<?xml version="1.0" encoding="UTF-8"?><svg id="fred-cackling_svg__Layer_1" xmlns="http://www.w3.org/2000/svg" version="1.1" viewBox="0 0 500 500"><!--Generator: Adobe Illustrator 29.8.3, SVG Export Plug-In . SVG Version: 2.1.1 Build 3)--><defs><style>.fred-cackling_svg__st0{fill:#fff}.fred-cackling_svg__st1{fill:#0083d7}.fred-cackling_svg__st2{fill:#00316a}</style></defs><path class="fred-cackling_svg__st2" d="M360.99,140.69c2.48,13.97,62.91-6.35,74.79-11.66,11.88-5.31,19.93-17.63,18.43-36.31-1.5-18.68-42.9-15.07-42.9-15.07,0,0,52.32-22.72,29.14-48.72-23.18-25.99-178.79,6.69-178.79,6.69,0,0,96.86,91.07,99.34,105.04h0Z"/><path class="fred-cackling_svg__st1" d="M399.07,177.9c7.13,35.19,6.67,61.47-1.54,93.35-23.97,93.05,48.12,147.35-59.22,210.08-75.18,43.93-176.08-60.44-214.64-83.66-48.67-29.31-86.23-80.58-99.06-143.81C1.63,140.52,66.82,31.65,170.22,10.68c103.4-20.98,205.86,53.89,228.84,167.21"/><path class="fred-cackling_svg__st0" d="M99.19,184.26c21.73,0,39.34-17.61,39.34-39.34s-17.61-39.34-39.34-39.34-39.34,17.61-39.34,39.34,17.61,39.34,39.34,39.34M217.2,184.26c21.73,0,39.34-17.61,39.34-39.34s-17.61-39.34-39.34-39.34-39.34,17.61-39.34,39.34,17.61,39.34,39.34,39.34"/><path class="fred-cackling_svg__st2" d="M95.24,232.21l45.76,33.68c10.3,7.59,24.98,1.83,27.39-10.74l9.21-48.04c2.4-12.57-9.11-23.35-21.49-20.11l-54.96,14.36c-14.17,3.7-17.7,22.16-5.92,30.84h.02Z"/><path d="M125.21,141.22c3.56,2.21,3.56,7.38,0,9.59l-33.35,20.68c-2.65,1.64-6.12.83-7.76-1.82l-2.23-3.6c-1.64-2.65-.83-6.12,1.82-7.77,0,0,0,0,0,0l12.09-7.5c3.56-2.21,3.56-7.38,0-9.59l-12.09-7.5c-2.65-1.64-3.46-5.12-1.82-7.76l2.23-3.6c1.64-2.65,5.12-3.46,7.76-1.82l33.35,20.68ZM192.09,148.32c-3.45-2.37-3.19-7.54.47-9.57l34.32-19.04c2.72-1.51,6.16-.53,7.67,2.2l2.05,3.7c1.51,2.72.53,6.16-2.2,7.67l-12.44,6.9c-3.66,2.03-3.91,7.2-.46,9.58l11.71,8.07c2.56,1.77,3.21,5.28,1.44,7.84l-2.4,3.48c-1.77,2.56-5.28,3.21-7.84,1.44,0,0,0,0,0,0l-32.31-22.27Z"/><path class="fred-cackling_svg__st2" d="M122.17,283.72l37-16.37c8.34-3.68,9.97-14.8,3.05-20.73l-26.44-22.69c-6.92-5.93-17.65-2.63-20.03,6.17l-10.57,39.05c-2.73,10.06,7.43,18.78,16.97,14.57h.01Z"/></svg>