<svg xmlns="http://www.w3.org/2000/svg" id="Layer_1" viewBox="0 0 524 556"><defs><style>.st3{fill:#fff}.st4{fill:#ffc628}.st6{fill:#00316a}.st7{fill:#bfe6ff}.st8{fill:#ffa9e2;fill-rule:evenodd}</style></defs><path d="M382.79 251.27c.05 10.06 44.74 3.11 53.68.82s16.05-9.93 17.24-23.17-28.18-15.68-28.18-15.68 39.3-9.61 26.21-30.56-125.78-16.76-125.78-16.76 56.79 75.28 56.85 85.34Z" class="st6"/><path d="M408.09 244.79c5.06 24.96 4.73 43.6-1.09 66.21-17 66 34.13 104.51-42 149-53.32 31.16-124.89-42.87-152.24-59.34-34.52-20.79-61.16-57.15-70.26-102-16.3-80.38 29.94-157.6 103.28-172.47 73.34-14.88 146.01 38.22 162.31 118.6" style="fill:#0083d7"/><path d="M195.4 249.3c15.41 0 27.9-12.49 27.9-27.9s-12.49-27.9-27.9-27.9-27.9 12.49-27.9 27.9 12.49 27.9 27.9 27.9M279.1 249.3c15.41 0 27.9-12.49 27.9-27.9s-12.49-27.9-27.9-27.9-27.9 12.49-27.9 27.9 12.49 27.9 27.9 27.9" class="st3"/><path d="M194.4 212c5.44-.07 10.2 2.73 14.73 6.88 2.24 2.05 2.07 5.57-.15 7.63-2.23 2.06-5.67 1.87-7.96-.12-3.17-2.76-5.13-3.4-6.47-3.38-1.42.02-3.42.77-6.63 3.52-2.31 1.97-5.75 2.1-7.94 0s-2.29-5.62-.02-7.65c4.45-3.97 9.13-6.79 14.45-6.86ZM278.39 212c5.44-.07 10.2 2.73 14.73 6.88 2.24 2.05 2.08 5.57-.15 7.63s-5.67 1.87-7.96-.12c-3.17-2.76-5.13-3.4-6.47-3.38-1.42.02-3.42.77-6.63 3.52-2.31 1.97-5.75 2.1-7.94 0s-2.29-5.62-.02-7.65c4.45-3.97 9.14-6.79 14.45-6.86Z"/><path d="M83.14 271.56a52.001 52.001 0 0 1 55.63-5.42 51.9 51.9 0 0 1 17.27 14.16c2.39 3.04 1.25 7.36-2.08 9.33l-1.72 1.02c-3.33 1.96-7.58.8-10.15-2.09a35.9 35.9 0 0 0-10.57-8.15 36 36 0 0 0-19.81-3.74c-6.82.67-13.31 3.27-18.71 7.49-5.4 4.23-9.47 9.91-11.75 16.38a36.01 36.01 0 0 0 8.77 37.69 35.97 35.97 0 0 0 17.78 9.5 36 36 0 0 0 19.87-1.46l85.32-39.07c3.51-1.61 7.67-.06 9.28 3.45l.83 1.82c1.61 3.52.07 7.67-3.45 9.28l-85.6 39.2-.25.11-.26.1a52.1 52.1 0 0 1-29.03 2.23c-9.69-2.04-18.6-6.8-25.68-13.72a52 52 0 0 1-14.28-25.37 51.97 51.97 0 0 1 1.6-29.07 51.97 51.97 0 0 1 16.97-23.65Z" class="st7"/><path d="M210.5 301.23c-4.09 4.61-1.41 11.75 4.38 12.79-3.36 4.89-.1 11.85 6.09 12.12s25.35 1.14 25.35 1.14c5.71.25 9.73-5.54 7.5-10.8l-5-12c-.09-.35.15.34 0 0l-8.52-20.12c-2.23-5.26-9.18-6.4-12.97-2.13z" class="st6"/><path d="M345.27 17.43c2.44-2.84 7.1-1.08 7.04 2.67l-2.15 134.68c-.04 2.16-1.79 3.91-3.95 3.91-38.49-.02-58.78-8.19-88.17-33.46-1.66-1.43-1.83-3.93-.41-5.59l87.64-102.2Z" class="st4"/><path d="M345.27 17.43c2.44-2.84 7.1-1.08 7.04 2.67l-2.15 134.68c-.04 2.16-1.79 3.91-3.95 3.91-38.49-.02-58.78-8.19-88.17-33.46-1.66-1.43-1.83-3.93-.41-5.59l87.64-102.2Z" class="st4"/><path d="M347.73 60.35c2.18 0 3.96-1.75 4-3.94l.58-36.32c.06-3.74-4.6-5.51-7.04-2.67l-31.14 36.32c-2.22 2.59-.38 6.6 3.04 6.6h30.56Zm3.08 53.41a4.006 4.006 0 0 0-4-4.06h-78.82c-1.17 0-2.28.51-3.04 1.4l-7.32 8.54a3.96 3.96 0 0 0 .41 5.59c29.39 25.28 49.68 33.44 88.17 33.46 2.16 0 3.91-1.75 3.95-3.91l.65-41.01Z" class="st8"/><path d="M347.73 60.35c2.18 0 3.96-1.75 4-3.94l.58-36.32c.06-3.74-4.6-5.51-7.04-2.67l-31.14 36.32c-2.22 2.59-.38 6.6 3.04 6.6h30.56Zm3.08 53.41a4.006 4.006 0 0 0-4-4.06h-78.82c-1.17 0-2.28.51-3.04 1.4l-7.32 8.54a3.96 3.96 0 0 0 .41 5.59c29.39 25.28 49.68 33.44 88.17 33.46 2.16 0 3.91-1.75 3.95-3.91l.65-41.01Z" class="st8"/><path d="M135 122h8c5.52 0 10 4.48 10 10s-4.48 10-10 10h-8c-5.52 0-10-4.48-10-10s4.48-10 10-10" style="fill:#b6d95f"/><path d="m237.54 162.34 6.93-4c4.78-2.76 10.9-1.12 13.66 3.66s1.12 10.9-3.66 13.66l-6.93 4c-4.78 2.76-10.9 1.12-13.66-3.66s-1.12-10.9 3.66-13.66" style="fill:#dd70b8"/><path d="m374.89 253.92 7.2 3.49c4.97 2.41 7.04 8.39 4.63 13.36s-8.39 7.04-13.36 4.63l-7.2-3.49c-4.97-2.41-7.04-8.39-4.63-13.36s8.39-7.04 13.36-4.63" class="st7"/><path d="m124.47 205.85 4.86 6.35c3.36 4.39 2.52 10.66-1.86 14.02-4.39 3.36-10.66 2.52-14.02-1.86l-4.86-6.35c-3.36-4.39-2.52-10.66 1.86-14.02 4.39-3.36 10.66-2.52 14.02 1.86" style="fill:#901065"/></svg>