<?xml version="1.0" encoding="UTF-8"?><svg id="fred-laughing_svg__Layer_1" xmlns="http://www.w3.org/2000/svg" version="1.1" viewBox="0 0 500 500"><!--Generator: Adobe Illustrator 29.8.3, SVG Export Plug-In . SVG Version: 2.1.1 Build 3)--><defs><style>.fred-laughing_svg__st0{fill:#fff}.fred-laughing_svg__st1{fill:#0083d7}.fred-laughing_svg__st2{fill:#00316a}</style></defs><path class="fred-laughing_svg__st2" d="M378.05,121.75c10.24,6.43,31.99-43.37,35.44-53.92,3.45-10.54.28-22.68-12.38-32.43s-34.07,18.47-34.07,18.47c0,0,15.6-46.06-14.1-46.3-29.69-.24-98.11,116.77-98.11,116.77,0,0,112.97-9.06,123.21-2.62h0Z"/><path class="fred-laughing_svg__st1" d="M456.36,224.66c6.08,30,5.68,52.4-1.31,79.57-20.43,79.32,41.02,125.61-50.48,179.08-64.08,37.45-150.1-51.52-182.97-71.32-41.49-24.99-73.51-68.69-84.44-122.59-19.59-96.61,35.98-189.41,124.13-207.28,88.14-17.88,175.48,45.93,195.07,142.54"/><path class="fred-laughing_svg__st0" d="M200.74,230.08c18.52,0,33.53-15.01,33.53-33.53s-15.01-33.53-33.53-33.53-33.53,15.01-33.53,33.53,15.01,33.53,33.53,33.53M301.33,230.08c18.52,0,33.53-15.01,33.53-33.53s-15.01-33.53-33.53-33.53-33.53,15.01-33.53,33.53,15.01,33.53,33.53,33.53"/><path class="fred-laughing_svg__st2" d="M197.36,270.96l39,28.71c8.79,6.47,21.3,1.56,23.35-9.16l7.85-40.95c2.06-10.72-7.76-19.9-18.32-17.14l-46.85,12.25c-12.08,3.15-15.1,18.88-5.05,26.28h.01Z"/><path d="M199.54,185.26c6.54-.08,12.26,3.28,17.7,8.27,2.69,2.46,2.49,6.69-.18,9.17-2.68,2.48-6.81,2.25-9.57-.14-3.81-3.32-6.17-4.09-7.78-4.06-1.71.02-4.11.93-7.97,4.23-2.78,2.37-6.91,2.52-9.54,0s-2.75-6.75-.02-9.19c5.35-4.77,10.98-8.16,17.37-8.24v-.02ZM300.49,185.26c6.54-.08,12.26,3.28,17.7,8.27,2.69,2.46,2.49,6.69-.18,9.17-2.68,2.48-6.81,2.25-9.57-.14-3.81-3.32-6.17-4.09-7.78-4.06-1.71.02-4.11.93-7.97,4.23-2.78,2.37-6.91,2.52-9.54,0s-2.75-6.75-.02-9.19c5.35-4.77,10.97-8.16,17.37-8.24v-.02Z"/></svg>