<?xml version="1.0" encoding="UTF-8"?><svg id="fred-hmmm_svg__Layer_1" xmlns="http://www.w3.org/2000/svg" version="1.1" viewBox="0 0 500 500"><!--Generator: Adobe Illustrator 29.8.3, SVG Export Plug-In . SVG Version: 2.1.1 Build 3)--><defs><style>.fred-hmmm_svg__st0{fill:#fff}.fred-hmmm_svg__st1{fill-rule:evenodd}.fred-hmmm_svg__st1,.fred-hmmm_svg__st2{fill:#00316a}.fred-hmmm_svg__st3{fill:#0083d7}.fred-hmmm_svg__st4{stroke:#fff;stroke-miterlimit:10}</style></defs><path class="fred-hmmm_svg__st3" d="M469.13,175.61c7.25,35.78,6.78,62.51-1.56,94.92-24.37,94.62,48.93,149.83-60.21,213.61-66.42,38.82-152.6-36.23-199.76-72.05-7.13-5.4-13.35-9.92-18.49-13.02-30.91-18.62-57.42-45.93-76.14-79.49-11.25-20.17-19.7-42.59-24.59-66.74C65.01,137.61,131.3,26.9,236.44,5.58c105.14-21.33,209.32,54.79,232.69,170.03"/><g class="eyes"><path class="fred-hmmm_svg__st0" d="M192.17,154.12c22.09,0,40-17.91,40-40s-17.91-40-40-40-40,17.91-40,40,17.91,40,40,40"/><path class="fred-hmmm_svg__st4" d="M178.95,124.82c11.63,0,21.05-9.42,21.05-21.05s-9.42-21.05-21.05-21.05-21.05,9.42-21.05,21.05,9.42,21.05,21.05,21.05h0Z"/><path class="fred-hmmm_svg__st0" d="M302.07,159.11c21.68,4.23,42.68-9.92,46.92-31.6,4.23-21.68-9.92-42.69-31.6-46.92-21.68-4.23-42.69,9.92-46.92,31.6s9.92,42.68,31.6,46.92"/><path class="fred-hmmm_svg__st4" d="M295.07,129.12c11.63,0,21.05-9.42,21.05-21.05s-9.42-21.05-21.05-21.05-21.05,9.42-21.05,21.05,9.42,21.05,21.05,21.05h0Z"/></g><path class="fred-hmmm_svg__st2" d="M184.53,222.91l24.95,33.06c5.62,7.44,17.09,6.48,21.38-1.79l16.46-31.64c4.3-8.27-1.49-18.21-10.81-18.54l-41.4-1.42c-10.67-.36-16.99,11.8-10.55,20.31h-.01Z"/><path d="M289.8,69.11c-1.42-4.11.76-8.64,4.96-9.79,10.05-2.75,19.17-3.67,28.8-2.81,9.71.87,19.61,3.56,31.1,7.54,4.11,1.43,6.19,5.98,4.67,10.06-1.51,4.09-6.05,6.15-10.16,4.73-10.78-3.74-19.2-5.92-27.02-6.64-7.18-.65-14.14-.07-22.24,2.05-4.21,1.1-8.69-1.03-10.11-5.16h0ZM159.34,34.7c-1.16-4.2,1.29-8.59,5.56-9.45,8.13-1.65,15.27-2.04,21.75-1.32,8.52.93,15.48,3.71,21.66,7.4,6.01,3.58,11.41,8.1,16.52,12.3,3.3,2.71,6.59,5.38,10.14,7.91s4.76,7.37,2.52,11.1c-2.25,3.73-7.1,4.96-10.67,2.45-4.47-3.14-8.4-6.34-11.99-9.28-5.39-4.43-9.81-8.1-14.58-10.94-4.6-2.74-9.4-4.63-15.31-5.28-4.34-.47-9.49-.3-15.81.89-4.29.8-8.62-1.61-9.78-5.79h-.01Z"/><path class="fred-hmmm_svg__st1" d="M207.59,412.09c21.72-40.63,50.08-100.78,38.34-118.78-18.25-27.97-56.08,12.42-56.08,12.42,0,0,15.98-35.97-1.71-42.54-17.69-6.57-32.08-2.81-40.8,6.31-6.26,6.54-27.55,33.23-34.36,50.06,18.72,33.56,45.23,60.89,76.14,79.49,5.15,3.1,11.37,7.61,18.49,13.02h-.01Z"/></svg>