<svg xmlns="http://www.w3.org/2000/svg" id="Layer_1" viewBox="0 0 500 500"><defs><style>.st0{fill:#fff}.st2{fill:#00316a}.st3{stroke:#fff;stroke-miterlimit:10}</style></defs><path d="M295 135.5c4.5 9 41.5-17 48.5-23s10-16 5.21-28.4-32.21-1.6-32.21-1.6 31-26 10-39-120.23 40.6-120.23 40.6 84.23 42.4 88.73 51.4" class="st2"/><path d="M333.09 198.79c5.06 24.96 4.73 43.6-1.09 66.21-17 66 34.13 104.51-42 149-53.32 31.16-124.89-42.87-152.24-59.34-34.52-20.79-61.16-57.15-70.26-102-16.3-80.38 29.94-157.6 103.28-172.47 73.34-14.88 146.01 38.22 162.31 118.6" style="fill:#0083d7"/><path d="M214.1 193.3c15.41 0 27.9-12.49 27.9-27.9s-12.49-27.9-27.9-27.9-27.9 12.49-27.9 27.9 12.49 27.9 27.9 27.9" class="st0"/><g class="eyes"><path d="M132.1 195c16.35 0 29.6-13.25 29.6-29.6s-13.25-29.6-29.6-29.6-29.6 13.25-29.6 29.6 13.25 29.6 29.6 29.6" class="st0"/><path d="M134.52 189.76c8.6 0 15.58-6.97 15.58-15.58s-6.97-15.58-15.58-15.58-15.58 6.97-15.58 15.58 6.97 15.58 15.58 15.58ZM221.53 189.76c8.6 0 15.58-6.97 15.58-15.58s-6.97-15.58-15.58-15.58-15.58 6.97-15.58 15.58 6.97 15.58 15.58 15.58Z" class="st3"/></g><path d="m151.34 258.95 25.13-14.24c5.66-3.21 6.04-11.22.7-14.95l-20.39-14.26c-5.33-3.73-12.73-.62-13.8 5.79l-4.75 28.5c-1.22 7.34 6.61 12.83 13.09 9.15h.01Z" class="st2"/><path d="M237.08 122.74c.26 3.03-1.99 5.71-5.03 5.77-7.26.15-13.59-.79-19.95-3.02-6.42-2.25-12.66-5.75-19.74-10.41-2.54-1.67-3.17-5.1-1.45-7.61 1.72-2.5 5.14-3.13 7.68-1.46 6.66 4.37 11.97 7.28 17.15 9.1 4.74 1.67 9.55 2.46 15.39 2.41 3.04-.03 5.7 2.19 5.96 5.21ZM110.86 120.74c-.26 3.03 1.99 5.71 5.03 5.77 7.26.14 13.59-.79 19.95-3.02 6.42-2.25 12.66-5.75 19.74-10.41 2.54-1.67 3.17-5.1 1.45-7.61-1.72-2.5-5.14-3.13-7.68-1.46-6.66 4.37-11.97 7.28-17.15 9.1-4.74 1.67-9.55 2.46-15.39 2.41-3.04-.03-5.7 2.19-5.96 5.21Z"/></svg>