<svg xmlns="http://www.w3.org/2000/svg" id="Layer_1" viewBox="0 0 500 500"><defs><style>.st1{fill:#fff}.st3{fill:#00316a}.st4{stroke:#fff;stroke-miterlimit:10}</style></defs><path d="M275.53 107.9c6.33 7.82 36.87-25.53 42.42-32.9s6.32-17.78-1.02-28.86-31.8 5.37-31.8 5.37 24.68-32.06 1.37-40.24-108.68 65.51-108.68 65.51 91.38 23.29 97.71 31.11Z" class="st3"/><path d="M343.09 188.79c5.06 24.96 4.73 43.6-1.09 66.21-17 66 34.13 104.51-42 149-53.32 31.16-124.89-42.87-152.24-59.34-34.52-20.79-61.16-57.15-70.26-102-16.3-80.38 29.94-157.6 103.28-172.47 73.34-14.88 146.01 38.22 162.31 118.6" style="fill:#0083d7"/><g class="eyes"><path d="M130.4 193.3c15.41 0 27.9-12.49 27.9-27.9s-12.49-27.9-27.9-27.9-27.9 12.49-27.9 27.9 12.49 27.9 27.9 27.9" class="st1"/><path d="M140.68 188.36c8.11 0 14.68-6.57 14.68-14.68S148.79 159 140.68 159 126 165.57 126 173.68s6.57 14.68 14.68 14.68Z" class="st4"/><path d="M214.1 193.3c15.41 0 27.9-12.49 27.9-27.9s-12.49-27.9-27.9-27.9-27.9 12.49-27.9 27.9 12.49 27.9 27.9 27.9" class="st1"/><path d="M203.68 186.36c8.11 0 14.68-6.57 14.68-14.68S211.79 157 203.68 157 189 163.57 189 171.68s6.57 14.68 14.68 14.68Z" class="st4"/></g><path d="m156.79 270.91 11.23-14.97c2.53-3.37.68-8.22-3.46-9.05l-15.79-3.18c-4.13-.83-7.72 2.93-6.69 7.02l4.57 18.15c1.18 4.68 7.25 5.9 10.14 2.04Z" style="fill:#901065"/><path d="M47.38 217.98a24.7 24.7 0 0 0-3.71 11.41c-.27 4.03.46 8.04 2.15 11.68 1.68 3.64 4.26 6.8 7.5 9.19s7.05 3.95 11.08 4.53 8.17.17 12.05-1.2c3.87-1.37 7.37-3.65 10.17-6.65s4.82-6.61 5.88-10.52 1.14-8.01.21-11.91l-11.15-35.44c-.92-2.94-4.78-3.73-6.88-1.4l-27.3 30.32Z" style="fill:#bfe6ff"/><path d="m139.7 251.74 28.73 3.09c6.47.7 11.45-5.59 9.29-11.73l-8.25-23.47c-2.16-6.14-9.98-7.93-14.59-3.34l-20.48 20.38c-5.28 5.25-2.11 14.27 5.29 15.07Z" class="st3"/><path d="M159.08 123.74c.26 3.03-1.99 5.71-5.03 5.77-7.26.15-13.59-.79-19.95-3.02-6.42-2.25-12.66-5.75-19.74-10.41-2.54-1.67-3.17-5.1-1.45-7.61 1.72-2.5 5.14-3.13 7.68-1.46 6.66 4.37 11.97 7.28 17.15 9.1 4.74 1.67 9.55 2.46 15.39 2.41 3.04-.03 5.7 2.19 5.96 5.21ZM253.08 125.74c.26 3.03-1.99 5.71-5.03 5.77-7.26.15-13.59-.79-19.95-3.02-6.42-2.25-12.66-5.75-19.74-10.41-2.54-1.67-3.17-5.1-1.45-7.61 1.72-2.5 5.14-3.13 7.68-1.46 6.66 4.37 11.97 7.28 17.15 9.1 4.74 1.67 9.55 2.46 15.39 2.41 3.04-.03 5.7 2.19 5.96 5.21Z"/><circle cx="263.5" cy="207.5" r="26.5" style="fill:#ffa9e2"/></svg>