<?xml version="1.0" encoding="UTF-8"?><svg id="fred-eye-roll_svg__Layer_1" xmlns="http://www.w3.org/2000/svg" version="1.1" viewBox="0 0 500 500"><!--Generator: Adobe Illustrator 29.8.3, SVG Export Plug-In . SVG Version: 2.1.1 Build 3)--><defs><style>.fred-eye-roll_svg__st0{fill:#fff}.fred-eye-roll_svg__st1{fill:#0083d7}.fred-eye-roll_svg__st2{fill:#00316a}.fred-eye-roll_svg__st3{stroke:#fff;stroke-miterlimit:10}</style></defs><path class="fred-eye-roll_svg__st2" d="M405.47,127.99c5.72,11.44,52.73-21.6,61.63-29.23s12.71-20.33,6.62-36.09c-6.09-15.76-40.93-2.03-40.93-2.03,0,0,39.39-33.04,12.71-49.56s-152.78,51.59-152.78,51.59c0,0,107.03,53.88,112.75,65.31"/><path class="fred-eye-roll_svg__st1" d="M453.87,208.41c6.43,31.72,6.01,55.4-1.39,84.13-21.6,83.87,43.37,132.8-53.37,189.33-67.75,39.6-158.7-54.48-193.45-75.4-43.86-26.42-77.72-72.62-89.28-129.61-20.71-102.14,38.04-200.26,131.24-219.16,93.19-18.91,185.54,48.57,206.25,150.71"/><g class="eyes"><path class="fred-eye-roll_svg__st0" d="M196.31,201.43c19.58,0,35.45-15.87,35.45-35.45s-15.87-35.45-35.45-35.45-35.45,15.87-35.45,35.45,15.87,35.45,35.45,35.45"/><path class="fred-eye-roll_svg__st3" d="M202.91,171.93c10.31,0,18.65-8.35,18.65-18.65s-8.35-18.65-18.65-18.65-18.65,8.35-18.65,18.65,8.35,18.65,18.65,18.65h0Z"/><path class="fred-eye-roll_svg__st0" d="M302.67,201.43c19.58,0,35.45-15.87,35.45-35.45s-15.87-35.45-35.45-35.45-35.45,15.87-35.45,35.45,15.87,35.45,35.45,35.45"/><path class="fred-eye-roll_svg__st3" d="M310.54,171.93c10.31,0,18.65-8.35,18.65-18.65s-8.35-18.65-18.65-18.65-18.65,8.35-18.65,18.65,8.35,18.65,18.65,18.65h0Z"/></g><path class="fred-eye-roll_svg__st2" d="M219.16,283.42l34.03-13.77c7.66-3.1,9.47-13.14,3.37-18.72l-23.32-21.35c-6.1-5.58-15.93-2.9-18.35,5.01l-10.71,35.12c-2.76,9.05,6.2,17.26,14.97,13.7h.01Z"/></svg>