<?xml version="1.0" encoding="UTF-8"?><svg id="fred-cool_svg__Layer_1" xmlns="http://www.w3.org/2000/svg" version="1.1" viewBox="0 0 500 500"><!--Generator: Adobe Illustrator 29.8.3, SVG Export Plug-In . SVG Version: 2.1.1 Build 3)--><defs><style>.fred-cool_svg__st0{fill:#0083d7}.fred-cool_svg__st1{fill:#00316a}.fred-cool_svg__st2,.fred-cool_svg__st3{stroke:#000;stroke-miterlimit:10;stroke-width:10px}.fred-cool_svg__st3{fill:none}</style></defs><path class="fred-cool_svg__st1" d="M357.08,128.45c.2,14.07,62.59,3.79,75.06.49,12.46-3.3,22.32-14.08,23.81-32.61,1.51-18.53-39.6-21.58-39.6-21.58,0,0,54.84-13.91,36.29-43.06-18.56-29.13-176.1-21.9-176.1-21.9,0,0,80.34,104.57,80.55,118.64h-.01Z"/><path class="fred-cool_svg__st0" d="M446.2,178.47c7.08,34.9,6.61,60.97-1.52,92.59-23.77,92.29,47.73,146.14-58.73,208.36-74.56,43.57-174.64-59.95-212.89-82.98-48.27-29.07-85.52-79.92-98.25-142.63C52.01,141.4,116.67,33.41,219.23,12.62c102.56-20.81,204.18,53.45,226.97,165.85"/><path class="fred-cool_svg__st1" d="M165.25,267.59l63.01,10.54c8.31,1.38,15.54-5.75,14.28-14.07l-6.01-39.39c-1.27-8.32-10.31-12.98-17.82-9.17l-57,28.85c-10.66,5.4-8.24,21.27,3.55,23.24h-.01Z"/><path class="fred-cool_svg__st2" d="M213.94,145.9c0,27.42-22.22,49.64-49.64,49.64s-49.64-22.22-49.64-49.64,22.22-37.06,49.64-37.06,49.64,9.63,49.64,37.06ZM363.57,145.9c0,27.42-22.22,49.64-49.64,49.64s-49.64-22.22-49.64-49.64,22.22-37.06,49.64-37.06,49.64,9.63,49.64,37.06Z"/><path class="fred-cool_svg__st3" d="M213.94,145.2c19.12-12.6,38.22-12.71,57.33-.34"/></svg>