<?xml version="1.0" encoding="UTF-8"?><svg id="fred-exhausted_svg__Layer_1" xmlns="http://www.w3.org/2000/svg" version="1.1" viewBox="0 0 500 500"><!--Generator: Adobe Illustrator 29.8.3, SVG Export Plug-In . SVG Version: 2.1.1 Build 3)--><defs><style>.fred-exhausted_svg__st0{fill:#901065}.fred-exhausted_svg__st1{fill:#fff}.fred-exhausted_svg__st2{fill:#0083d7}.fred-exhausted_svg__st3{fill:#00316a}.fred-exhausted_svg__st4{stroke:#fff;stroke-miterlimit:10}.fred-exhausted_svg__st5{fill:#bfe6ff}.fred-exhausted_svg__st6{fill:#ffa9e2}</style></defs><path class="fred-exhausted_svg__st3" d="M390.79,125.32c7.65,9.45,44.54-30.84,51.25-39.75,6.7-8.9,7.64-21.48-1.23-34.87s-38.42,6.49-38.42,6.49c0,0,29.82-38.73,1.66-48.61-28.16-9.88-131.29,79.14-131.29,79.14,0,0,110.39,28.14,118.04,37.58h0Z"/><path class="fred-exhausted_svg__st2" d="M472.41,223.04c6.11,30.15,5.71,52.67-1.32,79.99-20.54,79.73,41.23,126.26-50.74,180-64.42,37.64-150.88-51.79-183.92-71.69-41.7-25.12-73.89-69.04-84.88-123.22-19.69-97.11,36.17-190.39,124.77-208.36,88.6-17.98,176.39,46.17,196.08,143.28"/><g class="eyes"><path class="fred-exhausted_svg__st1" d="M215.46,228.49c18.62,0,33.71-15.09,33.71-33.71s-15.09-33.71-33.71-33.71-33.71,15.09-33.71,33.71,15.09,33.71,33.71,33.71"/><path class="fred-exhausted_svg__st4" d="M227.88,222.52c9.8,0,17.73-7.94,17.73-17.73s-7.94-17.73-17.73-17.73-17.73,7.94-17.73,17.73,7.94,17.73,17.73,17.73h0Z"/><path class="fred-exhausted_svg__st1" d="M316.58,228.49c18.62,0,33.71-15.09,33.71-33.71s-15.09-33.71-33.71-33.71-33.71,15.09-33.71,33.71,15.09,33.71,33.71,33.71"/><path class="fred-exhausted_svg__st4" d="M303.99,220.11c9.8,0,17.73-7.94,17.73-17.73s-7.94-17.73-17.73-17.73-17.73,7.94-17.73,17.73,7.94,17.73,17.73,17.73h0Z"/></g><path class="fred-exhausted_svg__st0" d="M247.34,322.25l13.57-18.09c3.06-4.07.82-9.93-4.18-10.93l-19.08-3.84c-4.99-1-9.33,3.54-8.08,8.48l5.52,21.93c1.43,5.65,8.76,7.13,12.25,2.46h0Z"/><path class="fred-exhausted_svg__st5" d="M115.16,258.31c-2.6,4.16-4.14,8.89-4.48,13.78-.33,4.87.56,9.71,2.6,14.11,2.03,4.4,5.15,8.21,9.06,11.1s8.52,4.77,13.39,5.47,9.87.21,14.56-1.45c4.68-1.66,8.9-4.41,12.29-8.03s5.82-7.99,7.1-12.71,1.38-9.68.25-14.39l-13.47-42.81c-1.11-3.55-5.77-4.51-8.31-1.69l-32.98,36.63h0Z"/><path class="fred-exhausted_svg__st3" d="M226.69,299.09l34.71,3.73c7.82.85,13.83-6.75,11.22-14.17l-9.97-28.35c-2.61-7.42-12.06-9.58-17.63-4.04l-24.74,24.62c-6.38,6.34-2.55,17.24,6.39,18.21h.01Z"/><path d="M250.11,144.46c.31,3.66-2.4,6.9-6.08,6.97-8.77.18-16.42-.95-24.1-3.65-7.76-2.72-15.29-6.95-23.85-12.58-3.07-2.02-3.83-6.16-1.75-9.19,2.08-3.02,6.21-3.78,9.28-1.76,8.05,5.28,14.46,8.79,20.72,10.99,5.73,2.02,11.54,2.97,18.59,2.91,3.67-.04,6.89,2.65,7.2,6.29h-.01ZM363.67,146.87c.31,3.66-2.4,6.9-6.08,6.97-8.77.18-16.42-.95-24.1-3.65-7.76-2.72-15.29-6.95-23.85-12.58-3.07-2.02-3.83-6.16-1.75-9.19,2.08-3.02,6.21-3.78,9.28-1.76,8.05,5.28,14.46,8.79,20.72,10.99,5.73,2.02,11.54,2.97,18.59,2.91,3.67-.04,6.89,2.65,7.2,6.29h-.01Z"/><circle class="fred-exhausted_svg__st6" cx="376.25" cy="245.65" r="32.01"/></svg>