<svg xmlns="http://www.w3.org/2000/svg" id="Layer_1" viewBox="0 0 500 500"><defs><style>.st0{fill:#fff}.st2{fill:#00316a}.st3,.st4{stroke:#fff;stroke-miterlimit:10}.st4{fill:none;stroke:#000;stroke-width:10px}</style></defs><path d="M275.36 153.02c.14 10.06 44.76 2.71 53.68.35 8.91-2.36 15.96-10.07 17.03-23.32 1.08-13.25-28.32-15.43-28.32-15.43s39.22-9.95 25.95-30.79C330.43 63 217.77 68.17 217.77 68.17s57.45 74.78 57.6 84.84h-.01Z" class="st2"/><path d="M339.09 188.79c5.06 24.96 4.73 43.6-1.09 66.21-17 66 34.13 104.51-42 149-53.32 31.16-124.89-42.87-152.24-59.34-34.52-20.79-61.16-57.15-70.26-102-16.3-80.38 29.94-157.6 103.28-172.47 73.34-14.88 146.01 38.22 162.31 118.6" style="fill:#0083d7"/><rect width="17" height="20" x="172.32" y="224.6" class="st0" rx="4" ry="4" transform="rotate(-3.13 180.942 234.79)"/><path d="m154.78 230.68 45.6-2.78c6.01-.37 9.9-6.5 7.69-12.1l-10.52-26.48c-2.22-5.59-9.27-7.39-13.89-3.53l-35.08 29.26c-6.56 5.47-2.32 16.15 6.21 15.62Z" class="st2"/><path d="M173 165.5c0 19.61-15.89 35.5-35.5 35.5s-33-6-35.5-35.5 14.05-26.54 35.5-26.5c19.61 0 35.5 6.89 35.5 26.5ZM211 165.6c0 19.61 15.89 35.5 35.5 35.5s33-6 35.5-35.5-14.05-26.54-35.5-26.5c-19.61 0-35.5 6.89-35.5 26.5ZM173 165c12-9.25 24-9.33 36-.25" class="st4"/><g class="eyes"><path d="M139.5 191c12.43 0 22.5-10.07 22.5-22.5S151.93 146 139.5 146 117 156.07 117 168.5s10.07 22.5 22.5 22.5M247.5 191c12.43 0 22.5-10.07 22.5-22.5S259.93 146 247.5 146 225 156.07 225 168.5s10.07 22.5 22.5 22.5" class="st0"/><path d="M139 186c9.39 0 17-7.61 17-17s-7.61-17-17-17-17 7.61-17 17 7.61 17 17 17ZM247 186c9.39 0 17-7.61 17-17s-7.61-17-17-17-17 7.61-17 17 7.61 17 17 17Z" class="st3"/></g></svg>