<svg xmlns="http://www.w3.org/2000/svg" id="Layer_1" viewBox="0 0 500 500"><defs><style>.st0{fill:#901065}.st2{fill:#00316a}</style></defs><path d="M235.25 96.89c9 4.49 22.96-38.52 24.95-47.53s-1.62-18.8-12.9-25.84c-11.27-7.04-26.71 18.08-26.71 18.08s9.16-39.41-15.44-37.18-71.72 104.69-71.72 104.69 92.81-16.71 101.81-12.22Z" class="st2"/><path d="M343.09 188.79c5.06 24.96 4.73 43.6-1.09 66.21-17 66 34.13 104.51-42 149-53.32 31.16-124.89-42.87-152.24-59.34-34.52-20.79-61.16-57.15-70.26-102-16.3-80.38 29.94-157.6 103.28-172.47 73.34-14.88 146.01 38.22 162.31 118.6" style="fill:#0083d7"/><path d="m135.99 247.6 27.17 9.83c6.12 2.22 12.45-2.71 11.81-9.19l-2.44-24.76c-.64-6.48-7.81-10.07-13.38-6.71l-24.74 14.93c-6.38 3.85-5.44 13.36 1.56 15.9Z" class="st2"/><path d="M152.91 196.32c15.85-9.15 33.55-59.83 14.7-92.48-9.65-16.71-30.31-22.83-46.16-13.69-9.71 5.6-15.35 15.64-16.06 26.42-8.99-3.41-19.14-3-27.85 2.03-15.85 9.15-20.87 30.11-11.23 46.82 19.42 33.63 69.64 40.69 85.48 31.54l1.1-.64Z" class="st0"/><g class="throb"><path d="M153.39 196.73c15.85-9.15 33.55-59.83 14.7-92.48-9.65-16.71-30.31-22.83-46.16-13.69-9.71 5.6-15.35 15.64-16.05 26.42-8.99-3.41-19.14-3-27.85 2.03-15.85 9.15-20.87 30.11-11.23 46.82 19.42 33.63 69.64 40.69 85.48 31.54l1.1-.64ZM226.56 191.01c15.84 9.15 68.59-.86 87.44-33.51 9.65-16.71 4.62-37.67-11.23-46.82-9.71-5.61-21.22-5.48-30.91-.69-1.54-9.49-6.98-18.08-15.68-23.1-15.85-9.15-36.51-3.02-46.16 13.68-19.42 33.63-.42 80.65 15.43 89.8l1.1.64Z" class="st0"/></g></svg>