<?xml version="1.0" encoding="UTF-8"?><svg id="fred-dead_svg__Layer_1" xmlns="http://www.w3.org/2000/svg" version="1.1" viewBox="0 0 500 500"><!--Generator: Adobe Illustrator 29.8.3, SVG Export Plug-In . SVG Version: 2.1.1 Build 3)--><defs><style>.fred-dead_svg__st0{fill:#0083d7}.fred-dead_svg__st1{fill:#00316a}</style></defs><path class="fred-dead_svg__st1" d="M359.31,320c-7.98,11.26,47.38,39.22,59.17,43.82,11.79,4.6,25.82,1.75,37.73-12.04,11.91-13.8-18.88-40-18.88-40,0,0,51.48,20.7,53.64-13.11,2.16-33.81-126.79-119.23-126.79-119.23,0,0,3.12,129.3-4.86,140.56h-.01Z"/><path class="fred-dead_svg__st0" d="M397.67,213.36c-.5,34.93-6.37,59.81-20.77,88.41-42.03,83.49,15.27,150.01-99.73,187.44-80.54,26.21-154.87-93.87-186.73-123.92-40.2-37.93-65.3-94.42-64.42-157.19C27.62,95.64,112.1,5.63,214.73,7.09c102.63,1.44,184.53,93.8,182.94,206.27"/><circle class="fred-dead_svg__st1" cx="229.55" cy="210.63" r="26.74"/><path d="M140.48,134.04c2.21-2.08,2.31-5.55.23-7.75l-11.83-12.57c-2.08-2.21-1.97-5.68.23-7.75l3-2.82c2.21-2.08,5.68-1.97,7.75.23l11.83,12.57c2.08,2.21,5.55,2.31,7.75.24,0,0,0,0,0,0l11.52-10.84c2.21-2.08,5.68-1.97,7.76.23,0,0,0,0,0,0l2.82,3c2.08,2.21,1.97,5.68-.23,7.75l-11.52,10.84c-2.21,2.08-2.31,5.55-.24,7.75,0,0,0,0,0,0l12.61,13.4c2.08,2.21,1.97,5.68-.23,7.76,0,0,0,0,0,0l-3,2.82c-2.21,2.08-5.68,1.97-7.76-.23h0s-12.61-13.4-12.61-13.4c-2.08-2.21-5.55-2.31-7.75-.24,0,0,0,0,0,0l-14.45,13.6c-2.21,2.08-5.68,1.97-7.76-.23,0,0,0,0,0,0l-2.82-3c-2.08-2.21-1.97-5.68.23-7.76,0,0,0,0,0,0l14.45-13.6ZM266.66,134.04c2.21-2.08,2.31-5.55.23-7.75l-11.83-12.57c-2.08-2.21-1.97-5.68.23-7.75l3-2.82c2.21-2.08,5.68-1.97,7.75.23l11.83,12.57c2.08,2.21,5.55,2.31,7.75.24,0,0,0,0,0,0l11.52-10.84c2.21-2.08,5.68-1.97,7.76.23,0,0,0,0,0,0l2.82,3c2.08,2.21,1.97,5.68-.23,7.75l-11.52,10.84c-2.21,2.08-2.31,5.55-.24,7.75,0,0,0,0,0,0l12.61,13.4c2.08,2.21,1.97,5.68-.23,7.76,0,0,0,0,0,0l-3,2.82c-2.21,2.08-5.68,1.97-7.76-.23h0s-12.61-13.4-12.61-13.4c-2.08-2.21-5.55-2.31-7.75-.24,0,0,0,0,0,0l-14.45,13.6c-2.21,2.08-5.68,1.97-7.76-.23,0,0,0,0,0,0l-2.82-3c-2.08-2.21-1.97-5.68.23-7.76,0,0,0,0,0,0l14.45-13.6Z"/></svg>