<svg xmlns="http://www.w3.org/2000/svg" width="500" height="500" fill="none" viewBox="0 0 500 500"><path fill="#00316a" d="M275.53 107.9c6.33 7.82 36.87-25.53 42.42-32.9s6.32-17.78-1.02-28.86-31.8 5.37-31.8 5.37 24.68-32.06 1.37-40.24-108.68 65.51-108.68 65.51 91.38 23.29 97.71 31.11z"/><path fill="#0083d7" d="M343.09 188.79c5.06 24.96 4.73 43.6-1.09 66.21-17 66 34.13 104.51-42 149-53.32 31.16-124.89-42.87-152.24-59.34-34.52-20.79-61.16-57.15-70.26-102-16.3-80.38 29.94-157.6 103.28-172.47 73.34-14.88 146.01 38.22 162.31 118.6"/><g class="eyes"><path fill="#fff" d="M130.4 193.3c15.409 0 27.9-12.491 27.9-27.9s-12.491-27.9-27.9-27.9-27.9 12.491-27.9 27.9 12.491 27.9 27.9 27.9"/><path fill="#000" stroke="#fff" stroke-miterlimit="10" d="M129.68 179.36c8.108 0 14.68-6.572 14.68-14.68S137.788 150 129.68 150 115 156.572 115 164.68s6.572 14.68 14.68 14.68Z"/></g><path fill="#00316a" d="m122.163 248.864 31.07 17.576c6.995 3.963 15.724-.731 16.281-8.752l2.14-30.659c.558-8.022-7.434-13.882-14.911-10.934l-33.209 13.081c-8.56 3.368-9.383 15.151-1.382 19.683z"/><path fill="#000" d="M203.574 175.006c-3.412.483-5.798-3.288-3.898-6.164l20.517-31.073a4 4 0 0 1 4.522-1.616l3.782 1.171c2.546.789 3.623 3.801 2.154 6.025l-6.693 10.136c-1.9 2.877.486 6.648 3.898 6.165l12.027-1.703c2.639-.373 4.899 1.89 4.52 4.529l-.562 3.919a4 4 0 0 1-3.399 3.392z"/></svg>