<?xml version="1.0" encoding="UTF-8"?><svg id="fred-rofl_svg__Layer_1" xmlns="http://www.w3.org/2000/svg" version="1.1" viewBox="0 0 435 432"><!--Generator: Adobe Illustrator 29.8.3, SVG Export Plug-In . SVG Version: 2.1.1 Build 3)--><defs><style>.fred-rofl_svg__st0{fill:#fff}.fred-rofl_svg__st1{fill:#0083d7}.fred-rofl_svg__st2{fill:#00316a}.fred-rofl_svg__st3{fill:#bfe6ff}</style></defs><path class="fred-rofl_svg__st2" d="M351.13,113.03c5.27,10.11,46.72-20.07,54.54-27s11.03-18.33,5.36-32.3c-5.66-13.97-36.54-1.19-36.54-1.19,0,0,34.64-30.06,10.58-44.4s-135.5,48.31-135.5,48.31c0,0,96.28,46.46,101.55,56.57h.01Z"/><path class="fred-rofl_svg__st1" d="M365.84,234.12c-9.34,27.32-20.34,45.37-38.97,64.15-54.43,54.84-26.45,121.8-126.41,121.73-70.01-.05-97.64-113.45-114.97-145.23-21.87-40.11-27.12-90.94-10.34-140.02C105.22,46.77,194.69-2.3,274.95,25.15c80.27,27.43,120.97,121,90.89,208.97"/><path class="fred-rofl_svg__st0" d="M155.17,116.76c15.08,8.82,34.45,3.75,43.27-11.32,8.82-15.08,3.75-34.45-11.32-43.27-15.08-8.82-34.45-3.75-43.27,11.32-8.82,15.08-3.75,34.45,11.32,43.27M237.06,164.67c15.08,8.82,34.45,3.75,43.27-11.32,8.82-15.08,3.75-34.45-11.32-43.27-15.08-8.82-34.45-3.75-43.27,11.32-8.82,15.08-3.75,34.45,11.32,43.27"/><path class="fred-rofl_svg__st2" d="M132.63,161.73l31.85,32.74c7.16,7.38,19.58,4.75,23.14-4.91l13.63-36.89c3.56-9.65-4.15-19.72-14.39-18.78l-45.48,4.15c-11.72,1.07-16.96,15.25-8.76,23.68h.01,0Z"/><path class="fred-rofl_svg__st2" d="M147.14,202.56l32.15-5.01c7.24-1.12,10.83-9.42,6.69-15.46l-15.81-23.11c-4.14-6.05-13.16-5.71-16.83.62l-16.34,28.14c-4.22,7.24,1.86,16.13,10.15,14.85h.01v-.02Z"/><path d="M175.54,79.69c5.36,3.05,8.41,8.51,10.47,15.16,1.02,3.29-1.16,6.63-4.52,7.38-3.37.74-6.61-1.42-7.72-4.67-1.53-4.51-3.07-6.27-4.4-7.02-1.39-.79-3.79-1.2-8.5-.35-3.39.61-6.82-1.25-7.77-4.56s.97-6.81,4.35-7.49c6.63-1.34,12.83-1.42,18.07,1.56h.01ZM257.73,127.79c5.36,3.05,8.41,8.51,10.47,15.16,1.02,3.29-1.16,6.63-4.52,7.38-3.37.74-6.61-1.42-7.72-4.68-1.53-4.51-3.07-6.27-4.4-7.02-1.39-.79-3.79-1.2-8.5-.35-3.39.61-6.82-1.25-7.77-4.56-.94-3.31.97-6.81,4.35-7.49,6.63-1.34,12.83-1.42,18.07,1.56h.01Z"/><path class="fred-rofl_svg__st3" d="M299.42,217.67c1.3,2.22,3.13,4.09,5.31,5.42s4.65,2.1,7.18,2.22c2.54.12,5.06-.4,7.35-1.52,2.29-1.11,4.27-2.79,5.78-4.89,3.07-4.28,3.85-9.78,2.11-14.75-.86-2.45-2.29-4.64-4.17-6.38-1.87-1.74-4.15-2.98-6.62-3.6l-19.67-3.51c-3.43-.61-6.26,2.85-5.02,6.17l7.75,20.84h.01ZM63.09,69.88c-2.54-.06-5.04.53-7.31,1.7-2.27,1.18-4.21,2.9-5.66,5.03s-2.38,4.59-2.68,7.18c-.31,2.58.02,5.2.94,7.62.92,2.43,2.4,4.58,4.33,6.27s4.23,2.87,6.7,3.43,5.06.49,7.49-.22c2.44-.7,4.68-2.01,6.51-3.81l13.57-15.36c2.3-2.61.93-6.73-2.48-7.45l-21.41-4.43v.03Z"/></svg>