<?xml version="1.0" encoding="UTF-8"?><svg id="fred-star-eyes_svg__Layer_1" xmlns="http://www.w3.org/2000/svg" version="1.1" viewBox="0 0 500 500"><!--Generator: Adobe Illustrator 29.8.3, SVG Export Plug-In . SVG Version: 2.1.1 Build 3)--><defs><style>.fred-star-eyes_svg__st0{fill:#ffc628}.fred-star-eyes_svg__st1{fill:#0083d7}.fred-star-eyes_svg__st2{fill:#00316a}</style></defs><path class="fred-star-eyes_svg__st2" d="M322.41,116.19c10.84,5.41,27.66-46.41,30.06-57.27s-1.95-22.65-15.54-31.13c-13.58-8.48-32.18,21.78-32.18,21.78,0,0,11.04-47.48-18.6-44.8-29.64,2.69-86.41,126.14-86.41,126.14,0,0,111.82-20.13,122.67-14.72h.01Z"/><path class="fred-star-eyes_svg__st1" d="M452.35,226.91c6.1,30.07,5.7,52.53-1.31,79.77-20.48,79.52,41.12,125.92-50.6,179.52-64.24,37.54-150.48-51.65-183.43-71.5-41.59-25.05-73.69-68.86-84.65-122.9-19.64-96.85,36.07-189.89,124.44-207.8,88.36-17.93,175.92,46.05,195.56,142.9"/><path class="fred-star-eyes_svg__st2" d="M202.82,297.77l32.74,11.84c7.37,2.67,15-3.27,14.23-11.07l-2.94-29.83c-.77-7.81-9.41-12.13-16.12-8.08l-29.81,17.99c-7.69,4.64-6.55,16.1,1.88,19.16h.02Z"/><path class="fred-star-eyes_svg__st0 throb" d="M159.46,139.3c.24-4.66,6.31-6.29,8.86-2.37l16.49,25.4c1.14,1.75,3.27,2.57,5.29,2.02l29.25-7.84c4.51-1.2,7.93,4.06,4.99,7.69l-19.06,23.53c-1.31,1.62-1.44,3.91-.3,5.66l16.49,25.4c2.54,3.92-1.41,8.8-5.77,7.12l-28.27-10.86c-1.95-.75-4.16-.16-5.47,1.47l-19.06,23.53c-2.94,3.63-8.81,1.37-8.55-3.29l1.59-30.24c.11-2.08-1.13-4-3.08-4.75l-28.28-10.86c-4.36-1.67-4.02-7.95.48-9.16l29.25-7.84c2.02-.54,3.45-2.31,3.57-4.4l1.59-30.24v.02ZM331.39,141.63c3.47-3.12,8.9.01,7.94,4.58l-6.3,29.63c-.43,2.04.49,4.13,2.3,5.18l26.23,15.15c4.05,2.34,2.74,8.48-1.9,8.96l-30.12,3.17c-2.08.22-3.77,1.75-4.2,3.8l-6.3,29.63c-.98,4.57-7.22,5.23-9.12.95l-12.31-27.66c-.85-1.9-2.83-3.04-4.9-2.83l-30.12,3.17c-4.64.48-7.19-5.25-3.72-8.37l22.51-20.27c1.55-1.4,2.03-3.63,1.18-5.54l-12.31-27.66c-1.9-4.27,2.77-8.47,6.81-6.13l26.23,15.15c1.81,1.05,4.09.81,5.64-.59l22.51-20.27v-.02Z"/></svg>