<svg xmlns="http://www.w3.org/2000/svg" id="Layer_1" viewBox="0 0 485 500"><defs><style>.st1{fill:#fff}.st4{fill:#00316a}</style></defs><path d="M336.69 180.24c4.09 9.19 42.22-15.12 49.49-20.8s10.71-15.54 6.48-28.14c-4.22-12.6-32.11-3.04-32.11-3.04s32.14-24.58 11.74-38.51-121.93 35.15-121.93 35.15 82.24 46.15 86.33 55.34" class="st4"/><path d="M343.09 188.79c5.06 24.96 4.73 43.6-1.09 66.21-17 66 34.13 104.51-42 149-53.32 31.16-124.89-42.87-152.24-59.34-34.52-20.79-61.16-57.15-70.26-102-16.3-80.38 29.94-157.6 103.28-172.47 73.34-14.88 146.01 38.22 162.31 118.6" style="fill:#0083d7"/><path d="M130.4 193.3c15.41 0 27.9-12.49 27.9-27.9s-12.49-27.9-27.9-27.9-27.9 12.49-27.9 27.9 12.49 27.9 27.9 27.9M214.1 193.3c15.41 0 27.9-12.49 27.9-27.9s-12.49-27.9-27.9-27.9-27.9 12.49-27.9 27.9 12.49 27.9 27.9 27.9" class="st1"/><path d="m139.7 251.74 28.73 3.09c6.47.7 11.45-5.59 9.29-11.73l-8.25-23.47c-2.16-6.14-9.98-7.93-14.59-3.34l-20.48 20.38c-5.28 5.25-2.11 14.27 5.29 15.07Z" class="st4"/><path d="M120.39 156c5.44-.07 10.2 2.73 14.73 6.88 2.24 2.05 2.07 5.57-.15 7.63-2.23 2.06-5.67 1.87-7.96-.12-3.17-2.76-5.13-3.4-6.47-3.38-1.42.02-3.42.77-6.63 3.52-2.31 1.97-5.75 2.1-7.94 0s-2.29-5.62-.02-7.65c4.45-3.97 9.14-6.79 14.45-6.86ZM204.4 156c5.44-.07 10.2 2.73 14.73 6.88 2.24 2.05 2.07 5.57-.15 7.63-2.23 2.06-5.67 1.87-7.96-.12-3.17-2.76-5.13-3.4-6.47-3.38-1.42.02-3.42.77-6.63 3.52-2.31 1.97-5.75 2.1-7.94 0s-2.29-5.62-.02-7.65c4.45-3.97 9.13-6.79 14.45-6.86ZM182.15 35.06c.52-.17 1.07-.2 1.6-.08l106.67 24.05c2.87.65 3.19 4.6.47 5.71l-105.21 42.68c-.63.26-1.34.29-1.99.09L77.12 75.37c-2.81-.85-2.86-4.81-.07-5.72l105.11-34.59Z"/><path d="M258 114V61" style="fill:none;stroke:#000;stroke-width:5px"/><circle cx="258.5" cy="119.5" r="8.5" style="fill:#ffa700"/></svg>