<svg xmlns="http://www.w3.org/2000/svg" id="Layer_1" viewBox="0 0 500 500"><defs><style>.st0{fill:#fff}.st2{fill:#00316a}</style></defs><path d="M277.93 103.16c8.52 5.35 26.62-36.09 29.49-44.86s.23-18.87-10.3-26.98-28.35 15.37-28.35 15.37 12.98-38.32-11.73-38.52c-24.7-.2-81.63 97.16-81.63 97.16s94-7.54 102.52-2.18Z" class="st2"/><path d="M343.09 188.79c5.06 24.96 4.73 43.6-1.09 66.21-17 66 34.13 104.51-42 149-53.32 31.16-124.89-42.87-152.24-59.34-34.52-20.79-61.16-57.15-70.26-102-16.3-80.38 29.94-157.6 103.28-172.47 73.34-14.88 146.01 38.22 162.31 118.6" style="fill:#0083d7"/><path d="M130.4 193.3c15.41 0 27.9-12.49 27.9-27.9s-12.49-27.9-27.9-27.9-27.9 12.49-27.9 27.9 12.49 27.9 27.9 27.9M214.1 193.3c15.41 0 27.9-12.49 27.9-27.9s-12.49-27.9-27.9-27.9-27.9 12.49-27.9 27.9 12.49 27.9 27.9 27.9" class="st0"/><path d="m127.59 227.31 32.45 23.89c7.31 5.38 17.72 1.3 19.43-7.62l6.53-34.07c1.71-8.92-6.46-16.56-15.24-14.26l-38.98 10.19c-10.05 2.62-12.56 15.71-4.2 21.87z" class="st2"/><path d="M129.4 156c5.44-.07 10.2 2.73 14.73 6.88 2.24 2.05 2.07 5.57-.15 7.63-2.23 2.06-5.67 1.87-7.96-.12-3.17-2.76-5.13-3.4-6.47-3.38-1.42.02-3.42.77-6.63 3.52-2.31 1.97-5.75 2.1-7.94 0s-2.29-5.62-.02-7.65c4.45-3.97 9.14-6.79 14.45-6.86ZM213.4 156c5.44-.07 10.2 2.73 14.73 6.88 2.24 2.05 2.07 5.57-.15 7.63-2.23 2.06-5.67 1.87-7.96-.12-3.17-2.76-5.13-3.4-6.47-3.38-1.42.02-3.42.77-6.63 3.52-2.31 1.97-5.75 2.1-7.94 0s-2.29-5.62-.02-7.65c4.45-3.97 9.13-6.79 14.45-6.86Z"/></svg>