<?xml version="1.0" encoding="UTF-8"?><svg id="fred-wink_svg__Layer_1" xmlns="http://www.w3.org/2000/svg" version="1.1" viewBox="0 0 500 500"><!--Generator: Adobe Illustrator 29.8.3, SVG Export Plug-In . SVG Version: 2.1.1 Build 3)--><defs><style>.fred-wink_svg__st0{fill:#fff}.fred-wink_svg__st1{fill:#0083d7}.fred-wink_svg__st2{fill:#00316a}.fred-wink_svg__st3{stroke:#fff;stroke-miterlimit:10}</style></defs><path class="fred-wink_svg__st2" d="M362.65,122.63c7.72,9.54,44.97-31.14,51.74-40.13,6.77-8.99,7.71-21.69-1.24-35.2s-38.78,6.55-38.78,6.55c0,0,30.1-39.1,1.67-49.08-28.43-9.98-132.55,79.9-132.55,79.9,0,0,111.45,28.41,119.17,37.94h0Z"/><path class="fred-wink_svg__st1" d="M445.05,221.29c6.17,30.44,5.77,53.18-1.33,80.75-20.73,80.5,41.63,127.47-51.23,181.73-65.03,38-152.32-52.29-185.68-72.37-42.1-25.36-74.59-69.7-85.69-124.4-19.88-98.04,36.52-192.22,125.97-210.35,89.45-18.15,178.08,46.61,197.96,144.65"/><g class="eyes"><path class="fred-wink_svg__st0" d="M185.64,226.79c18.79,0,34.03-15.23,34.03-34.03s-15.23-34.03-34.03-34.03-34.03,15.23-34.03,34.03,15.23,34.03,34.03,34.03"/><path class="fred-wink_svg__st3" d="M184.76,209.78c9.89,0,17.9-8.02,17.9-17.9s-8.02-17.9-17.9-17.9-17.9,8.02-17.9,17.9,8.02,17.9,17.9,17.9h0Z"/></g><path class="fred-wink_svg__st2" d="M175.6,294.55l37.89,21.44c8.53,4.83,19.18-.89,19.86-10.67l2.61-37.39c.68-9.78-9.07-16.93-18.19-13.34l-40.5,15.95c-10.44,4.11-11.44,18.48-1.69,24.01h.01Z"/><path d="M274.89,204.47c-4.16.59-7.07-4.01-4.75-7.52l25.02-37.9c1.2-1.81,3.44-2.61,5.52-1.97l4.61,1.43c3.11.96,4.42,4.64,2.63,7.35l-8.16,12.36c-2.32,3.51.59,8.11,4.75,7.52l14.67-2.08c3.22-.45,5.98,2.31,5.51,5.52l-.69,4.78c-.31,2.15-2,3.83-4.15,4.14l-44.97,6.37Z"/></svg>