<svg xmlns="http://www.w3.org/2000/svg" id="Layer_1" viewBox="0 0 500 500"><defs><style>.st0{fill:#ffc628}.st2{fill:#00316a}</style></defs><path d="M235.25 96.89c9 4.49 22.96-38.52 24.95-47.53s-1.62-18.8-12.9-25.84c-11.27-7.04-26.71 18.08-26.71 18.08s9.16-39.41-15.44-37.18-71.72 104.69-71.72 104.69 92.81-16.71 101.81-12.22Z" class="st2"/><path d="M343.09 188.79c5.06 24.96 4.73 43.6-1.09 66.21-17 66 34.13 104.51-42 149-53.32 31.16-124.89-42.87-152.24-59.34-34.52-20.79-61.16-57.15-70.26-102-16.3-80.38 29.94-157.6 103.28-172.47 73.34-14.88 146.01 38.22 162.31 118.6" style="fill:#0083d7"/><path d="m135.99 247.6 27.17 9.83c6.12 2.22 12.45-2.71 11.81-9.19l-2.44-24.76c-.64-6.48-7.81-10.07-13.38-6.71l-24.74 14.93c-6.38 3.85-5.44 13.36 1.56 15.9Z" class="st2"/><g class="throb"><path d="M100 116.07c.2-3.87 5.24-5.22 7.35-1.97l13.69 21.08a4 4 0 0 0 4.39 1.68l24.28-6.51c3.74-1 6.58 3.37 4.14 6.38l-15.82 19.53a4.01 4.01 0 0 0-.25 4.7l13.69 21.08c2.11 3.25-1.17 7.3-4.79 5.91l-23.46-9.01a3.99 3.99 0 0 0-4.54 1.22l-15.82 19.53c-2.44 3.01-7.31 1.14-7.1-2.73l1.32-25.1c.09-1.73-.94-3.32-2.56-3.94l-23.47-9.01c-3.62-1.39-3.34-6.6.4-7.6l24.28-6.51a4 4 0 0 0 2.96-3.65l1.32-25.1ZM242.7 118.01c2.88-2.59 7.39.01 6.59 3.8l-5.23 24.59c-.36 1.69.41 3.43 1.91 4.3l21.77 12.57c3.36 1.94 2.27 7.04-1.58 7.44l-25 2.63a3.995 3.995 0 0 0-3.49 3.15l-5.23 24.59c-.81 3.79-5.99 4.34-7.57.79l-10.22-22.96a4.01 4.01 0 0 0-4.07-2.35l-25 2.63c-3.85.4-5.97-4.36-3.09-6.95l18.68-16.82a4.01 4.01 0 0 0 .98-4.6l-10.22-22.96c-1.58-3.54 2.3-7.03 5.65-5.09l21.77 12.57a4 4 0 0 0 4.68-.49l18.68-16.82Z" class="st0"/></g></svg>