<?xml version="1.0" encoding="UTF-8"?><svg id="matilda-upside-down_svg__Layer_1" xmlns="http://www.w3.org/2000/svg" version="1.1" viewBox="0 0 500 500"><!--Generator: Adobe Illustrator 29.8.3, SVG Export Plug-In . SVG Version: 2.1.1 Build 3)--><defs><style>.matilda-upside-down_svg__st0{fill:#901065}.matilda-upside-down_svg__st1{fill:#fff}.matilda-upside-down_svg__st2{fill:#ffa700}.matilda-upside-down_svg__st3{stroke:#fff;stroke-miterlimit:10}</style></defs><path class="matilda-upside-down_svg__st0" d="M369.26,84.76c10.5,17.49,25.24,32.04,42.52,42.91,13.07,8.24,25.18,17.92,36.09,28.86,1.08,1.08,2.15,2.17,3.2,3.27,46.52,48.58,46.52,125.64,0,174.22-1.06,1.09-2.12,2.19-3.2,3.27-11.94,11.95-25.29,22.4-39.76,31.11-17.49,10.5-32.04,25.24-42.91,42.52-8.24,13.07-17.92,25.18-28.86,36.09-1.98,1.98-4.01,3.93-6.07,5.82-49.33,45.53-126.22,43.95-173.94-3.27-.25-.25-.51-.5-.76-.75-11.95-11.94-22.4-25.29-31.11-39.76-10.5-17.49-25.24-32.04-42.52-42.91-13.07-8.24-25.18-17.92-36.09-28.86-2.3-2.3-4.54-4.64-6.71-7.03-45.21-49.6-43.63-125.93,3.31-173.89.53-.55,1.07-1.09,1.62-1.63,12.22-12.22,25.59-22.59,39.76-31.11,17.49-10.5,32.04-25.24,42.91-42.52,8.24-13.07,17.92-25.18,28.86-36.09,1.96-1.96,3.93-3.85,5.94-5.72,48.02-44.4,122.64-44.4,170.66,0,2.01,1.86,3.99,3.76,5.94,5.72,12.22,12.22,22.59,25.59,31.11,39.76h.03Z"/><path class="matilda-upside-down_svg__st2" d="M244.07,406.24c87.45,0,158.34-70.89,158.34-158.34s-70.89-158.34-158.34-158.34S85.73,160.46,85.73,247.91s70.89,158.34,158.34,158.34"/><g class="eyes"><path class="matilda-upside-down_svg__st1" d="M189.89,379.28c19.6,0,35.48-15.88,35.48-35.48s-15.88-35.48-35.48-35.48-35.48,15.88-35.48,35.48,15.88,35.48,35.48,35.48"/><path class="matilda-upside-down_svg__st3" d="M189.61,362.19c10.31,0,18.67-8.36,18.67-18.67s-8.36-18.67-18.67-18.67-18.67,8.36-18.67,18.67,8.36,18.67,18.67,18.67Z"/><path class="matilda-upside-down_svg__st1" d="M296.34,379.28c19.6,0,35.48-15.88,35.48-35.48s-15.88-35.48-35.48-35.48-35.48,15.88-35.48,35.48,15.88,35.48,35.48,35.48"/><path class="matilda-upside-down_svg__st3" d="M285.89,362.19c10.31,0,18.67-8.36,18.67-18.67s-8.36-18.67-18.67-18.67-18.67,8.36-18.67,18.67,8.36,18.67,18.67,18.67Z"/></g></svg>