<svg xmlns="http://www.w3.org/2000/svg" width="500" height="500" fill="none" viewBox="0 0 500 500"><path fill="#901065" d="M302.784 99.414c12.121 10.505 26.691 17.78 42.255 21.691a162.6 162.6 0 0 1 34.022 12.755c1.072.544 2.138 1.101 3.194 1.661 46.634 24.952 65.448 82.547 42.539 130.218a205 205 0 0 1-1.598 3.225 163 163 0 0 1-22.119 32.958c-10.505 12.121-17.781 26.691-21.691 42.255a162.5 162.5 0 0 1-12.756 34.022 156 156 0 0 1-3.112 5.835c-25.755 46.076-83.611 63.671-130.806 40.028-.253-.128-.502-.247-.754-.375A163 163 0 0 1 199 401.568c-12.121-10.505-26.691-17.781-42.254-21.691a162.5 162.5 0 0 1-34.023-12.756 161 161 0 0 1-6.736-3.617C70.084 337.471 52.625 280.033 76 232.726a78 78 0 0 1 .81-1.611 163 163 0 0 1 22.119-32.958c10.505-12.121 17.781-26.691 21.691-42.254a162.5 162.5 0 0 1 12.756-34.023c.985-1.942 1.996-3.84 3.041-5.728 25.053-44.91 80.823-63.128 127.557-41.67 1.955.898 3.904 1.84 5.836 2.828a163 163 0 0 1 32.958 22.12z"/><path fill="#ffa700" d="M287.705 370.266c65.36-21.352 101.036-91.646 79.685-157.006-21.352-65.361-91.646-101.037-157.006-79.685-65.36 21.351-101.037 91.645-79.685 157.006 21.352 65.36 91.645 101.036 157.006 79.685"/><path fill="#000" d="M194.3 220.155c-8.19 1.76-16.218-1.35-24.318-6.511-2.795-1.78-3.384-5.559-1.444-8.245l2.229-3.088c1.94-2.686 5.67-3.252 8.492-1.515 6.297 3.876 9.642 4.349 11.718 3.903 2.194-.472 5.117-2.394 9.491-8.355 1.96-2.672 5.638-3.523 8.434-1.744l3.214 2.044c2.795 1.778 3.645 5.506 1.721 8.204-5.421 7.599-11.516 13.582-19.537 15.307M281.417 202.027c-8.19 1.761-16.218-1.349-24.318-6.51-2.795-1.78-3.384-5.559-1.445-8.246l2.23-3.087c1.94-2.687 5.67-3.252 8.492-1.515 6.297 3.876 9.642 4.349 11.718 3.903 2.193-.472 5.117-2.395 9.491-8.355 1.96-2.672 5.638-3.523 8.434-1.744l3.213 2.044c2.796 1.778 3.646 5.506 1.721 8.203-5.42 7.6-11.515 13.583-19.536 15.307"/></svg>