<?xml version="1.0" encoding="UTF-8"?><svg id="matilda-googly_svg__Layer_1" xmlns="http://www.w3.org/2000/svg" version="1.1" viewBox="0 0 500 500"><!--Generator: Adobe Illustrator 29.8.3, SVG Export Plug-In . SVG Version: 2.1.1 Build 3)--><defs><style>.matilda-googly_svg__st0{fill:#901065}.matilda-googly_svg__st1{fill:#fff}.matilda-googly_svg__st2{fill:#ffa700}.matilda-googly_svg__st3{stroke:#fff;stroke-miterlimit:10}</style></defs><path class="matilda-googly_svg__st0" d="M479.06,215.93c-5.69,22.83-5.51,46.71-.29,69.66,3.87,17.04,5.92,34.76,5.92,52.96,0,1.76-.01,3.52-.04,5.28-1.64,77.55-64.44,140.4-141.99,142.12-1.75.03-3.52.06-5.28.06-19.93,0-39.29-2.43-57.78-7.02-22.83-5.69-46.71-5.51-69.66-.29-17.04,3.87-34.76,5.92-52.96,5.92-3.24,0-6.47-.06-9.69-.19-77.34-3.06-138.79-67.02-139.23-144.42v-1.23c0-19.93,2.43-39.29,7.02-57.78,5.68-22.83,5.51-46.71.29-69.66-3.87-17.04-5.92-34.76-5.92-52.96,0-3.75.07-7.48.25-11.2C13.24,69.85,76.74,8.87,154.13,8.01c.88,0,1.76-.01,2.64,0,19.93,0,39.29,2.43,57.78,7.02,22.83,5.68,46.71,5.51,69.66.29,17.04-3.87,34.76-5.92,52.96-5.92,3.2,0,6.35.06,9.5.18,75.36,2.92,136.22,63.73,139.22,139.08.13,3.15.19,6.32.18,9.5,0,19.93-2.43,39.29-7.02,57.78h.03Z"/><path class="matilda-googly_svg__st2" d="M244.85,431.86c100.84,0,182.58-81.74,182.58-182.58s-81.74-182.58-182.58-182.58S62.27,148.44,62.27,249.28s81.74,182.58,182.58,182.58"/><g class="eyes"><path class="matilda-googly_svg__st1" d="M94.53,260.28c29.96,0,54.26-24.3,54.26-54.26s-24.3-54.26-54.26-54.26-54.26,24.3-54.26,54.26,24.3,54.26,54.26,54.26"/><path class="matilda-googly_svg__st3" d="M116.06,227.07c11.89,0,21.53-9.63,21.53-21.53s-9.63-21.53-21.53-21.53-21.53,9.63-21.53,21.53,9.63,21.53,21.53,21.53h0Z"/></g><g class="eyes"><path class="matilda-googly_svg__st1" d="M354.84,181.08c31.18,0,56.46-25.61,56.46-57.19s-25.28-57.19-56.46-57.19-56.46,25.61-56.46,57.19,25.28,57.19,56.46,57.19"/><path class="matilda-googly_svg__st3" d="M375.63,124.42c11.89,0,21.53-9.63,21.53-21.53s-9.63-21.53-21.53-21.53-21.53,9.63-21.53,21.53,9.63,21.53,21.53,21.53h0Z"/></g></svg>