<svg xmlns="http://www.w3.org/2000/svg" id="Layer_1" viewBox="0 0 500 500"><defs><style>.st1{fill:#fff}.st3{stroke:#fff;stroke-miterlimit:10}</style></defs><path d="M408.21 228.76c-3.88 15.57-3.76 31.85-.2 47.5 2.64 11.62 4.04 23.7 4.04 36.11q0 1.8-.03 3.6c-1.12 52.88-43.94 95.74-96.82 96.91-1.19.02-2.4.04-3.6.04-13.59 0-26.79-1.66-39.4-4.79-15.57-3.88-31.85-3.76-47.5-.2-11.62 2.64-23.7 4.04-36.11 4.04-2.21 0-4.41-.04-6.61-.13-52.74-2.09-94.64-45.7-94.94-98.48v-.84c0-13.59 1.66-26.79 4.79-39.4 3.87-15.57 3.76-31.85.2-47.5-2.64-11.62-4.04-23.7-4.04-36.11 0-2.56.05-5.1.17-7.64 2.41-52.72 45.71-94.3 98.48-94.89.6 0 1.2-.01 1.8 0 13.59 0 26.79 1.66 39.4 4.79 15.57 3.87 31.85 3.76 47.5.2 11.62-2.64 23.7-4.04 36.11-4.04 2.18 0 4.33.04 6.48.12 51.39 1.99 92.89 43.46 94.93 94.84q.135 3.225.12 6.48c0 13.59-1.66 26.79-4.79 39.4h.02Z" style="fill:#901065"/><path d="M248.5 376c68.76 0 124.5-55.74 124.5-124.5S317.26 127 248.5 127 124 182.74 124 251.5 179.74 376 248.5 376" style="fill:#ffa700"/><g class="eyes"><path d="M146 259c20.43 0 37-16.57 37-37s-16.57-37-37-37-37 16.57-37 37 16.57 37 37 37" class="st1"/><path d="M160.68 236.36c8.11 0 14.68-6.57 14.68-14.68S168.79 207 160.68 207 146 213.57 146 221.68s6.57 14.68 14.68 14.68Z" class="st3"/></g><g class="eyes"><path d="M323.5 205c21.26 0 38.5-17.46 38.5-39s-17.24-39-38.5-39-38.5 17.46-38.5 39 17.24 39 38.5 39" class="st1"/><path d="M337.68 166.36c8.11 0 14.68-6.57 14.68-14.68S345.79 137 337.68 137 323 143.57 323 151.68s6.57 14.68 14.68 14.68Z" class="st3"/></g></svg>