<?xml version="1.0" encoding="UTF-8"?><svg id="matilda-raised-eyebrow_svg__Layer_1" xmlns="http://www.w3.org/2000/svg" version="1.1" viewBox="0 0 500 500"><!--Generator: Adobe Illustrator 29.8.3, SVG Export Plug-In . SVG Version: 2.1.1 Build 3)--><defs><style>.matilda-raised-eyebrow_svg__st0{fill:#901065}.matilda-raised-eyebrow_svg__st1{fill:#fff}.matilda-raised-eyebrow_svg__st2{fill:#ffa700}.matilda-raised-eyebrow_svg__st3{stroke:#fff;stroke-miterlimit:10}</style></defs><path class="matilda-raised-eyebrow_svg__st0" d="M371.8,83.75c10.64,17.71,25.56,32.44,43.05,43.45,13.24,8.34,25.49,18.14,36.54,29.22,1.09,1.09,2.18,2.2,3.24,3.31,47.1,49.19,47.1,127.21,0,176.4-1.07,1.11-2.15,2.21-3.24,3.31-12.08,12.1-25.6,22.68-40.25,31.5-17.71,10.64-32.44,25.56-43.45,43.05-8.34,13.24-18.14,25.49-29.22,36.54-2.01,2.01-4.06,3.98-6.14,5.9-49.95,46.1-127.8,44.5-176.12-3.31-.26-.26-.52-.5-.77-.76-12.1-12.08-22.68-25.6-31.5-40.25-10.64-17.71-25.56-32.44-43.05-43.45-13.24-8.34-25.49-18.14-36.54-29.22-2.33-2.33-4.6-4.7-6.8-7.12-45.78-50.22-44.18-127.51,3.35-176.06.54-.55,1.08-1.11,1.64-1.65,12.37-12.37,25.91-22.87,40.25-31.5,17.71-10.64,32.44-25.56,43.45-43.05,8.34-13.24,18.14-25.49,29.22-36.54,1.98-1.98,3.98-3.9,6.01-5.79,48.62-44.95,124.17-44.95,172.79,0,2.03,1.88,4.04,3.81,6.01,5.79,12.37,12.37,22.87,25.91,31.5,40.25h.03Z"/><path class="matilda-raised-eyebrow_svg__st2" d="M245.04,409.25c88.54,0,160.32-71.77,160.32-160.32s-71.77-160.32-160.32-160.32S84.73,160.39,84.73,248.93s71.77,160.32,160.32,160.32"/><g class="eyes"><path class="matilda-raised-eyebrow_svg__st1" d="M159.23,216.86c19.84,0,35.93-16.08,35.93-35.93s-16.08-35.93-35.93-35.93-35.93,16.08-35.93,35.93,16.08,35.93,35.93,35.93"/><path class="matilda-raised-eyebrow_svg__st3" d="M146.6,199.83c10.44,0,18.9-8.46,18.9-18.9s-8.46-18.9-18.9-18.9-18.9,8.46-18.9,18.9,8.46,18.9,18.9,18.9h0Z"/><path class="matilda-raised-eyebrow_svg__st1" d="M267.01,216.86c19.84,0,35.93-16.08,35.93-35.93s-16.08-35.93-35.93-35.93-35.93,16.08-35.93,35.93,16.08,35.93,35.93,35.93"/><path class="matilda-raised-eyebrow_svg__st3" d="M255.67,199.83c10.44,0,18.9-8.46,18.9-18.9s-8.46-18.9-18.9-18.9-18.9,8.46-18.9,18.9,8.46,18.9,18.9,18.9Z"/></g><path d="M237.21,142.12c-1.53-3.59.14-7.79,3.82-9.09,8.82-3.1,16.95-4.51,25.62-4.34,8.76.17,17.8,1.94,28.34,4.79,3.77,1.02,5.92,4.97,4.83,8.72-1.09,3.76-5.02,5.9-8.81,4.88-9.9-2.67-17.58-4.09-24.63-4.22-6.48-.13-12.67.84-19.79,3.24-3.71,1.25-7.85-.37-9.39-3.98M132.02,123.62c-.4-3.89,2.45-7.4,6.35-7.55,9.35-.33,17.51.73,25.75,3.48,8.31,2.77,16.42,7.15,25.64,12.99,3.3,2.1,4.18,6.5,2.02,9.76s-6.55,4.13-9.85,2.05c-8.67-5.49-15.57-9.13-22.26-11.36-6.14-2.05-12.35-2.97-19.86-2.78-3.91.1-7.39-2.69-7.78-6.59h-.01Z"/></svg>