<?xml version="1.0" encoding="UTF-8"?><svg id="matilda-happy_svg__Layer_1" xmlns="http://www.w3.org/2000/svg" version="1.1" viewBox="0 0 500 500"><!--Generator: Adobe Illustrator 29.8.3, SVG Export Plug-In . SVG Version: 2.1.1 Build 3)--><defs><style>.matilda-happy_svg__st0{fill:#901065}.matilda-happy_svg__st1{fill:#fff}.matilda-happy_svg__st2{fill:#ffa700}</style></defs><path class="matilda-happy_svg__st0" d="M320.1,51.75c16,13.86,35.22,23.46,55.76,28.62,15.55,3.92,30.61,9.56,44.9,16.83,1.41.72,2.82,1.45,4.21,2.19,61.54,32.93,86.37,108.93,56.13,171.84-.69,1.42-1.39,2.84-2.11,4.26-7.92,15.63-17.72,30.24-29.19,43.49-13.86,16-23.46,35.22-28.62,55.76-3.91,15.55-9.56,30.61-16.83,44.9-1.31,2.6-2.68,5.16-4.11,7.7-33.99,60.8-110.33,84.02-172.61,52.82-.33-.17-.66-.33-.99-.49-15.63-7.92-30.24-17.72-43.49-29.19-16-13.86-35.22-23.46-55.76-28.62-15.55-3.91-30.61-9.56-44.9-16.83-3-1.52-5.96-3.11-8.89-4.77C13.02,365.89-10.02,290.1,20.83,227.67c.35-.71.7-1.42,1.07-2.13,7.92-15.63,17.72-30.24,29.19-43.49,13.86-16,23.46-35.22,28.62-55.76,3.91-15.55,9.56-30.61,16.83-44.9,1.3-2.56,2.63-5.07,4.01-7.56C133.62,14.57,207.21-9.47,268.88,18.85c2.58,1.19,5.15,2.43,7.7,3.73,15.63,7.92,30.24,17.72,43.49,29.19l.02-.02Z"/><path class="matilda-happy_svg__st2" d="M300.2,409.17c86.25-28.18,133.33-120.94,105.15-207.19-28.18-86.25-120.94-133.33-207.19-105.15-86.25,28.18-133.33,120.94-105.15,207.19,28.18,86.25,120.94,133.33,207.19,105.15"/><path class="matilda-happy_svg__st1" d="M161.9,217.21c20.33,0,36.82-16.48,36.82-36.82s-16.48-36.82-36.82-36.82-36.82,16.48-36.82,36.82,16.48,36.82,36.82,36.82M272.35,217.21c20.33,0,36.82-16.48,36.82-36.82s-16.48-36.82-36.82-36.82-36.82,16.48-36.82,36.82,16.48,36.82,36.82,36.82"/><path d="M160.57,167.99c7.18-.09,13.46,3.61,19.43,9.07,2.96,2.71,2.74,7.35-.2,10.07-2.94,2.72-7.48,2.47-10.5-.16-4.19-3.64-6.77-4.49-8.54-4.47-1.87.03-4.51,1.02-8.75,4.64-3.05,2.6-7.59,2.76-10.48-.01s-3.02-7.42-.03-10.09c5.87-5.24,12.05-8.96,19.07-9.05M271.42,167.99c7.18-.09,13.46,3.61,19.43,9.07,2.96,2.71,2.74,7.35-.2,10.07-2.94,2.72-7.48,2.47-10.5-.16-4.19-3.64-6.77-4.49-8.54-4.47-1.87.03-4.51,1.02-8.75,4.64-3.05,2.6-7.59,2.76-10.48-.01s-3.02-7.42-.03-10.09c5.87-5.24,12.05-8.96,19.07-9.05"/></svg>