<?xml version="1.0" encoding="UTF-8"?><svg id="matilda-star-eyes_svg__Layer_1" xmlns="http://www.w3.org/2000/svg" version="1.1" viewBox="0 0 500 500"><!--Generator: Adobe Illustrator 29.8.3, SVG Export Plug-In . SVG Version: 2.1.1 Build 3)--><defs><style>.matilda-star-eyes_svg__st0{fill:#901065}.matilda-star-eyes_svg__st1{fill:#0083d7}.matilda-star-eyes_svg__st2{fill:#ffa700}</style></defs><path class="matilda-star-eyes_svg__st0" d="M376,85.06c10.75,17.89,25.83,32.77,43.49,43.9,13.37,8.43,25.76,18.33,36.92,29.52,1.11,1.11,2.2,2.22,3.28,3.34,47.59,49.7,47.59,128.53,0,178.23-1.08,1.12-2.17,2.24-3.28,3.34-12.21,12.22-25.87,22.91-40.67,31.82-17.89,10.75-32.77,25.83-43.9,43.49-8.43,13.37-18.33,25.76-29.52,36.92-2.03,2.03-4.1,4.02-6.21,5.96-50.47,46.58-129.13,44.96-177.94-3.34-.26-.26-.52-.51-.78-.77-12.22-12.21-22.91-25.87-31.82-40.67-10.75-17.89-25.83-32.77-43.49-43.9-13.37-8.43-25.76-18.33-36.92-29.52-2.35-2.35-4.64-4.75-6.87-7.19-46.25-50.74-44.64-128.83,3.38-177.89.55-.56,1.09-1.12,1.65-1.67,12.5-12.5,26.18-23.11,40.67-31.82,17.89-10.75,32.77-25.83,43.9-43.49,8.43-13.37,18.33-25.76,29.52-36.92,2-2,4.02-3.94,6.08-5.85,49.13-45.42,125.46-45.42,174.58,0,2.06,1.9,4.09,3.85,6.08,5.85,12.5,12.5,23.11,26.18,31.82,40.67h.03Z"/><path class="matilda-star-eyes_svg__st2" d="M247.93,413.93c89.46,0,161.98-72.52,161.98-161.98s-72.52-161.98-161.98-161.98S85.95,162.49,85.95,251.95s72.52,161.98,161.98,161.98"/><path class="matilda-star-eyes_svg__st1 throb" d="M154.91,96.57c.26-5.03,6.82-6.79,9.56-2.56l17.81,27.43c1.23,1.89,3.53,2.77,5.71,2.2l31.59-8.47c4.87-1.3,8.56,4.38,5.39,8.3l-20.58,25.41c-1.42,1.75-1.55,4.22-.33,6.11l17.81,27.43c2.75,4.23-1.52,9.5-6.23,7.69l-30.52-11.72c-2.1-.81-4.49-.17-5.91,1.59l-20.58,25.41c-3.17,3.92-9.51,1.48-9.24-3.55l1.72-32.66c.12-2.25-1.22-4.32-3.33-5.13l-30.53-11.72c-4.71-1.81-4.35-8.59.52-9.89l31.59-8.47c2.18-.58,3.73-2.5,3.85-4.75l1.72-32.66h-.01ZM340.56,99.1c3.75-3.37,9.61.01,8.57,4.94l-6.8,31.99c-.47,2.2.53,4.46,2.48,5.59l28.32,16.35c4.37,2.52,2.95,9.16-2.06,9.68l-32.53,3.42c-2.24.24-4.08,1.89-4.54,4.1l-6.8,31.99c-1.05,4.93-7.79,5.65-9.85,1.03l-13.3-29.87c-.92-2.06-3.05-3.29-5.3-3.06l-32.53,3.42c-5.01.52-7.77-5.67-4.02-9.04l24.3-21.88c1.67-1.51,2.19-3.92,1.28-5.98l-13.3-29.87c-2.06-4.61,2.99-9.15,7.35-6.62l28.32,16.35c1.95,1.13,4.41.87,6.09-.64l24.3-21.88v-.03Z"/></svg>