<?xml version="1.0" encoding="UTF-8"?><svg id="matilda-laughing_svg__Layer_1" xmlns="http://www.w3.org/2000/svg" version="1.1" viewBox="0 0 500 500"><!--Generator: Adobe Illustrator 29.8.3, SVG Export Plug-In . SVG Version: 2.1.1 Build 3)--><defs><style>.matilda-laughing_svg__st0{fill:#901065}.matilda-laughing_svg__st1{fill:#ffa700}</style></defs><path class="matilda-laughing_svg__st0" d="M375.56,86.91c10.66,17.74,25.61,32.5,43.14,43.54,13.26,8.36,25.55,18.18,36.62,29.28,1.1,1.1,2.18,2.21,3.25,3.32,47.2,49.29,47.2,127.47,0,176.76-1.07,1.11-2.15,2.22-3.25,3.32-12.11,12.12-25.65,22.72-40.34,31.56-17.74,10.66-32.5,25.61-43.54,43.14-8.36,13.26-18.18,25.55-29.28,36.62-2.01,2.01-4.06,3.99-6.15,5.91-50.05,46.19-128.06,44.59-176.48-3.32-.26-.26-.52-.5-.77-.76-12.12-12.11-22.72-25.65-31.56-40.34-10.66-17.74-25.61-32.5-43.14-43.54-13.26-8.36-25.55-18.18-36.62-29.28-2.34-2.34-4.61-4.71-6.81-7.14-45.87-50.32-44.27-127.77,3.35-176.43.54-.55,1.08-1.11,1.64-1.65,12.4-12.4,25.96-22.92,40.34-31.56,17.74-10.66,32.5-25.61,43.54-43.14,8.36-13.26,18.18-25.55,29.28-36.62,1.99-1.99,3.99-3.91,6.03-5.81,48.72-45.05,124.43-45.05,173.15,0,2.04,1.88,4.05,3.82,6.03,5.81,12.4,12.4,22.92,25.96,31.56,40.34h.03Z"/><path class="matilda-laughing_svg__st1" d="M248.54,413.08c88.72,0,160.65-71.92,160.65-160.65s-71.92-160.65-160.65-160.65S87.89,163.71,87.89,252.44s71.92,160.65,160.65,160.65"/><path d="M241.86,180.21c3.32,3.72,2.99,9.43-.73,12.75,0,0-.01.01-.02.02l-2.83,2.51c-3.73,3.3-9.42,2.97-12.73-.75l-10.91-12.24c-3.59-4.03-9.89-4.03-13.48,0l-10.91,12.24c-3.31,3.72-9.01,4.05-12.73.75l-2.83-2.51c-3.73-3.31-4.08-9.02-.77-12.75,0,0,.01-.01.02-.02l27.23-30.54c3.59-4.03,9.89-4.03,13.48,0l27.23,30.54ZM374.77,180.21c3.32,3.72,2.99,9.43-.73,12.75,0,0-.01.01-.02.02l-2.83,2.51c-3.73,3.3-9.42,2.97-12.73-.75l-10.91-12.24c-3.59-4.03-9.89-4.03-13.48,0l-10.91,12.24c-3.31,3.72-9.01,4.05-12.73.75l-2.83-2.51c-3.73-3.31-4.08-9.02-.77-12.75,0,0,.01-.01.02-.02l27.23-30.54c3.59-4.03,9.89-4.03,13.48,0l27.23,30.54Z"/></svg>