<?xml version="1.0" encoding="UTF-8"?><svg id="matilda-base_svg__Layer_1" xmlns="http://www.w3.org/2000/svg" version="1.1" viewBox="0 0 500 500"><!--Generator: Adobe Illustrator 29.8.3, SVG Export Plug-In . SVG Version: 2.1.1 Build 3)--><defs><style>.matilda-base_svg__st0{fill:#901065}.matilda-base_svg__st1{fill:#fff}.matilda-base_svg__st2{fill:#ffa700}.matilda-base_svg__st3{stroke:#fff;stroke-miterlimit:10}</style></defs><path class="matilda-base_svg__st0" d="M374.04,86.58c10.61,17.67,25.51,32.37,42.96,43.36,13.21,8.33,25.44,18.11,36.47,29.16,1.09,1.09,2.17,2.2,3.24,3.3,47.01,49.09,47.01,126.95,0,176.04-1.07,1.11-2.15,2.21-3.24,3.3-12.06,12.07-25.55,22.63-40.17,31.43-17.67,10.61-32.37,25.51-43.36,42.96-8.33,13.21-18.11,25.44-29.16,36.47-2,2-4.05,3.97-6.13,5.89-49.85,46-127.54,44.41-175.75-3.3-.26-.26-.51-.5-.77-.76-12.07-12.06-22.63-25.55-31.43-40.17-10.61-17.67-25.51-32.37-42.96-43.36-13.21-8.33-25.44-18.11-36.47-29.16-2.33-2.33-4.59-4.69-6.78-7.11-45.68-50.12-44.09-127.24,3.34-175.7.54-.55,1.08-1.11,1.63-1.64,12.35-12.35,25.85-22.82,40.17-31.43,17.67-10.61,32.37-25.51,43.36-42.96,8.33-13.21,18.11-25.44,29.16-36.47,1.98-1.98,3.97-3.89,6-5.78,48.52-44.86,123.91-44.86,172.44,0,2.03,1.88,4.03,3.8,6,5.78,12.35,12.35,22.82,25.85,31.43,40.17h.03Z"/><path class="matilda-base_svg__st2" d="M247.55,411.41c88.36,0,159.99-71.63,159.99-159.99s-71.63-159.99-159.99-159.99S87.56,163.07,87.56,251.43s71.63,159.99,159.99,159.99"/><g class="eyes"><path class="matilda-base_svg__st1" d="M161.91,219.42c19.8,0,35.85-16.05,35.85-35.85s-16.05-35.85-35.85-35.85-35.85,16.05-35.85,35.85,16.05,35.85,35.85,35.85"/><path class="matilda-base_svg__st3" d="M149.31,202.43c10.42,0,18.86-8.44,18.86-18.86s-8.44-18.86-18.86-18.86-18.86,8.44-18.86,18.86,8.44,18.86,18.86,18.86h0Z"/><path class="matilda-base_svg__st1" d="M269.47,219.42c19.8,0,35.85-16.05,35.85-35.85s-16.05-35.85-35.85-35.85-35.85,16.05-35.85,35.85,16.05,35.85,35.85,35.85"/><path class="matilda-base_svg__st3" d="M258.15,202.43c10.42,0,18.86-8.44,18.86-18.86s-8.44-18.86-18.86-18.86-18.86,8.44-18.86,18.86,8.44,18.86,18.86,18.86Z"/></g></svg>