<?xml version="1.0" encoding="UTF-8"?><svg id="matilda-monocle_svg__Layer_1" xmlns="http://www.w3.org/2000/svg" version="1.1" viewBox="0 0 500 500"><!--Generator: Adobe Illustrator 29.8.3, SVG Export Plug-In . SVG Version: 2.1.1 Build 3)--><defs><style>.matilda-monocle_svg__st0{fill:#901065}.matilda-monocle_svg__st1{fill:#fff}.matilda-monocle_svg__st2{fill:#ffa700}</style></defs><path class="matilda-monocle_svg__st0" d="M124.23,86.09c-10.55,17.56-25.35,32.17-42.69,43.09-13.13,8.27-25.28,17.99-36.24,28.98-1.09,1.09-2.16,2.18-3.22,3.28-46.72,48.78-46.72,126.16,0,174.95,1.06,1.1,2.13,2.2,3.22,3.28,12.27,12.27,25.69,22.68,39.92,31.24,17.56,10.55,32.17,25.35,43.09,42.69,8.27,13.13,17.99,25.28,28.98,36.24,1.99,1.99,4.02,3.95,6.09,5.85,49.54,45.72,126.75,44.14,174.67-3.28.26-.26.51-.5.77-.75,12.27-12.27,22.68-25.69,31.24-39.92,10.55-17.56,25.35-32.17,42.69-43.09,13.13-8.27,25.28-17.99,36.24-28.98,2.31-2.31,4.56-4.66,6.74-7.06,45.4-49.81,43.82-126.46-3.32-174.61-.54-.55-1.07-1.1-1.62-1.63-11.98-12-25.39-22.49-39.92-31.24-17.56-10.55-32.17-25.35-43.09-42.69-8.27-13.13-17.99-25.28-28.98-36.24-1.97-1.97-3.95-3.87-5.96-5.75-48.22-44.58-123.15-44.58-171.37,0-2.02,1.86-4.01,3.78-5.96,5.75-12,11.98-22.49,25.39-31.24,39.92h-.03,0Z"/><path class="matilda-monocle_svg__st2" d="M249.94,408.91c-87.81,0-159-71.18-159-159S162.13,90.92,249.94,90.92s159,71.18,159,159-71.18,159-159,159"/><path d="M329.76,241.61c-18.34,0-33.2-14.29-33.2-31.93s14.87-31.93,33.2-31.93,33.2,14.29,33.2,31.93-14.87,31.93-33.2,31.93M188,241.61c-18.34,0-33.2-14.29-33.2-31.93s14.87-31.93,33.2-31.93,33.2,14.29,33.2,31.93-14.87,31.93-33.2,31.93"/><path d="M225.81,155.51c2.3-3.35,1.33-7.96-2.26-9.87-8.91-4.75-17.34-7.69-26.63-9.18-9.35-1.51-19.28-1.49-30.97-.7-4.06.27-6.99,3.97-6.42,7.99.52,3.73,3.88,6.37,7.64,6.12,11.38-.78,20.01-.75,27.74.5,7.14,1.15,13.79,3.38,21.26,7.34,3.33,1.76,7.51.91,9.63-2.21h.01ZM351.64,96.26c.38-3.86-2.43-7.34-6.3-7.48-9.27-.33-17.37.73-25.54,3.45-8.24,2.75-16.28,7.09-25.43,12.89-3.27,2.08-4.15,6.45-2.01,9.68s6.5,4.1,9.77,2.03c8.59-5.44,15.44-9.05,22.08-11.26,6.09-2.03,12.25-2.95,19.69-2.76,3.88.1,7.33-2.67,7.71-6.54h.01ZM266.54,196.92c0-34.97,28.1-63.22,62.64-63.22s62.64,28.25,62.64,63.22-28.1,63.22-62.64,63.22-62.64-28.25-62.64-63.22M252.5,196.92c0,42.62,34.28,77.26,76.69,77.26s76.69-34.65,76.69-77.26-34.29-77.26-76.69-77.26-76.69,34.65-76.69,77.26"/><path d="M391.31,464.78v.29c.13,3.04,2.61,5.48,5.68,5.52s5.61-2.35,5.8-5.39v-.29l2.95-264.99c.04-3.17-2.5-5.77-5.67-5.81,0,0-.01,0-.02,0-3.17-.04-5.78,2.51-5.81,5.68h0s-2.94,264.98-2.94,264.98h0Z"/><path class="matilda-monocle_svg__st1" d="M291.03,155.31c8.02-7.71,18.88-14.34,30.22-13.93l.54.03.29.03c3.03.32,5.3,2.96,5.12,6.03-.17,3.05-2.7,5.44-5.76,5.43h-.29l-.65-.03c-6.7-.09-14.51,4.01-21.51,10.73-7.15,6.88-12.14,15.29-13.42,21.17-.72,3.09-3.8,5.01-6.89,4.3-3.03-.7-4.95-3.69-4.33-6.74,1.92-8.8,8.48-19.12,16.68-27.01h.01Z"/></svg>