<?xml version="1.0" encoding="UTF-8"?><svg id="matilda-very-happy_svg__Layer_1" xmlns="http://www.w3.org/2000/svg" version="1.1" viewBox="0 0 500 500"><!--Generator: Adobe Illustrator 29.8.3, SVG Export Plug-In . SVG Version: 2.1.1 Build 3)--><defs><style>.matilda-very-happy_svg__st0{fill:#901065}.matilda-very-happy_svg__st1{fill:#fff}.matilda-very-happy_svg__st2{fill:#ffa700}.matilda-very-happy_svg__st3{fill:#ffa9e2}</style></defs><path class="matilda-very-happy_svg__st0" d="M428.61,131.84c3.96,21.27,13.22,41.18,26.35,58.38,9.94,13.03,18.38,27.13,25.17,42.04.67,1.48,1.33,2.96,1.97,4.44,28.23,65.5-.31,142.07-64.53,173.11-1.46.7-2.92,1.39-4.4,2.06-16.28,7.45-33.42,12.89-51.02,16.19-21.27,3.96-41.18,13.22-58.38,26.35-13.03,9.94-27.13,18.38-42.04,25.17-2.7,1.24-5.43,2.42-8.18,3.54-65.88,26.97-141.7-3.08-171.62-67.67-.16-.35-.32-.68-.48-1.03-7.45-16.28-12.89-33.42-16.18-51.02-3.96-21.27-13.22-41.18-26.35-58.38-9.94-13.03-18.38-27.13-25.18-42.04-1.43-3.13-2.79-6.29-4.07-9.48-26.55-66.03,3.29-141.29,67.69-171.55.73-.35,1.47-.69,2.21-1.02,16.29-7.45,33.42-12.89,51.02-16.18,21.27-3.96,41.18-13.22,58.38-26.35,13.03-9.94,27.13-18.38,42.04-25.18,2.65-1.21,5.33-2.37,8.02-3.49,64.16-26.33,138.3,1.31,169.57,63.21,1.31,2.59,2.57,5.22,3.78,7.89,7.45,16.28,12.89,33.42,16.18,51.02h.03Z"/><path class="matilda-very-happy_svg__st2" d="M297.24,408.61c88.14-28.8,136.26-123.59,107.46-211.74-28.8-88.15-123.59-136.26-211.74-107.46-88.14,28.79-136.26,123.59-107.46,211.74,28.8,88.14,123.59,136.26,211.74,107.46"/><path class="matilda-very-happy_svg__st1" d="M155.9,212.44c20.78,0,37.63-16.85,37.63-37.63s-16.85-37.63-37.63-37.63-37.63,16.85-37.63,37.63,16.85,37.63,37.63,37.63M268.78,212.44c20.78,0,37.63-16.85,37.63-37.63s-16.85-37.63-37.63-37.63-37.63,16.85-37.63,37.63,16.85,37.63,37.63,37.63"/><path d="M154.54,162.14c7.33-.09,13.76,3.69,19.86,9.27,3.02,2.77,2.8,7.51-.21,10.29-3.01,2.78-7.64,2.52-10.73-.16-4.28-3.72-6.92-4.59-8.73-4.56-1.91.03-4.61,1.04-8.94,4.74-3.11,2.66-7.76,2.83-10.71-.01s-3.09-7.58-.03-10.31c6-5.36,12.32-9.16,19.49-9.25M267.83,162.14c7.33-.09,13.76,3.69,19.86,9.27,3.02,2.77,2.8,7.51-.21,10.29-3.01,2.78-7.64,2.52-10.73-.16-4.28-3.72-6.92-4.59-8.73-4.56-1.92.03-4.61,1.04-8.94,4.74-3.11,2.66-7.76,2.83-10.71-.01s-3.09-7.58-.03-10.31c6-5.36,12.32-9.16,19.49-9.25"/><circle class="matilda-very-happy_svg__st3" cx="114.23" cy="253.17" r="40.46"/><circle class="matilda-very-happy_svg__st3" cx="309.77" cy="253.17" r="40.46"/></svg>