<?xml version="1.0" encoding="UTF-8"?><svg id="petra-star-eyes_svg__Layer_1" xmlns="http://www.w3.org/2000/svg" version="1.1" viewBox="0 0 500 500"><!--Generator: Adobe Illustrator 29.8.3, SVG Export Plug-In . SVG Version: 2.1.1 Build 3)--><defs><style>.petra-star-eyes_svg__st0{fill:#ffc628}.petra-star-eyes_svg__st1{fill:#0083d7}</style></defs><path d="M372.06,174.53c6.92,13.83,63.79-26.13,74.54-35.35s15.37-24.59,8.01-43.65c-7.36-19.06-49.51-2.46-49.51-2.46,0,0,47.65-39.96,15.37-59.94-32.28-19.98-184.79,62.4-184.79,62.4,0,0,129.46,65.17,136.38,79"/><path class="petra-star-eyes_svg__st0" d="M219.13,485c108.65,0,196.73-88.08,196.73-196.73s-88.08-196.73-196.73-196.73S22.39,179.62,22.39,288.27s88.08,196.73,196.73,196.73"/><path d="M337.55,256.96l-17.84,55.29c-6.9,21.39,6.41,44,28.45,48.37l105.13,20.76c25.88,5.12,46.37-21.72,34.63-45.34l-46.6-93.77c-11.28-22.7-38.58-32.29-61.57-21.63l-17.05,7.9c-11.98,5.56-21.1,15.86-25.16,28.42h.02Z"/><path class="petra-star-eyes_svg__st1 throb" d="M64.26,79.4c.29-6.15,8.22-8.45,11.3-3.29l24.78,41.5c1.37,2.31,4.09,3.35,6.7,2.6l44.79-13.06c5.61-1.63,9.82,4.83,6.26,9.61l-29.77,39.99c-1.55,2.07-1.72,4.86-.43,7.02l25.44,42.62c3.04,5.09-2.27,11.4-7.7,9.15l-42.24-17.64c-2.55-1.06-5.55-.18-7.27,2.12l-28.47,38.24c-3.66,4.92-11.16,2.34-10.87-3.72l2.44-50.74c.12-2.57-1.31-4.89-3.6-5.84l-44.16-18.44c-5.29-2.21-4.61-10.1,1-11.73l44.8-13.06c2.6-.75,4.47-3.15,4.61-5.89l2.38-49.41v-.02ZM308.7,83.45c4.21-4.13,11.13.2,9.94,6.24l-9.53,48.77c-.52,2.69.66,5.5,2.95,6.93l40.13,25.21c5,3.14,3.61,11.08-2.03,11.73l-46.62,5.33c-2.49.28-4.47,2.2-4.98,4.8l-9.68,49.52c-1.17,5.99-8.93,6.58-11.27.85l-18.58-45.4c-1.08-2.64-3.66-4.26-6.29-3.95l-45.43,5.2c-5.73.66-9.15-6.95-4.96-11.04l34.58-33.88c1.81-1.77,2.34-4.61,1.32-7.09l-19.07-46.59c-2.31-5.64,3.34-10.91,8.33-7.78l40.13,25.21c2.27,1.43,5.12,1.15,6.99-.69l34.06-33.35v-.02Z"/></svg>