<svg xmlns="http://www.w3.org/2000/svg" id="Layer_1" viewBox="0 0 500 500"><defs><style>.st0{fill:#fff}</style></defs><path d="M319.62 161.94c7 7.23 34.45-28.71 39.32-36.54s4.72-18.27-3.58-28.66-31.2 8.18-31.2 8.18 21.73-34.13-2.21-40.2-102.42 74.92-102.42 74.92 93.09 15.07 100.09 22.3"/><path d="M253 387c70.69 0 128-57.31 128-128s-57.31-128-128-128-128 57.31-128 128 57.31 128 128 128" style="fill:#ffc628"/><path d="m370.61 237.59-30.16 22.79c-11.67 8.82-13.03 25.84-2.91 36.39l48.24 50.34c11.88 12.4 32.81 5.76 35.39-11.21l10.21-67.36c2.47-16.3-8.49-31.61-24.72-34.53l-12.03-2.16c-8.46-1.52-17.16.56-24.02 5.74"/><g class="eyes"><path d="M249.91 195.9c11.43-19.24 24.83-28.16 40.59-24.75-6.11 3.18-9.55 10.18-7.95 17.2s7.46 11.61 14.14 12.01c-12.94 10.15-28.53 8.66-46.78-4.46" class="st0"/><path d="M282.55 188.35c-1.6-7.02 1.85-14.02 7.95-17.2 6.53 1.41 13.46 4.95 20.83 10.74q-6.645 12.21-14.64 18.48a15.49 15.49 0 0 1-14.14-12.01Z"/></g><g class="eyes"><path d="M168.99 214.37c11.43-19.23 24.83-28.16 40.59-24.75-6.11 3.18-9.56 10.18-7.95 17.2 1.6 7.02 7.46 11.61 14.14 12.02-12.93 10.15-28.53 8.66-46.78-4.47" class="st0"/><path d="M201.63 206.82c-1.6-7.02 1.85-14.02 7.95-17.2 6.53 1.41 13.46 4.95 20.83 10.74q-6.645 12.21-14.64 18.48c-6.68-.4-12.57-5.16-14.14-12.02"/></g></svg>