<?xml version="1.0" encoding="UTF-8"?><svg id="petra-square-eyes_svg__Layer_1" xmlns="http://www.w3.org/2000/svg" version="1.1" viewBox="0 0 500 500"><!--Generator: Adobe Illustrator 29.8.3, SVG Export Plug-In . SVG Version: 2.1.1 Build 3)--><defs><style>.petra-square-eyes_svg__st0{fill:#fff}.petra-square-eyes_svg__st1{fill:#ffc628}</style></defs><path d="M341.15,161.32c6.67,13.33,61.49-25.19,71.86-34.08,10.37-8.89,14.82-23.71,7.72-42.08-7.1-18.37-47.72-2.37-47.72-2.37,0,0,45.93-38.52,14.82-57.78s-178.14,60.15-178.14,60.15c0,0,124.8,62.82,131.47,76.16"/><path class="petra-square-eyes_svg__st1" d="M193.73,460.61c104.74,0,189.65-84.91,189.65-189.65s-84.91-189.65-189.65-189.65S4.08,166.23,4.08,270.96s84.91,189.65,189.65,189.65"/><path d="M346.78,230.9l-17.2,53.29c-6.65,20.62,6.18,42.42,27.43,46.63l101.34,20.02c24.95,4.93,44.7-20.94,33.38-43.71l-44.92-90.39c-10.88-21.88-37.19-31.13-59.35-20.85l-16.43,7.62c-11.55,5.35-20.34,15.28-24.25,27.4h.01Z"/><g class="eyes"><rect class="petra-square-eyes_svg__st0" x="61.12" y="115.66" width="94.82" height="94.82" rx="8" ry="8"/><rect class="petra-square-eyes_svg__st0" x="194.47" y="117.61" width="94.82" height="94.82" rx="8" ry="8"/><path d="M108.06,186.3c12.02,0,21.75-9.73,21.75-21.75s-9.73-21.75-21.75-21.75-21.75,9.73-21.75,21.75,9.73,21.75,21.75,21.75M241.41,184.82c12.02,0,21.75-9.73,21.75-21.75s-9.73-21.75-21.75-21.75-21.75,9.73-21.75,21.75,9.73,21.75,21.75,21.75"/></g></svg>