<?xml version="1.0" encoding="UTF-8"?><svg id="petra-squint_svg__Layer_1" xmlns="http://www.w3.org/2000/svg" version="1.1" viewBox="0 0 500 500"><!--Generator: Adobe Illustrator 29.8.3, SVG Export Plug-In . SVG Version: 2.1.1 Build 3)--><defs><style>.petra-squint_svg__st0{fill:#fff}.petra-squint_svg__st1{fill:#ffc628}.petra-squint_svg__st2{stroke:#fff;stroke-miterlimit:10}</style></defs><path d="M254.68,142.16c12.85,7.02,35.47-54.8,38.85-67.78s-1.34-27.44-17.36-38.26-39.82,24.84-39.82,24.84c0,0,15.44-56.82-20.45-54.91s-109.95,148.41-109.95,148.41c0,0,135.88-19.31,148.73-12.3"/><path class="petra-squint_svg__st1" d="M208.06,489c102.89,0,186.3-83.41,186.3-186.3s-83.41-186.3-186.3-186.3S21.76,199.81,21.76,302.7s83.41,186.3,186.3,186.3"/><path d="M399.29,246.01l-39.15,38.64c-15.15,14.96-13.84,39.76,2.77,53.07l79.25,63.39c19.5,15.62,48.45,2.02,48.9-22.95l1.83-99.15c.45-24-18.3-43.98-42.27-45.08l-17.77-.82c-12.49-.57-24.65,4.1-33.55,12.88h-.01Z"/><g class="eyes"><path class="petra-squint_svg__st0" d="M123.5,238.37c22.43,0,40.61-18.18,40.61-40.61s-18.18-40.61-40.61-40.61-40.61,18.18-40.61,40.61,18.18,40.61,40.61,40.61"/><path class="petra-squint_svg__st2" d="M144.28,218.08c11.8,0,21.37-9.56,21.37-21.37s-9.56-21.37-21.37-21.37-21.37,9.56-21.37,21.37,9.56,21.37,21.37,21.37h0Z"/><path class="petra-squint_svg__st0" d="M245.32,238.37c22.43,0,40.61-18.18,40.61-40.61s-18.18-40.61-40.61-40.61-40.61,18.18-40.61,40.61,18.18,40.61,40.61,40.61"/><path class="petra-squint_svg__st2" d="M224.33,218.08c11.8,0,21.37-9.56,21.37-21.37s-9.56-21.37-21.37-21.37-21.37,9.56-21.37,21.37,9.56,21.37,21.37,21.37h0Z"/></g></svg>