<?xml version="1.0" encoding="UTF-8"?><svg id="petra-laughing_svg__Layer_1" xmlns="http://www.w3.org/2000/svg" version="1.1" viewBox="0 0 500 500"><!--Generator: Adobe Illustrator 29.8.3, SVG Export Plug-In . SVG Version: 2.1.1 Build 3)--><defs><style>.petra-laughing_svg__st0{fill:#ffc628}.petra-laughing_svg__st1{fill:#adadad}</style></defs><path d="M265.07,130.99c5.9,11.36,52.42-22.42,61.21-30.2s12.4-20.54,6.06-36.22c-6.33-15.68-40.98-1.39-40.98-1.39,0,0,38.91-33.66,11.95-49.77-26.96-16.12-152.06,53.96-152.06,53.96,0,0,107.91,52.26,113.81,63.61h0Z"/><path class="petra-laughing_svg__st0" d="M194.96,384.29c89.88,0,162.75-72.86,162.75-162.75S284.84,58.8,194.96,58.8,32.21,131.66,32.21,221.54s72.86,162.75,162.75,162.75"/><path d="M343.55,198.82l27.78,39.22c10.75,15.17,32.32,17.57,46.14,5.12l65.85-59.35c16.21-14.61,8.61-41.48-12.87-45.41l-85.21-15.6c-20.63-3.78-40.51,9.55-44.84,30.08l-3.22,15.2c-2.26,10.69.05,21.83,6.36,30.74h.02Z"/><path class="petra-laughing_svg__st1" d="M208.94,493c78.3,0,141.77-9.68,141.77-21.61s-63.47-21.61-141.77-21.61-141.77,9.68-141.77,21.61,63.47,21.61,141.77,21.61"/><path d="M148.96,151.65c3.27,3.67,2.95,9.3-.72,12.57,0,0-.01.01-.02.02l-2.79,2.47c-3.67,3.25-9.28,2.92-12.55-.74l-10.75-12.06c-3.54-3.97-9.75-3.97-13.29,0l-10.75,12.06c-3.26,3.66-8.88,3.99-12.55.74l-2.79-2.47c-3.68-3.26-4.02-8.89-.76-12.56,0,0,.01-.01.02-.02l26.83-30.09c3.54-3.97,9.75-3.97,13.29,0l26.83,30.09ZM279.92,150.38c3.27,3.67,2.95,9.3-.72,12.57,0,0-.01.01-.02.02l-2.79,2.47c-3.67,3.25-9.28,2.92-12.55-.74l-10.75-12.06c-3.54-3.97-9.75-3.97-13.29,0l-10.75,12.06c-3.26,3.66-8.88,3.99-12.55.74l-2.79-2.47c-3.68-3.26-4.02-8.89-.76-12.56,0,0,.01-.01.02-.02l26.83-30.09c3.54-3.97,9.75-3.97,13.29,0l26.83,30.09Z"/></svg>