<?xml version="1.0" encoding="UTF-8"?><svg id="petra-angel_svg__Layer_1" xmlns="http://www.w3.org/2000/svg" version="1.1" viewBox="0 0 500 500"><!--Generator: Adobe Illustrator 29.8.3, SVG Export Plug-In . SVG Version: 2.1.1 Build 3)--><defs><style>.petra-angel_svg__st0{fill:#ffc628}.petra-angel_svg__st1{fill:#0083d7}</style></defs><path d="M353.67,241.19c-.85,14.09,62.35,8.46,75.06,6.08,12.71-2.38,23.37-12.42,26.25-30.85,2.88-18.43-38.01-24.54-38.01-24.54,0,0,55.9-9.84,39.51-40.37-16.4-30.53-174.56-35.01-174.56-35.01,0,0,72.59,110.6,71.75,124.69"/><path class="petra-angel_svg__st1" d="M324.52,92.76c0-16.04-53.08-29.05-118.55-29.05s-118.55,13.01-118.55,29.05,53.08,29.05,118.55,29.05,118.55-13.01,118.55-29.05M382.04,92.76c0,26.53-21.71,42.54-33.43,49.33-13.15,7.62-28.46,12.56-42.2,15.93-28.2,6.91-63.7,10.5-100.44,10.5s-72.24-3.59-100.44-10.5c-13.74-3.37-29.04-8.31-42.2-15.93-11.71-6.79-33.43-22.8-33.43-49.33s21.71-42.54,33.43-49.33c13.15-7.62,28.46-12.56,42.2-15.93,28.2-6.91,63.7-10.5,100.44-10.5s72.24,3.59,100.44,10.5c13.74,3.37,29.04,8.31,42.2,15.93,11.71,6.79,33.43,22.8,33.43,49.33"/><path class="petra-angel_svg__st0" d="M203.17,447c99.18,0,179.58-80.4,179.58-179.58s-80.4-179.58-179.58-179.58S23.59,168.25,23.59,267.42s80.4,179.58,179.58,179.58"/><path d="M318.8,341.38l18.41,49.73c7.13,19.23,29.43,27.96,47.71,18.63l87.14-44.45c21.45-10.94,21.02-41.75-.74-52.08l-86.36-40.97c-20.9-9.92-45.9-1.39-56.38,19.25l-7.77,15.28c-5.46,10.74-6.19,23.28-2.01,34.58h.01ZM171.21,186.7h-14.35c0-15.22-12.39-27.61-27.61-27.61s-27.61,12.39-27.61,27.61h-14.35c0-23.15,18.83-41.96,41.96-41.96s41.96,18.83,41.96,41.96M286.64,186.7h-14.35c0-15.22-12.39-27.61-27.61-27.61s-27.61,12.39-27.61,27.61h-14.35c0-23.15,18.83-41.96,41.96-41.96s41.96,18.83,41.96,41.96"/></svg>