<svg xmlns="http://www.w3.org/2000/svg" id="Layer_1" viewBox="0 0 500 500"><defs><style>.st0{fill:#fff}</style></defs><path d="M319.62 161.94c7 7.23 34.45-28.71 39.32-36.54s4.72-18.27-3.58-28.66-31.2 8.18-31.2 8.18 21.73-34.13-2.21-40.2-102.42 74.92-102.42 74.92 93.09 15.07 100.09 22.3"/><path d="M253 387c70.69 0 128-57.31 128-128s-57.31-128-128-128-128 57.31-128 128 57.31 128 128 128" style="fill:#ffc628"/><path d="m370.61 237.59-30.16 22.79c-11.67 8.82-13.03 25.84-2.91 36.39l48.24 50.34c11.88 12.4 32.81 5.76 35.39-11.21l10.21-67.36c2.47-16.3-8.49-31.61-24.72-34.53l-12.03-2.16c-8.46-1.52-17.16.56-24.02 5.74"/><g class="eyes"><path d="M229.5 198.4c-15.42 16.21-30.47 21.93-45.08 15.1 6.66-1.74 11.58-7.8 11.58-15s-4.69-12.98-11.11-14.86q22.305-10.53 44.61 14.76" class="st0"/><path d="M196 198.5c0 7.2-4.92 13.26-11.58 15-6.05-2.83-12.02-7.82-17.92-15.1q9.195-10.425 18.39-14.76c6.42 1.88 11.11 7.83 11.11 14.86"/><path d="M312.5 198.4c-15.42 16.21-30.47 21.93-45.08 15.1 6.66-1.74 11.58-7.8 11.58-15s-4.69-12.98-11.11-14.86q22.305-10.53 44.61 14.76" class="st0"/><path d="M279 198.5c0 7.2-4.92 13.26-11.58 15-6.05-2.83-12.02-7.82-17.92-15.1q9.195-10.425 18.39-14.76c6.42 1.88 11.11 7.83 11.11 14.86"/></g></svg>