<svg xmlns="http://www.w3.org/2000/svg" width="500" height="500" fill="none" viewBox="0 0 500 500"><path fill="#000" d="M321.78 214.8c-.603 10.044 44.44 6.027 53.502 4.331s16.66-8.856 18.712-21.99-27.094-17.49-27.094-17.49 39.846-7.017 28.16-28.775c-11.687-21.759-124.422-24.955-124.422-24.955s51.745 78.835 51.142 88.879"/><path fill="#0083d7" d="M301 109c0-11.436-37.832-20.707-84.5-20.707S132 97.564 132 109s37.832 20.707 84.5 20.707S301 120.436 301 109m41 0c0 18.91-15.477 30.325-23.827 35.162-9.375 5.432-20.286 8.954-30.077 11.354C267.995 160.441 242.692 163 216.5 163s-51.495-2.559-71.596-7.484c-9.791-2.4-20.702-5.922-30.077-11.354C106.477 139.325 91 127.91 91 109s15.477-30.325 23.827-35.162c9.375-5.432 20.286-8.954 30.077-11.354C165.005 57.56 190.308 55 216.5 55s51.495 2.559 71.596 7.484c9.791 2.4 20.702 5.922 30.077 11.354C326.523 78.675 342 90.09 342 109"/><path fill="#ffc628" d="M214.5 361.5c70.692 0 128-57.308 128-128s-57.308-128-128-128-128 57.308-128 128 57.308 128 128 128"/><path fill="#000" d="m296.923 286.215 13.12 35.45c5.08 13.71 20.98 19.93 34.01 13.28l62.11-31.68c15.29-7.8 14.98-29.76-.53-37.12l-61.56-29.2c-14.9-7.07-32.72-.99-40.19 13.72l-5.54 10.89a30.82 30.82 0 0 0-1.43 24.65zM191.72 175.96h-10.23c0-10.85-8.83-19.68-19.68-19.68s-19.68 8.83-19.68 19.68H131.9c0-16.5 13.42-29.91 29.91-29.91s29.91 13.42 29.91 29.91M274 175.96h-10.23c0-10.85-8.83-19.68-19.68-19.68s-19.68 8.83-19.68 19.68h-10.23c0-16.5 13.42-29.91 29.91-29.91S274 159.47 274 175.96"/></svg>