<?xml version="1.0" encoding="UTF-8"?><svg id="petra-base_svg__Layer_1" xmlns="http://www.w3.org/2000/svg" version="1.1" viewBox="0 0 500 500"><!--Generator: Adobe Illustrator 29.8.3, SVG Export Plug-In . SVG Version: 2.1.1 Build 3)--><defs><style>.petra-base_svg__st0{fill:#fff}.petra-base_svg__st1{fill:#ffc628}.petra-base_svg__st2{stroke:#fff;stroke-miterlimit:10}</style></defs><path d="M373.33,167.95c7.29,14.57,67.19-27.52,78.52-37.24,11.33-9.71,16.19-25.9,8.44-45.98-7.76-20.08-52.15-2.59-52.15-2.59,0,0,50.19-42.09,16.19-63.14s-194.66,65.73-194.66,65.73c0,0,136.37,68.65,143.66,83.22"/><path class="petra-base_svg__st1" d="M212.24,495c114.45,0,207.24-92.79,207.24-207.24s-92.79-207.24-207.24-207.24S5,173.31,5,287.76s92.79,207.24,207.24,207.24"/><path d="M336.98,254.78l-18.8,58.24c-7.27,22.54,6.75,46.35,29.97,50.95l110.74,21.87c27.26,5.39,48.85-22.88,36.48-47.76l-49.09-98.78c-11.88-23.91-40.64-34.02-64.86-22.78l-17.96,8.32c-12.62,5.85-22.22,16.7-26.5,29.94h.02Z"/><g class="eyes"><path class="petra-base_svg__st0" d="M118.17,216.2c24.95,0,45.17-20.22,45.17-45.17s-20.22-45.17-45.17-45.17-45.17,20.22-45.17,45.17,20.22,45.17,45.17,45.17"/><path class="petra-base_svg__st2" d="M103.91,194.8c13.13,0,23.77-10.64,23.77-23.77s-10.64-23.77-23.77-23.77-23.77,10.64-23.77,23.77,10.64,23.77,23.77,23.77h0Z"/><path class="petra-base_svg__st0" d="M253.68,216.2c24.95,0,45.17-20.22,45.17-45.17s-20.22-45.17-45.17-45.17-45.17,20.22-45.17,45.17,20.22,45.17,45.17,45.17"/><path class="petra-base_svg__st2" d="M239.42,194.8c13.13,0,23.77-10.64,23.77-23.77s-10.64-23.77-23.77-23.77-23.77,10.64-23.77,23.77,10.64,23.77,23.77,23.77h0Z"/></g></svg>