<svg xmlns="http://www.w3.org/2000/svg" id="Layer_1" viewBox="0 0 500 500"><defs><style>.st0{fill:#901065}</style></defs><path d="M269.64 162.28c4.64 8.93 41.23-17.63 48.14-23.75s9.75-16.15 4.77-28.49c-4.98-12.33-32.23-1.1-32.23-1.1s30.6-26.47 9.4-39.15c-21.2-12.67-119.59 42.44-119.59 42.44s84.87 41.1 89.51 50.03Z"/><path d="M214.5 361.5c70.69 0 128-57.31 128-128s-57.31-128-128-128-128 57.31-128 128 57.31 128 128 128" style="fill:#ffc628"/><path d="m311.87 245.77-12.13 35.8c-4.69 13.85 3.75 28.69 18.06 31.73l68.2 14.5c16.79 3.57 30.38-13.68 22.96-29.17l-29.43-61.45c-7.12-14.88-24.79-21.37-39.86-14.65l-11.16 4.97a30.8 30.8 0 0 0-16.63 18.25ZM178.33 178.53a7 7 0 0 1-.58 9.9l-2.2 1.95a7 7 0 0 1-9.87-.58l-8.46-9.49c-2.78-3.12-7.67-3.12-10.45 0l-8.46 9.49a7 7 0 0 1-9.87.58l-2.2-1.95a7 7 0 0 1-.58-9.9l21.1-23.67c2.78-3.12 7.67-3.12 10.45 0l21.1 23.67ZM281.33 177.53a7 7 0 0 1-.58 9.9l-2.2 1.95a7 7 0 0 1-9.87-.58l-8.46-9.49c-2.78-3.12-7.67-3.12-10.45 0l-8.46 9.49a7 7 0 0 1-9.87.58l-2.2-1.95a7 7 0 0 1-.58-9.9l21.1-23.67c2.78-3.12 7.67-3.12 10.45 0l21.1 23.67Z"/><path d="M132.39 332.73c15.85-9.15 33.55-59.83 14.7-92.48-9.65-16.71-30.31-22.84-46.16-13.69-9.71 5.6-15.35 15.64-16.05 26.42-8.99-3.41-19.14-3-27.85 2.03-15.85 9.15-20.87 30.11-11.23 46.82 19.42 33.63 69.64 40.69 85.48 31.54l1.1-.64ZM283.56 165.01c15.85 9.15 68.59-.86 87.44-33.51 9.65-16.71 4.62-37.67-11.23-46.82-9.71-5.6-21.22-5.48-30.91-.69-1.54-9.49-6.98-18.08-15.68-23.1-15.85-9.15-36.51-3.02-46.16 13.69-19.42 33.63-.42 80.65 15.43 89.8l1.1.64ZM256.18 330.37c12.04 8.15 54.42 3.19 71.2-21.62 8.59-12.7 5.79-29.59-6.25-37.74-7.38-4.99-16.51-5.54-24.46-2.3-.68-7.61-4.51-14.72-11.12-19.2-12.04-8.15-28.77-4.46-37.36 8.24-17.29 25.56-4.89 63.9 7.15 72.05z" class="st0 throb"/></svg>