<?xml version="1.0" encoding="UTF-8"?><svg id="petra-boom_svg__Layer_1" xmlns="http://www.w3.org/2000/svg" version="1.1" viewBox="0 0 500 561"><!--Generator: Adobe Illustrator 29.8.3, SVG Export Plug-In . SVG Version: 2.1.1 Build 3)--><defs><style>.petra-boom_svg__st0{fill:#901065}.petra-boom_svg__st1{fill:#fff}.petra-boom_svg__st2{fill:#4c4c4c}.petra-boom_svg__st3{fill:#ffc628}.petra-boom_svg__st4{fill:#0083d7}.petra-boom_svg__st5{stroke:#fff;stroke-miterlimit:10}</style></defs><path class="petra-boom_svg__st3" d="M82.98,100.55l6.55,20.17h21.21l-17.16,12.46,6.55,20.17-17.16-12.46-17.16,12.46,6.55-20.17-17.16-12.46h21.21l6.55-20.17h.03Z"/><path class="petra-boom_svg__st4" d="M89.32,147.51l10.25,31.58h33.2l-26.86,19.51,10.25,31.58-26.86-19.51-26.86,19.51,10.25-31.58-26.86-19.51h33.19l10.25-31.58h.01Z"/><path class="petra-boom_svg__st3" d="M289.85,113.24l10.25,31.58h33.19l-26.86,19.51,10.25,31.58-26.86-19.51-26.86,19.51,10.25-31.58-26.86-19.51h33.19l10.25-31.58h.03Z"/><path class="petra-boom_svg__st2" d="M102.41,111.96c-.56-3.03-.85-6.16-.85-9.34,0-28.47,23.14-51.55,51.67-51.55,13.15,0,25.15,4.9,34.28,12.97,5.43-1.94,11.3-3,17.4-3,9.67,0,18.71,2.65,26.45,7.26,9.47-10.57,23.23-17.23,38.56-17.23,28.54,0,51.67,23.09,51.67,51.55,0,18.3-9.56,34.37-23.96,43.52.41,2.61.62,5.31.62,8.03,0,28.47-23.14,51.55-51.67,51.55-5.84,0-11.43-.96-16.66-2.74v40.99h-88.34v-36.6c-5.7,2.16-11.88,3.34-18.34,3.34-28.54,0-51.67-23.09-51.67-51.55,0-21.08,12.68-39.2,30.85-47.2"/><path class="petra-boom_svg__st4" d="M256.85,158.93l10.25,31.58h33.19l-26.86,19.51,10.25,31.58-26.86-19.51-26.86,19.51,10.25-31.58-26.86-19.51h33.19l10.25-31.58h.03Z"/><path class="petra-boom_svg__st3" d="M316.5,81.51l5.98,18.42h19.37l-15.66,11.38,5.98,18.42-15.66-11.38-15.66,11.38,5.98-18.42-15.66-11.38h19.37l5.98-18.42Z"/><path class="petra-boom_svg__st0" d="M126.13.29l6.55,20.17h21.21l-17.16,12.46,6.55,20.17-17.16-12.46-17.16,12.46,6.55-20.17-17.16-12.46h21.21L126.1.29h.03ZM152.15,147.51l3.27,10.09h10.6l-8.58,6.23,3.27,10.09-8.58-6.23-8.58,6.23,3.27-10.09-8.58-6.23h10.6l3.27-10.09h.03ZM313.96,23.13l6.55,20.17h21.21l-17.16,12.46,6.55,20.17-17.16-12.46-17.16,12.46,6.55-20.17-17.16-12.46h21.21l6.55-20.17h.03Z"/><path class="petra-boom_svg__st3" d="M205.45,553c89.72,0,162.45-72.73,162.45-162.45s-72.73-162.45-162.45-162.45S43,300.83,43,390.55s72.73,162.45,162.45,162.45"/><path d="M345.54,363.57l26.79,39.8c10.37,15.39,31.84,18.29,45.92,6.22l67.12-57.66c16.52-14.19,9.57-41.18-11.76-45.61l-84.65-17.59c-20.5-4.26-40.65,8.57-45.46,28.94l-3.57,15.09c-2.5,10.61-.47,21.79,5.61,30.84v-.03Z"/><g class="eyes"><path class="petra-boom_svg__st1" d="M131.71,357.93c19.56,0,35.41-15.85,35.41-35.41s-15.85-35.41-35.41-35.41-35.41,15.85-35.41,35.41,15.85,35.41,35.41,35.41"/><path class="petra-boom_svg__st5" d="M130.8,341.51c10.29,0,18.63-8.34,18.63-18.63s-8.34-18.63-18.63-18.63-18.63,8.34-18.63,18.63,8.34,18.63,18.63,18.63Z"/></g><g class="eyes"><path class="petra-boom_svg__st1" d="M237.94,334.45c19.56,0,35.41-15.85,35.41-35.41s-15.85-35.41-35.41-35.41-35.41,15.85-35.41,35.41,15.85,35.41,35.41,35.41"/><path class="petra-boom_svg__st5" d="M236.14,318.03c10.29,0,18.63-8.34,18.63-18.63s-8.34-18.63-18.63-18.63-18.63,8.34-18.63,18.63,8.34,18.63,18.63,18.63Z"/></g></svg>