<?xml version="1.0" encoding="UTF-8"?><svg id="petra-hmmm_svg__Layer_1" xmlns="http://www.w3.org/2000/svg" version="1.1" viewBox="0 0 500 500"><!--Generator: Adobe Illustrator 29.8.3, SVG Export Plug-In . SVG Version: 2.1.1 Build 3)--><defs><style>.petra-hmmm_svg__st0{fill:#fff}.petra-hmmm_svg__st1{fill:#ffc628}</style></defs><path d="M327.24,153.35c10.5,10.85,51.68-43.07,58.99-54.82,7.31-11.75,7.08-27.41-5.37-43-12.45-15.59-46.81,12.27-46.81,12.27,0,0,32.6-51.2-3.32-60.31-35.92-9.11-153.66,112.4-153.66,112.4,0,0,139.66,22.61,150.16,33.46"/><path class="petra-hmmm_svg__st1" d="M227.29,491c106.06,0,192.04-85.98,192.04-192.04s-85.98-192.04-192.04-192.04S35.25,192.91,35.25,298.96s85.98,192.04,192.04,192.04"/><path d="M403.74,266.84l-45.25,34.19c-17.51,13.23-19.55,38.77-4.37,54.6l72.37,75.52c17.82,18.6,49.22,8.64,53.1-16.82l15.32-101.06c3.71-24.45-12.74-47.42-37.09-51.8l-18.05-3.24c-12.69-2.28-25.74.84-36.04,8.61"/><g class="eyes"><path class="petra-hmmm_svg__st0" d="M222.65,204.3c17.15-28.87,37.25-42.25,60.9-37.13-9.17,4.77-14.33,15.27-11.93,25.8,2.4,10.53,11.19,17.42,21.21,18.02-19.41,15.23-42.8,12.99-70.18-6.69"/><path d="M271.62,192.97c-2.4-10.53,2.78-21.03,11.93-25.8,9.8,2.12,20.19,7.43,31.25,16.11-6.65,12.21-13.97,21.45-21.96,27.73-10.28-.64-18.92-7.97-21.21-18.02v-.02Z"/></g><g class="eyes"><path class="petra-hmmm_svg__st0" d="M101.25,232.01c17.15-28.85,37.25-42.25,60.9-37.13-9.17,4.77-14.34,15.27-11.93,25.8,2.4,10.53,11.19,17.42,21.21,18.03-19.4,15.23-42.8,12.99-70.18-6.71"/><path d="M150.22,220.68c-2.4-10.53,2.78-21.03,11.93-25.8,9.8,2.12,20.19,7.43,31.25,16.11-6.65,12.21-13.97,21.45-21.96,27.73-10.02-.6-18.86-7.74-21.21-18.03"/></g></svg>