<svg xmlns="http://www.w3.org/2000/svg" id="Layer_1" viewBox="0 0 500 500"><defs><style>.st0{fill:#dd70b8}.st2{fill:#fff}.st3{fill:#0083d7}.st4{stroke:#fff;stroke-miterlimit:10}</style></defs><path d="M325 199.5c4.5 9 41.5-17 48.5-23s10-16 5.21-28.4-32.21-1.6-32.21-1.6 31-26 10-39-120.23 40.6-120.23 40.6 84.23 42.4 88.73 51.4" class="st0"/><path d="M225.5 401.5c70.69 0 128-57.31 128-128s-57.31-128-128-128-128 57.31-128 128 57.31 128 128 128" style="fill:#bfe6ff"/><path d="m302.55 253.13-11.61 35.97c-4.49 13.92 4.17 28.63 18.51 31.47l68.4 13.51c16.84 3.33 30.17-14.13 22.53-29.5l-30.32-61.01c-7.34-14.77-25.1-21.01-40.06-14.07l-11.09 5.14a30.84 30.84 0 0 0-16.37 18.49Z" class="st0"/><g class="eyes"><path d="M167.4 229.3c15.41 0 27.9-12.49 27.9-27.9s-12.49-27.9-27.9-27.9-27.9 12.49-27.9 27.9 12.49 27.9 27.9 27.9" class="st2"/><path d="M166.68 216.36c8.11 0 14.68-6.57 14.68-14.68S174.79 187 166.68 187 152 193.57 152 201.68s6.57 14.68 14.68 14.68Z" class="st4"/><path d="M251.1 229.3c15.41 0 27.9-12.49 27.9-27.9s-12.49-27.9-27.9-27.9-27.9 12.49-27.9 27.9 12.49 27.9 27.9 27.9" class="st2"/><path d="M250.68 216.36c8.11 0 14.68-6.57 14.68-14.68S258.79 187 250.68 187 236 193.57 236 201.68s6.57 14.68 14.68 14.68Z" class="st4"/></g><circle cx="212" cy="258" r="31" style="fill:#901065"/><circle cx="151.5" cy="256.5" r="17.5" class="st3"/><circle cx="272.5" cy="253.5" r="17.5" class="st3"/><path d="M234.5 473c61.58 0 111.5-7.61 111.5-17s-49.92-17-111.5-17S123 446.61 123 456s49.92 17 111.5 17" style="fill:#adadad"/></svg>