<svg xmlns="http://www.w3.org/2000/svg" id="Layer_1" viewBox="0 0 500 614"><defs><style>.st0{fill:#fff}.st1{fill:#ffc628}.st3{stroke:#fff;stroke-miterlimit:10}</style></defs><path d="M313.78 240.8c-.6 10.04 44.44 6.03 53.5 4.33s16.66-8.86 18.71-21.99-27.09-17.49-27.09-17.49 39.85-7.02 28.16-28.77c-11.69-21.76-124.42-24.96-124.42-24.96s51.74 78.83 51.14 88.88"/><path d="M216.32 401.18c3.03.21 6.09.32 9.18.32 19.1 0 37.23-4.18 53.51-11.68v.68c0 18.5 11.64 49 26 49s26-30.5 26-49c0-11.3 4.5-42.37 8-57.5.04-.16.07-.31.1-.45 9.2-17.67 14.4-37.75 14.4-59.05 0-70.69-57.31-128-128-128s-128 57.31-128 128c0 4.02.19 8.01.55 11.94.12 32.1 2.29 75.93 3.67 103.77.65 13.11 1.12 22.68 1.12 25.79 0 23.75 15.45 43 34.5 43 14.55 0 27-11.23 32.07-27.12 4.04 6.74 9.1 11.36 14.59 11.36 10.99 0 27.13-8.94 32.32-41.07Z" class="st1"/><g class="eyes"><path d="M167.4 229.3c15.41 0 27.9-12.49 27.9-27.9s-12.49-27.9-27.9-27.9-27.9 12.49-27.9 27.9 12.49 27.9 27.9 27.9" class="st0"/><path d="M166.68 216.36c8.11 0 14.68-6.57 14.68-14.68S174.79 187 166.68 187 152 193.57 152 201.68s6.57 14.68 14.68 14.68Z" class="st3"/><path d="M251.1 229.3c15.41 0 27.9-12.49 27.9-27.9s-12.49-27.9-27.9-27.9-27.9 12.49-27.9 27.9 12.49 27.9 27.9 27.9" class="st0"/><path d="M250.68 216.36c8.11 0 14.68-6.57 14.68-14.68S258.79 187 250.68 187 236 193.57 236 201.68s6.57 14.68 14.68 14.68Z" class="st3"/></g><path d="M279 390.1v.4" style="fill:#ffc628;fill-rule:evenodd"/><ellipse cx="225" cy="510" class="st1" rx="110" ry="41"/><path d="m332.96 276.61-29.91 23.11c-11.57 8.94-12.75 25.97-2.52 36.42l48.78 49.82c12.01 12.27 32.87 5.4 35.26-11.6l9.48-67.46c2.3-16.33-8.83-31.52-25.09-34.25l-12.05-2.03c-8.47-1.43-17.16.75-23.96 6Z"/></svg>