<svg xmlns="http://www.w3.org/2000/svg" id="Layer_1" viewBox="0 0 500 561"><defs><style>.st0{fill:#901065}.st1{fill:#fff}.st3{fill:#ffc628}.st4{fill:#0083d7}.st5{stroke:#fff;stroke-miterlimit:10}</style></defs><path d="m129 106 5.16 15.89h16.71l-13.52 9.82 5.16 15.89-13.52-9.82-13.52 9.82 5.16-15.89-13.52-9.82h16.71l5.16-15.89Z" class="st3"/><path d="m134 143 8.08 24.88h26.16l-21.16 15.37 8.08 24.88L134 192.76l-21.16 15.37 8.08-24.88-21.16-15.37h26.15l8.08-24.88Z" class="st4"/><path d="m292 116 8.08 24.88h26.15l-21.16 15.37 8.08 24.88-21.16-15.37-21.16 15.37 8.08-24.88-21.16-15.37h26.15l8.08-24.88Z" class="st3"/><path d="M144.31 114.99c-.44-2.39-.67-4.85-.67-7.36 0-22.43 18.23-40.62 40.71-40.62 10.36 0 19.82 3.86 27.01 10.22 4.28-1.53 8.9-2.36 13.71-2.36 7.62 0 14.74 2.09 20.84 5.72 7.46-8.33 18.3-13.58 30.38-13.58 22.49 0 40.71 18.19 40.71 40.62 0 14.42-7.53 27.08-18.88 34.29.32 2.06.49 4.18.49 6.33 0 22.43-18.23 40.62-40.71 40.62-4.6 0-9.01-.76-13.13-2.16v32.3h-69.61v-28.84c-4.49 1.7-9.36 2.63-14.45 2.63-22.49 0-40.71-18.19-40.71-40.62 0-16.61 9.99-30.89 24.31-37.19" style="fill:#4c4c4c"/><path d="m266 152 8.08 24.88h26.15l-21.16 15.37 8.08 24.88-21.16-15.37-21.16 15.37 8.08-24.88-21.16-15.37h26.15l8.08-24.88Z" class="st4"/><path d="m313 91 4.71 14.51h15.26l-12.34 8.97 4.71 14.51-12.34-8.97-12.34 8.97 4.71-14.51-12.34-8.97h15.26z" class="st3"/><path d="m163 27 5.16 15.89h16.71l-13.52 9.82 5.16 15.89-13.52-9.82-13.52 9.82 5.16-15.89-13.52-9.82h16.71L162.98 27ZM183.5 143l2.58 7.95h8.35l-6.76 4.91 2.58 7.95-6.76-4.91-6.76 4.91 2.58-7.95-6.76-4.91h8.35l2.58-7.95ZM311 45l5.16 15.89h16.71l-13.52 9.82 5.16 15.89-13.52-9.82-13.52 9.82 5.16-15.89-13.52-9.82h16.71L310.98 45Z" class="st0"/><path d="M225.5 462.5c70.69 0 128-57.31 128-128s-57.31-128-128-128-128 57.31-128 128 57.31 128 128 128" class="st3"/><path d="m335.88 313.24 21.11 31.36c8.17 12.13 25.09 14.41 36.18 4.9l52.89-45.43c13.02-11.18 7.54-32.45-9.27-35.94l-66.7-13.86c-16.15-3.36-32.03 6.75-35.82 22.8l-2.81 11.89a30.88 30.88 0 0 0 4.42 24.3Z"/><g class="eyes"><path d="M167.4 308.8c15.41 0 27.9-12.49 27.9-27.9S182.81 253 167.4 253s-27.9 12.49-27.9 27.9 12.49 27.9 27.9 27.9" class="st1"/><path d="M166.68 295.86c8.11 0 14.68-6.57 14.68-14.68s-6.57-14.68-14.68-14.68S152 273.07 152 281.18s6.57 14.68 14.68 14.68Z" class="st5"/></g><g class="eyes"><path d="M251.1 290.3c15.41 0 27.9-12.49 27.9-27.9s-12.49-27.9-27.9-27.9-27.9 12.49-27.9 27.9 12.49 27.9 27.9 27.9" class="st1"/><path d="M249.68 277.36c8.11 0 14.68-6.57 14.68-14.68S257.79 248 249.68 248 235 254.57 235 262.68s6.57 14.68 14.68 14.68Z" class="st5"/></g></svg>