<svg xmlns="http://www.w3.org/2000/svg" width="500" height="500" fill="none" viewBox="0 0 500 500"><path fill="#000" d="M277.27 176.09c2.17 9.83 44.39-6.36 52.65-10.48s13.6-13.08 11.98-26.28-30.85-9.4-30.85-9.4 36.41-17.65 19.21-35.38-126.5 10.04-126.5 10.04 71.34 61.67 73.51 71.49z"/><path fill="#ffc628" d="M214.5 361.5c70.692 0 128-57.308 128-128s-57.308-128-128-128-128 57.308-128 128 57.308 128 128 128"/><path fill="#000" d="m305.163 284.934 3.498 37.638c1.358 14.557 15.107 24.681 29.414 21.63l68.193-14.526c16.788-3.577 22.172-24.869 9.095-35.992l-51.905-44.138c-12.562-10.685-31.348-9.425-42.371 2.851l-8.17 9.085a30.82 30.82 0 0 0-7.761 23.44zM191.72 175.96h-10.23c0-10.85-8.83-19.68-19.68-19.68s-19.68 8.83-19.68 19.68H131.9c0-16.5 13.42-29.91 29.91-29.91s29.91 13.42 29.91 29.91M274 175.96h-10.23c0-10.85-8.83-19.68-19.68-19.68s-19.68 8.83-19.68 19.68h-10.23c0-16.5 13.42-29.91 29.91-29.91S274 159.47 274 175.96"/><circle cx="132" cy="225" r="25" fill="#dd70b8"/><circle cx="290" cy="225" r="25" fill="#dd70b8"/></svg>