<?xml version="1.0" encoding="UTF-8"?><svg id="petra-cackling_svg__Layer_1" xmlns="http://www.w3.org/2000/svg" version="1.1" viewBox="0 0 500 500"><!--Generator: Adobe Illustrator 29.8.3, SVG Export Plug-In . SVG Version: 2.1.1 Build 3)--><defs><style>.petra-cackling_svg__st0{fill:#ffc628}.petra-cackling_svg__st1{fill:#adadad}</style></defs><path d="M264.66,130.25c5.81,11.19,51.66-22.09,60.32-29.76,8.66-7.67,12.22-20.24,5.98-35.69s-40.39-1.37-40.39-1.37c0,0,38.34-33.17,11.78-49.05-26.57-15.88-149.85,53.18-149.85,53.18,0,0,106.34,51.5,112.15,62.68h0Z"/><path class="petra-cackling_svg__st0" d="M195.57,379.87c88.58,0,160.38-71.81,160.38-160.38S284.14,59.1,195.57,59.1,35.18,130.91,35.18,219.49s71.81,160.38,160.38,160.38"/><path d="M349.85,214.06l-16.85,44.26c-6.51,17.12,3.36,36.1,21.14,40.57l84.72,21.32c20.86,5.25,38.67-15.73,30.11-35.46l-34-78.31c-8.23-18.96-30.05-27.91-49.23-20.19l-14.21,5.71c-9.99,4.02-17.84,12.02-21.67,22.08v.02Z"/><path class="petra-cackling_svg__st1" d="M209.35,487c77.16,0,139.71-9.54,139.71-21.3s-62.55-21.3-139.71-21.3-139.71,9.54-139.71,21.3,62.55,21.3,139.71,21.3"/><path d="M113.65,172.04c-4.33,2.18-9.6.44-11.78-3.89,0,0,0-.02-.01-.02l-1.64-3.29c-2.16-4.32-.42-9.58,3.9-11.75l14.22-7.16c4.68-2.36,6.26-8.27,3.39-12.65l-8.74-13.31c-2.65-4.04-1.54-9.47,2.5-12.13l3.07-2.02c4.04-2.67,9.48-1.56,12.15,2.48,0,0,0,.01.01.02l21.8,33.22c2.88,4.38,1.29,10.29-3.39,12.65l-35.49,17.87ZM233.45,108.31c2.66-4.05,8.1-5.18,12.15-2.52,0,0,.01,0,.02.01l3.07,2.02c4.03,2.66,5.15,8.09,2.5,12.13l-8.74,13.31c-2.88,4.38-1.29,10.29,3.39,12.65l14.23,7.16c4.32,2.17,6.06,7.43,3.9,11.75l-1.64,3.29c-2.16,4.33-7.43,6.09-11.77,3.93,0,0-.02,0-.02-.01l-35.49-17.87c-4.68-2.36-6.26-8.26-3.39-12.65l21.8-33.22Z"/></svg>