<?xml version="1.0" encoding="UTF-8"?><svg id="petra-melting_svg__Layer_1" xmlns="http://www.w3.org/2000/svg" version="1.1" viewBox="0 0 500 614"><!--Generator: Adobe Illustrator 29.8.3, SVG Export Plug-In . SVG Version: 2.1.1 Build 3)--><defs><style>.petra-melting_svg__st0{fill:#fff}.petra-melting_svg__st1,.petra-melting_svg__st2{fill:#ffc628}.petra-melting_svg__st3{stroke:#fff;stroke-miterlimit:10}.petra-melting_svg__st2{fill-rule:evenodd}</style></defs><path d="M368.23,142.61c-.86,14.43,63.85,8.66,76.87,6.22,13.02-2.44,23.94-12.73,26.88-31.6,2.95-18.87-38.92-25.13-38.92-25.13,0,0,57.26-10.09,40.46-41.34-16.8-31.27-178.78-35.86-178.78-35.86,0,0,74.34,113.27,73.48,127.71"/><path class="petra-melting_svg__st1" d="M228.19,373.05c4.35.3,8.75.46,13.19.46,27.44,0,53.49-6.01,76.89-16.78v.98c0,26.58,16.73,70.41,37.36,70.41s37.36-43.82,37.36-70.41c0-16.24,6.47-60.88,11.5-82.62.06-.23.1-.45.14-.65,13.22-25.39,20.69-54.24,20.69-84.85,0-101.57-82.35-183.92-183.92-183.92S57.48,88.02,57.48,189.59c0,5.78.27,11.51.79,17.16.17,46.12,3.29,109.1,5.27,149.1.93,18.84,1.61,32.59,1.61,37.06,0,34.13,22.2,61.79,49.57,61.79,20.91,0,38.8-16.14,46.08-38.97,5.8,9.68,13.08,16.32,20.96,16.32,15.79,0,38.98-12.85,46.44-59.01h-.01Z"/><g class="eyes"><path class="petra-melting_svg__st0" d="M157.9,126.08c22.14,0,40.09-17.95,40.09-40.09s-17.95-40.09-40.09-40.09-40.09,17.95-40.09,40.09,17.95,40.09,40.09,40.09"/><path class="petra-melting_svg__st3" d="M156.86,107.49c11.65,0,21.09-9.44,21.09-21.09s-9.44-21.09-21.09-21.09-21.09,9.44-21.09,21.09,9.44,21.09,21.09,21.09h0Z"/><path class="petra-melting_svg__st0" d="M278.17,126.08c22.14,0,40.09-17.95,40.09-40.09s-17.95-40.09-40.09-40.09-40.09,17.95-40.09,40.09,17.95,40.09,40.09,40.09"/><path class="petra-melting_svg__st3" d="M277.56,107.49c11.65,0,21.09-9.44,21.09-21.09s-9.44-21.09-21.09-21.09-21.09,9.44-21.09,21.09,9.44,21.09,21.09,21.09h0Z"/></g><path class="petra-melting_svg__st2" d="M318.26,357.13v.57"/><ellipse class="petra-melting_svg__st1" cx="240.66" cy="529.41" rx="158.06" ry="58.91"/><path d="M395.79,194.06l-42.98,33.21c-16.62,12.85-18.32,37.32-3.62,52.33l70.09,71.59c17.26,17.63,47.23,7.76,50.66-16.67l13.62-96.93c3.3-23.46-12.69-45.29-36.05-49.21l-17.31-2.92c-12.17-2.05-24.66,1.08-34.43,8.62h.01Z"/></svg>