<svg viewBox="0 0 688 264" fill="none" xmlns="http://www.w3.org/2000/svg">
<path d="M81.967 239.918C68.853 239.918 57.082 237.074 46.654 231.386C36.305 225.698 28.089 217.956 22.006 208.16C16.002 198.285 13 187.146 13 174.743C13 165.5 14.7775 156.929 18.3325 149.029C21.8875 141.129 26.8645 134.216 33.2635 128.291C39.6625 122.366 47.128 117.784 55.66 114.545C64.192 111.227 73.435 109.568 83.389 109.568C93.264 109.568 102.468 110.95 111 113.715C119.532 116.48 127.155 120.549 133.87 125.921L113.725 160.76C109.696 156.968 105.39 154.203 100.809 152.465C96.3055 150.727 91.605 149.858 86.707 149.858C81.019 149.858 76.1605 150.846 72.1315 152.821C68.1025 154.717 65.0215 157.521 62.8885 161.234C60.7555 164.947 59.689 169.45 59.689 174.743C59.689 182.564 62.0985 188.687 66.9175 193.111C71.7365 197.456 78.412 199.628 86.944 199.628C92.395 199.628 97.5695 198.601 102.468 196.547C107.445 194.493 112.224 191.333 116.806 187.067L134.818 222.854C127.708 228.147 119.413 232.334 109.933 235.415C100.532 238.417 91.21 239.918 81.967 239.918Z" fill="#0083D7"/>
<path d="M152.547 236.363V65.723H199.947V142.274L189.993 130.187C195.207 124.262 201.369 119.364 208.479 115.493C215.589 111.543 223.647 109.568 232.653 109.568C244.424 109.568 254.18 111.899 261.922 116.56C269.743 121.141 275.589 127.264 279.46 134.927C283.331 142.511 285.267 150.806 285.267 159.812V236.363H237.867V173.084C237.867 166.922 236.208 161.945 232.89 158.153C229.572 154.282 224.832 152.307 218.67 152.228C214.404 152.149 210.888 152.939 208.123 154.598C205.358 156.257 203.304 158.667 201.961 161.827C200.618 164.987 199.947 168.739 199.947 173.084V236.363H152.547Z" fill="#0083D7"/>
<path d="M348.472 239.918C340.572 239.918 333.343 238.338 326.786 235.178C320.229 232.018 314.976 227.476 311.026 221.551C307.076 215.547 305.101 208.318 305.101 199.865C305.101 192.518 306.878 186.079 310.433 180.549C314.067 175.02 319.4 170.517 326.431 167.041C333.462 163.486 342.152 161.076 352.501 159.812C362.929 158.548 374.937 158.469 388.525 159.575L388.762 187.778C383.39 186.593 378.255 185.882 373.357 185.645C368.459 185.329 364.114 185.527 360.322 186.238C356.53 186.949 353.528 188.212 351.316 190.029C349.104 191.767 347.998 194.137 347.998 197.139C347.998 200.378 349.301 202.788 351.908 204.368C354.515 205.948 357.912 206.738 362.099 206.738C365.891 206.738 369.288 206.106 372.29 204.842C375.371 203.578 377.82 201.643 379.637 199.036C381.454 196.35 382.363 192.913 382.363 188.726V163.604C382.363 159.812 381.612 156.455 380.111 153.532C378.61 150.53 376.082 148.199 372.527 146.54C368.972 144.802 364.035 143.933 357.715 143.933C351.395 143.933 345.114 144.881 338.873 146.777C332.711 148.673 327.3 151.359 322.639 154.835L311.026 123.314C319.242 118.337 328.129 114.624 337.688 112.175C347.247 109.647 356.688 108.383 366.01 108.383C377.781 108.383 388.288 110.279 397.531 114.071C406.774 117.784 414.042 123.669 419.335 131.728C424.707 139.706 427.393 150.095 427.393 162.893V236.363H387.103V224.276C383.311 229.253 378.097 233.124 371.461 235.889C364.825 238.575 357.162 239.918 348.472 239.918Z" fill="#0083D7"/>
<path d="M455.509 236.363V113.123H502.909V236.363H455.509ZM479.209 97.244C471.862 97.244 465.463 95.032 460.012 90.608C454.64 86.105 451.954 79.943 451.954 72.122C451.954 64.301 454.64 58.1785 460.012 53.7545C465.463 49.2515 471.862 47 479.209 47C486.556 47 492.915 49.2515 498.287 53.7545C503.738 58.1785 506.464 64.301 506.464 72.122C506.464 79.943 503.738 86.105 498.287 90.608C492.915 95.032 486.556 97.244 479.209 97.244Z" fill="#0083D7"/>
<path d="M595.14 244C582.131 244 569.9 242.247 558.447 238.741C547.087 235.148 537.604 230.152 530 223.754L545.117 182.999C551.072 189.134 558.127 193.516 566.281 196.145C574.435 198.775 583.047 200.09 592.117 200.09C597.889 200.09 602.882 199.432 607.096 198.117C611.311 196.715 614.518 194.524 616.716 191.544C619.007 188.564 620.152 184.664 620.152 179.843C620.152 176.075 619.007 172.832 616.716 170.115C614.518 167.31 611.265 165.163 606.959 163.673C602.745 162.183 597.614 161.438 591.567 161.438C587.444 161.438 583.138 161.92 578.649 162.884C574.16 163.76 569.579 165.207 564.906 167.222L542.368 143.032L552.538 56L666.602 56.5259V101.488H590.193L586.895 123.049C589.277 122.786 591.705 122.567 594.178 122.392C596.652 122.129 599.263 121.997 602.012 121.997C615.754 121.997 627.802 124.407 638.155 129.228C648.508 134.048 656.57 140.972 662.342 150C668.114 159.028 671 169.852 671 182.473C671 194.918 667.839 205.743 661.518 214.945C655.288 224.148 646.492 231.291 635.132 236.375C623.771 241.458 610.441 244 595.14 244Z" fill="#00316A"/>
</svg>
