<svg viewBox="0 0 878 264" fill="none" xmlns="http://www.w3.org/2000/svg">
<path d="M134.624 69.0348C138.498 73.8206 157.189 53.4104 160.585 48.9C163.982 44.3895 164.453 38.0186 159.961 31.2377C155.469 24.4567 140.499 34.5241 140.499 34.5241C140.499 34.5241 155.604 14.9034 141.338 9.89722C127.072 4.89106 74.8257 49.9893 74.8257 49.9893C74.8257 49.9893 130.75 64.2428 134.624 69.0287V69.0348Z" fill="#00316A"/>
<path d="M175.971 118.54C179.067 133.815 178.865 145.223 175.304 159.06C164.9 199.452 196.191 223.02 149.6 250.248C116.968 269.318 73.1669 224.012 56.4287 213.932C35.3024 201.209 18.9988 178.956 13.4296 151.508C3.45396 102.315 31.7528 55.0568 76.6369 45.9564C121.521 36.8498 165.995 69.347 175.971 118.54Z" fill="#0083D7"/>
<path d="M45.8043 121.3C55.2344 121.3 62.8791 113.655 62.8791 104.225C62.8791 94.7948 55.2344 87.1501 45.8043 87.1501C36.3741 87.1501 28.7295 94.7948 28.7295 104.225C28.7295 113.655 36.3741 121.3 45.8043 121.3Z" fill="white"/>
<path d="M39.801 113.209C44.7629 113.209 48.7852 109.187 48.7852 104.225C48.7852 99.2631 44.7629 95.2407 39.801 95.2407C34.8392 95.2407 30.8169 99.2631 30.8169 104.225C30.8169 109.187 34.8392 113.209 39.801 113.209Z" fill="black" stroke="white" stroke-miterlimit="10"/>
<path d="M97.0294 121.3C106.46 121.3 114.104 113.655 114.104 104.225C114.104 94.7948 106.46 87.1501 97.0294 87.1501C87.5992 87.1501 79.9546 94.7948 79.9546 104.225C79.9546 113.655 87.5992 121.3 97.0294 121.3Z" fill="white"/>
<path d="M91.6375 113.209C96.5993 113.209 100.622 109.187 100.622 104.225C100.622 99.2631 96.5993 95.2407 91.6375 95.2407C86.6757 95.2407 82.6533 99.2631 82.6533 104.225C82.6533 109.187 86.6757 113.209 91.6375 113.209Z" fill="black" stroke="white" stroke-miterlimit="10"/>
<path d="M51.4961 157.065L69.0789 158.956C73.0385 159.384 76.0863 155.535 74.7644 151.777L69.7154 137.414C68.3934 133.656 63.6076 132.56 60.7863 135.369L48.2525 147.842C45.0212 151.055 46.9612 156.575 51.49 157.065H51.4961Z" fill="#00316A"/>
<path d="M271.967 239.918C258.853 239.918 247.082 237.074 236.654 231.386C226.305 225.698 218.089 217.956 212.006 208.16C206.002 198.285 203 187.146 203 174.743C203 165.5 204.777 156.929 208.333 149.029C211.888 141.129 216.865 134.216 223.264 128.291C229.663 122.366 237.128 117.784 245.66 114.545C254.192 111.227 263.435 109.568 273.389 109.568C283.264 109.568 292.468 110.95 301 113.715C309.532 116.48 317.155 120.549 323.87 125.921L303.725 160.76C299.696 156.968 295.39 154.203 290.809 152.465C286.305 150.727 281.605 149.858 276.707 149.858C271.019 149.858 266.161 150.846 262.132 152.821C258.103 154.717 255.022 157.521 252.889 161.234C250.756 164.947 249.689 169.45 249.689 174.743C249.689 182.564 252.099 188.687 256.918 193.111C261.737 197.456 268.412 199.628 276.944 199.628C282.395 199.628 287.57 198.601 292.468 196.547C297.445 194.493 302.224 191.333 306.806 187.067L324.818 222.854C317.708 228.147 309.413 232.334 299.933 235.415C290.532 238.417 281.21 239.918 271.967 239.918Z" fill="#0083D7"/>
<path d="M342.547 236.363V65.723H389.947V142.274L379.993 130.187C385.207 124.262 391.369 119.364 398.479 115.493C405.589 111.543 413.647 109.568 422.653 109.568C434.424 109.568 444.18 111.899 451.922 116.56C459.743 121.141 465.589 127.264 469.46 134.927C473.331 142.511 475.267 150.806 475.267 159.812V236.363H427.867V173.084C427.867 166.922 426.208 161.945 422.89 158.153C419.572 154.282 414.832 152.307 408.67 152.228C404.404 152.149 400.888 152.939 398.123 154.598C395.358 156.257 393.304 158.667 391.961 161.827C390.618 164.987 389.947 168.739 389.947 173.084V236.363H342.547Z" fill="#0083D7"/>
<path d="M538.472 239.918C530.572 239.918 523.343 238.338 516.786 235.178C510.229 232.018 504.976 227.476 501.026 221.551C497.076 215.547 495.101 208.318 495.101 199.865C495.101 192.518 496.878 186.079 500.433 180.549C504.067 175.02 509.4 170.517 516.431 167.041C523.462 163.486 532.152 161.076 542.501 159.812C552.929 158.548 564.937 158.469 578.525 159.575L578.762 187.778C573.39 186.593 568.255 185.882 563.357 185.645C558.459 185.329 554.114 185.527 550.322 186.238C546.53 186.949 543.528 188.212 541.316 190.029C539.104 191.767 537.998 194.137 537.998 197.139C537.998 200.378 539.301 202.788 541.908 204.368C544.515 205.948 547.912 206.738 552.099 206.738C555.891 206.738 559.288 206.106 562.29 204.842C565.371 203.578 567.82 201.643 569.637 199.036C571.454 196.35 572.363 192.913 572.363 188.726V163.604C572.363 159.812 571.612 156.455 570.111 153.532C568.61 150.53 566.082 148.199 562.527 146.54C558.972 144.802 554.035 143.933 547.715 143.933C541.395 143.933 535.114 144.881 528.873 146.777C522.711 148.673 517.3 151.359 512.639 154.835L501.026 123.314C509.242 118.337 518.129 114.624 527.688 112.175C537.247 109.647 546.688 108.383 556.01 108.383C567.781 108.383 578.288 110.279 587.531 114.071C596.774 117.784 604.042 123.669 609.335 131.728C614.707 139.706 617.393 150.095 617.393 162.893V236.363H577.103V224.276C573.311 229.253 568.097 233.124 561.461 235.889C554.825 238.575 547.162 239.918 538.472 239.918Z" fill="#0083D7"/>
<path d="M645.509 236.363V113.123H692.909V236.363H645.509ZM669.209 97.244C661.862 97.244 655.463 95.032 650.012 90.608C644.64 86.105 641.954 79.943 641.954 72.122C641.954 64.301 644.64 58.1785 650.012 53.7545C655.463 49.2515 661.862 47 669.209 47C676.556 47 682.915 49.2515 688.287 53.7545C693.738 58.1785 696.464 64.301 696.464 72.122C696.464 79.943 693.738 86.105 688.287 90.608C682.915 95.032 676.556 97.244 669.209 97.244Z" fill="#0083D7"/>
<path d="M785.14 244C772.131 244 759.9 242.247 748.447 238.741C737.087 235.148 727.604 230.152 720 223.754L735.117 182.999C741.072 189.134 748.127 193.516 756.281 196.145C764.435 198.775 773.047 200.09 782.117 200.09C787.889 200.09 792.882 199.432 797.096 198.117C801.311 196.715 804.518 194.524 806.716 191.544C809.007 188.564 810.152 184.664 810.152 179.843C810.152 176.075 809.007 172.832 806.716 170.115C804.518 167.31 801.265 165.163 796.959 163.673C792.745 162.183 787.614 161.438 781.567 161.438C777.444 161.438 773.138 161.92 768.649 162.884C764.16 163.76 759.579 165.207 754.906 167.222L732.368 143.032L742.538 56L856.602 56.5259V101.488H780.193L776.895 123.049C779.277 122.786 781.705 122.567 784.178 122.392C786.652 122.129 789.263 121.997 792.012 121.997C805.754 121.997 817.802 124.407 828.155 129.228C838.508 134.048 846.57 140.972 852.342 150C858.114 159.028 861 169.852 861 182.473C861 194.918 857.839 205.743 851.518 214.945C845.288 224.148 836.492 231.291 825.132 236.375C813.771 241.458 800.441 244 785.14 244Z" fill="#00316A"/>
</svg>
