<?xml version="1.0" encoding="UTF-8"?>
<svg id="Layer_1" xmlns="http://www.w3.org/2000/svg" version="1.1" viewBox="0 0 326.24 76">
  <!-- Generator: Adobe Illustrator 29.8.3, SVG Export Plug-In . SVG Version: 2.1.1 Build 3)  -->
  <defs>
    <style>
      .st0 {
        fill: #00316a;
      }
    </style>
  </defs>
  <path class="st0" d="M241.55,70.66V23.11h16.8v5.68c1.08-1.53,2.37-2.83,3.88-3.88,1.53-1.04,3.18-1.83,4.94-2.36,1.75-.55,3.51-.84,5.26-.84,3.33,0,6.24.77,8.76,2.31,2.56,1.51,4.27,3.59,5.18,6.23,1.7-2.86,4.11-5,7.24-6.42s6.52-2.12,10.16-2.12c4.67,0,8.34.88,10.98,2.63s4.51,4.04,5.59,6.87c1.11,2.79,1.66,5.78,1.66,8.96v30.47h-16.8v-25.66c0-2.46-.64-4.44-1.94-5.9-1.26-1.48-3.09-2.22-5.49-2.22-1.51,0-2.85.33-4.01.97-1.14.62-2.03,1.42-2.67,2.45-.62,1.01-.92,2.15-.92,3.41v26.95h-16.8v-25.66c0-2.46-.64-4.44-1.94-5.9-1.26-1.48-3.09-2.22-5.49-2.22-1.51,0-2.83.33-3.97.97-1.14.62-2.03,1.42-2.67,2.45-.62,1.01-.93,2.15-.93,3.41v26.95h-16.8ZM222.93,69.27c-4.81,2.22-9.45,3.2-13.93,2.97-4.49-.26-8.53-1.63-12.12-4.11-3.57-2.52-6.41-6.07-8.53-10.65-1.55-3.35-2.37-6.68-2.48-9.98-.12-3.34.42-6.5,1.62-9.49,1.18-3.03,2.96-5.75,5.31-8.2,2.38-2.46,5.31-4.49,8.78-6.09,3.89-1.79,7.64-2.7,11.26-2.71,3.64-.05,7,.7,10.09,2.26,3.08,1.53,5.74,3.75,7.97,6.7,2.26,2.92,3.9,6.48,4.93,10.68l-31.77,14.67c.74,1.38,1.81,2.41,3.19,3.05,1.41.63,3.04.9,4.89.79,1.83-.14,3.78-.67,5.81-1.62,2.6-1.21,4.89-2.63,6.86-4.29,1.97-1.68,3.72-3.72,5.27-6.09l9.31,8.05c-.85,1.62-2.16,3.31-3.94,5.12-1.77,1.77-3.75,3.44-5.96,5.04s-4.41,2.9-6.59,3.9h.03,0ZM200.39,44.8l16.39-7.56c-.88-1.83-2.29-2.97-4.23-3.44-1.92-.47-4.04-.16-6.39.92-2.37,1.1-4.09,2.57-5.18,4.42-1.05,1.83-1.25,3.72-.59,5.66M164.57,70.66V4.19h16.8v66.45h-16.8,0ZM126.53,72.04c-4.44,0-8.39-1.03-11.91-3.09-3.51-2.07-6.27-4.97-8.31-8.72-2.03-3.78-3.04-8.23-3.04-13.34,0-3.85.59-7.31,1.75-10.38,1.16-3.11,2.79-5.75,4.89-7.94,2.1-2.22,4.56-3.9,7.38-5.08,2.86-1.16,5.94-1.75,9.23-1.75,4.31,0,8.01.96,11.12,2.86,3.11,1.88,5.27,4.41,6.5,7.61l-2.31,3.6v-12.69h14.31v47.54h-14.31v-12.69l2.31,3.6c-1.23,3.2-3.4,5.75-6.5,7.65-3.11,1.88-6.82,2.82-11.12,2.82h.01ZM129.53,57.68c1.88,0,3.57-.42,5.08-1.29,1.51-.89,2.7-2.14,3.56-3.74.89-1.63,1.34-3.56,1.34-5.76s-.45-4.12-1.34-5.72c-.86-1.63-2.04-2.88-3.56-3.74-1.51-.89-3.2-1.34-5.08-1.34s-3.52.45-5.03,1.34c-1.51.86-2.71,2.11-3.6,3.74-.89,1.6-1.34,3.51-1.34,5.72s.45,4.14,1.34,5.76c.89,1.6,2.1,2.85,3.6,3.74,1.51.86,3.18,1.29,5.03,1.29M49.09,70.66V4.19h16.8v29.87l-3.55-4.2c2.03-2.44,4.45-4.38,7.24-5.86,2.79-1.51,5.9-2.26,9.33-2.26,4.52,0,8.26.89,11.21,2.67,2.99,1.75,5.22,4.09,6.7,7.01,1.51,2.89,2.26,6.03,2.26,9.42v29.81h-16.8v-25.11c0-2.56-.73-4.63-2.16-6.23s-3.46-2.41-6.05-2.45c-1.78,0-3.29.36-4.52,1.07-1.21.71-2.11,1.74-2.72,3.09s-.92,2.94-.92,4.75v24.88h-16.82ZM22.16,71.94c-4.56,0-8.7-.53-12.42-1.62C6.01,69.22,2.77,67.67,0,65.67l5.03-11.41c2.71,1.63,5.56,2.92,8.54,3.88,3.01.96,5.83,1.42,8.45,1.42,2.19,0,3.85-.26,4.98-.78,1.14-.55,1.71-1.36,1.71-2.4,0-.92-.52-1.59-1.57-1.99-1.04-.4-3.15-.88-6.33-1.42-6.56-1.01-11.35-2.79-14.41-5.35-3.04-2.55-4.57-6.08-4.57-10.57,0-3.16.88-5.94,2.63-8.31,1.78-2.37,4.22-4.2,7.3-5.49,3.11-1.33,6.68-1.99,10.71-1.99s7.68.52,11.21,1.57c3.53,1.04,6.56,2.46,9.05,4.24l-4.85,11.41c-1.33-.96-2.83-1.78-4.52-2.49-1.68-.74-3.42-1.31-5.22-1.71-1.78-.42-3.49-.64-5.12-.64-1.9,0-3.45.26-4.61.78-1.14.49-1.71,1.21-1.71,2.12s.48,1.6,1.42,2.03c.99.42,3.07.99,6.23,1.66,6.96,1.38,11.87,3.25,14.78,5.59,2.89,2.34,4.34,5.63,4.34,9.87,0,3.26-.9,6.12-2.72,8.59-1.78,2.44-4.27,4.33-7.48,5.68-3.2,1.33-6.9,1.99-11.12,1.99"/>
</svg>