<svg xmlns="http://www.w3.org/2000/svg" id="Layer_1" viewBox="0 0 295 76"><defs><style>.st0logo{fill:#fff}.st2logo{fill:#00316a}.st3logo{stroke:#fff;stroke-miterlimit:10}</style></defs><path d="M236.25 57.17V22.45h12.27v4.15c.79-1.12 1.73-2.07 2.83-2.83 1.12-.76 2.32-1.34 3.61-1.72 1.28-.4 2.56-.61 3.84-.61 2.43 0 4.56.56 6.4 1.69 1.87 1.1 3.12 2.62 3.78 4.55 1.24-2.09 3-3.65 5.29-4.69s4.76-1.55 7.42-1.55c3.41 0 6.09.64 8.02 1.92s3.29 2.95 4.08 5.02c.81 2.04 1.21 4.22 1.21 6.54v22.25h-12.27V38.43c0-1.8-.47-3.24-1.42-4.31-.92-1.08-2.26-1.62-4.01-1.62-1.1 0-2.08.24-2.93.71-.83.45-1.48 1.04-1.95 1.79-.45.74-.67 1.57-.67 2.49v19.68h-12.27V38.43c0-1.8-.47-3.24-1.42-4.31-.92-1.08-2.26-1.62-4.01-1.62-1.1 0-2.07.24-2.9.71-.83.45-1.48 1.04-1.95 1.79-.45.74-.68 1.57-.68 2.49v19.68zM222.65 56.16c-3.51 1.62-6.9 2.34-10.17 2.17q-4.92-.285-8.85-3c-2.61-1.84-4.68-4.43-6.23-7.78-1.13-2.45-1.73-4.88-1.81-7.29-.09-2.44.31-4.75 1.18-6.93.86-2.21 2.16-4.2 3.88-5.99 1.74-1.8 3.88-3.28 6.41-4.45q4.26-1.965 8.22-1.98c2.66-.04 5.11.51 7.37 1.65 2.25 1.12 4.19 2.74 5.82 4.89q2.475 3.195 3.6 7.8l-23.2 10.71c.54 1.01 1.32 1.76 2.33 2.23 1.03.46 2.22.66 3.57.58 1.34-.1 2.76-.49 4.24-1.18 1.9-.88 3.57-1.92 5.01-3.13 1.44-1.23 2.72-2.72 3.85-4.45l6.8 5.88c-.62 1.18-1.58 2.42-2.88 3.74-1.29 1.29-2.74 2.51-4.35 3.68s-3.22 2.12-4.81 2.85Zm-16.46-17.87 11.97-5.52c-.64-1.34-1.67-2.17-3.09-2.51-1.4-.34-2.95-.12-4.67.67-1.73.8-2.99 1.88-3.78 3.23-.77 1.34-.91 2.72-.43 4.13M180.03 57.17V8.63h12.27v48.53h-12.27ZM152.25 58.18c-3.24 0-6.13-.75-8.7-2.26-2.56-1.51-4.58-3.63-6.07-6.37-1.48-2.76-2.22-6.01-2.22-9.74 0-2.81.43-5.34 1.28-7.58.85-2.27 2.04-4.2 3.57-5.8 1.53-1.62 3.33-2.85 5.39-3.71 2.09-.85 4.34-1.28 6.74-1.28 3.15 0 5.85.7 8.12 2.09 2.27 1.37 3.85 3.22 4.75 5.56l-1.69 2.63v-9.27h10.45v34.72h-10.45V47.9l1.69 2.63c-.9 2.34-2.48 4.2-4.75 5.59-2.27 1.37-4.98 2.06-8.12 2.06Zm2.19-10.49c1.37 0 2.61-.31 3.71-.94 1.1-.65 1.97-1.56 2.6-2.73.65-1.19.98-2.6.98-4.21s-.33-3.01-.98-4.18c-.63-1.19-1.49-2.1-2.6-2.73-1.1-.65-2.34-.98-3.71-.98s-2.57.33-3.67.98c-1.1.63-1.98 1.54-2.63 2.73-.65 1.17-.98 2.56-.98 4.18s.33 3.02.98 4.21c.65 1.17 1.53 2.08 2.63 2.73 1.1.63 2.32.94 3.67.94M95.7 57.17V8.63h12.27v21.81l-2.59-3.07c1.48-1.78 3.25-3.2 5.29-4.28q3.06-1.65 6.81-1.65 4.95 0 8.19 1.95c2.18 1.28 3.81 2.99 4.89 5.12 1.1 2.11 1.65 4.4 1.65 6.88v21.77h-12.27V38.82c0-1.87-.53-3.38-1.58-4.55s-2.53-1.76-4.42-1.79q-1.95 0-3.3.78c-.88.52-1.54 1.27-1.99 2.26s-.67 2.15-.67 3.47v18.17H95.71ZM76.03 58.11c-3.33 0-6.35-.39-9.07-1.18-2.72-.81-5.09-1.94-7.11-3.4l3.67-8.33c1.98 1.19 4.06 2.13 6.24 2.83 2.2.7 4.26 1.04 6.17 1.04 1.6 0 2.81-.19 3.64-.57.83-.4 1.25-.99 1.25-1.75 0-.67-.38-1.16-1.15-1.45-.76-.29-2.3-.64-4.62-1.04-4.79-.74-8.29-2.04-10.52-3.91-2.22-1.86-3.34-4.44-3.34-7.72 0-2.31.64-4.34 1.92-6.07 1.3-1.73 3.08-3.07 5.33-4.01 2.27-.97 4.88-1.45 7.82-1.45s5.61.38 8.19 1.15c2.58.76 4.79 1.8 6.61 3.1l-3.54 8.33c-.97-.7-2.07-1.3-3.3-1.82a20.2 20.2 0 0 0-3.81-1.25c-1.3-.31-2.55-.47-3.74-.47-1.39 0-2.52.19-3.37.57-.83.36-1.25.88-1.25 1.55s.35 1.17 1.04 1.48c.72.31 2.24.72 4.55 1.21 5.08 1.01 8.67 2.37 10.79 4.08 2.11 1.71 3.17 4.11 3.17 7.21 0 2.38-.66 4.47-1.99 6.27-1.3 1.78-3.12 3.16-5.46 4.15-2.34.97-5.04 1.45-8.12 1.45M43.87 17.05c.99 1.24 5.74-4.03 6.61-5.2.86-1.16.98-2.81-.16-4.56s-4.95.85-4.95.85 3.85-5.07.21-6.36C41.95.49 28.65 12.13 28.65 12.13s14.24 3.68 15.22 4.92" class="st2logo"/><path d="M54.4 29.83c.79 3.94.74 6.89-.17 10.46-2.65 10.43 5.32 16.51-6.54 23.54-8.31 4.92-19.46-6.77-23.72-9.38-5.38-3.28-9.53-9.03-10.95-16.12-2.54-12.7 4.66-24.9 16.09-27.25s22.75 6.04 25.29 18.74Z" style="fill:#0083d7"/><g class="eyes"><path d="M21.26 30.54c2.4 0 4.35-1.97 4.35-4.41s-1.95-4.41-4.35-4.41-4.35 1.97-4.35 4.41 1.95 4.41 4.35 4.41" class="st0logo"/><path d="M19.73 28.45c1.26 0 2.29-1.04 2.29-2.32s-1.02-2.32-2.29-2.32-2.29 1.04-2.29 2.32 1.02 2.32 2.29 2.32Z" class="st3logo"/><path d="M34.3 30.54c2.4 0 4.35-1.97 4.35-4.41s-1.95-4.41-4.35-4.41-4.35 1.97-4.35 4.41 1.95 4.41 4.35 4.41" class="st0logo"/><path d="M32.93 28.45c1.26 0 2.29-1.04 2.29-2.32s-1.02-2.32-2.29-2.32-2.29 1.04-2.29 2.32 1.02 2.32 2.29 2.32Z" class="st3logo"/></g><path d="m22.71 39.77 4.48.49c1.01.11 1.78-.88 1.45-1.85l-1.29-3.71a1.37 1.37 0 0 0-2.27-.53l-3.19 3.22c-.82.83-.33 2.25.82 2.38" class="st2logo"/></svg>