<svg id="blank-avatar_svg__Layer_1" xmlns="http://www.w3.org/2000/svg" version="1.1" viewBox="0 0 126 126"><defs><style>.blank-avatar_svg__st0{fill:#fff}.blank-avatar_svg__st1{stroke:#fff;stroke-miterlimit:10}.blank-avatar_svg__st2{fill:#f5efef}</style></defs><path d="M75.58,101.77c-13.43,7.85-31.45-10.8-38.34-14.95-8.7-5.23-15.41-14.39-17.7-25.69-4.11-20.24,7.54-39.7,26.01-43.45.52-.1,1.05-.2,1.57-.28h.01c5.72-4.71,20.36-16.2,25.05-14.56,5.75,2.02-.08,9.8-.33,10.13.28-.18,6.19-4.07,8-1.35,1.84,2.79,1.65,5.42.25,7.27-.81,1.09-3.77,4.4-6.41,6.58,6.25,5.38,10.91,13.04,12.74,22.08,1.28,6.29,1.2,10.98-.27,16.68-4.28,16.62,8.6,26.32-10.58,37.54Z"/><path class="blank-avatar_svg__st2" d="M86.81,56.97l.5.02c-.03.7-.08,1.4-.16,2.1l-.5-.06c-.07.68-.17,1.37-.29,2.06l.49.08c-.12.68-.26,1.37-.43,2.07l-.48-.12-.25,1.02c-.08.32-.16.63-.23.95l.49.11c-.14.64-.26,1.26-.36,1.88l-.49-.08c-.1.66-.18,1.3-.24,1.94l.5.04c-.06.65-.1,1.29-.11,1.92h-.5c-.02.64-.02,1.29,0,1.93l.5-.02c.01.65.05,1.29.09,1.92l-.5.04c.05.65.11,1.29.18,1.92l.5-.05c.07.64.15,1.28.23,1.9h-.01l-.49.07c.08.64.17,1.28.25,1.9l.49-.07c.09.65.17,1.28.24,1.91l-.49.06c.07.64.13,1.27.18,1.88l.5-.03c.05.64.08,1.28.08,1.91h-.5c0,.63-.02,1.26-.08,1.87l.5.05c-.06.63-.16,1.26-.3,1.89l-.49-.11c-.13.59-.31,1.18-.54,1.76l.47.18c-.23.58-.5,1.16-.82,1.73l-.44-.24c-.29.51-.62,1.02-1.01,1.54l.4.3c-.37.49-.78.98-1.25,1.47l-.36-.35c-.4.43-.85.86-1.34,1.3l.33.37c-.46.4-.95.81-1.48,1.22l-.3-.4c-.48.37-.99.73-1.53,1.1l.28.42c-.51.34-1.04.69-1.61,1.03l-.26-.42-.83.5c-.28.16-.56.31-.85.45l.22.45c-.6.3-1.21.54-1.83.74l-.15-.47c-.61.2-1.23.35-1.85.46l.08.49c-.65.11-1.3.18-1.96.2l-.02-.49c-.63.02-1.27,0-1.92-.05l-.04.5c-.65-.05-1.3-.14-1.96-.26l.09-.49c-.63-.12-1.25-.26-1.88-.44l-.14.48c-.63-.17-1.26-.37-1.88-.59l.16-.47c-.6-.22-1.21-.46-1.81-.71l-.2.46c-.6-.26-1.2-.53-1.8-.83l.22-.44c-.58-.29-1.16-.59-1.74-.9l-.24.44c-.58-.32-1.15-.64-1.72-.98l.25-.43c-.56-.33-1.12-.68-1.67-1.03l-.27.42c-.56-.35-1.11-.71-1.65-1.08l.27-.41c-.54-.37-1.08-.74-1.62-1.12l-.28.41c-.55-.39-1.08-.77-1.61-1.16l.29-.4c-.53-.39-1.06-.79-1.58-1.18l-.3.4c-.54-.41-1.06-.81-1.57-1.2l.3-.39c-.54-.42-1.06-.82-1.57-1.22l-.3.4c-.54-.42-1.06-.81-1.56-1.21l.3-.39c-.55-.43-1.09-.84-1.59-1.21l-.3.4c-.57-.43-1.11-.81-1.61-1.14h0s.28-.42.28-.42c-.29-.2-.58-.38-.85-.54l-.84-.53-.27.42c-.56-.36-1.11-.73-1.65-1.13l.29-.4c-.53-.39-1.06-.79-1.57-1.21l-.32.39c-.52-.42-1.02-.86-1.52-1.31l.33-.36c-.48-.45-.96-.9-1.43-1.37l-.35.35c-.47-.48-.93-.96-1.38-1.47l.38-.33c-.44-.49-.87-.99-1.28-1.51l-.39.31c-.42-.52-.82-1.05-1.22-1.6l.41-.29c-.39-.53-.76-1.08-1.12-1.63l-.42.27c-.36-.56-.71-1.14-1.04-1.72l.43-.25c-.33-.57-.64-1.15-.94-1.74l-.45.23c-.3-.6-.59-1.2-.86-1.82l.45-.2c-.27-.6-.52-1.21-.76-1.83l-.46.18c-.25-.62-.47-1.25-.69-1.88l.48-.16c-.21-.62-.4-1.26-.58-1.9l-.48.14c-.18-.64-.35-1.29-.5-1.95l.49-.11c-.07-.32-.14-.64-.21-.97l-.19-.98-.49.09c-.12-.66-.22-1.33-.3-1.99l.49-.06c-.08-.66-.15-1.32-.2-1.97l-.5.04c-.05-.67-.08-1.34-.1-2.01h.49c-.02-.68-.02-1.34,0-1.99l-.49-.02c.01-.67.04-1.34.09-2l.5.03c.04-.66.11-1.32.19-1.97l-.5-.06c.08-.67.18-1.33.3-1.99l.49.09c.11-.66.24-1.3.39-1.95l-.49-.11c.15-.65.32-1.3.5-1.94l.48.13c.18-.64.38-1.27.59-1.89l-.48-.16c.22-.64.45-1.26.7-1.88l.47.18c.24-.61.51-1.22.78-1.82l-.45-.21c.28-.61.58-1.2.9-1.79l.44.23c.31-.58.63-1.16.98-1.72l-.43-.26c.35-.57.71-1.14,1.09-1.69l.41.28c.37-.54.76-1.08,1.16-1.6l-.39-.3c.41-.53.83-1.05,1.27-1.56l.38.33c.43-.5.88-.98,1.34-1.45l-.36-.35c.47-.48.95-.95,1.45-1.4l.34.37c.48-.44.99-.87,1.5-1.28l-.31-.39c.52-.42,1.06-.82,1.6-1.21l.29.41c.54-.38,1.09-.74,1.65-1.08l-.26-.43c.57-.35,1.15-.68,1.75-.99l.23.43c.58-.3,1.17-.59,1.77-.87l-.2-.45c.61-.27,1.22-.53,1.85-.77l.18.47c.61-.23,1.24-.44,1.87-.64l-.14-.47c.63-.19,1.28-.37,1.93-.53l.12.49c.16-.04.32-.07.48-.11l.49-.1c.22-.05.45-.09.68-.13.1-.02.19-.04.29-.05l-.03-.16c.16-.13.34-.27.52-.43h.03l.31.37c.19-.16.4-.32.61-.49.3-.25.62-.51.96-.79l-.31-.39c.5-.4,1.03-.82,1.59-1.27l.31.39c.52-.4,1.05-.82,1.61-1.25l-.31-.4c.53-.4,1.07-.81,1.62-1.23l.3.4c.53-.4,1.08-.8,1.63-1.21l-.3-.4c.55-.4,1.1-.8,1.65-1.19l.29.41c.55-.39,1.11-.78,1.67-1.16l-.29-.42c.57-.38,1.13-.76,1.7-1.13l.27.42c.57-.37,1.14-.74,1.71-1.08l-.27-.43c.59-.36,1.18-.71,1.75-1.04l.25.43c.6-.34,1.19-.66,1.77-.95l-.23-.45c.63-.33,1.25-.61,1.84-.86l.2.45c.66-.28,1.28-.5,1.85-.66l-.13-.48c.74-.21,1.42-.33,2-.32v.5c.32,0,.6.05.83.13.32.11.59.24.82.38l.26-.43c.65.39,1.07.89,1.32,1.45l-.46.21c.22.49.29,1.07.23,1.71l.5.04c-.06.64-.22,1.3-.45,1.94l-.47-.16c-.22.61-.49,1.21-.78,1.76l.44.23c-.31.59-.62,1.12-.89,1.53h-.01c-.07.05-.14.09-.21.13l-.32-.21c-.17.25-.3.45-.4.58-.05.07-.09.12-.12.16-.01.01-.02.03-.03.03h0v.02l.67.71h.02s.02-.02.04-.03c.04-.03.1-.07.18-.12.16-.1.39-.24.67-.4l-.21-.38s.01-.01.01-.02l-.04-.03c.53-.3,1.21-.67,1.97-.99l.2.46c.65-.28,1.34-.52,1.99-.64l-.08-.49c.79-.14,1.55-.13,2.16.16l-.21.45c.24.12.45.29.62.54.18.27.33.54.47.8l.44-.24c.33.62.55,1.23.69,1.82l-.48.11c.14.62.17,1.22.12,1.77l.49.06c-.07.66-.25,1.28-.54,1.85l-.45-.22c-.1.2-.21.39-.34.57l-.13.18c-.12.16-.3.39-.53.67l.38.32c-.32.37-.72.82-1.17,1.32l-.37-.33c-.37.4-.77.83-1.2,1.27l.36.35c-.4.41-.82.84-1.25,1.25l-.35-.35c-.42.41-.85.81-1.27,1.19l.33.37c-.32.28-.63.56-.94.81.22.19.44.38.66.58l-.34.37c.49.44.97.9,1.43,1.37l.36-.35c.47.47.93.96,1.38,1.46l-.38.33c.44.49.87,1,1.28,1.51l.39-.31c.42.52.82,1.05,1.22,1.6l-.41.29c.39.54.76,1.08,1.12,1.64l.42-.27c.36.56.71,1.13,1.05,1.71l-.44.25c.33.57.65,1.16.95,1.75l.44-.23c.3.59.59,1.2.87,1.81l-.46.21c.27.6.53,1.21.77,1.83l.46-.19c.24.63.47,1.25.68,1.89l-.47.16c.21.63.4,1.26.58,1.9l.48-.14c.18.65.35,1.29.5,1.95l-.49.11c.07.32.14.65.21.97.07.35.14.69.2,1.03l.49-.09c.13.71.24,1.4.33,2.08l-.49.07c.1.7.18,1.39.23,2.06l.5-.04c.06.71.1,1.41.11,2.1l-.49.02c.01.69,0,1.38-.03,2.07Z"/><path class="blank-avatar_svg__st0" d="M32.86,48.71c3.88,0,7.03-3.15,7.03-7.03s-3.15-7.03-7.03-7.03-7.03,3.15-7.03,7.03,3.15,7.03,7.03,7.03Z"/><path class="blank-avatar_svg__st1" d="M30.39,45.38c2.04,0,3.7-1.66,3.7-3.7s-1.66-3.7-3.7-3.7-3.7,1.66-3.7,3.7,1.66,3.7,3.7,3.7Z"/><path class="blank-avatar_svg__st0" d="M53.95,48.71c3.88,0,7.03-3.15,7.03-7.03s-3.15-7.03-7.03-7.03-7.03,3.15-7.03,7.03,3.15,7.03,7.03,7.03Z"/><path class="blank-avatar_svg__st1" d="M51.73,45.38c2.04,0,3.7-1.66,3.7-3.7s-1.66-3.7-3.7-3.7-3.7,1.66-3.7,3.7,1.66,3.7,3.7,3.7Z"/></svg>
