<svg width="32" height="32" viewBox="0 0 32 32" fill="none" xmlns="http://www.w3.org/2000/svg">
<path d="M16 32C24.8366 32 32 24.8365 32 16C32 7.16345 24.8366 0 16 0C7.16344 0 0 7.16345 0 16C0 24.8365 7.16344 32 16 32ZM21.8398 5.6709C22.8166 4.75262 24.3632 4.77972 25.3047 5.73633C26.1981 6.64496 26.2268 8.06482 25.4111 9.00586L25.2373 9.1875C22.4467 11.811 20.6314 13.9305 19.1113 16.3154C17.5724 18.73 16.2834 21.4962 14.6094 25.5039L14.3604 26.0996C13.8328 27.3624 12.2218 27.734 11.1943 26.8301L5.82324 22.1045C4.80391 21.2073 4.71833 19.6582 5.63965 18.6572C6.54929 17.6691 8.09431 17.5921 9.10059 18.4775L11.4023 20.5029L11.4131 20.499C12.5609 17.9214 13.6592 15.7459 14.9443 13.7295C16.7382 10.915 18.8432 8.48822 21.8398 5.6709Z" fill="white"/>
</svg>
