<svg width="87" height="76" viewBox="0 0 87 76" fill="none" xmlns="http://www.w3.org/2000/svg">
<path d="M0 2.6881C0 1.20351 1.20694 0 2.69577 0H84.3042C85.7931 0 87 1.2035 87 2.6881V26.6367H0V2.6881Z" fill="#FFA9E2"/>
<path d="M83.569 28.1029H3.43099V73.3119C3.43099 74.7965 4.63793 76 6.12676 76H80.8732C82.3621 76 83.569 74.7965 83.569 73.3119V28.1029ZM29.4085 40.5401C29.4085 38.9729 30.7476 37.7379 32.3146 37.8602L43.5 36L53.1907 37.8888C54.7661 37.7515 56.1211 38.9897 56.1211 40.5667V42.1057C56.1211 43.4602 55.1105 44.6031 53.7629 44.7727L43.5 47.4084L31.8014 44.7456C30.4384 44.592 29.4085 43.4423 29.4085 42.0745V40.5401Z" fill="#FFA9E2"/>
<path d="M23.5268 39.8328C23.5268 44.0167 20.1254 47.4084 15.9296 47.4084C11.7338 47.4084 8.33239 44.0167 8.33239 39.8328C8.33239 35.6489 11.7338 32.2572 15.9296 32.2572C20.1254 32.2572 23.5268 35.6489 23.5268 39.8328Z" fill="#F599D6"/>
<path d="M80.138 39.8328C80.138 44.0167 76.7367 47.4084 72.5408 47.4084C68.345 47.4084 64.9437 44.0167 64.9437 39.8328C64.9437 35.6489 68.345 32.2572 72.5408 32.2572C76.7367 32.2572 80.138 35.6489 80.138 39.8328Z" fill="#F599D6"/>
<path d="M37.0056 13.1961C37.0056 19.8094 31.6293 25.1704 24.9972 25.1704C18.3651 25.1704 12.9887 19.8094 12.9887 13.1961C12.9887 6.58293 18.3651 1.22186 24.9972 1.22186C31.6293 1.22186 37.0056 6.58293 37.0056 13.1961Z" fill="white"/>
<path d="M72.8203 13.1961C72.8203 19.8094 67.4439 25.1704 60.8119 25.1704C54.1798 25.1704 48.8034 19.8094 48.8034 13.1961C48.8034 6.58293 54.1798 1.22186 60.8119 1.22186C67.4439 1.22186 72.8203 6.58293 72.8203 13.1961Z" fill="white"/>
<path d="M27.3486 14.4111C27.3484 12.8073 26.0427 11.5 24.4238 11.5C22.8051 11.5002 21.5002 12.8075 21.5 14.4111C21.5 15.2396 20.8284 15.9111 20 15.9111C19.1716 15.9111 18.5 15.2396 18.5 14.4111C18.5002 11.1425 21.1563 8.50018 24.4238 8.5C27.6915 8.5 30.3484 11.1424 30.3486 14.4111C30.3486 15.2395 29.6769 15.911 28.8486 15.9111C28.0202 15.9111 27.3486 15.2396 27.3486 14.4111Z" fill="black"/>
<path d="M63.3486 14.4111C63.3484 12.8073 62.0427 11.5 60.4238 11.5C58.8051 11.5002 57.5002 12.8075 57.5 14.4111C57.5 15.2396 56.8284 15.9111 56 15.9111C55.1716 15.9111 54.5 15.2396 54.5 14.4111C54.5002 11.1425 57.1563 8.50018 60.4238 8.5C63.6915 8.5 66.3484 11.1424 66.3486 14.4111C66.3486 15.2395 65.6769 15.911 64.8486 15.9111C64.0202 15.9111 63.3486 15.2396 63.3486 14.4111Z" fill="black"/>
</svg>
