<svg width="127" height="104" viewBox="0 0 127 104" fill="none" xmlns="http://www.w3.org/2000/svg">
<path d="M-2.26434e-06 51.8011C0.000132916 49.442 0.980681 47.1891 2.70703 45.5813L49.207 2.27956C52.6425 -0.919595 58.0215 -0.728125 61.2207 2.7073C64.4199 6.14278 64.2284 11.5218 60.793 14.721L20.9727 51.802L60.793 88.8821C64.2284 92.0813 64.4199 97.4603 61.2207 100.896C58.0215 104.331 52.6425 104.523 49.207 101.324L2.70703 58.0218L2.39258 57.7132C0.862049 56.1321 -2.16765e-06 54.013 -2.26434e-06 51.8011Z" fill="black"/>
<path d="M117.75 60.5515L59.25 60.5515C54.5556 60.5515 50.75 56.7459 50.75 52.0515C50.75 47.3571 54.5556 43.5515 59.25 43.5515L117.75 43.5515C122.444 43.5515 126.25 47.3571 126.25 52.0515C126.25 56.7459 122.444 60.5515 117.75 60.5515Z" fill="black"/>
</svg>
