<svg width="15" height="15" viewBox="0 0 15 15" fill="none" xmlns="http://www.w3.org/2000/svg"><path d="M14.2089 1.00519C14.6068 1.39694 14.6068 2.03861 14.2089 2.43035L10.1317 6.44465C9.73382 6.83639 9.73382 7.47806 10.1317 7.86981L14.2089 11.8841C14.6068 12.2758 14.6068 12.9175 14.2089 13.3093L13.4799 14.027C13.0907 14.4102 12.4659 14.4102 12.0767 14.027L7.95522 9.96909C7.56599 9.58586 6.94127 9.58586 6.55204 9.96909L2.43056 14.027C2.04133 14.4102 1.41661 14.4102 1.02738 14.027L0.298389 13.3093C-0.0994909 12.9175 -0.0994903 12.2758 0.29839 11.8841L4.37557 7.86981C4.77345 7.47806 4.77345 6.83639 4.37557 6.44465L0.29839 2.43035C-0.0994901 2.03861 -0.0994902 1.39694 0.29839 1.00519L1.02738 0.287448C1.41661 -0.0957778 2.04133 -0.095777 2.43056 0.287449L6.55204 4.34536C6.94127 4.72859 7.56599 4.72859 7.95522 4.34536L12.0767 0.287449C12.4659 -0.095777 13.0907 -0.095777 13.4799 0.287449L14.2089 1.00519Z" fill="#00316A"/></svg>