<svg width="71" height="107" viewBox="0 0 71 107" fill="none" xmlns="http://www.w3.org/2000/svg">
<path d="M0 11C0 4.92485 4.92487 0 11 0H42.1684C47.2085 0 51.6222 3.49926 52.8527 8.38681C53.9162 12.6104 57.4302 15.8422 61.7379 16.4853C67.0228 17.2744 70.934 21.813 70.934 27.1565V95.6095C70.934 101.685 66.0091 106.61 59.934 106.61H11C4.92486 106.61 0 101.685 0 95.6095V11Z" fill="#FFA9E2"/>
<ellipse cx="16.5681" cy="80.904" rx="12.6853" ry="13.2585" fill="white"/>
<ellipse cx="14.3425" cy="85.5556" rx="4.67352" ry="4.88473" fill="black"/>
<ellipse cx="54.4011" cy="80.904" rx="12.6853" ry="13.2585" fill="white"/>
<ellipse cx="49.5056" cy="85.5556" rx="4.67352" ry="4.88473" fill="black"/>
<path d="M27.5534 22.0465L31.3934 27.7415C32.011 28.6573 31.7691 29.9003 30.8533 30.5178L26.7076 33.3131C25.7918 33.9307 24.5488 33.6889 23.9313 32.773L20.0913 27.078C18.5199 30.0723 18.6013 33.8118 20.6242 36.812C22.6472 39.8122 26.0835 41.2896 29.4485 40.9554L36.7897 51.8429C37.4072 52.7588 38.6502 53.0006 39.5661 52.383L43.7117 49.5877C44.6275 48.9702 44.8694 47.7272 44.2518 46.8114L36.9106 35.9238C38.482 32.9295 38.4006 29.1901 36.3776 26.1898C34.3547 23.1896 30.9184 21.7123 27.5534 22.0465Z" fill="white"/>
</svg>
