<svg width="274" height="394" viewBox="0 0 274 394" fill="none" xmlns="http://www.w3.org/2000/svg">
<path d="M0 11C0 4.92486 4.92487 0 11 0H187.52C192.517 0 196.886 3.36813 198.158 8.20057L209.143 49.9421C210.268 54.2195 213.846 57.4066 218.225 58.0321L264.556 64.6508C269.975 65.425 274 70.0661 274 75.5402V383C274 389.075 269.075 394 263 394H11C4.92487 394 0 389.075 0 383V11Z" fill="#04898D"/>
<g data-eyes="true">
<path d="M113 125C113 152.062 91.062 174 64 174C36.938 174 15 152.062 15 125C15 97.938 36.938 76 64 76C91.062 76 113 97.938 113 125Z" fill="white"/>
<path d="M87.1053 113.053C87.1053 123.023 79.0228 131.105 69.0526 131.105C59.0824 131.105 51 123.023 51 113.053C51 103.082 59.0824 95 69.0526 95C79.0228 95 87.1053 103.082 87.1053 113.053Z" fill="black"/>
<path d="M259.14 125C259.14 152.062 237.202 174 210.14 174C183.078 174 161.14 152.062 161.14 125C161.14 97.938 183.078 76 210.14 76C237.202 76 259.14 97.938 259.14 125Z" fill="white"/>
<path d="M222.93 113.053C222.93 123.023 214.848 131.105 204.877 131.105C194.907 131.105 186.825 123.023 186.825 113.053C186.825 103.082 194.907 95 204.877 95C214.848 95 222.93 103.082 222.93 113.053Z" fill="black"/>
</g>
<path d="M37 221C37 214.925 41.9249 210 48 210H226C232.075 210 237 214.925 237 221V223C237 229.075 232.075 234 226 234H48C41.9249 234 37 229.075 37 223V221Z" fill="white"/>
<path d="M65 264C65 257.925 69.9249 253 76 253H237C243.075 253 248 257.925 248 264V266C248 272.075 243.075 277 237 277H76C69.9249 277 65 272.075 65 266V264Z" fill="white"/>
<path d="M37 307C37 300.925 41.9249 296 48 296H226C232.075 296 237 300.925 237 307V309C237 315.075 232.075 320 226 320H48C41.9249 320 37 315.075 37 309V307Z" fill="white"/>
</svg>
