<svg width="31" height="14" viewBox="0 0 31 14" fill="none" xmlns="http://www.w3.org/2000/svg">
<path d="M4.22661 7.99351C4.98878 7.26834 5.02547 6.0563 4.30856 5.28635L3.70364 4.63667C3.32082 4.22553 3.34041 3.57831 3.7474 3.19108C4.15439 2.80384 4.79465 2.82323 5.17747 3.23437L5.84973 3.95636C6.52945 4.68637 7.66629 4.72079 8.38892 4.03323L8.95997 3.4899C9.36722 3.10241 10.0079 3.1218 10.391 3.53321C10.774 3.94463 10.7544 4.59226 10.3472 4.97975L9.77614 5.52308C9.05351 6.21064 9.01872 7.35981 9.69844 8.08982L10.475 8.92388C10.8579 9.33503 10.8383 9.98224 10.4313 10.3695C10.0243 10.7567 9.38403 10.7373 9.00121 10.3262L8.34412 9.62047C7.59839 8.81957 6.35117 8.78182 5.55837 9.53614L4.72078 10.3331C4.31353 10.7206 3.67284 10.7012 3.28977 10.2898C2.9067 9.87834 2.92631 9.23071 3.33356 8.84322L4.22661 7.99351Z" fill="black"/>
<path d="M21.1546 7.99351C21.9168 7.26834 21.9534 6.0563 21.2365 5.28635L20.6316 4.63667C20.2488 4.22553 20.2684 3.57831 20.6754 3.19108C21.0824 2.80384 21.7226 2.82323 22.1055 3.23437L22.7777 3.95636C23.4574 4.68637 24.5943 4.72079 25.3169 4.03323L25.8879 3.4899C26.2952 3.10241 26.9359 3.1218 27.319 3.53321C27.702 3.94463 27.6824 4.59226 27.2752 4.97975L26.7041 5.52308C25.9815 6.21064 25.9467 7.35981 26.6264 8.08982L27.403 8.92388C27.7858 9.33503 27.7663 9.98224 27.3593 10.3695C26.9523 10.7567 26.312 10.7373 25.9292 10.3262L25.2721 9.62047C24.5264 8.81957 23.2791 8.78182 22.4863 9.53614L21.6488 10.3331C21.2415 10.7206 20.6008 10.7012 20.2177 10.2898C19.8347 9.87834 19.8543 9.23071 20.2615 8.84322L21.1546 7.99351Z" fill="black"/>
</svg>
