<svg width="25" height="24" viewBox="0 0 25 24" fill="none" xmlns="http://www.w3.org/2000/svg">
<path d="M14.3103 2.20834L14.3103 15.957L21.3209 8.77351C22.1625 7.91109 23.5271 7.91109 24.3688 8.77351C25.2104 9.63592 25.2104 11.0342 24.3688 11.8966L12.8597 23.6895C12.4462 24.1133 11.7723 24.1018 11.3728 23.6641L0.581349 11.8436L0.543801 11.8015C-0.230214 10.9094 -0.172754 9.54262 0.682877 8.72244C1.53852 7.90225 2.8734 7.93446 3.69053 8.78524L3.72891 8.82647L9.99997 15.6955L9.99997 2.20834C9.99997 0.988708 10.9649 -6.80359e-07 12.1551 -7.84416e-07C13.3454 -8.88473e-07 14.3103 0.988708 14.3103 2.20834Z" fill="white"/>
</svg>
