<svg width="22" height="28" viewBox="0 0 22 28" fill="none" xmlns="http://www.w3.org/2000/svg">
<path fill-rule="evenodd" clip-rule="evenodd" d="M6.87343 18.3532C6.19523 17.8775 5.25976 18.0416 4.78401 18.7198L0 25.5396L0.437573 12.9054C0.481562 11.6353 1.12646 10.4617 2.17497 9.74364L8.73612 5.25016L11.8216 0.851611C12.456 -0.0526552 13.7032 -0.27148 14.6075 0.362851L21.1568 4.9571C22.0611 5.59143 22.2799 6.83872 21.6456 7.74299L18.56 12.1415L16.5682 19.8404C16.2499 21.0707 15.366 22.0766 14.1867 22.5503L2.45599 27.2625L7.24 20.4427C7.71575 19.7645 7.55163 18.829 6.87343 18.3532ZM8.9137 13.5979C9.7296 13.4547 10.5072 14.0002 10.6503 14.8161C10.7935 15.6321 10.248 16.4096 9.4321 16.5528C8.61619 16.6959 7.83861 16.1505 7.69546 15.3345C7.55231 14.5186 8.09779 13.741 8.9137 13.5979Z" fill="white"/>
</svg>
