<svg width="43" height="25" viewBox="0 0 43 25" fill="none" xmlns="http://www.w3.org/2000/svg">
<path d="M9 25C13.9706 25 18 21.1944 18 16.5C18 11.8056 13.9706 8 9 8C4.02944 8 0 11.8056 0 16.5C0 21.1944 4.02944 25 9 25Z" fill="white"/>
<path d="M5.5 21C7.98528 21 10 19.2091 10 17C10 14.7909 7.98528 13 5.5 13C3.01472 13 1 14.7909 1 17C1 19.2091 3.01472 21 5.5 21Z" fill="black" stroke="white" stroke-miterlimit="10"/>
<path d="M34 25C38.9706 25 43 21.1944 43 16.5C43 11.8056 38.9706 8 34 8C29.0294 8 25 11.8056 25 16.5C25 21.1944 29.0294 25 34 25Z" fill="white"/>
<path d="M32 21C34.2091 21 36 19.2091 36 17C36 14.7909 34.2091 13 32 13C29.7909 13 28 14.7909 28 17C28 19.2091 29.7909 21 32 21Z" fill="black" stroke="white" stroke-miterlimit="10"/>
<path d="M27.0557 7.21591C26.6913 6.35949 27.088 5.36185 27.9661 5.05325C30.0659 4.31528 31.9972 3.98031 34.0626 4.02014C36.1456 4.06032 38.2987 4.48188 40.8054 5.15929C41.7039 5.40209 42.2162 6.34108 41.9553 7.23445C41.6944 8.12792 40.759 8.6372 39.8601 8.39551C37.5037 7.76191 35.6783 7.42234 33.9976 7.38991C32.4574 7.36021 30.9823 7.58853 29.2888 8.16227C28.4072 8.46094 27.4202 8.07241 27.0557 7.21591Z" fill="black"/>
<path d="M2.02279 2.81192C1.92948 1.88589 2.60479 1.05128 3.53491 1.01767C5.75915 0.93731 7.7028 1.19167 9.66292 1.8437C11.6398 2.50133 13.5703 3.54392 15.7622 4.93592C16.5479 5.43485 16.7579 6.48368 16.2432 7.25911C15.7285 8.03462 14.684 8.24278 13.8976 7.7448C11.8361 6.43931 10.1942 5.57242 8.5991 5.04181C7.13735 4.55556 5.66107 4.33503 3.87354 4.37936C2.94303 4.40244 2.11611 3.73803 2.02279 2.81192Z" fill="black"/>
</svg>
