<svg width="36" height="22" viewBox="0 0 36 22" fill="none" xmlns="http://www.w3.org/2000/svg">
<path d="M35.5001 9.9503C36.1668 10.3352 36.1668 11.2975 35.5001 11.6824L18.5001 21.4972C17.8335 21.8821 17.0001 21.401 17.0001 20.6312V15.8163C17.0001 15.264 16.5524 14.8163 16.0001 14.8163L2.00008 14.8163C0.895537 14.8163 0.000117166 13.9209 7.54811e-05 12.8164L0 10.8163C4.07009e-08 10.3508 2.69469e-05 9.56705 5.80643e-05 8.81608C0.000103832 7.71156 0.895518 6.81632 2.00005 6.81632L16.0001 6.81633C16.5524 6.81633 17.0001 6.36861 17.0001 5.81633V1.00149C17.0001 0.231694 17.8335 -0.249432 18.5001 0.135464L35.5001 9.9503Z" fill="#FBFDFF"/>
</svg>
