<svg width="71" height="107" viewBox="0 0 71 107" fill="none" xmlns="http://www.w3.org/2000/svg">
<path d="M0 11C0 4.92485 4.92487 0 11 0H42.1684C47.2085 0 51.6222 3.49926 52.8527 8.38681C53.9162 12.6104 57.4302 15.8422 61.7379 16.4853C67.0228 17.2744 70.934 21.813 70.934 27.1565V95.6095C70.934 101.685 66.0091 106.61 59.934 106.61H11C4.92486 106.61 0 101.685 0 95.6095V11Z" fill="#FFA9E2"/>
<ellipse cx="16.5681" cy="80.904" rx="12.6853" ry="13.2585" fill="white"/>
<ellipse cx="14.3425" cy="85.5556" rx="4.67352" ry="4.88473" fill="black"/>
<ellipse cx="54.4011" cy="80.904" rx="12.6853" ry="13.2585" fill="white"/>
<ellipse cx="49.5056" cy="85.5556" rx="4.67352" ry="4.88473" fill="black"/>
<path d="M51.5001 36.9503C52.1668 37.3352 52.1668 38.2975 51.5001 38.6824L34.5001 48.4972C33.8335 48.8821 33.0001 48.401 33.0001 47.6312V42.8163C33.0001 42.264 32.5524 41.8163 32.0001 41.8163L18.0001 41.8163C16.8955 41.8163 16.0001 40.9209 16.0001 39.8164L16 37.8163C16 37.3508 16 36.567 16.0001 35.8161C16.0001 34.7116 16.8955 33.8163 18 33.8163L32.0001 33.8163C32.5524 33.8163 33.0001 33.3686 33.0001 32.8163V28.0015C33.0001 27.2317 33.8335 26.7506 34.5001 27.1355L51.5001 36.9503Z" fill="#FBFDFF"/>
</svg>
