<svg width="157" height="223" viewBox="0 0 157 223" fill="none" xmlns="http://www.w3.org/2000/svg"><path d="M84.4105 5.71212C83.7379 5.37158 83.3139 4.6817 83.3139 3.92775V2C83.3139 0.89543 82.4184 0 81.3139 0H75C73.8954 0 73 0.89543 73 2V66.7591C73 67.8637 73.8954 68.7591 75 68.7591H81.3139C82.4184 68.7591 83.3139 67.8637 83.3139 66.7591V52.7985C83.3139 52.0446 83.7379 51.3547 84.4105 51.0142L125.629 30.1475C127.091 29.4073 127.091 27.319 125.629 26.5788L84.4105 5.71212Z" fill="#901065"/><path d="M0 160.675V211.759C0 217.835 4.92487 222.759 11 222.759H146C152.075 222.759 157 217.835 157 211.759V111.749C157 84.1343 134.614 61.7485 107 61.7485H98.6189C72.8337 61.7485 51.9308 82.9179 51.9308 108.703C51.9308 112.659 48.7238 115.907 44.7679 115.907C20.0433 115.907 0 135.95 0 160.675Z" fill="#8AB61E"/><circle cx="51.5693" cy="174.055" r="24.6387" fill="white"/><circle cx="51.5693" cy="158.493" r="9.07741" fill="black"/><circle cx="125.053" cy="174.055" r="24.6387" fill="white"/><circle cx="119.293" cy="160.213" r="9.07741" fill="black"/></svg>