<svg width="77" height="111" viewBox="0 0 77 111" fill="none" xmlns="http://www.w3.org/2000/svg">
<path d="M42.1692 2.97146C41.6423 2.70407 41.3102 2.16238 41.3102 1.57039C41.3102 0.703085 40.6089 0 39.7438 0H37.938C37.0067 0 36.2518 0.756798 36.2518 1.69036V32.1168C36.2518 33.0503 37.0067 33.8071 37.938 33.8071H39.6241C40.5553 33.8071 41.3102 33.0503 41.3102 32.1168V26.3942C41.3102 25.757 41.6677 25.1739 42.2348 24.8861L60.8204 15.4535C62.0532 14.8279 62.0532 13.063 60.8204 12.4373L42.1692 2.97146Z" fill="#0083D7"/>
<path d="M0 72.5495V107.901C0 109.613 1.384 111 3.09124 111H73.9088C75.616 111 77 109.613 77 107.901V45.9213C77 38.1417 70.7091 31.835 62.9489 31.835H39.5203C31.7601 31.835 25.4692 38.1417 25.4692 45.9213V56.2094C25.4692 57.4542 24.4627 58.4632 23.2211 58.4632H14.0511C6.29089 58.4632 0 64.7699 0 72.5495Z" fill="#8AB61E"/>
<path d="M37.3759 87.0533C37.3759 93.7438 31.9657 99.1675 25.292 99.1675C18.6182 99.1675 13.208 93.7438 13.208 87.0533C13.208 80.3628 18.6182 82.5902 25.292 82.5902C31.9657 82.5902 37.3759 80.3628 37.3759 87.0533Z" fill="white"/>
<path d="M29.7439 87.0533C29.7439 89.5182 27.7507 91.5164 25.292 91.5164C22.8332 91.5164 20.84 89.5182 20.84 87.0533C20.84 84.5884 22.8332 82.5902 25.292 82.5902C27.7507 82.5902 29.7439 84.5884 29.7439 87.0533Z" fill="black"/>
<path d="M73.4157 87.0533C73.4157 93.7438 68.0056 99.1675 61.3318 99.1675C54.658 99.1675 49.2479 93.7438 49.2479 87.0533C49.2479 80.3628 54.658 74.9391 61.3318 74.9391C68.0056 74.9391 73.4157 80.3628 73.4157 87.0533Z" fill="white"/>
<path d="M62.9587 80.2474C62.9587 82.7123 60.9655 84.7105 58.5068 84.7105C56.048 84.7105 54.0548 82.7123 54.0548 80.2474C54.0548 77.7825 56.048 75.7843 58.5068 75.7843C60.9655 75.7843 62.9587 77.7825 62.9587 80.2474Z" fill="black"/>
</svg>
