<svg id="goals-nav_svg__Layer_1" xmlns="http://www.w3.org/2000/svg" version="1.1" viewBox="0 0 29 39"><!--Generator: Adobe Illustrator 29.8.3, SVG Export Plug-In . SVG Version: 2.1.1 Build 3)--><defs><style>.goals-nav_svg__st0{fill:#fff}</style></defs><path class="goals-nav_svg__st0" d="M14.05,0h.67c.32,0,.58.25.58.55,0,.21.12.4.32.49l6.91,3.33c.46.22.46.84,0,1.06l-6.88,3.31c-.21.1-.34.31-.34.53v1.91h8.01c2.87,0,5.2,2.22,5.2,4.95v21.78c0,.6-.51,1.09-1.14,1.09H1.14c-.63,0-1.14-.49-1.14-1.09v-12.42c0-2.73,2.33-4.95,5.2-4.95h3.4c.46,0,.83-.35.83-.79v-3.61c0-2.34,1.7-4.3,3.99-4.81,0-.01,0-.02,0-.04V.59c0-.33.28-.59.62-.59Z"/></svg>