<svg width="562" height="562" viewBox="0 0 562 562" fill="none" xmlns="http://www.w3.org/2000/svg">
<path d="M421.082 140.361C435.578 154.856 447.363 171.036 456.437 188.271L361.779 272.213C359.907 254.275 352.098 236.839 338.351 223.092C324.171 208.912 306.066 201.05 287.533 199.505L373.078 104.956C390.347 114.037 406.56 125.838 421.082 140.361Z" fill="#BFE6FF"/>
<path fill-rule="evenodd" clip-rule="evenodd" d="M287.533 199.505C282.434 199.08 277.303 199.133 272.213 199.664L188.27 105.005C245.934 74.6434 315.401 74.6268 373.077 104.956L287.533 199.505Z" fill="#FFA700"/>
<path d="M188.27 105.005L272.213 199.664C254.275 201.536 236.839 209.345 223.092 223.092C208.912 237.272 201.05 255.377 199.505 273.91L104.956 188.365C114.037 171.096 125.838 154.883 140.361 140.361C154.856 125.865 171.036 114.08 188.27 105.005Z" fill="#BFE6FF"/>
<path fill-rule="evenodd" clip-rule="evenodd" d="M104.955 373.078C74.6433 315.432 74.6433 246.01 104.956 188.365L199.505 273.91C199.127 278.442 199.127 283.001 199.505 287.533L104.955 373.078Z" fill="#FFA700"/>
<path fill-rule="evenodd" clip-rule="evenodd" d="M104.956 373.078L199.505 287.533C201.05 306.066 208.912 324.171 223.092 338.351C236.839 352.098 254.275 359.907 272.213 361.779L188.271 456.438C171.037 447.363 154.857 435.578 140.361 421.082C125.839 406.56 114.037 390.347 104.956 373.078Z" fill="#BFE6FF"/>
<path fill-rule="evenodd" clip-rule="evenodd" d="M188.271 456.437L272.213 361.779C277.304 362.31 282.435 362.363 287.533 361.938L373.078 456.487C315.401 486.816 245.934 486.799 188.271 456.437Z" fill="#FFA700"/>
<path fill-rule="evenodd" clip-rule="evenodd" d="M373.077 456.487L287.533 361.938C306.066 360.393 324.171 352.53 338.35 338.351C352.097 324.604 359.907 307.168 361.779 289.23L456.437 373.172C447.363 390.406 435.578 406.586 421.082 421.082C406.56 435.604 390.347 447.406 373.077 456.487Z" fill="#BFE6FF"/>
<path fill-rule="evenodd" clip-rule="evenodd" d="M361.779 272.213L456.437 188.271C486.816 245.966 486.816 315.477 456.437 373.173L361.779 289.23C362.369 283.574 362.369 277.869 361.779 272.213Z" fill="#FFA700"/>
<g data-eyes="true">
    <circle cx="179" cy="132" r="51" fill="black"/>
    <path d="M218.5 137C218.5 135.067 220.067 133.5 222 133.5C223.933 133.5 225.5 135.067 225.5 137C225.5 159.807 204.434 177.5 179.5 177.5C177.567 177.5 176 175.933 176 174C176 172.067 177.567 170.5 179.5 170.5C201.51 170.5 218.5 155.062 218.5 137Z" fill="white"/>
    <circle cx="378" cy="132" r="51" fill="black"/>
    <path d="M415.5 137C415.5 135.067 417.067 133.5 419 133.5C420.933 133.5 422.5 135.067 422.5 137C422.5 159.807 401.434 177.5 376.5 177.5C374.567 177.5 373 175.933 373 174C373 172.067 374.567 170.5 376.5 170.5C398.51 170.5 415.5 155.062 415.5 137Z" fill="white"/>
    <ellipse cx="360" cy="104" rx="11" ry="10" fill="white"/>
    <ellipse cx="371" cy="134.5" rx="8" ry="7.5" fill="white"/>
    <ellipse cx="163" cy="104" rx="11" ry="10" fill="white"/>
    <ellipse cx="174" cy="134.5" rx="8" ry="7.5" fill="white"/>
</g>
</svg>
