<svg width="274" height="204" viewBox="0 0 274 204" fill="none" xmlns="http://www.w3.org/2000/svg">
<path d="M0 13C0 10.6598 0.618328 8.46401 1.70056 6.56714C3.93861 2.64443 8.1605 0 13 0H261C265.624 0 269.684 2.4142 271.989 6.0509C273.263 8.06089 274 10.4443 274 13V125C274 132.18 268.18 138 261 138H13C5.82029 138 0 132.18 0 125V13Z" fill="#FFA700"/>
<path fill-rule="evenodd" clip-rule="evenodd" d="M274 12.9999C274 10.4442 273.262 8.06079 271.989 6.05078L164.289 106.66C152.661 117.522 134.759 118.006 122.561 107.79L1.70056 6.56702C0.618286 8.46387 0 10.6597 0 12.9999V192C0 198.627 5.37256 204 12 204H262C268.627 204 274 198.627 274 192V12.9999Z" fill="#FFF3A3"/>
<g data-eyes="true">
    <circle cx="52.206" cy="138.206" r="43.206" fill="black"/>
    <path d="M85.6695 142.442C85.6695 140.804 86.9971 139.477 88.6347 139.477C90.2722 139.477 91.5998 140.804 91.5998 142.442C91.5998 161.763 73.753 176.752 52.6297 176.752C50.9921 176.752 49.6646 175.425 49.6646 173.787C49.6646 172.15 50.9921 170.822 52.6297 170.822C71.2763 170.822 85.6695 157.743 85.6695 142.442Z" fill="white"/>
    <circle cx="220.794" cy="138.206" r="43.206" fill="black"/>
    <path d="M252.563 142.442C252.563 140.804 253.891 139.477 255.528 139.477C257.166 139.477 258.493 140.804 258.493 142.442C258.493 161.763 240.647 176.752 219.523 176.752C217.886 176.752 216.558 175.425 216.558 173.787C216.558 172.15 217.886 170.822 219.523 170.822C238.17 170.822 252.563 157.743 252.563 142.442Z" fill="white"/>
    <ellipse cx="205.545" cy="114.485" rx="9.31894" ry="8.47176" fill="white"/>
    <ellipse cx="214.864" cy="140.324" rx="6.77741" ry="6.35382" fill="white"/>
    <ellipse cx="38.6512" cy="114.485" rx="9.31894" ry="8.47176" fill="white"/>
    <ellipse cx="47.97" cy="140.324" rx="6.77741" ry="6.35382" fill="white"/>
</g>
</svg>
