<svg width="43" height="20" viewBox="0 0 43 20" fill="none" xmlns="http://www.w3.org/2000/svg">
<circle cx="10" cy="10" r="10" fill="white"/>
<circle cx="33" cy="10" r="10" fill="white"/>
<circle cx="9.99951" cy="11.9995" r="5.99951" fill="black"/>
<path d="M13.9507 12.3818C13.9507 12.1709 14.1406 12 14.3749 12C14.6092 12 14.7991 12.1709 14.7991 12.3818C14.7991 14.8697 12.2459 16.7996 9.22381 16.7996C8.98953 16.7996 8.79961 16.6287 8.79961 16.4178C8.79961 16.207 8.98953 16.036 9.22381 16.036C11.8915 16.036 13.9507 14.352 13.9507 12.3818Z" fill="white"/>
<circle cx="32.7977" cy="11.9995" r="5.99951" fill="black"/>
<path d="M36.7488 12.3828C36.7488 12.1719 36.9388 12.001 37.1731 12.001C37.4073 12.001 37.5973 12.1719 37.5973 12.3828C37.5973 14.8706 35.044 16.8006 32.022 16.8006C31.7877 16.8006 31.5977 16.6297 31.5977 16.4188C31.5977 16.2079 31.7877 16.037 32.022 16.037C34.6897 16.037 36.7488 14.353 36.7488 12.3828Z" fill="white"/>
<circle cx="31.5978" cy="8.4001" r="1.1999" fill="white"/>
<ellipse cx="32.1977" cy="11.9997" rx="0.599951" ry="1.1999" fill="white"/>
<circle cx="8.7996" cy="8.4001" r="1.1999" fill="white"/>
<ellipse cx="9.39956" cy="11.9997" rx="0.599951" ry="1.1999" fill="white"/>
</svg>
