<svg width="34" height="28" viewBox="0 0 34 28" fill="none" xmlns="http://www.w3.org/2000/svg">
<path d="M0.0288234 7.08732C-0.0220495 6.83805 -0.00392152 6.59073 0.0701175 6.36515C0.223229 5.89867 0.615439 5.52522 1.13092 5.42002L27.5467 0.0288222C28.0393 -0.0716978 28.5242 0.0971896 28.8488 0.434455C29.0281 0.620861 29.1585 0.8587 29.214 1.13092L31.6488 13.0606C31.8049 13.8254 31.3114 14.5719 30.5467 14.728L4.13086 20.1191C3.36611 20.2752 2.61963 19.7818 2.46356 19.017L0.0288234 7.08732Z" fill="#BFE6FF"/>
<path fill-rule="evenodd" clip-rule="evenodd" d="M29.214 1.13092C29.1585 0.8587 29.0281 0.620861 28.8488 0.434455L19.5642 13.4924C18.5618 14.9021 16.6654 15.3429 15.144 14.5198L0.0701175 6.36515C-0.00392152 6.59073 -0.0220495 6.83805 0.0288234 7.08732L3.92004 26.1538C4.06411 26.8597 4.75316 27.3152 5.45908 27.1711L32.0879 21.7365C32.7939 21.5924 33.2493 20.9033 33.1053 20.1974L29.214 1.13092Z" fill="white"/>
</svg>
