<svg width="274" height="204" viewBox="0 0 274 204" fill="none" xmlns="http://www.w3.org/2000/svg">
<path d="M0 13C0 10.6598 0.618328 8.46401 1.70056 6.56714C3.93861 2.64443 8.1605 0 13 0H261C265.624 0 269.684 2.4142 271.989 6.0509C273.263 8.06089 274 10.4443 274 13V125C274 132.18 268.18 138 261 138H13C5.82029 138 0 132.18 0 125V13Z" fill="#FFA700"/>
<path fill-rule="evenodd" clip-rule="evenodd" d="M274 13C274 10.4443 273.262 8.06091 271.989 6.0509L164.289 106.66C152.661 117.522 134.759 118.007 122.561 107.79L1.70056 6.56714C0.618286 8.46399 0 10.6598 0 13V192C0 198.627 5.37256 204 12 204H262C268.627 204 274 198.627 274 192V13Z" fill="#FFF3A3"/>
<path d="M42.7413 116L52.6227 118.648C49.8146 129.128 56.0583 139.943 66.5386 142.751C77.0189 145.559 87.8334 139.315 90.6416 128.835L100.523 131.483C96.2525 147.42 79.819 156.9 63.8909 152.632C47.9628 148.364 38.4734 131.928 42.7413 116Z" fill="black"/>
<path d="M184 132.945L193.218 128.508C197.924 138.284 209.71 142.411 219.486 137.705C229.262 132.999 233.389 121.213 228.683 111.437L237.901 107C245.057 121.867 238.781 139.771 223.923 146.923C209.064 154.075 191.152 147.803 184 132.945Z" fill="black"/>
</svg>
