<?xml version="1.0" encoding="UTF-8"?>
<svg id="Layer_1" xmlns="http://www.w3.org/2000/svg" version="1.1" viewBox="0 0 274 393">
  <!-- Generator: Adobe Illustrator 29.8.3, SVG Export Plug-In . SVG Version: 2.1.1 Build 3)  -->
  <defs>
    <style>
      .st0 {
        font-family: 'Geologica', sans-serif;
        font-size: 150px;
      }

      .st0, .st1 {
        fill: #fff;
      }

      .st2 {
        fill: #ffa700;
      }

      .st2, .st3 {
        fill-rule: evenodd;
      }

      .st3 {
        fill: #fff3a3;
      }

      .st4 {
        fill: #00316a;
      }
    </style>
  </defs>
  <path class="st2" d="M272,195.18l-120.56-100.97c-12.2-10.22-30.1-9.73-41.73,1.13L2.01,195.95v-.02s-.01,114.07-.01,114.07h270v-114.82Z"/>
  <path class="st3" d="M274,202c0-2.56-.74-4.94-2.01-6.95l-107.7,100.61c-11.63,10.86-29.53,11.35-41.73,1.13L1.7,195.57c-1.08,1.9-1.7,4.09-1.7,6.43v179c0,6.63,5.37,12,12,12h250c6.63,0,12-5.37,12-12v-179Z"/>
  <circle class="st1" cx="64" cy="333" r="49"/>
  <circle cx="64.05" cy="333.05" r="18.05" transform="translate(-270.95 385.99) rotate(-88.09)"/>
  <circle class="st1" cx="210.14" cy="333" r="49"/>
  <circle cx="210.05" cy="333.05" r="18.05"/>
  <circle class="st4" cx="137" cy="115" r="115"/>
  <text class="st0" transform="translate(99.53 156.5)"><tspan x="0" y="0">1</tspan></text>
</svg>