<svg width="385" height="204" viewBox="0 0 385 204" fill="none" xmlns="http://www.w3.org/2000/svg">
<path d="M68 22C81.8071 22 93 33.1929 93 47C93 56.3232 87.8958 64.4529 80.3301 68.751C82.0369 72.1324 83 75.9535 83 80C83 93.8071 71.8071 105 58 105C51.6765 105 45.9027 102.651 41.5 98.7793C37.0973 102.651 31.3235 105 25 105C11.1929 105 0 93.8071 0 80C0 68.0756 8.34866 58.102 19.5195 55.6035C18.5364 52.9211 18 50.0232 18 47C18 33.1929 29.1929 22 43 22C47.5536 22 51.8228 23.2176 55.5 25.3447C59.1772 23.2176 63.4464 22 68 22Z" fill="#D9D9D9"/>
<path d="M379.679 90.1899C378.616 103.956 366.594 114.254 352.828 113.19C343.532 112.472 335.82 106.757 332.117 98.8831C328.614 100.324 324.73 100.99 320.696 100.679C306.93 99.6155 296.632 87.5939 297.695 73.8278C298.182 67.5231 300.969 61.9473 305.168 57.8558C301.647 53.1681 299.75 47.2305 300.237 40.9258C301.3 27.1597 313.322 16.862 327.088 17.9253C338.977 18.8436 348.278 27.9355 349.909 39.2656C352.659 38.4919 355.589 38.1803 358.604 38.4131C372.37 39.4764 382.667 51.498 381.604 65.2641C381.253 69.8042 379.711 73.967 377.307 77.4695C379.144 81.2995 380.03 85.6498 379.679 90.1899Z" fill="#D9D9D9"/>
<path d="M66 13C66 10.6598 66.6183 8.46401 67.7006 6.56714C69.9386 2.64443 74.1605 0 79 0H327C331.624 0 335.684 2.4142 337.989 6.0509C339.263 8.06089 340 10.4443 340 13V125C340 132.18 334.18 138 327 138H79C71.8203 138 66 132.18 66 125V13Z" fill="#FFA700"/>
<path fill-rule="evenodd" clip-rule="evenodd" d="M340 13C340 10.4443 339.262 8.06091 337.989 6.0509L230.289 106.66C218.661 117.522 200.759 118.007 188.561 107.79L67.7006 6.56714C66.6183 8.46399 66 10.6598 66 13V192C66 198.627 71.3726 204 78 204H328C334.627 204 340 198.627 340 192V13Z" fill="#FFF3A3"/>
<path d="M108.741 116L118.623 118.648C115.815 129.128 122.058 139.943 132.539 142.751C143.019 145.559 153.833 139.315 156.642 128.835L166.523 131.483C162.253 147.42 145.819 156.9 129.891 152.632C113.963 148.364 104.473 131.928 108.741 116Z" fill="black"/>
<path d="M250 132.945L259.218 128.508C263.924 138.284 275.71 142.411 285.486 137.705C295.262 132.999 299.389 121.213 294.683 111.437L303.901 107C311.057 121.867 304.781 139.771 289.923 146.923C275.064 154.075 257.152 147.803 250 132.945Z" fill="black"/>
<path d="M146.974 165.407C191.11 158.075 215.891 158.322 260.026 165.407C270.395 174 276.72 184.992 277 197C236.779 191.983 208.939 190.441 176.129 192.458L172.606 178.29L168.961 192.945C157.018 193.845 144.291 195.195 130 197C130.28 184.992 136.605 174 146.974 165.407Z" fill="#D9D9D9"/>
</svg>
