<svg id="points-nav_svg__Layer_1" xmlns="http://www.w3.org/2000/svg" version="1.1" viewBox="0 0 41 43"><!--Generator: Adobe Illustrator 29.8.3, SVG Export Plug-In . SVG Version: 2.1.1 Build 3)--><defs><style>.points-nav_svg__st0{fill:#fff}</style></defs><path class="points-nav_svg__st0" d="M18.79.63c.62-.84,1.93-.84,2.55,0l5.82,7.92c.27.37.7.6,1.17.63l10.35.66c1.11.07,1.78,1.19,1.28,2.13l-4.5,8.45c-.22.42-.22.91,0,1.32l4.5,8.45c.5.94-.17,2.06-1.28,2.13l-10.35.66c-.47.03-.9.26-1.17.63l-5.82,7.92c-.62.84-1.93.84-2.55,0l-5.82-7.92c-.27-.37-.7-.6-1.17-.63l-10.35-.66c-1.11-.07-1.78-1.19-1.28-2.13l4.5-8.45c.22-.42.22-.91,0-1.32L.17,11.96c-.5-.94.17-2.06,1.28-2.13l10.35-.66c.47-.03.9-.26,1.17-.63L18.79.63Z"/></svg>