<svg viewBox="0 0 383 443" fill="none" xmlns="http://www.w3.org/2000/svg">
<path d="M151.34 292.69L174.33 332.69H208.07L231.06 292.69H151.34Z" fill="#901065" data-pillar="arts-and-culture"/>
<path d="M128.19 332.69H10.3688C5.75521 332.69 2.8678 327.7 5.16673 323.7L64.1 221.16L87.16 181.02L110.23 221.17L87.17 261.31L74.2985 283.7C71.9989 287.7 74.8863 292.69 79.5002 292.69H105.2L128.19 332.69Z" fill="#901065" data-pillar="arts-and-culture"/>
<path d="M277.2 149.64H231.06L272.17 221.17L295.24 181.03L277.2 149.64Z" fill="#FFA700" data-pillar="academics"/>
<path d="M377.233 323.7C379.532 327.7 376.645 332.69 372.031 332.69H208.07L231.06 292.69H302.911C307.525 292.69 310.412 287.7 308.113 283.7L295.24 261.3L318.3 221.16L377.233 323.7Z" fill="#FFA700" data-pillar="academics"/>
<path d="M105.04 149.64L87 181.02L110.07 221.17L151.18 149.64H105.04Z" fill="#04898D"  data-pillar="service-and-leadership"/>
<path d="M277.04 149.64H230.9L207.91 109.64L196.242 89.334C193.936 85.3196 188.144 85.3196 185.837 89.334L174.17 109.64H128.03L185.838 9.05189C188.144 5.03809 193.935 5.03809 196.242 9.05189L254.05 109.64L277.04 149.64Z" fill="#04898D" data-pillar="service-and-leadership"/>
<path d="M110.23 221.17L87.1699 261.31L105.2 292.69H151.34L110.23 221.17Z" fill="#8AB61E"  data-pillar="sport"/>
<path d="M174.33 109.64L151.34 149.64H79.4973C74.8841 149.64 71.9966 154.629 74.2949 158.629L87.16 181.02L64.1 221.16L5.16731 118.63C2.86818 114.63 5.75556 109.64 10.3692 109.64H174.33Z" fill="#8AB61E"  data-pillar="sport"/>
<path d="M272.17 221.17L231.06 292.69H277.2L295.24 261.3L272.17 221.17Z" fill="#0083D7" data-pillar="jewish-life"/>
<path d="M254.21 332.69L196.402 433.269C194.095 437.283 188.305 437.283 185.998 433.269L128.19 332.69L105.2 292.69H151.34L174.33 332.69L185.998 352.996C188.304 357.01 194.096 357.01 196.403 352.996L208.07 332.69H254.21Z" fill="#0083D7"  data-pillar="jewish-life"/>
<path d="M208.07 109.64H174.33L151.34 149.64H231.06L208.07 109.64Z" fill="#00316A" data-pillar="menschlichkeit"/>
<path d="M372.031 109.64C376.644 109.64 379.532 114.63 377.233 118.63L318.3 221.16L295.24 261.3L272.17 221.17L295.24 181.03L308.114 158.63C310.412 154.63 307.525 149.64 302.911 149.64H277.2L254.21 109.64H372.031Z" fill="#00316A" data-pillar="menschlichkeit"/>
</svg>
