<svg width="343" height="332" viewBox="0 0 343 332" fill="none" xmlns="http://www.w3.org/2000/svg">
<path d="M162.474 12.9603C166.85 6.67592 176.15 6.67592 180.526 12.9603L221.819 72.248C223.726 74.9872 226.775 76.7118 230.105 76.9364L303.473 81.8839C311.328 82.4136 316.099 90.7821 312.555 97.8115L280.67 161.048C279.1 164.162 279.1 167.838 280.67 170.952L312.555 234.188C316.099 241.218 311.328 249.586 303.473 250.116L230.105 255.064C226.775 255.288 223.726 257.013 221.819 259.752L180.526 319.04C176.15 325.324 166.85 325.324 162.474 319.04L121.181 259.752C119.274 257.013 116.225 255.288 112.895 255.064L39.5269 250.116C31.6722 249.586 26.9005 241.218 30.4449 234.188L62.3299 170.952C63.9004 167.838 63.9004 164.162 62.3299 161.048L30.4449 97.8115C26.9005 90.7821 31.6723 82.4136 39.5269 81.8839L112.895 76.9364C116.225 76.7118 119.274 74.9871 121.181 72.248L162.474 12.9603Z" fill="#FFA700"/>
<g data-eyes="true"><circle cx="98" cy="200" r="49" fill="white"/>
<circle cx="103.053" cy="193.053" r="18.0526" fill="black"/>
<circle cx="244.14" cy="200" r="49" fill="white"/>
<circle cx="238.877" cy="193.053" r="18.0526" fill="black"/>
</g>
</svg>
