<svg width="119" height="117" viewBox="0 0 119 117" fill="none" xmlns="http://www.w3.org/2000/svg">
<g clip-path="url(#clip0_181_3453)">
<path d="M56.996 35.9272C58.3054 37.5441 64.6229 30.6485 65.771 29.1246C66.919 27.6007 67.0783 25.4483 65.56 23.1574C64.0416 20.8664 58.9818 24.2677 58.9818 24.2677C58.9818 24.2677 64.0871 17.6388 59.2652 15.9475C54.4433 14.2561 36.7837 29.4926 36.7837 29.4926C36.7837 29.4926 55.6865 34.3082 56.996 35.9251V35.9272Z" fill="#00316A"/>
<path d="M70.9717 52.6523C72.0184 57.8131 71.9501 61.6672 70.7462 66.3422C67.2296 79.9887 77.8063 87.9512 62.0581 97.1501C51.0283 103.593 36.2234 88.2861 30.5657 84.8807C23.4249 80.5821 17.9142 73.0641 16.0318 63.7907C12.66 47.1709 22.2252 31.2046 37.3963 28.13C52.5673 25.0533 67.5999 36.0325 70.9717 52.6523Z" fill="#0083D7"/>
<path d="M26.9745 53.5853C30.162 53.5853 32.7459 51.0026 32.7459 47.8166C32.7459 44.6306 30.162 42.0479 26.9745 42.0479C23.7871 42.0479 21.2031 44.6306 21.2031 47.8166C21.2031 51.0026 23.7871 53.5853 26.9745 53.5853Z" fill="white"/>
<path d="M24.9454 50.8519C26.6225 50.8519 27.9821 49.4929 27.9821 47.8166C27.9821 46.1402 26.6225 44.7812 24.9454 44.7812C23.2683 44.7812 21.9087 46.1402 21.9087 47.8166C21.9087 49.4929 23.2683 50.8519 24.9454 50.8519Z" fill="black" stroke="white" stroke-miterlimit="10"/>
<path d="M44.2885 53.5853C47.4759 53.5853 50.0599 51.0026 50.0599 47.8166C50.0599 44.6306 47.4759 42.0479 44.2885 42.0479C41.101 42.0479 38.5171 44.6306 38.5171 47.8166C38.5171 51.0026 41.101 53.5853 44.2885 53.5853Z" fill="white"/>
<path d="M42.4664 50.8519C44.1435 50.8519 45.5031 49.4929 45.5031 47.8166C45.5031 46.1402 44.1435 44.7812 42.4664 44.7812C40.7893 44.7812 39.4297 46.1402 39.4297 47.8166C39.4297 49.4929 40.7893 50.8519 42.4664 50.8519Z" fill="black" stroke="white" stroke-miterlimit="10"/>
<path d="M28.8983 65.669L34.8414 66.3079C36.1798 66.4526 37.2099 65.1521 36.7631 63.8826L35.0565 59.0298C34.6097 57.7602 32.9921 57.3901 32.0384 58.3392L27.802 62.5531C26.7097 63.6386 27.3655 65.5036 28.8962 65.669H28.8983Z" fill="#00316A"/>
<path d="M83.1305 17.3304C82.2682 18.3649 78.1074 13.9532 77.3513 12.9782C76.5952 12.0033 76.4903 10.6262 77.4903 9.1605C78.4903 7.69478 81.8227 9.87087 81.8227 9.87087C81.8227 9.87087 78.4603 5.62981 81.636 4.54772C84.8117 3.46563 96.4424 13.2137 96.4424 13.2137C96.4424 13.2137 83.9929 16.2946 83.1305 17.3291V17.3304Z" fill="#00316A"/>
<path d="M73.9262 28.0303C73.2369 31.3322 73.2818 33.7979 74.0747 36.7889C76.3908 45.5197 69.4249 50.614 79.7967 56.4994C87.061 60.6214 96.8115 50.8283 100.538 48.6496C105.241 45.8994 108.87 41.0895 110.11 35.1565C112.33 24.5234 106.031 14.3084 96.0391 12.3413C86.0473 10.3729 76.1469 17.3973 73.9262 28.0303Z" fill="#0083D7"/>
<path d="M102.903 28.6276C100.804 28.6276 99.102 26.9752 99.102 24.9368C99.102 22.8985 100.804 21.2461 102.903 21.2461C105.002 21.2461 106.704 22.8985 106.704 24.9368C106.704 26.9752 105.002 28.6276 102.903 28.6276Z" fill="white"/>
<path d="M104.239 26.878C103.135 26.878 102.239 26.0086 102.239 24.9361C102.239 23.8636 103.135 22.9941 104.239 22.9941C105.344 22.9941 106.239 23.8636 106.239 24.9361C106.239 26.0086 105.344 26.878 104.239 26.878Z" fill="black" stroke="white" stroke-miterlimit="10"/>
<path d="M91.4997 28.6276C89.4005 28.6276 87.6987 26.9752 87.6987 24.9368C87.6987 22.8985 89.4005 21.2461 91.4997 21.2461C93.599 21.2461 95.3008 22.8985 95.3008 24.9368C95.3008 26.9752 93.599 28.6276 91.4997 28.6276Z" fill="white"/>
<path d="M92.7002 26.878C91.5957 26.878 90.7002 26.0086 90.7002 24.9361C90.7002 23.8636 91.5957 22.9941 92.7002 22.9941C93.8048 22.9941 94.7002 23.8636 94.7002 24.9361C94.7002 26.0086 93.8048 26.878 92.7002 26.878Z" fill="black" stroke="white" stroke-miterlimit="10"/>
<path d="M101.636 36.358L97.7216 36.7668C96.8401 36.8594 96.1616 36.0273 96.4559 35.2151L97.5799 32.1103C97.8742 31.2981 98.9395 31.0613 99.5676 31.6685L102.358 34.3645C103.077 35.059 102.645 36.2522 101.637 36.358H101.636Z" fill="#00316A"/>
</g>
<defs>
<clipPath id="clip0_181_3453">
<rect width="119" height="117" fill="white"/>
</clipPath>
</defs>
</svg>
