<svg width="54" height="53" viewBox="0 0 54 53" fill="none" xmlns="http://www.w3.org/2000/svg">
<g clip-path="url(#clip0_402_1390)">
<path d="M25.8638 16.275C26.458 17.0075 29.3248 13.8838 29.8458 13.1935C30.3668 12.5032 30.439 11.5282 29.75 10.4904C29.061 9.45265 26.765 10.9934 26.765 10.9934C26.765 10.9934 29.0817 7.99057 26.8936 7.22441C24.7055 6.45825 16.6919 13.3603 16.6919 13.3603C16.6919 13.3603 25.2697 15.5417 25.8638 16.2741V16.275Z" fill="#B8C6D6"/>
<path d="M32.2054 23.8512C32.6804 26.1891 32.6494 27.9349 32.1031 30.0527C30.5073 36.2344 35.3068 39.8413 28.1606 44.0084C23.1555 46.9269 16.4372 39.9931 13.8699 38.4505C10.6296 36.5032 8.12888 33.0976 7.27467 28.8969C5.7446 21.3682 10.0851 14.1356 16.9695 12.7428C23.8538 11.3491 30.6753 16.3226 32.2054 23.8512Z" fill="white"/>
<path d="M12.2405 24.2733C13.6869 24.2733 14.8595 23.1033 14.8595 21.6601C14.8595 20.2168 13.6869 19.0469 12.2405 19.0469C10.7941 19.0469 9.62158 20.2168 9.62158 21.6601C9.62158 23.1033 10.7941 24.2733 12.2405 24.2733Z" fill="#00316A"/>
<path d="M11.3199 23.0351C12.0809 23.0351 12.6979 22.4195 12.6979 21.6601C12.6979 20.9007 12.0809 20.2852 11.3199 20.2852C10.5588 20.2852 9.94189 20.9007 9.94189 21.6601C9.94189 22.4195 10.5588 23.0351 11.3199 23.0351Z" fill="white"/>
<path d="M20.0975 24.2733C21.5439 24.2733 22.7164 23.1033 22.7164 21.6601C22.7164 20.2168 21.5439 19.0469 20.0975 19.0469C18.6511 19.0469 17.4785 20.2168 17.4785 21.6601C17.4785 23.1033 18.6511 24.2733 20.0975 24.2733Z" fill="#00316A"/>
<path d="M19.2706 23.0351C20.0316 23.0351 20.6486 22.4195 20.6486 21.6601C20.6486 20.9007 20.0316 20.2852 19.2706 20.2852C18.5095 20.2852 17.8926 20.9007 17.8926 21.6601C17.8926 22.4195 18.5095 23.0351 19.2706 23.0351Z" fill="white"/>
<path d="M13.1137 29.7476L15.8105 30.037C16.4179 30.1026 16.8853 29.5134 16.6826 28.9383L15.9081 26.7401C15.7054 26.165 14.9713 25.9973 14.5386 26.4272L12.6162 28.3361C12.1205 28.8278 12.4181 29.6726 13.1127 29.7476H13.1137Z" fill="#B8C6D6"/>
<path d="M37.723 7.8509C37.3317 8.31951 35.4436 6.32104 35.1005 5.8794C34.7574 5.43776 34.7098 4.81395 35.1636 4.15C35.6173 3.48604 37.1295 4.47179 37.1295 4.47179C37.1295 4.47179 35.6037 2.55062 37.0448 2.06045C38.4859 1.57027 43.7637 5.98607 43.7637 5.98607C43.7637 5.98607 38.1143 7.3817 37.723 7.8503V7.8509Z" fill="#B8C6D6"/>
<path d="M33.5459 12.6981C33.2331 14.1938 33.2535 15.3108 33.6133 16.6657C34.6643 20.6207 31.5033 22.9284 36.2099 25.5944C39.5062 27.4616 43.9309 23.0254 45.6217 22.0385C47.7558 20.7927 49.4028 18.6138 49.9654 15.9262C50.9731 11.1096 48.1144 6.48222 43.5803 5.59115C39.0463 4.69948 34.5536 7.88145 33.5459 12.6981Z" fill="white"/>
<path d="M46.6951 12.9678C45.7425 12.9678 44.9702 12.2193 44.9702 11.2959C44.9702 10.3725 45.7425 9.62402 46.6951 9.62402C47.6477 9.62402 48.4199 10.3725 48.4199 11.2959C48.4199 12.2193 47.6477 12.9678 46.6951 12.9678Z" fill="#00316A"/>
<path d="M47.3019 12.1754C46.8007 12.1754 46.3944 11.7815 46.3944 11.2957C46.3944 10.8099 46.8007 10.416 47.3019 10.416C47.8031 10.416 48.2095 10.8099 48.2095 11.2957C48.2095 11.7815 47.8031 12.1754 47.3019 12.1754Z" fill="white"/>
<path d="M41.5208 12.9678C40.5682 12.9678 39.7959 12.2193 39.7959 11.2959C39.7959 10.3725 40.5682 9.62402 41.5208 9.62402C42.4734 9.62402 43.2456 10.3725 43.2456 11.2959C43.2456 12.2193 42.4734 12.9678 41.5208 12.9678Z" fill="#00316A"/>
<path d="M42.0651 12.1754C41.5639 12.1754 41.1575 11.7815 41.1575 11.2957C41.1575 10.8099 41.5639 10.416 42.0651 10.416C42.5663 10.416 42.9727 10.8099 42.9727 11.2957C42.9727 11.7815 42.5663 12.1754 42.0651 12.1754Z" fill="white"/>
<path d="M46.1202 16.4703L44.344 16.6555C43.944 16.6974 43.6361 16.3205 43.7697 15.9526L44.2797 14.5462C44.4132 14.1782 44.8967 14.071 45.1817 14.346L46.4478 15.5673C46.7742 15.8819 46.5783 16.4224 46.1208 16.4703H46.1202Z" fill="#B8C6D6"/>
</g>
<defs>
<clipPath id="clip0_402_1390">
<rect width="54" height="53" fill="white"/>
</clipPath>
</defs>
</svg>
