<svg width="71" height="107" viewBox="0 0 71 107" fill="none" xmlns="http://www.w3.org/2000/svg">
<path d="M0 11C0 4.92485 4.92487 0 11 0H42.1684C47.2085 0 51.6222 3.49926 52.8527 8.38681C53.9162 12.6104 57.4302 15.8422 61.7379 16.4853C67.0228 17.2744 70.934 21.813 70.934 27.1565V95.6095C70.934 101.685 66.0091 106.61 59.934 106.61H11C4.92486 106.61 0 101.685 0 95.6095V11Z" fill="#FFA9E2"/>
<ellipse cx="16.5686" cy="80.904" rx="12.6853" ry="13.2585" fill="white"/>
<ellipse cx="14.343" cy="85.5556" rx="4.67352" ry="4.88473" fill="black"/>
<ellipse cx="54.4021" cy="80.904" rx="12.6853" ry="13.2585" fill="white"/>
<ellipse cx="49.5056" cy="85.5556" rx="4.67352" ry="4.88473" fill="black"/>
<path d="M35 49C42.732 49 49 42.7319 49 35C49 27.2681 42.732 21 35 21C27.268 21 21 27.2681 21 35C21 42.7319 27.268 49 35 49ZM26 34C26 32.8954 26.8954 32 28 32H42C43.1046 32 44 32.8954 44 34V36C44 37.1046 43.1046 38 42 38H28C26.8954 38 26 37.1046 26 36V34Z" fill="white"/>
</svg>
