<svg width="26" height="31" viewBox="0 0 26 31" fill="none" xmlns="http://www.w3.org/2000/svg">
<path d="M8.55341 0.046475L12.3934 5.74146C13.011 6.65732 12.7691 7.90031 11.8533 8.51783L7.70765 11.3131C6.79182 11.9307 5.54882 11.6889 4.93127 10.773L1.09127 5.07803C-0.480111 8.0723 -0.398748 11.8118 1.62423 14.812C3.64721 17.8122 7.08346 19.2896 10.4485 18.9554L17.7897 29.8429C18.4072 30.7588 19.6502 31.0006 20.5661 30.383L24.7117 27.5877C25.6275 26.9702 25.8694 25.7272 25.2518 24.8114L17.9106 13.9238C19.482 10.9295 19.4006 7.19006 17.3776 4.18984C15.3547 1.18962 11.9184 -0.287747 8.55341 0.046475Z" fill="white"/>
</svg>
