<svg width="65" height="65" viewBox="0 0 65 65" fill="none" xmlns="http://www.w3.org/2000/svg">
<path d="M19.8978 16.018C18.824 17.8055 17.3173 19.2927 15.5519 20.4042C14.2415 21.2297 13.0026 22.2125 11.8625 23.3539C11.752 23.4644 11.6428 23.5762 11.5349 23.688C6.77951 28.654 6.77951 36.5307 11.5349 41.4967C11.6428 41.6085 11.752 41.7203 11.8625 41.8308C13.1118 43.0801 14.4781 44.1396 15.9263 45.0106C17.7138 46.0844 19.201 47.5911 20.3125 49.3565C21.138 50.6669 22.1208 51.9058 23.2622 53.0459C23.465 53.2487 23.6717 53.4476 23.8823 53.6413C28.925 58.2953 36.7848 58.1341 41.6624 53.3072C41.6884 53.2812 41.7144 53.2565 41.7404 53.2305C42.9897 51.9812 44.0492 50.6149 44.9202 49.1667C45.994 47.3792 47.5007 45.892 49.2661 44.7805C50.5765 43.955 51.8154 42.9722 52.9555 41.8308C53.1908 41.5955 53.4196 41.3563 53.6419 41.1119C58.2634 36.0419 58.1022 28.2393 53.3039 23.337C53.2493 23.2811 53.1947 23.2252 53.1388 23.1706C51.8895 21.9213 50.5232 20.8618 49.075 19.9908C47.2875 18.917 45.8003 17.4103 44.6888 15.6449C43.8633 14.3345 42.8805 13.0956 41.7391 11.9555C41.5389 11.7553 41.3374 11.5616 41.132 11.3705C36.2232 6.83222 28.5961 6.83222 23.6873 11.3705C23.4819 11.5603 23.2791 11.7553 23.0802 11.9555C21.8309 13.2048 20.7714 14.5711 19.9004 16.0193L19.8978 16.018Z" fill="#901065"/>
<path d="M32.6949 48.8798C23.7562 48.8798 16.5099 41.6335 16.5099 32.6948C16.5099 23.756 23.7562 16.5098 32.6949 16.5098C41.6336 16.5098 48.8799 23.756 48.8799 32.6948C48.8799 41.6335 41.6336 48.8798 32.6949 48.8798Z" fill="#FFA700"/>
<path d="M40.8202 31.8496C38.9535 31.8496 37.4402 30.3945 37.4402 28.5996C37.4402 26.8047 38.9535 25.3496 40.8202 25.3496C42.6869 25.3496 44.2002 26.8047 44.2002 28.5996C44.2002 30.3945 42.6869 31.8496 40.8202 31.8496Z" fill="black"/>
<path d="M26.39 31.8496C24.5233 31.8496 23.01 30.3945 23.01 28.5996C23.01 26.8047 24.5233 25.3496 26.39 25.3496C28.2567 25.3496 29.77 26.8047 29.77 28.5996C29.77 30.3945 28.2567 31.8496 26.39 31.8496Z" fill="black"/>
<path data-eyebrow-up="true" d="M30.2379 23.0855C30.4714 22.7449 30.3728 22.2754 30.0083 22.0811C29.1011 21.5975 28.2433 21.2981 27.2977 21.1459C26.3459 20.9928 25.3353 20.9944 24.1451 21.0745C23.7316 21.1023 23.4333 21.4786 23.4916 21.8888C23.5455 22.2682 23.8864 22.5381 24.2686 22.5118C25.4275 22.4322 26.3057 22.4356 27.092 22.5621C27.8193 22.6791 28.4955 22.9063 29.2571 23.3101C29.596 23.4898 30.0211 23.4019 30.2379 23.0855Z" fill="black"/>
<path data-eyebrow-down="true" d="M43.0475 17.0534C43.0871 16.6605 42.8006 16.3064 42.406 16.2921C41.4623 16.258 40.6376 16.3659 39.806 16.6426C38.9673 16.9216 38.1483 17.3639 37.2183 17.9545C36.885 18.1662 36.7959 18.6112 37.0142 18.9402C37.2326 19.2692 37.6758 19.3575 38.0094 19.1462C38.884 18.5923 39.5806 18.2246 40.2574 17.9994C40.8776 17.7931 41.5039 17.6996 42.2623 17.7184C42.6571 17.7282 43.0079 17.4463 43.0475 17.0534Z" fill="black"/>
<path d="M34.3851 27.3005C34.3851 23.7411 37.2456 20.8655 40.762 20.8655C44.2783 20.8656 47.1388 23.7411 47.1388 27.3005C47.1388 30.86 44.2783 33.7355 40.762 33.7355C37.2456 33.7355 34.3851 30.86 34.3851 27.3005ZM32.9551 27.3005C32.9551 31.6388 36.4449 35.1655 40.762 35.1655C45.0791 35.1655 48.5688 31.6387 48.5688 27.3005C48.5688 22.9623 45.0791 19.4356 40.762 19.4355C36.4449 19.4355 32.9551 22.9623 32.9551 27.3005Z" fill="black"/>
<path d="M47.0854 54.5681L47.0858 54.5982C47.0981 54.9074 47.3509 55.1561 47.6639 55.1596C47.9768 55.163 48.2351 54.9201 48.2542 54.6112L48.2553 54.5811L48.555 27.6068C48.5586 27.2837 48.2996 27.0189 47.9766 27.0153C47.6535 27.0117 47.3887 27.2707 47.3851 27.5938L47.0854 54.5681Z" fill="black"/>
<path d="M36.8769 23.0644C37.6929 22.2789 38.7978 21.605 39.9526 21.6463L40.0077 21.6489L40.0376 21.6513C40.3454 21.6841 40.5766 21.9529 40.5593 22.2654C40.5419 22.5779 40.2823 22.8195 39.9728 22.818L39.9427 22.8171L39.877 22.8148C39.1941 22.805 38.3996 23.2226 37.6882 23.9072C36.9599 24.6084 36.4521 25.4632 36.3218 26.0623C36.2532 26.378 35.9416 26.5783 35.6259 26.5097C35.3102 26.441 35.1099 26.1294 35.1785 25.8137C35.3733 24.9178 36.042 23.868 36.8769 23.0644Z" fill="white"/>
</svg>
