<svg width="48" height="48" viewBox="0 0 48 48" fill="none" xmlns="http://www.w3.org/2000/svg">
<path d="M30.6829 15.546C31.3549 16.24 33.9901 12.7898 34.4576 12.0381C34.9251 11.2864 34.9107 10.2842 34.1139 9.28675C33.3171 8.28931 31.1187 10.072 31.1187 10.072C31.1187 10.072 33.2048 6.79555 30.9065 6.21283C28.6083 5.63011 21.0742 13.4052 21.0742 13.4052C21.0742 13.4052 30.0109 14.8519 30.6829 15.546Z" fill="black"/>
<path d="M24.288 37.1522C31.0745 37.1522 36.576 31.6506 36.576 24.8642C36.576 18.0777 31.0745 12.5762 24.288 12.5762C17.5015 12.5762 12 18.0777 12 24.8642C12 31.6506 17.5015 37.1522 24.288 37.1522Z" fill="#FFC628"/>
<path d="M35.5789 22.8086L32.6836 24.9965C31.5633 25.8432 31.4327 27.4771 32.4042 28.4899L37.0353 33.3226C38.1757 34.513 40.185 33.8755 40.4327 32.2464L41.4129 25.7798C41.65 24.215 40.5978 22.7453 39.0398 22.465L37.8849 22.2576C37.0727 22.1117 36.2375 22.3114 35.5789 22.8086Z" fill="black"/>
<path d="M22.0318 19.0462C20.5515 20.6023 19.1067 21.1514 17.7041 20.4958C18.3435 20.3287 18.8158 19.747 18.8158 19.0558C18.8158 18.3646 18.3655 17.8097 17.7492 17.6292C19.1767 16.9553 20.6043 17.4276 22.0318 19.0462Z" fill="white"/>
<path d="M18.8164 19.056C18.8164 19.7472 18.3441 20.3289 17.7047 20.496C17.1239 20.2243 16.5508 19.7452 15.9844 19.0464C16.5729 18.3792 17.1613 17.9068 17.7498 17.6294C18.3661 17.8099 18.8164 18.3811 18.8164 19.056Z" fill="black"/>
<path d="M29.9996 19.0462C28.5192 20.6023 27.0744 21.1514 25.6719 20.4958C26.3112 20.3287 26.7836 19.747 26.7836 19.0558C26.7836 18.3646 26.3333 17.8097 25.717 17.6292C27.1445 16.9553 28.572 17.4276 29.9996 19.0462Z" fill="white"/>
<path d="M26.7841 19.056C26.7841 19.7472 26.3118 20.3289 25.6725 20.496C25.0917 20.2243 24.5185 19.7452 23.9521 19.0464C24.5406 18.3792 25.1291 17.9068 25.7176 17.6294C26.3339 17.8099 26.7841 18.3811 26.7841 19.056Z" fill="black"/>
</svg>
