<svg width="135" height="195" viewBox="0 0 135 195" fill="none" xmlns="http://www.w3.org/2000/svg"><path d="M0 11C0 4.92488 4.92487 0 11 0H88.0896C93.0865 0 97.4557 3.36813 98.7274 8.20057L102.103 21.026C103.228 25.3034 106.806 28.4906 111.185 29.1161L125.556 31.1691C130.975 31.9432 135 36.5843 135 42.0585V183.124C135 189.199 130.075 194.124 124 194.124H11C4.92486 194.124 0 189.199 0 183.124V11Z" fill="#FFA9E2"/><circle cx="31.5328" cy="147.318" r="24.1423" fill="white"/><circle cx="27.2974" cy="155.788" r="8.89454" fill="black"/><circle cx="103.536" cy="147.318" r="24.1423" fill="white"/><circle cx="94.2182" cy="155.788" r="8.89454" fill="black"/><path d="M62.0803 82.9457V44.6027L42.0465 64.6364C39.6414 67.0416 35.7418 67.0416 33.3367 64.6364C30.9315 62.2313 30.9315 58.3317 33.3367 55.9266L66.2255 23.0377C67.4073 21.856 69.333 21.8881 70.4747 23.1086L101.313 56.0743L101.42 56.1917C103.632 58.6796 103.468 62.4915 101.023 64.7788C98.5777 67.0662 94.7631 66.9764 92.428 64.6037L92.3183 64.4887L74.3978 45.3321V82.9457C74.3978 86.3471 71.6404 89.1045 68.239 89.1045C64.8376 89.1045 62.0803 86.3471 62.0803 82.9457Z" fill="white"/></svg>