<svg width="71" height="106" viewBox="0 0 71 106" fill="none" xmlns="http://www.w3.org/2000/svg">
<path d="M0.00026751 11C0.000119768 4.92486 4.92487 0.000118715 11 0.000265158L42.2443 0.00101831C47.242 0.00113878 51.6152 3.44206 52.8457 8.28602C53.9168 12.502 57.4265 15.7037 61.7295 16.3406C67.0178 17.1234 70.9345 21.6624 70.9347 27.0083L70.9363 94.674C70.9364 100.749 66.0117 105.674 59.9366 105.674L11.0026 105.673C4.92743 105.672 0.00245008 100.747 0.00230234 94.6723L0.00026751 11Z" fill="#FFA9E2"/>
<ellipse cx="12.685" cy="13.1423" rx="12.685" ry="13.1423" transform="matrix(1 4.78681e-05 4.87186e-05 1 3.88489 67.0503)" fill="white"/>
<ellipse cx="12.685" cy="13.1423" rx="12.685" ry="13.1423" transform="matrix(1 4.78681e-05 4.87186e-05 1 41.7181 67.0513)" fill="white"/>
<path d="M32.6204 45.1527L32.6199 24.2805L22.0937 35.1857C20.83 36.4949 18.781 36.4949 17.5172 35.1856C16.2534 33.8763 16.2534 31.7536 17.5171 30.4444L34.7977 12.5416C35.4186 11.8983 36.4305 11.9158 37.0304 12.5802L53.2344 30.5256L53.2908 30.5896C54.453 31.9439 54.3668 34.0189 53.0821 35.264C51.7973 36.5091 49.793 36.4602 48.566 35.1685L48.5084 35.1059L39.092 24.6777L39.0925 45.1529C39.0925 47.0044 37.6438 48.5054 35.8565 48.5054C34.0693 48.5053 32.6205 47.0043 32.6204 45.1527Z" fill="white"/>
<path d="M16.8032 74.9035C19.4577 74.8689 21.7795 76.2558 23.9875 78.3013C25.0687 79.3029 24.9879 81.0062 23.911 82.0125C22.8188 83.0331 21.1258 82.9377 20.0006 81.9536C18.4687 80.6136 17.5229 80.2991 16.8721 80.3076C16.1844 80.3166 15.2186 80.684 13.6682 82.0177C12.5348 82.9928 10.838 83.0531 9.76507 82.0119C8.70721 80.9852 8.659 79.2811 9.7526 78.2926C11.9232 76.3307 14.2084 74.9373 16.8032 74.9035Z" fill="black"/>
<path d="M53.8032 74.9035C56.4577 74.8689 58.7795 76.2558 60.9875 78.3013C62.0687 79.3029 61.9879 81.0062 60.911 82.0125C59.8188 83.0331 58.1258 82.9377 57.0006 81.9536C55.4687 80.6136 54.5229 80.2991 53.8721 80.3076C53.1844 80.3166 52.2186 80.684 50.6682 82.0177C49.5348 82.9928 47.838 83.0531 46.7651 82.0119C45.7072 80.9852 45.659 79.2811 46.7526 78.2926C48.9232 76.3307 51.2084 74.9373 53.8032 74.9035Z" fill="black"/>
</svg>
