<svg width="71" height="106" viewBox="0 0 71 106" fill="none" xmlns="http://www.w3.org/2000/svg">
<path d="M0.00026751 11C0.000119768 4.92486 4.92487 0.000118715 11 0.000265158L42.2443 0.00101831C47.242 0.00113878 51.6152 3.44206 52.8457 8.28602C53.9168 12.502 57.4265 15.7037 61.7295 16.3406C67.0178 17.1234 70.9345 21.6624 70.9347 27.0083L70.9363 94.674C70.9364 100.749 66.0117 105.674 59.9366 105.674L11.0026 105.673C4.92743 105.672 0.00245008 100.747 0.00230234 94.6723L0.00026751 11Z" fill="#FFA9E2"/>
<ellipse cx="12.685" cy="13.1423" rx="12.685" ry="13.1423" transform="matrix(1 4.78681e-05 4.87186e-05 1 3.88489 67.0503)" fill="white"/>
<ellipse cx="12.685" cy="13.1423" rx="12.685" ry="13.1423" transform="matrix(1 4.78681e-05 4.87186e-05 1 41.7181 67.0513)" fill="white"/>
<path d="M32.6204 45.1527L32.6199 24.2805L22.0937 35.1857C20.83 36.4949 18.781 36.4949 17.5172 35.1856C16.2534 33.8763 16.2534 31.7536 17.5171 30.4444L34.7977 12.5416C35.4186 11.8983 36.4305 11.9158 37.0304 12.5802L53.2344 30.5256L53.2908 30.5896C54.453 31.9439 54.3668 34.0189 53.0821 35.264C51.7973 36.5091 49.793 36.4602 48.566 35.1685L48.5084 35.1059L39.092 24.6777L39.0925 45.1529C39.0925 47.0044 37.6438 48.5054 35.8565 48.5054C34.0693 48.5053 32.6205 47.0043 32.6204 45.1527Z" fill="white"/>
</svg>
