<svg id="upload-nav_svg__Layer_1" xmlns="http://www.w3.org/2000/svg" version="1.1" viewBox="0 0 27 36"><!--Generator: Adobe Illustrator 29.8.3, SVG Export Plug-In . SVG Version: 2.1.1 Build 3)--><defs><style>.upload-nav_svg__st0{fill:#fff}.upload-nav_svg__st1{fill:#00316a}</style></defs><path class="upload-nav_svg__st0" d="M0,6C0,2.69,2.69,0,6,0h8.32c2.69,0,5.06,1.8,5.78,4.39l.05.17c.11.39.43.67.83.72l.22.03c2.98.4,5.2,2.94,5.2,5.95v18.68c0,3.31-2.69,6-6,6H6c-3.31,0-6-2.69-6-6V6Z"/><path class="upload-nav_svg__st1" d="M12.14,15.36v-7.1l-3.92,3.71c-.47.45-1.23.45-1.7,0-.47-.45-.47-1.17,0-1.61l6.43-6.09c.23-.22.61-.21.83.01l6.03,6.1.02.02c.43.46.4,1.17-.08,1.59-.48.42-1.22.41-1.68-.03l-.02-.02-3.5-3.55v6.97c0,.63-.54,1.14-1.2,1.14s-1.2-.51-1.2-1.14Z"/></svg>