<svg width="27" height="36" viewBox="0 0 27 36" fill="none" xmlns="http://www.w3.org/2000/svg">
<path d="M0 6.00001C0 2.6863 2.68629 0 6 0H14.3228C17.0178 0 19.3822 1.79697 20.1038 4.39365L20.1516 4.56583C20.2586 4.95104 20.5848 5.23547 20.981 5.28908L21.202 5.31897C24.1777 5.72156 26.3975 8.26198 26.3975 11.2648V29.9489C26.3975 33.2626 23.7112 35.9489 20.3975 35.9489H6C2.68629 35.9489 0 33.2626 0 29.9489V6.00001Z" fill="white"/>
<path d="M19.9598 9.41898C20.5569 8.84493 21.5067 8.86315 22.0809 9.46C22.6549 10.0571 22.6367 11.0069 22.0399 11.5811C19.1325 14.3764 17.2087 16.6674 15.5907 19.2637C13.9611 21.8785 12.6104 24.8515 10.8885 29.0674L10.6196 29.7257C10.3578 30.3666 9.53957 30.554 9.02493 30.0909L3.49594 25.1153C2.88027 24.5611 2.83045 23.6119 3.38461 22.9961C3.93881 22.3805 4.88802 22.3306 5.50375 22.8848L7.88317 25.026C8.39428 25.4859 9.20627 25.3043 9.48057 24.6738C10.6529 21.9791 11.7582 19.7412 13.0448 17.6768C14.828 14.8154 16.9272 12.3347 19.9598 9.41898Z" fill="#00316A"/>
</svg>
