<svg width="82" height="118" viewBox="0 0 82 118" fill="none" xmlns="http://www.w3.org/2000/svg">
<path d="M0 11C0 4.92487 4.92487 0 11 0H50.1772C55.1741 0 59.5433 3.36813 60.815 8.20057L61.2886 10.0005C62.4143 14.2778 65.9923 17.465 70.3708 18.0905L72.5556 18.4026C77.9748 19.1768 82 23.8179 82 29.2921V106.912C82 112.988 77.0751 117.912 71 117.912H11C4.92487 117.912 0 112.988 0 106.912V11Z" fill="#FFA9E2"/>
<circle cx="18.8542" cy="90.6789" r="14.6642" fill="white"/>
<circle cx="19.1692" cy="96.68" r="5.40261" fill="black"/>
<circle cx="62.5895" cy="90.6789" r="14.6642" fill="white"/>
<circle cx="59.8172" cy="96.68" r="5.40261" fill="black"/>
<path d="M61.8142 23.7569C63.2528 22.3696 65.5414 22.4136 66.9249 23.856C68.3081 25.299 68.2642 27.5945 66.8261 28.9822C59.8208 35.7378 55.1855 41.2747 51.2868 47.5493C47.3605 53.8685 44.1059 61.0537 39.9571 71.2425L38.5513 74.6942C38.2898 75.3364 37.4699 75.524 36.9551 75.0594L22.1449 61.6911C20.6614 60.3518 20.5414 58.0577 21.8766 56.5697C23.212 55.0818 25.4991 54.9614 26.9826 56.3006L34.1864 62.8028C34.6976 63.2642 35.5117 63.0821 35.7813 62.4484C38.9036 55.1094 41.7677 49.1618 45.1525 43.7141C49.4493 36.7988 54.5072 30.8035 61.8142 23.7569Z" fill="white"/>
</svg>
