<svg width="53" height="13" viewBox="0 0 53 13" fill="none" xmlns="http://www.w3.org/2000/svg">
<path d="M23 6.48633C17.5271 12.3749 12.1854 14.4528 7 11.9717C9.3638 11.3396 11.11 9.13819 11.11 6.52266C11.11 3.90713 9.44543 1.80744 7.16681 1.1245C12.4445 -1.42564 17.7223 0.361632 23 6.48633Z" fill="white"/>
<path d="M11 6.47421C11 9.12659 9.16542 11.359 6.68203 12C4.4261 10.9575 2.2 9.11922 0 6.43737C2.28576 3.87709 4.57153 2.06463 6.85729 1C9.25119 1.69257 11 3.88446 11 6.47421Z" fill="black"/>
<path d="M53 6.48633C47.5271 12.3749 42.1854 14.4528 37 11.9717C39.3638 11.3396 41.11 9.13819 41.11 6.52266C41.11 3.90713 39.4454 1.80744 37.1668 1.1245C42.4445 -1.42564 47.7223 0.361632 53 6.48633Z" fill="white"/>
<path d="M41 6.47421C41 9.12659 39.1654 11.359 36.682 12C34.4261 10.9575 32.2 9.11922 30 6.43737C32.2858 3.87709 34.5715 2.06463 36.8573 1C39.2512 1.69257 41 3.88446 41 6.47421Z" fill="black"/>
</svg>
