<svg width="105" height="64" viewBox="0 0 105 64" fill="none" xmlns="http://www.w3.org/2000/svg">
<path d="M13.0399 3.44885C8.51247 8.27736 5.66767 8.31273 0 3.44885V52.3037C0 58.3789 4.92487 63.3038 11 63.3038H93.3188C99.394 63.3038 104.319 58.3789 104.319 52.3038V3.44885C99.2265 -1.18285 96.3714 -0.560669 91.279 3.44885C86.1867 7.99462 83.3315 8.02487 78.2391 3.44885C72.8643 -0.763331 70.004 -0.891524 65.1993 3.44885C59.968 8.28913 57.1053 8.59844 52.1594 3.44885C46.7616 -1.29333 43.9428 -0.714252 39.1196 3.44885C33.7396 8.3639 30.8896 8.22547 26.0797 3.44885C21.1219 -0.864809 18.2849 -1.42588 13.0399 3.44885Z"/>
</svg>
