<?xml version="1.0" encoding="UTF-8"?><svg id="eddie-cool_svg__Layer_1" xmlns="http://www.w3.org/2000/svg" version="1.1" viewBox="0 0 500 500"><!--Generator: Adobe Illustrator 29.8.3, SVG Export Plug-In . SVG Version: 2.1.1 Build 3)--><defs><style>.eddie-cool_svg__st0{fill:#8ab61e}.eddie-cool_svg__st1{fill:#ffa700}.eddie-cool_svg__st2,.eddie-cool_svg__st3{stroke:#000;stroke-miterlimit:10;stroke-width:10px}.eddie-cool_svg__st3{fill:none}</style></defs><path class="eddie-cool_svg__st0" d="M464.86,245.13c0,137.44-93.93,248.87-209.8,248.87S45.26,382.57,45.26,245.13h419.6Z"/><path class="eddie-cool_svg__st1" d="M121.22,237.9c53.14,0,96.22-43.08,96.22-96.22s-43.08-96.22-96.22-96.22S25,88.54,25,141.68s43.08,96.22,96.22,96.22"/><path class="eddie-cool_svg__st1" d="M254.33,214.75c53.14,0,96.22-43.08,96.22-96.22s-43.08-96.22-96.22-96.22-96.22,43.08-96.22,96.22,43.08,96.22,96.22,96.22"/><path class="eddie-cool_svg__st1" d="M396.13,194.49c53.14,0,96.22-43.08,96.22-96.22S449.27,2.05,396.13,2.05s-96.22,43.08-96.22,96.22,43.08,96.22,96.22,96.22"/><path class="eddie-cool_svg__st2" d="M198.63,319.59c0,44.39-35.94,80.36-80.3,80.36s-80.3-35.97-80.3-80.36,35.94-59.99,80.3-59.99,80.3,15.6,80.3,59.99ZM396.85,319.59c0,44.39-35.94,80.36-80.3,80.36s-80.3-35.97-80.3-80.36,35.94-59.99,80.3-59.99,80.3,15.6,80.3,59.99Z"/><path class="eddie-cool_svg__st3" d="M166.8,318.92c30.88-21.03,61.73-21.22,92.6-.56"/></svg>