<?xml version="1.0" encoding="UTF-8"?><svg id="eddie-juggling_svg__Layer_1" xmlns="http://www.w3.org/2000/svg" version="1.1" viewBox="0 0 500 500"><!--Generator: Adobe Illustrator 29.8.3, SVG Export Plug-In . SVG Version: 2.1.1 Build 3)--><defs><style>.eddie-juggling_svg__st0{fill:#8ab61e}.eddie-juggling_svg__st1{fill:#fff}.eddie-juggling_svg__st2{fill:#ffa700}</style></defs><path class="eddie-juggling_svg__st0" d="M451.66,288.04c0,109.88-75.1,198.96-167.73,198.96s-167.73-89.08-167.73-198.96h335.46Z"/><path class="eddie-juggling_svg__st2" d="M176.93,282.25c42.49,0,76.93-34.44,76.93-76.93s-34.44-76.93-76.93-76.93-76.93,34.44-76.93,76.93,34.44,76.93,76.93,76.93M284.5,153.85c42.49,0,76.93-34.44,76.93-76.93S326.99,0,284.5,0s-76.93,34.44-76.93,76.93,34.44,76.93,76.93,76.93M389.77,282.25c42.49,0,76.93-34.44,76.93-76.93s-34.44-76.93-76.93-76.93-76.93,34.44-76.93,76.93,34.44,76.93,76.93,76.93"/><g class="eyes"><path class="eddie-juggling_svg__st1" d="M206.18,344.36c2.82-3.02,4.55-7.1,4.55-11.57,0-9.38-7.6-16.99-16.98-16.99s-16.98,7.61-16.98,16.99c0,4.47,1.72,8.55,4.55,11.57h-15.43c0-17.83,14.45-32.27,32.27-32.27s32.27,14.45,32.27,32.27h-24.25Z"/><path d="M210.73,332.79c0,4.47-1.72,8.55-4.55,11.57h-24.87c-2.93-3.14-4.56-7.27-4.55-11.57,0-9.38,7.6-16.99,16.98-16.99s16.98,7.61,16.98,16.99"/><path class="eddie-juggling_svg__st1" d="M341.52,344.72c2.82-3.02,4.55-7.1,4.55-11.57,0-9.38-7.6-16.99-16.98-16.99s-16.98,7.61-16.98,16.99c0,4.47,1.72,8.55,4.55,11.57h-15.43c0-17.83,14.45-32.27,32.27-32.27s32.27,14.45,32.27,32.27h-24.25Z"/><path d="M346.07,333.15c0,4.47-1.72,8.55-4.55,11.57h-24.87c-2.93-3.14-4.56-7.27-4.55-11.57,0-9.38,7.6-16.99,16.98-16.99s16.98,7.61,16.98,16.99"/></g></svg>