<svg xmlns="http://www.w3.org/2000/svg" width="500" height="500" fill="none" viewBox="0 0 500 500"><path fill="#8ab61e" d="M404 249c0 94.99-64.92 172-145 172s-145-77.01-145-172z"/><path fill="#ffa700" d="M166.5 244c36.727 0 66.5-29.773 66.5-66.5S203.227 111 166.5 111 100 140.773 100 177.5s29.773 66.5 66.5 66.5"/><path fill="#ffa700" d="M258.5 244c36.727 0 66.5-29.773 66.5-66.5S295.227 111 258.5 111 192 140.773 192 177.5s29.773 66.5 66.5 66.5"/><path fill="#ffa700" d="M350.5 244c36.727 0 66.5-29.773 66.5-66.5S387.227 111 350.5 111 284 140.773 284 177.5s29.773 66.5 66.5 66.5"/><path fill="#fff" d="M156.95 297.69h55.8c0-15.41-12.49-27.9-27.9-27.9s-27.9 12.49-27.9 27.9M284 297.9h55.8c0-15.41-12.49-27.9-27.9-27.9S284 282.49 284 297.9"/><path fill="#000" d="M182.83 280.021c4.371-1.232 8.815.001 13.359 2.363 2.249 1.169 2.874 4.039 1.523 6.184s-4.164 2.731-6.443 1.621c-3.154-1.537-4.869-1.635-5.949-1.331-1.14.321-2.587 1.361-4.584 4.266-1.435 2.09-4.184 2.932-6.405 1.708s-3.06-4.037-1.671-6.158c2.729-4.164 5.898-7.449 10.17-8.653M313.575 278.441c4.448.916 7.827 4.054 10.777 8.24 1.46 2.073.695 4.91-1.492 6.192s-4.953.512-6.466-1.523c-2.094-2.814-3.572-3.69-4.671-3.916-1.16-.239-2.923.019-6.032 1.681-2.236 1.195-5.064.679-6.473-1.428-1.41-2.108-.862-4.993 1.347-6.237 4.339-2.444 8.662-3.904 13.01-3.009"/></svg>