<?xml version="1.0" encoding="UTF-8"?><svg id="eddie-heart-eyes_svg__Layer_1" xmlns="http://www.w3.org/2000/svg" version="1.1" viewBox="0 0 500 500"><!--Generator: Adobe Illustrator 29.8.3, SVG Export Plug-In . SVG Version: 2.1.1 Build 3)--><defs><style>.eddie-heart-eyes_svg__st0{fill:#8ab61e}.eddie-heart-eyes_svg__st1{fill:#ffa700}.eddie-heart-eyes_svg__st2{fill:#00316a}</style></defs><path class="eddie-heart-eyes_svg__st0" d="M464.37,248.08c0,134.71-92.06,243.92-205.63,243.92S53.12,382.79,53.12,248.08h411.26Z"/><path class="eddie-heart-eyes_svg__st1" d="M127.57,240.99c52.09,0,94.31-42.22,94.31-94.31s-42.22-94.31-94.31-94.31-94.31,42.22-94.31,94.31,42.22,94.31,94.31,94.31"/><path class="eddie-heart-eyes_svg__st1" d="M258.04,195.61c52.09,0,94.31-42.22,94.31-94.31S310.12,7,258.04,7s-94.31,42.22-94.31,94.31,42.22,94.31,94.31,94.31"/><path class="eddie-heart-eyes_svg__st1" d="M388.5,240.99c52.09,0,94.31-42.22,94.31-94.31s-42.22-94.31-94.31-94.31-94.31,42.22-94.31,94.31,42.22,94.31,94.31,94.31"/><path class="eddie-heart-eyes_svg__st2 throb" d="M203.99,420.71c22.48-12.98,47.58-84.85,20.85-131.15-13.68-23.7-42.98-32.39-65.46-19.41-13.77,7.96-21.77,22.18-22.76,37.47-12.75-4.84-27.14-4.25-39.49,2.88-22.48,12.98-29.6,42.7-15.93,66.4,27.54,47.69,98.74,57.7,121.22,44.73l1.56-.91h.01ZM316.26,415.44c22.48,12.98,97.27-1.22,124-47.52,13.68-23.7,6.55-53.42-15.93-66.4-13.77-7.94-30.09-7.77-43.83-.98-2.18-13.46-9.9-25.64-22.24-32.76-22.48-12.98-51.78-4.28-65.46,19.4-27.54,47.69-.6,114.37,21.87,127.35l1.56.91h.03Z"/></svg>