<svg xmlns="http://www.w3.org/2000/svg" id="eddie-heart-eyes_svg__Layer_1" viewBox="0 0 500 500"><defs><style>.eddie-heart-eyes_svg__st1{fill:#ffa700}.eddie-heart-eyes_svg__st2{fill:#00316a}</style></defs><path d="M404 249c0 94.99-64.92 172-145 172s-145-77.01-145-172z" style="fill:#8ab61e"/><path d="M166.5 244c36.73 0 66.5-29.77 66.5-66.5S203.23 111 166.5 111 100 140.77 100 177.5s29.77 66.5 66.5 66.5" class="eddie-heart-eyes_svg__st1"/><path d="M258.5 212c36.73 0 66.5-29.77 66.5-66.5S295.23 79 258.5 79 192 108.77 192 145.5s29.77 66.5 66.5 66.5" class="eddie-heart-eyes_svg__st1"/><path d="M350.5 244c36.73 0 66.5-29.77 66.5-66.5S387.23 111 350.5 111 284 140.77 284 177.5s29.77 66.5 66.5 66.5" class="eddie-heart-eyes_svg__st1"/><g class="eddie-heart-eyes_svg__throb throb"><path d="M220.39 370.73c15.85-9.15 33.55-59.83 14.7-92.48-9.65-16.71-30.31-22.84-46.16-13.69-9.71 5.61-15.35 15.64-16.05 26.42-8.99-3.41-19.14-3-27.85 2.03-15.85 9.15-20.87 30.11-11.23 46.82 19.42 33.63 69.63 40.69 85.48 31.54l1.1-.64ZM299.56 367.01c15.85 9.15 68.59-.86 87.44-33.51 9.65-16.71 4.62-37.67-11.23-46.82-9.71-5.6-21.22-5.48-30.91-.69-1.54-9.49-6.98-18.08-15.68-23.1-15.85-9.15-36.51-3.02-46.16 13.68-19.42 33.63-.42 80.65 15.42 89.8l1.1.64Z" class="eddie-heart-eyes_svg__st2"/></g></svg>