<?xml version="1.0" encoding="UTF-8"?><svg id="eddie-star-eyes_svg__Layer_1" xmlns="http://www.w3.org/2000/svg" version="1.1" viewBox="0 0 500 500"><!--Generator: Adobe Illustrator 29.8.3, SVG Export Plug-In . SVG Version: 2.1.1 Build 3)--><defs><style>.eddie-star-eyes_svg__st0{fill:#8ab61e}.eddie-star-eyes_svg__st1{fill:#901065}.eddie-star-eyes_svg__st2{fill:#ffa700}</style></defs><path class="eddie-star-eyes_svg__st0" d="M473.78,238.22c0,140.44-95.98,254.3-214.38,254.3S45.01,378.67,45.01,238.22h428.77Z"/><path class="eddie-star-eyes_svg__st2" d="M122.63,230.83c54.31,0,98.32-44.02,98.32-98.32s-44.02-98.32-98.32-98.32S24.31,78.2,24.31,132.51s44.02,98.32,98.32,98.32"/><path class="eddie-star-eyes_svg__st2" d="M258.66,230.83c54.31,0,98.32-44.02,98.32-98.32s-44.02-98.32-98.32-98.32-98.32,44.02-98.32,98.32,44.02,98.32,98.32,98.32"/><path class="eddie-star-eyes_svg__st2" d="M394.68,230.83c54.31,0,98.32-44.02,98.32-98.32s-44.02-98.32-98.32-98.32-98.32,44.02-98.32,98.32,44.02,98.32,98.32,98.32"/><path class="eddie-star-eyes_svg__st1 throb" d="M77.42,239.66c.3-5.72,7.75-7.72,10.87-2.91l33.52,51.61c1.4,2.14,4.01,3.15,6.49,2.5l59.44-15.92c5.53-1.48,9.73,4.98,6.12,9.43l-38.72,47.83c-1.61,1.99-1.76,4.8-.37,6.95l33.52,51.61c3.12,4.81-1.73,10.79-7.08,8.74l-57.45-22.06c-2.39-.92-5.1-.19-6.71,1.8l-38.72,47.83c-3.61,4.45-10.81,1.69-10.5-4.04l3.22-61.46c.13-2.56-1.39-4.91-3.78-5.83l-57.45-22.06c-5.35-2.06-4.94-9.76.59-11.24l59.44-15.92c2.47-.66,4.24-2.84,4.38-5.4l3.22-61.46h0ZM379.73,246.13c4.26-3.83,10.93.01,9.74,5.62l-12.79,60.19c-.53,2.5.61,5.07,2.82,6.34l53.3,30.77c4.97,2.87,3.36,10.41-2.34,11l-61.2,6.43c-2.55.27-4.63,2.15-5.17,4.66l-12.79,60.19c-1.2,5.6-8.86,6.4-11.19,1.18l-25.03-56.21c-1.04-2.34-3.47-3.74-6.02-3.47l-61.21,6.43c-5.69.59-8.83-6.45-4.57-10.28l45.73-41.18c1.9-1.72,2.49-4.46,1.45-6.8l-25.03-56.21c-2.34-5.23,3.4-10.39,8.35-7.53l53.3,30.77c2.22,1.28,5.01.99,6.92-.72l45.73-41.18h-.01Z"/></svg>