<svg xmlns="http://www.w3.org/2000/svg" id="fred-eye-roll_svg__Layer_1" viewBox="0 0 500 500"><defs><style>.fred-eye-roll_svg__st0{fill:#fff}.fred-eye-roll_svg__st2{fill:#00316a}.fred-eye-roll_svg__st3{stroke:#fff;stroke-miterlimit:10}</style></defs><path d="M295 135.5c4.5 9 41.5-17 48.5-23s10-16 5.21-28.4-32.21-1.6-32.21-1.6 31-26 10-39-120.23 40.6-120.23 40.6 84.23 42.4 88.73 51.4" class="fred-eye-roll_svg__st2"/><path d="M333.09 198.79c5.06 24.96 4.73 43.6-1.09 66.21-17 66 34.13 104.51-42 149-53.32 31.16-124.89-42.87-152.24-59.34-34.52-20.79-61.16-57.15-70.26-102-16.3-80.38 29.94-157.6 103.28-172.47 73.34-14.88 146.01 38.22 162.31 118.6" style="fill:#0083d7"/><g class="fred-eye-roll_svg__eyes eyes"><path d="M130.4 193.3c15.41 0 27.9-12.49 27.9-27.9s-12.49-27.9-27.9-27.9-27.9 12.49-27.9 27.9 12.49 27.9 27.9 27.9" class="fred-eye-roll_svg__st0"/><path d="M135.59 170.08c8.11 0 14.68-6.57 14.68-14.68s-6.57-14.68-14.68-14.68-14.68 6.57-14.68 14.68 6.57 14.68 14.68 14.68Z" class="fred-eye-roll_svg__st3"/><path d="M214.1 193.3c15.41 0 27.9-12.49 27.9-27.9s-12.49-27.9-27.9-27.9-27.9 12.49-27.9 27.9 12.49 27.9 27.9 27.9" class="fred-eye-roll_svg__st0"/><path d="M220.29 170.08c8.11 0 14.68-6.57 14.68-14.68s-6.57-14.68-14.68-14.68-14.68 6.57-14.68 14.68 6.57 14.68 14.68 14.68Z" class="fred-eye-roll_svg__st3"/></g><path d="m148.38 257.82 26.78-10.84c6.03-2.44 7.45-10.34 2.65-14.73l-18.35-16.8c-4.8-4.39-12.54-2.28-14.44 3.94l-8.43 27.64c-2.17 7.12 4.88 13.58 11.78 10.78h.01Z" class="fred-eye-roll_svg__st2"/></svg>