<svg xmlns="http://www.w3.org/2000/svg" id="fred-hmmm_svg__Layer_1" viewBox="0 0 500 500"><defs><style>.fred-hmmm_svg__st0{fill:#fff}.fred-hmmm_svg__st4{stroke:#fff;stroke-miterlimit:10}</style></defs><path d="M333.09 198.79c5.06 24.96 4.73 43.6-1.09 66.21-17 66 34.13 104.51-42 149-46.33 27.08-106.44-25.27-139.34-50.26-4.97-3.77-9.31-6.92-12.9-9.08-21.56-12.99-40.05-32.04-53.11-55.45-7.85-14.07-13.74-29.71-17.15-46.55-16.3-80.38 29.94-157.6 103.28-172.47 73.34-14.88 146.01 38.22 162.31 118.6" style="fill:#0083d7"/><g class="fred-hmmm_svg__eyes eyes"><path d="M139.9 183.8c15.41 0 27.9-12.49 27.9-27.9S155.31 128 139.9 128 112 140.49 112 155.9s12.49 27.9 27.9 27.9" class="fred-hmmm_svg__st0"/><path d="M130.68 163.36c8.11 0 14.68-6.57 14.68-14.68S138.79 134 130.68 134 116 140.57 116 148.68s6.57 14.68 14.68 14.68Z" class="fred-hmmm_svg__st4"/><path d="M216.56 187.28c15.12 2.95 29.77-6.92 32.73-22.04 2.95-15.12-6.92-29.78-22.04-32.73s-29.78 6.92-32.73 22.04 6.92 29.77 22.04 32.73" class="fred-hmmm_svg__st0"/><path d="M211.68 166.36c8.11 0 14.68-6.57 14.68-14.68S219.79 137 211.68 137 197 143.57 197 151.68s6.57 14.68 14.68 14.68Z" class="fred-hmmm_svg__st4"/></g><path d="m134.57 231.78 17.4 23.06c3.92 5.19 11.92 4.52 14.91-1.25l11.48-22.07c3-5.77-1.04-12.7-7.54-12.93l-28.88-.99c-7.44-.25-11.85 8.23-7.36 14.17Z" style="fill:#00316a"/><path d="M208 124.5c-.99-2.87.53-6.03 3.46-6.83 7.01-1.92 13.37-2.56 20.09-1.96 6.77.61 13.68 2.48 21.69 5.26 2.87 1 4.32 4.17 3.26 7.02-1.05 2.85-4.22 4.29-7.09 3.3-7.52-2.61-13.39-4.13-18.85-4.63-5.01-.45-9.86-.05-15.51 1.43-2.94.77-6.06-.72-7.05-3.6Zm-91-24c-.81-2.93.9-5.99 3.88-6.59 5.67-1.15 10.65-1.42 15.17-.92 5.94.65 10.8 2.59 15.11 5.16 4.19 2.5 7.96 5.65 11.52 8.58 2.3 1.89 4.6 3.75 7.07 5.52s3.32 5.14 1.76 7.74c-1.57 2.6-4.95 3.46-7.44 1.71-3.12-2.19-5.86-4.42-8.36-6.47-3.76-3.09-6.84-5.65-10.17-7.63-3.21-1.91-6.56-3.23-10.68-3.68-3.03-.33-6.62-.21-11.03.62-2.99.56-6.01-1.12-6.82-4.04Z"/><path d="M150.66 363.74c15.15-28.34 34.93-70.3 26.74-82.85-12.73-19.51-39.12 8.66-39.12 8.66s11.15-25.09-1.19-29.67-22.38-1.96-28.46 4.4c-4.37 4.56-19.22 23.18-23.97 34.92 13.06 23.41 31.55 42.47 53.11 55.45 3.59 2.16 7.93 5.31 12.9 9.08Z" style="fill-rule:evenodd;fill:#00316a"/></svg>