<?xml version="1.0" encoding="UTF-8"?><svg id="fred-geek_svg__Layer_1" xmlns="http://www.w3.org/2000/svg" version="1.1" viewBox="0 0 500 500"><!--Generator: Adobe Illustrator 29.8.3, SVG Export Plug-In . SVG Version: 2.1.1 Build 3)--><defs><style>.fred-geek_svg__st0{fill:#fff}.fred-geek_svg__st1{fill:#0083d7}.fred-geek_svg__st2{fill:#00316a}.fred-geek_svg__st3{stroke:#fff}.fred-geek_svg__st3,.fred-geek_svg__st4{stroke-miterlimit:10}.fred-geek_svg__st4{fill:none;stroke:#000;stroke-width:10px}</style></defs><path class="fred-geek_svg__st2" d="M361.25,128.19c.2,14.27,63.5,3.84,76.16.5,12.64-3.35,22.64-14.29,24.16-33.08,1.53-18.8-40.18-21.89-40.18-21.89,0,0,55.64-14.12,36.82-43.68C439.38.47,279.55,7.81,279.55,7.81c0,0,81.51,106.09,81.72,120.36h-.01Z"/><path class="fred-geek_svg__st1" d="M451.67,178.93c7.18,35.41,6.71,61.86-1.55,93.93-24.12,93.64,48.42,148.27-59.59,211.39-75.65,44.21-177.18-60.82-215.99-84.19-48.97-29.5-86.77-81.08-99.68-144.71C51.74,141.32,117.35,31.77,221.4,10.67c104.05-21.11,207.15,54.22,230.27,168.26"/><rect class="fred-geek_svg__st0" x="215.05" y="229.75" width="24.12" height="28.37" rx="4" ry="4" transform="translate(-12.98 12.76) rotate(-3.13)"/><path class="fred-geek_svg__st2" d="M190.18,238.36l64.69-3.94c8.53-.52,14.05-9.22,10.91-17.17l-14.93-37.57c-3.15-7.93-13.15-10.48-19.71-5.01l-49.77,41.51c-9.31,7.76-3.29,22.91,8.81,22.16h-.01Z"/><path class="fred-geek_svg__st4" d="M216.03,145.89c0,27.82-22.54,50.36-50.36,50.36s-46.82-8.51-50.36-50.36,19.93-37.65,50.36-37.6c27.82,0,50.36,9.78,50.36,37.6ZM269.94,146.03c0,27.82,22.54,50.36,50.36,50.36s46.82-8.51,50.36-50.36-19.93-37.65-50.36-37.6c-27.82,0-50.36,9.78-50.36,37.6ZM216.03,145.18c17.02-13.12,34.05-13.24,51.07-.35"/><g class="eyes"><path class="fred-geek_svg__st0" d="M168.5,182.07c17.63,0,31.92-14.29,31.92-31.92s-14.29-31.92-31.92-31.92-31.92,14.29-31.92,31.92,14.29,31.92,31.92,31.92M321.73,182.07c17.63,0,31.92-14.29,31.92-31.92s-14.29-31.92-31.92-31.92-31.92,14.29-31.92,31.92,14.29,31.92,31.92,31.92"/><path class="fred-geek_svg__st3" d="M167.8,174.98c13.32,0,24.12-10.8,24.12-24.12s-10.8-24.12-24.12-24.12-24.12,10.8-24.12,24.12,10.8,24.12,24.12,24.12ZM321.02,174.98c13.32,0,24.12-10.8,24.12-24.12s-10.8-24.12-24.12-24.12-24.12,10.8-24.12,24.12,10.8,24.12,24.12,24.12Z"/></g></svg>