<svg xmlns="http://www.w3.org/2000/svg" id="fred-rofl_svg__Layer_1" viewBox="0 0 435 432"><defs><style>.fred-rofl_svg__st0{fill:#fff}.fred-rofl_svg__st2{fill:#00316a}.fred-rofl_svg__st3{fill:#bfe6ff}</style></defs><path d="M315.32 132.41c4.65 8.92 41.21-17.7 48.11-23.82s9.73-16.17 4.73-28.49c-4.99-12.32-32.23-1.05-32.23-1.05s30.56-26.52 9.33-39.17S225.73 82.5 225.73 82.5s84.93 40.98 89.58 49.9Z" class="fred-rofl_svg__st2"/><path d="M328.3 239.23c-8.24 24.1-17.94 40.02-34.38 56.59-48.01 48.38-23.33 107.44-111.51 107.38-61.76-.04-86.13-100.08-101.42-128.11-19.29-35.38-23.92-80.22-9.12-123.52C98.4 73.96 177.32 30.68 248.12 54.89c70.81 24.2 106.71 106.74 80.18 184.34" style="fill:#0083d7"/><path d="M142.46 135.7c13.3 7.78 30.39 3.31 38.17-9.99s3.31-30.39-9.99-38.17-30.39-3.31-38.17 9.99-3.31 30.39 9.99 38.17M214.7 177.97c13.3 7.78 30.39 3.31 38.17-9.99s3.31-30.39-9.99-38.17-30.39-3.31-38.17 9.99-3.31 30.39 9.99 38.17" class="fred-rofl_svg__st0"/><path d="m122.58 175.37 28.1 28.88c6.32 6.51 17.27 4.19 20.41-4.33l12.02-32.54c3.14-8.51-3.66-17.4-12.69-16.57l-40.12 3.66c-10.34.94-14.96 13.45-7.73 20.89h.01Z" class="fred-rofl_svg__st2"/><path d="m135.38 211.39 28.36-4.42c6.39-.99 9.55-8.31 5.9-13.64l-13.95-20.39c-3.65-5.34-11.61-5.04-14.85.55l-14.41 24.82c-3.72 6.39 1.64 14.23 8.95 13.1h.01Z" class="fred-rofl_svg__st2"/><path d="M160.43 103c4.73 2.69 7.42 7.51 9.24 13.37.9 2.9-1.02 5.85-3.99 6.51-2.97.65-5.83-1.25-6.81-4.12-1.35-3.98-2.71-5.53-3.88-6.19-1.23-.7-3.34-1.06-7.5-.31-2.99.54-6.02-1.1-6.85-4.02s.86-6.01 3.84-6.61c5.85-1.18 11.32-1.25 15.94 1.38ZM232.93 145.43c4.73 2.69 7.42 7.51 9.24 13.37.9 2.9-1.02 5.85-3.99 6.51-2.97.65-5.83-1.25-6.81-4.13-1.35-3.98-2.71-5.53-3.88-6.19-1.23-.7-3.34-1.06-7.5-.31-2.99.54-6.02-1.1-6.85-4.02s.86-6.01 3.84-6.61c5.85-1.18 11.32-1.25 15.94 1.38Z"/><path d="M269.71 224.72c1.15 1.96 2.76 3.61 4.68 4.78s4.1 1.85 6.33 1.96c2.24.11 4.46-.35 6.48-1.34 2.02-.98 3.77-2.46 5.1-4.31a14.24 14.24 0 0 0 1.86-13.01c-.76-2.16-2.02-4.09-3.68-5.63a13.45 13.45 0 0 0-5.84-3.18l-17.35-3.1c-3.03-.54-5.52 2.51-4.43 5.44l6.84 18.38ZM61.23 94.35c-2.24-.05-4.45.47-6.45 1.5-2 1.04-3.71 2.56-4.99 4.44s-2.1 4.05-2.36 6.33c-.27 2.28.02 4.59.83 6.72.81 2.14 2.12 4.04 3.82 5.53s3.73 2.53 5.91 3.03 4.46.43 6.61-.19 4.13-1.77 5.74-3.36l11.97-13.55c2.03-2.3.82-5.94-2.19-6.57l-18.89-3.91Z" class="fred-rofl_svg__st3"/></svg>