<svg xmlns="http://www.w3.org/2000/svg" width="500" height="500" fill="none" viewBox="0 0 500 500"><path fill="#00316a" d="M306.106 296.243c-5.818 8.208 34.545 28.598 43.141 31.949s18.826 1.279 27.51-8.782-13.765-29.165-13.765-29.165 37.537 15.096 39.113-9.557c1.575-24.653-92.446-86.93-92.446-86.93s2.275 94.274-3.543 102.482z"/><path fill="#0083d7" d="M334.076 218.49c-.362 25.465-4.647 43.609-15.141 64.464-30.643 60.877 11.131 109.377-72.717 136.665-58.726 19.112-112.921-68.441-136.144-90.349-29.311-27.654-47.612-68.846-46.97-114.606 1.162-82.008 62.762-147.632 137.587-146.57 74.827 1.052 134.546 68.388 133.385 150.396"/><circle cx="211.5" cy="216.5" r="19.5" fill="#00316a"/><path fill="#000" d="M146.558 160.658a4 4 0 0 0 .171-5.654l-8.626-9.166a4 4 0 0 1 .171-5.654l2.185-2.056a4 4 0 0 1 5.654.171l8.626 9.165a4 4 0 0 0 5.655.171l8.396-7.903a4 4 0 0 1 5.655.171l2.056 2.185a4 4 0 0 1-.171 5.654l-8.397 7.903a4 4 0 0 0-.171 5.655l9.193 9.767a4 4 0 0 1-.171 5.655l-2.184 2.056a4 4 0 0 1-5.655-.172l-9.193-9.767a4 4 0 0 0-5.655-.171l-10.535 9.916a4 4 0 0 1-5.655-.171l-2.056-2.184a4 4 0 0 1 .171-5.655zM238.558 160.658a4 4 0 0 0 .171-5.654l-8.626-9.166a4 4 0 0 1 .171-5.654l2.185-2.056a4 4 0 0 1 5.654.171l8.626 9.165a4 4 0 0 0 5.655.171l8.396-7.903a4 4 0 0 1 5.655.171l2.056 2.185a4 4 0 0 1-.171 5.654l-8.397 7.903a4 4 0 0 0-.171 5.655l9.193 9.767a4 4 0 0 1-.171 5.655l-2.184 2.056a4 4 0 0 1-5.655-.172l-9.193-9.767a4 4 0 0 0-5.655-.171l-10.535 9.916a4 4 0 0 1-5.655-.171l-2.056-2.184a4 4 0 0 1 .171-5.655z"/></svg>