<?xml version="1.0" encoding="UTF-8"?><svg id="fred-base_svg__Layer_1" xmlns="http://www.w3.org/2000/svg" version="1.1" viewBox="0 0 500 500"><!--Generator: Adobe Illustrator 29.8.3, SVG Export Plug-In . SVG Version: 2.1.1 Build 3)--><defs><style>.fred-base_svg__st0{fill:#fff}.fred-base_svg__st1{fill:#0083d7}.fred-base_svg__st2{fill:#00316a}.fred-base_svg__st3{stroke:#fff;stroke-miterlimit:10}</style></defs><path class="fred-base_svg__st2" d="M374.41,125.84c7.62,9.41,44.36-30.72,51.04-39.58s7.6-21.39-1.23-34.72c-8.83-13.33-38.26,6.46-38.26,6.46,0,0,29.69-38.57,1.65-48.41-28.04-9.84-130.75,78.81-130.75,78.81,0,0,109.94,28.02,117.55,37.43h0Z"/><path class="fred-base_svg__st1" d="M455.69,223.15c6.09,30.03,5.69,52.46-1.31,79.66-20.45,79.4,41.06,125.74-50.53,179.26-64.15,37.49-150.25-51.58-183.16-71.39-41.53-25.01-73.58-68.76-84.53-122.72-19.61-96.7,36.02-189.61,124.26-207.5,88.24-17.9,175.66,45.98,195.27,142.69"/><g class="eyes"><path class="fred-base_svg__st0" d="M199.81,228.58c18.54,0,33.57-15.03,33.57-33.57s-15.03-33.57-33.57-33.57-33.57,15.03-33.57,33.57,15.03,33.57,33.57,33.57"/><path class="fred-base_svg__st3" d="M188.01,212.68c9.76,0,17.66-7.9,17.66-17.66s-7.9-17.66-17.66-17.66-17.66,7.9-17.66,17.66,7.9,17.66,17.66,17.66h0Z"/><path class="fred-base_svg__st0" d="M300.51,228.58c18.54,0,33.57-15.03,33.57-33.57s-15.03-33.57-33.57-33.57-33.57,15.03-33.57,33.57,15.03,33.57,33.57,33.57"/><path class="fred-base_svg__st3" d="M289.91,212.68c9.76,0,17.66-7.9,17.66-17.66s-7.9-17.66-17.66-17.66-17.66,7.9-17.66,17.66,7.9,17.66,17.66,17.66h0Z"/></g><path class="fred-base_svg__st2" d="M211,298.89l34.56,3.72c7.78.84,13.78-6.73,11.18-14.11l-9.93-28.24c-2.6-7.39-12.01-9.54-17.55-4.02l-24.64,24.52c-6.35,6.32-2.54,17.17,6.36,18.13h.01Z"/></svg>