<?xml version="1.0" encoding="UTF-8"?><svg id="fred-smart_svg__Layer_1" xmlns="http://www.w3.org/2000/svg" version="1.1" viewBox="0 0 485 500"><!--Generator: Adobe Illustrator 29.8.3, SVG Export Plug-In . SVG Version: 2.1.1 Build 3)--><defs><style>.fred-smart_svg__st0{fill:none;stroke:#000;stroke-width:5px}.fred-smart_svg__st1{fill:#fff}.fred-smart_svg__st2{fill:#0083d7}.fred-smart_svg__st3{fill:#ffa700}.fred-smart_svg__st4{fill:#00316a}</style></defs><path class="fred-smart_svg__st4" d="M390.69,195.9c5.29,11.88,54.59-19.55,63.99-26.89s13.85-20.09,8.38-36.38c-5.46-16.29-41.52-3.93-41.52-3.93,0,0,41.55-31.78,15.18-49.79-26.38-18.01-157.65,45.45-157.65,45.45,0,0,106.33,59.67,111.62,71.55"/><path class="fred-smart_svg__st2" d="M398.97,206.96c6.54,32.27,6.12,56.37-1.41,85.6-21.98,85.33,44.13,135.12-54.3,192.65-68.94,40.29-161.47-55.43-196.84-76.72-44.63-26.88-79.08-73.89-90.84-131.88-21.07-103.93,38.71-203.77,133.53-222.99,94.82-19.24,188.78,49.42,209.86,153.34"/><path class="fred-smart_svg__st1" d="M123.97,212.79c19.92,0,36.07-16.15,36.07-36.07s-16.15-36.07-36.07-36.07-36.07,16.15-36.07,36.07,16.15,36.07,36.07,36.07M232.19,212.79c19.92,0,36.07-16.15,36.07-36.07s-16.15-36.07-36.07-36.07-36.07,16.15-36.07,36.07,16.15,36.07,36.07,36.07"/><path class="fred-smart_svg__st4" d="M136,288.35l37.15,4c8.37.91,14.8-7.23,12.01-15.17l-10.67-30.35c-2.79-7.94-12.9-10.25-18.86-4.32l-26.48,26.35c-6.83,6.79-2.73,18.45,6.84,19.48h.01Z"/><path d="M111.03,164.56c7.03-.09,13.19,3.53,19.04,8.9,2.9,2.65,2.68,7.2-.19,9.87-2.88,2.66-7.33,2.42-10.29-.16-4.1-3.57-6.63-4.4-8.37-4.37-1.84.03-4.42,1-8.57,4.55-2.99,2.55-7.43,2.72-10.27,0-2.83-2.72-2.96-7.27-.03-9.89,5.75-5.13,11.82-8.78,18.68-8.87v-.03ZM219.65,164.56c7.03-.09,13.19,3.53,19.04,8.9,2.9,2.65,2.68,7.2-.19,9.87-2.88,2.66-7.33,2.42-10.29-.16-4.1-3.57-6.63-4.4-8.37-4.37-1.84.03-4.42,1-8.57,4.55-2.99,2.55-7.43,2.72-10.27,0s-2.96-7.27-.03-9.89c5.75-5.13,11.8-8.78,18.68-8.87v-.03ZM190.88,8.2c.67-.22,1.38-.26,2.07-.1l137.92,31.09c3.71.84,4.12,5.95.61,7.38l-136.03,55.18c-.81.34-1.73.37-2.57.12L55.09,60.32c-3.63-1.1-3.7-6.22-.09-7.4L190.9,8.2h-.01Z"/><path class="fred-smart_svg__st0" d="M288.95,110.26V41.74"/><circle class="fred-smart_svg__st3" cx="289.6" cy="117.37" r="10.99"/></svg>