<svg xmlns="http://www.w3.org/2000/svg" width="500" height="500" fill="none" viewBox="0 0 500 500"><path fill="#00316a" d="M275.36 153.02c.14 10.06 44.76 2.71 53.68.35 8.91-2.36 15.96-10.07 17.03-23.32 1.08-13.25-28.32-15.43-28.32-15.43s39.22-9.95 25.95-30.79C330.43 63 217.77 68.17 217.77 68.17s57.45 74.78 57.6 84.84z"/><path fill="#0083d7" d="M339.09 188.79c5.06 24.96 4.73 43.6-1.09 66.21-17 66 34.13 104.51-42 149-53.32 31.16-124.89-42.87-152.24-59.34-34.52-20.79-61.16-57.15-70.26-102-16.3-80.38 29.94-157.6 103.28-172.47 73.34-14.88 146.01 38.22 162.31 118.6"/><path fill="#00316a" d="m138.18 252.52 45.06 7.54c5.94.99 11.11-4.11 10.21-10.06l-4.3-28.17c-.91-5.95-7.37-9.28-12.74-6.56l-40.76 20.63c-7.62 3.86-5.89 15.21 2.54 16.62z"/><path fill="#000" stroke="#000" stroke-miterlimit="10" stroke-width="10" d="M173 165.5c0 19.61-15.89 35.5-35.5 35.5S102 185.11 102 165.5s15.89-26.5 35.5-26.5 35.5 6.89 35.5 26.5ZM280 165.5c0 19.61-15.89 35.5-35.5 35.5S209 185.11 209 165.5s15.89-26.5 35.5-26.5 35.5 6.89 35.5 26.5Z"/><path stroke="#000" stroke-miterlimit="10" stroke-width="10" d="M173 165c13.67-9.01 27.33-9.09 41-.24"/></svg>