<?xml version="1.0" encoding="UTF-8"?><svg id="fred-party_svg__Layer_1" xmlns="http://www.w3.org/2000/svg" version="1.1" viewBox="0 0 524 556"><!--Generator: Adobe Illustrator 29.8.3, SVG Export Plug-In . SVG Version: 2.1.1 Build 3)--><defs><style>.fred-party_svg__st0{fill:#dd70b8}.fred-party_svg__st1{fill:#b6d95f}.fred-party_svg__st2{fill:#901065}.fred-party_svg__st3{fill:#fff}.fred-party_svg__st4{fill:#ffc628}.fred-party_svg__st5{fill:#0083d7}.fred-party_svg__st6{fill:#00316a}.fred-party_svg__st7{fill:#bfe6ff}.fred-party_svg__st8{fill:#ffa9e2;fill-rule:evenodd}</style></defs><path class="fred-party_svg__st6" d="M433.01,284.25c.06,11.94,53.11,3.69,63.72.97s19.05-11.79,20.46-27.5-33.45-18.61-33.45-18.61c0,0,46.65-11.41,31.11-36.28-15.54-24.87-149.3-19.89-149.3-19.89,0,0,67.41,89.36,67.48,101.3h-.02Z"/><path class="fred-party_svg__st5" d="M463.04,276.56c6.01,29.63,5.61,51.75-1.29,78.59-20.18,78.34,40.51,124.05-49.85,176.87-63.29,36.99-148.25-50.89-180.71-70.44-40.98-24.68-72.6-67.84-83.4-121.08-19.35-95.41,35.54-187.07,122.59-204.72,87.06-17.66,173.32,45.37,192.66,140.78"/><path class="fred-party_svg__st3" d="M210.58,281.91c18.29,0,33.12-14.83,33.12-33.12s-14.83-33.12-33.12-33.12-33.12,14.83-33.12,33.12,14.83,33.12,33.12,33.12M309.93,281.91c18.29,0,33.12-14.83,33.12-33.12s-14.83-33.12-33.12-33.12-33.12,14.83-33.12,33.12,14.83,33.12,33.12,33.12"/><path d="M209.39,237.63c6.46-.08,12.11,3.24,17.48,8.17,2.66,2.43,2.46,6.61-.18,9.06-2.65,2.45-6.73,2.22-9.45-.14-3.76-3.28-6.09-4.04-7.68-4.01-1.69.02-4.06.91-7.87,4.18-2.74,2.34-6.83,2.49-9.42,0s-2.72-6.67-.02-9.08c5.28-4.71,10.84-8.06,17.15-8.14v-.02ZM309.09,237.63c6.46-.08,12.11,3.24,17.48,8.17,2.66,2.43,2.47,6.61-.18,9.06s-6.73,2.22-9.45-.14c-3.76-3.28-6.09-4.04-7.68-4.01-1.69.02-4.06.91-7.87,4.18-2.74,2.34-6.83,2.49-9.42,0s-2.72-6.67-.02-9.08c5.28-4.71,10.85-8.06,17.15-8.14v-.02Z"/><path class="fred-party_svg__st7" d="M77.32,308.33c18.89-14.8,44.64-17.31,66.03-6.43,7.97,4.05,14.97,9.78,20.5,16.81,2.84,3.61,1.48,8.74-2.47,11.07l-2.04,1.21c-3.95,2.33-9,.95-12.05-2.48-3.54-3.98-7.8-7.26-12.55-9.67-7.26-3.69-15.41-5.23-23.51-4.44-8.1.8-15.8,3.88-22.21,8.89-6.41,5.02-11.24,11.76-13.95,19.44-5.52,15.67-1.46,33.12,10.41,44.74,5.82,5.69,13.14,9.61,21.11,11.28,7.87,1.65,16.04,1.05,23.59-1.73l101.28-46.38c4.17-1.91,9.1-.07,11.02,4.1l.99,2.16c1.91,4.18.08,9.1-4.1,11.02l-101.61,46.53-.3.13-.31.12c-11,4.14-22.95,5.06-34.46,2.65-11.5-2.42-22.08-8.07-30.48-16.29-8.4-8.22-14.28-18.67-16.95-30.11-2.67-11.45-2.01-23.42,1.9-34.51,3.9-11.09,10.89-20.83,20.14-28.07l.02-.02Z"/><path class="fred-party_svg__st6" d="M228.5,343.55c-4.85,5.47-1.67,13.95,5.2,15.18-3.99,5.8-.12,14.07,7.23,14.39s30.09,1.35,30.09,1.35c6.78.3,11.55-6.58,8.9-12.82l-5.94-14.24c-.11-.42.18.4,0,0l-10.11-23.88c-2.65-6.24-10.9-7.6-15.4-2.53l-19.98,22.55Z"/><path class="fred-party_svg__st4" d="M388.48,6.68c2.9-3.37,8.43-1.28,8.36,3.17l-2.55,159.87c-.05,2.56-2.12,4.64-4.69,4.64-45.69-.02-69.77-9.72-104.66-39.72-1.97-1.7-2.17-4.66-.49-6.64L388.48,6.69h0Z"/><path class="fred-party_svg__st4" d="M388.48,6.68c2.9-3.37,8.43-1.28,8.36,3.17l-2.55,159.87c-.05,2.56-2.12,4.64-4.69,4.64-45.69-.02-69.77-9.72-104.66-39.72-1.97-1.7-2.17-4.66-.49-6.64L388.48,6.69h0Z"/><path class="fred-party_svg__st8" d="M391.4,57.62c2.59,0,4.7-2.08,4.75-4.68l.69-43.11c.07-4.44-5.46-6.54-8.36-3.17l-36.96,43.11c-2.64,3.07-.45,7.83,3.61,7.83h36.28ZM395.05,121.02c.04-2.63-2.06-4.78-4.69-4.82-.02,0-.04,0-.06,0h-93.56c-1.39,0-2.71.61-3.61,1.66l-8.69,10.14c-1.7,1.96-1.48,4.93.48,6.63,0,0,0,0,0,0,34.89,30.01,58.97,39.69,104.66,39.72,2.56,0,4.64-2.08,4.69-4.64l.77-48.68h0Z"/><path class="fred-party_svg__st8" d="M391.4,57.62c2.59,0,4.7-2.08,4.75-4.68l.69-43.11c.07-4.44-5.46-6.54-8.36-3.17l-36.96,43.11c-2.64,3.07-.45,7.83,3.61,7.83h36.28ZM395.05,121.02c.04-2.63-2.06-4.78-4.69-4.82-.02,0-.04,0-.06,0h-93.56c-1.39,0-2.71.61-3.61,1.66l-8.69,10.14c-1.7,1.96-1.48,4.93.48,6.63,0,0,0,0,0,0,34.89,30.01,58.97,39.69,104.66,39.72,2.56,0,4.64-2.08,4.69-4.64l.77-48.68h0Z"/><path class="fred-party_svg__st1" d="M138.88,130.8h9.5c6.55,0,11.87,5.32,11.87,11.87s-5.32,11.87-11.87,11.87h-9.5c-6.55,0-11.87-5.32-11.87-11.87s5.32-11.87,11.87-11.87"/><path class="fred-party_svg__st0" d="M260.6,178.69l8.23-4.75c5.67-3.28,12.94-1.33,16.21,4.34,3.28,5.67,1.33,12.94-4.34,16.21l-8.23,4.75c-5.67,3.28-12.94,1.33-16.21-4.34-3.28-5.67-1.33-12.94,4.34-16.21"/><path class="fred-party_svg__st7" d="M423.64,287.39l8.55,4.14c5.9,2.86,8.36,9.96,5.5,15.86-2.86,5.9-9.96,8.36-15.86,5.5l-8.55-4.14c-5.9-2.86-8.36-9.96-5.5-15.86,2.86-5.9,9.96-8.36,15.86-5.5"/><path class="fred-party_svg__st2" d="M126.38,230.33l5.77,7.54c3.99,5.21,2.99,12.65-2.21,16.64-5.21,3.99-12.65,2.99-16.64-2.21l-5.77-7.54c-3.99-5.21-2.99-12.65,2.21-16.64,5.21-3.99,12.65-2.99,16.64,2.21"/></svg>