<?xml version="1.0" encoding="UTF-8"?><svg id="fred-disappointed_svg__Layer_1" xmlns="http://www.w3.org/2000/svg" version="1.1" viewBox="0 0 500 500"><!--Generator: Adobe Illustrator 29.8.3, SVG Export Plug-In . SVG Version: 2.1.1 Build 3)--><defs><style>.fred-disappointed_svg__st0{fill:#fff}.fred-disappointed_svg__st1{fill:#0083d7}.fred-disappointed_svg__st2{fill:#00316a}.fred-disappointed_svg__st3{stroke:#fff;stroke-miterlimit:10}</style></defs><path class="fred-disappointed_svg__st2" d="M364.15,126.21c5.85,11.7,53.94-22.09,63.03-29.89s13-20.79,6.77-36.91c-6.23-16.12-41.86-2.08-41.86-2.08,0,0,40.29-33.79,13-50.69-27.29-16.9-156.26,52.77-156.26,52.77,0,0,109.47,55.1,115.32,66.8"/><path class="fred-disappointed_svg__st1" d="M413.65,208.46c6.58,32.44,6.15,56.66-1.42,86.05-22.09,85.78,44.36,135.83-54.59,193.65-69.3,40.5-162.31-55.72-197.86-77.12-44.86-27.02-79.49-74.27-91.31-132.56-21.18-104.47,38.91-204.82,134.23-224.15,95.32-19.34,189.76,49.67,210.95,154.14"/><g class="eyes"><path class="fred-disappointed_svg__st0" d="M259.01,201.33c20.03,0,36.26-16.23,36.26-36.26s-16.23-36.26-36.26-36.26-36.26,16.23-36.26,36.26,16.23,36.26,36.26,36.26"/><path class="fred-disappointed_svg__st0" d="M152.44,203.54c21.25,0,38.47-17.22,38.47-38.47s-17.22-38.47-38.47-38.47-38.47,17.22-38.47,38.47,17.22,38.47,38.47,38.47"/><path class="fred-disappointed_svg__st3" d="M155.58,196.73c11.18,0,20.25-9.06,20.25-20.25s-9.06-20.25-20.25-20.25-20.25,9.06-20.25,20.25,9.06,20.25,20.25,20.25ZM268.66,196.73c11.18,0,20.25-9.06,20.25-20.25s-9.06-20.25-20.25-20.25-20.25,9.06-20.25,20.25,9.06,20.25,20.25,20.25Z"/></g><path class="fred-disappointed_svg__st2" d="M177.44,286.65l32.66-18.51c7.36-4.17,7.85-14.58.91-19.43l-26.5-18.53c-6.93-4.85-16.54-.81-17.94,7.52l-6.17,37.04c-1.59,9.54,8.59,16.67,17.01,11.89h.03Z"/><path d="M288.87,109.63c.34,3.94-2.59,7.42-6.54,7.5-9.44.19-17.66-1.03-25.93-3.92-8.34-2.92-16.45-7.47-25.65-13.53-3.3-2.17-4.12-6.63-1.88-9.89,2.24-3.25,6.68-4.07,9.98-1.9,8.66,5.68,15.56,9.46,22.29,11.83,6.16,2.17,12.41,3.2,20,3.13,3.95-.04,7.41,2.85,7.75,6.77h-.01ZM124.83,107.03c-.34,3.94,2.59,7.42,6.54,7.5,9.44.18,17.66-1.03,25.93-3.92,8.34-2.92,16.45-7.47,25.65-13.53,3.3-2.17,4.12-6.63,1.88-9.89-2.24-3.25-6.68-4.07-9.98-1.9-8.66,5.68-15.56,9.46-22.29,11.83-6.16,2.17-12.41,3.2-20,3.13-3.95-.04-7.41,2.85-7.75,6.77h.01Z"/></svg>