<svg xmlns="http://www.w3.org/2000/svg" id="fred-ecstatic_svg__Layer_1" viewBox="0 0 500 500"><defs><style>.fred-ecstatic_svg__st0{fill:#fff}.fred-ecstatic_svg__st2{fill:#00316a}</style></defs><path d="M277.93 99.16c8.52 5.35 26.62-36.09 29.49-44.86s.23-18.87-10.3-26.98-28.35 15.37-28.35 15.37 12.98-38.32-11.73-38.52c-24.7-.2-81.63 97.16-81.63 97.16s94-7.54 102.52-2.19Z" class="fred-ecstatic_svg__st2"/><path d="M343.09 194.79c5.06 24.96 4.73 43.6-1.09 66.21-17 66 34.13 104.51-42 149-53.32 31.16-124.89-42.87-152.24-59.34-34.52-20.79-61.16-57.15-70.26-102-16.3-80.38 29.94-157.6 103.28-172.47 73.34-14.88 146.01 38.22 162.31 118.6" style="fill:#0083d7"/><path d="M130.4 199.3c15.41 0 27.9-12.49 27.9-27.9s-12.49-27.9-27.9-27.9-27.9 12.49-27.9 27.9 12.49 27.9 27.9 27.9M214.1 199.3c15.41 0 27.9-12.49 27.9-27.9s-12.49-27.9-27.9-27.9-27.9 12.49-27.9 27.9 12.49 27.9 27.9 27.9" class="fred-ecstatic_svg__st0"/><path d="m139.54 221.37 19.18 21.61c4.32 4.87 12.23 3.57 14.76-2.43l9.68-22.92c2.53-6-2.05-12.58-8.55-12.29l-28.86 1.3c-7.44.33-11.16 9.14-6.22 14.71Z" class="fred-ecstatic_svg__st2"/><path d="M146.9 171.89a5 5 0 0 1-.42 7.06l-.75.66c-2.06 1.84-5.22 1.65-7.06-.41l-4.83-5.43c-1.99-2.24-5.49-2.24-7.47 0l-4.83 5.43a5 5 0 0 1-7.06.41l-.75-.66a5 5 0 0 1-.41-7.06l13.05-14.68c1.99-2.24 5.49-2.24 7.47 0l13.05 14.68ZM230.9 171.89a5 5 0 0 1-.42 7.06l-.75.66c-2.06 1.84-5.22 1.65-7.06-.41l-4.83-5.43c-1.99-2.24-5.49-2.24-7.47 0l-4.83 5.43c-1.84 2.06-5 2.25-7.06.41l-.75-.66a5 5 0 0 1-.41-7.06l13.05-14.68c1.99-2.24 5.49-2.24 7.47 0l13.05 14.68Z"/></svg>