<svg xmlns="http://www.w3.org/2000/svg" id="fred-boom_svg__Layer_1" viewBox="0 0 500 578"><defs><style>.fred-boom_svg__st0{fill:#901065}.fred-boom_svg__st1{fill:#fff}.fred-boom_svg__st3{fill:#ffc628}.fred-boom_svg__st5{fill:#00316a}.fred-boom_svg__st6{stroke:#fff;stroke-miterlimit:10}</style></defs><path d="M316.54 322.36c-5.82 8.21 34.54 28.6 43.14 31.95s18.83 1.28 27.51-8.78-13.77-29.17-13.77-29.17 37.54 15.1 39.11-9.56c1.58-24.65-92.45-86.93-92.45-86.93s2.28 94.27-3.54 102.48Z" class="fred-boom_svg__st5"/><path d="m101 89 5.16 15.89h16.71l-13.52 9.82 5.16 15.89-13.52-9.82-13.52 9.82 5.16-15.89-13.52-9.82h16.71L100.98 89Z" class="fred-boom_svg__st3"/><path d="m106 126 8.08 24.88h26.16l-21.16 15.37 8.08 24.88L106 175.76l-21.16 15.37 8.08-24.88-21.16-15.37h26.16zM264 99l8.08 24.88h26.15l-21.16 15.37 8.08 24.88-21.16-15.37-21.16 15.37 8.08-24.88-21.16-15.37h26.16L263.99 99Z" class="fred-boom_svg__st3"/><path d="M116.31 97.98c-.44-2.39-.67-4.85-.67-7.36 0-22.43 18.23-40.62 40.71-40.62 10.36 0 19.82 3.86 27.01 10.22 4.28-1.53 8.9-2.36 13.71-2.36 7.62 0 14.74 2.09 20.84 5.72C225.37 55.25 236.22 50 248.29 50 270.78 50 289 68.19 289 90.62c0 14.42-7.53 27.08-18.88 34.29.32 2.06.49 4.18.49 6.33 0 22.43-18.23 40.62-40.71 40.62-4.6 0-9.01-.76-13.13-2.16V202h-69.61v-28.84c-4.49 1.7-9.36 2.63-14.45 2.63-22.49 0-40.71-18.19-40.71-40.62 0-16.61 9.99-30.89 24.31-37.19" style="fill:#4c4c4c"/><path d="M346.86 272.17c5.06 24.96 4.73 43.6-1.09 66.21-17 66 34.13 104.51-42 149-53.32 31.16-124.89-42.87-152.24-59.34-34.52-20.79-61.16-57.15-70.26-102-7.96-39.28-1-77.8 16.77-108.66 18.59-32.3 55.23-9.9 92.73-17.5 45.38-9.21 84.28-38.7 115.95-5.5 19.52 20.46 33.93 47.14 40.14 77.79" style="fill:#0083d7"/><g class="fred-boom_svg__eyes eyes"><path d="M143.9 278.8c15.41 0 27.9-12.49 27.9-27.9S159.31 223 143.9 223 116 235.49 116 250.9s12.49 27.9 27.9 27.9" class="fred-boom_svg__st1"/><path d="M146.18 272.86c8.11 0 14.68-6.57 14.68-14.68s-6.57-14.68-14.68-14.68-14.68 6.57-14.68 14.68 6.57 14.68 14.68 14.68Z" class="fred-boom_svg__st6"/></g><g class="fred-boom_svg__eyes eyes"><path d="M231.9 271.8c15.41 0 27.9-12.49 27.9-27.9S247.31 216 231.9 216 204 228.49 204 243.9s12.49 27.9 27.9 27.9" class="fred-boom_svg__st1"/><path d="M231.48 265.86c8.11 0 14.68-6.57 14.68-14.68s-6.57-14.68-14.68-14.68-14.68 6.57-14.68 14.68 6.57 14.68 14.68 14.68Z" class="fred-boom_svg__st6"/></g><circle cx="197.5" cy="300.5" r="19.5" class="fred-boom_svg__st5"/><path d="m238 135 8.08 24.88h26.16l-21.16 15.37 8.08 24.88L238 184.76l-21.16 15.37 8.08-24.88-21.16-15.37h26.16zM285 74l4.71 14.51h15.26l-12.34 8.97 4.71 14.51-12.34-8.97-12.34 8.97 4.71-14.51-12.34-8.97h15.26z" class="fred-boom_svg__st3"/><path d="m135 10 5.16 15.89h16.71l-13.52 9.82 5.16 15.89-13.52-9.82-13.52 9.82 5.16-15.89-13.52-9.82h16.71L134.98 10ZM155.5 126l2.58 7.95h8.35l-6.76 4.91 2.58 7.95-6.76-4.91-6.76 4.91 2.58-7.95-6.76-4.91h8.35l2.58-7.95ZM283 28l5.16 15.89h16.71l-13.52 9.82 5.16 15.89-13.52-9.82-13.52 9.82 5.16-15.89-13.52-9.82h16.71L282.98 28Z" class="fred-boom_svg__st0"/></svg>