<svg xmlns="http://www.w3.org/2000/svg" id="fred-base_svg__Layer_1" viewBox="0 0 500 500"><defs><style>.fred-base_svg__st0{fill:#fff}.fred-base_svg__st2{fill:#00316a}.fred-base_svg__st3{stroke:#fff;stroke-miterlimit:10}</style></defs><path d="M275.53 107.9c6.33 7.82 36.87-25.53 42.42-32.9s6.32-17.78-1.02-28.86-31.8 5.37-31.8 5.37 24.68-32.06 1.37-40.24-108.68 65.51-108.68 65.51 91.38 23.29 97.71 31.11Z" class="fred-base_svg__st2"/><path d="M343.09 188.79c5.06 24.96 4.73 43.6-1.09 66.21-17 66 34.13 104.51-42 149-53.32 31.16-124.89-42.87-152.24-59.34-34.52-20.79-61.16-57.15-70.26-102-16.3-80.38 29.94-157.6 103.28-172.47 73.34-14.88 146.01 38.22 162.31 118.6" style="fill:#0083d7"/><g class="fred-base_svg__eyes eyes"><path d="M130.4 193.3c15.41 0 27.9-12.49 27.9-27.9s-12.49-27.9-27.9-27.9-27.9 12.49-27.9 27.9 12.49 27.9 27.9 27.9" class="fred-base_svg__st0"/><path d="M120.59 180.08c8.11 0 14.68-6.57 14.68-14.68s-6.57-14.68-14.68-14.68-14.68 6.57-14.68 14.68 6.57 14.68 14.68 14.68Z" class="fred-base_svg__st3"/><path d="M214.1 193.3c15.41 0 27.9-12.49 27.9-27.9s-12.49-27.9-27.9-27.9-27.9 12.49-27.9 27.9 12.49 27.9 27.9 27.9" class="fred-base_svg__st0"/><path d="M205.29 180.08c8.11 0 14.68-6.57 14.68-14.68s-6.57-14.68-14.68-14.68-14.68 6.57-14.68 14.68 6.57 14.68 14.68 14.68Z" class="fred-base_svg__st3"/></g><path d="m139.7 251.74 28.73 3.09c6.47.7 11.45-5.59 9.29-11.73l-8.25-23.47c-2.16-6.14-9.98-7.93-14.59-3.34l-20.48 20.38c-5.28 5.25-2.11 14.27 5.29 15.07Z" class="fred-base_svg__st2"/></svg>