<?xml version="1.0" encoding="UTF-8"?><svg id="fred-ecstatic_svg__Layer_1" xmlns="http://www.w3.org/2000/svg" version="1.1" viewBox="0 0 500 500"><!--Generator: Adobe Illustrator 29.8.3, SVG Export Plug-In . SVG Version: 2.1.1 Build 3)--><defs><style>.fred-ecstatic_svg__st0{fill:#fff}.fred-ecstatic_svg__st1{fill:#0083d7}.fred-ecstatic_svg__st2{fill:#00316a}</style></defs><path class="fred-ecstatic_svg__st2" d="M366.55,116.02c10.22,6.42,31.93-43.29,35.37-53.8,3.44-10.52.28-22.63-12.35-32.36-12.63-9.73-34,18.43-34,18.43,0,0,15.57-45.96-14.07-46.2-29.62-.24-97.91,116.53-97.91,116.53,0,0,112.74-9.04,122.96-2.63v.02Z"/><path class="fred-ecstatic_svg__st1" d="M444.7,230.71c6.07,29.94,5.67,52.29-1.31,79.41-20.39,79.16,40.94,125.35-50.37,178.71-63.95,37.37-149.79-51.42-182.6-71.17-41.4-24.94-73.35-68.55-84.27-122.34-19.55-96.41,35.91-189.02,123.87-206.86,87.96-17.85,175.12,45.84,194.67,142.25"/><path class="fred-ecstatic_svg__st0" d="M189.6,236.12c18.48,0,33.46-14.98,33.46-33.46s-14.98-33.46-33.46-33.46-33.46,14.98-33.46,33.46,14.98,33.46,33.46,33.46M289.99,236.12c18.48,0,33.46-14.98,33.46-33.46s-14.98-33.46-33.46-33.46-33.46,14.98-33.46,33.46,14.98,33.46,33.46,33.46"/><path class="fred-ecstatic_svg__st2" d="M200.56,262.59l23,25.92c5.18,5.84,14.67,4.28,17.7-2.91l11.61-27.49c3.03-7.2-2.46-15.09-10.25-14.74l-34.61,1.56c-8.92.4-13.39,10.96-7.46,17.64v.02Z"/><path d="M209.39,203.25c2.2,2.48,1.97,6.27-.5,8.47,0,0,0,0,0,0l-.9.79c-2.47,2.21-6.26,1.98-8.47-.49l-5.79-6.51c-2.39-2.69-6.58-2.69-8.96,0l-5.79,6.51c-2.2,2.47-5.99,2.69-8.47.49h0s-.9-.79-.9-.79c-2.47-2.2-2.69-5.99-.49-8.47h0s15.65-17.61,15.65-17.61c2.39-2.69,6.58-2.69,8.96,0l15.65,17.61h.01ZM310.14,203.25c2.2,2.48,1.97,6.27-.5,8.47,0,0,0,0,0,0l-.9.79c-2.47,2.21-6.26,1.98-8.47-.49l-5.79-6.51c-2.39-2.69-6.58-2.69-8.96,0l-5.79,6.51c-2.21,2.47-6,2.7-8.47.49l-.9-.79c-2.47-2.2-2.69-5.99-.49-8.47h0s15.65-17.61,15.65-17.61c2.39-2.69,6.58-2.69,8.96,0l15.65,17.61h.01Z"/></svg>