<svg width="500" height="500" viewBox="0 0 500 500" fill="none" xmlns="http://www.w3.org/2000/svg">
<path d="M404 249C404 343.99 339.08 421 259 421C178.92 421 114 343.99 114 249H404Z" fill="#8AB61E"/>
<path d="M166.5 244C203.227 244 233 214.227 233 177.5C233 140.773 203.227 111 166.5 111C129.773 111 100 140.773 100 177.5C100 214.227 129.773 244 166.5 244Z" fill="#FFA700"/>
<path d="M258.5 244C295.227 244 325 214.227 325 177.5C325 140.773 295.227 111 258.5 111C221.773 111 192 140.773 192 177.5C192 214.227 221.773 244 258.5 244Z" fill="#FFA700"/>
<path d="M350.5 244C387.227 244 417 214.227 417 177.5C417 140.773 387.227 111 350.5 111C313.773 111 284 140.773 284 177.5C284 214.227 313.773 244 350.5 244Z" fill="#FFA700"/>
<path d="M156.95 297.69H170.29H191.79H212.75C212.75 282.28 200.26 269.79 184.85 269.79C169.44 269.79 156.95 282.28 156.95 297.69Z" fill="white"/>
<path d="M284 297.9H297.34H318.84H339.8C339.8 282.49 327.31 270 311.9 270C296.49 270 284 282.49 284 297.9Z" fill="white"/>
<path d="M182.83 280.021C187.201 278.789 191.645 280.022 196.189 282.384C198.438 283.553 199.063 286.423 197.712 288.568C196.36 290.713 193.548 291.299 191.269 290.189C188.115 288.652 186.4 288.554 185.32 288.858C184.18 289.179 182.733 290.219 180.736 293.124C179.301 295.214 176.552 296.056 174.331 294.832C172.111 293.609 171.271 290.795 172.66 288.674C175.389 284.51 178.558 281.225 182.83 280.021Z" fill="black"/>
<path d="M313.575 278.441C318.023 279.357 321.402 282.495 324.352 286.681C325.812 288.754 325.047 291.591 322.86 292.873C320.674 294.156 317.907 293.385 316.394 291.35C314.3 288.536 312.822 287.66 311.723 287.434C310.563 287.195 308.8 287.453 305.691 289.115C303.455 290.31 300.627 289.794 299.218 287.687C297.808 285.579 298.356 282.694 300.565 281.45C304.904 279.006 309.227 277.546 313.575 278.441Z" fill="black"/>
</svg>
