<svg width="500" height="500" viewBox="0 0 500 500" fill="none" xmlns="http://www.w3.org/2000/svg">
<path d="M269.641 162.279C274.281 171.212 310.872 144.647 317.784 138.529C324.696 132.412 327.535 122.375 322.554 110.044C317.573 97.713 290.322 108.949 290.322 108.949C290.322 108.949 320.924 82.4766 299.721 69.8024C278.518 57.1282 180.13 112.241 180.13 112.241C180.13 112.241 265 153.345 269.638 162.269L269.641 162.279Z" fill="black"/>
<path d="M214.5 361.5C285.192 361.5 342.5 304.192 342.5 233.5C342.5 162.808 285.192 105.5 214.5 105.5C143.808 105.5 86.5 162.808 86.5 233.5C86.5 304.192 143.808 361.5 214.5 361.5Z" fill="#FFC628"/>
<path d="M331.372 215.631L353.22 246.477C361.675 258.405 378.643 260.298 389.508 250.502L441.302 203.827C454.053 192.335 448.07 171.203 431.183 168.109L364.163 155.836C347.941 152.864 332.302 163.349 328.894 179.491L326.361 191.444C324.586 199.849 326.398 208.619 331.36 215.624L331.372 215.631Z" fill="black"/>
<path d="M225.5 447C287.08 447 337 439.389 337 430C337 420.611 287.08 413 225.5 413C163.92 413 114 420.611 114 430C114 439.389 163.92 447 225.5 447Z" fill="#ADADAD"/>
<path d="M178.328 178.528C180.906 181.42 180.645 185.855 177.746 188.425L175.551 190.371C172.664 192.93 168.251 192.67 165.683 189.791L157.225 180.304C154.441 177.182 149.559 177.182 146.775 180.304L138.317 189.791C135.749 192.67 131.336 192.93 128.449 190.371L126.254 188.425C123.355 185.855 123.094 181.42 125.672 178.528L146.775 154.86C149.559 151.738 154.441 151.738 157.225 154.86L178.328 178.528Z" fill="black"/>
<path d="M281.328 177.528C283.906 180.42 283.645 184.855 280.746 187.425L278.551 189.371C275.664 191.93 271.251 191.67 268.683 188.791L260.225 179.304C257.441 176.182 252.559 176.182 249.775 179.304L241.317 188.791C238.749 191.67 234.336 191.93 231.449 189.371L229.254 187.425C226.355 184.855 226.094 180.42 228.672 177.528L249.775 153.86C252.559 150.738 257.441 150.738 260.225 153.86L281.328 177.528Z" fill="black"/>
</svg>
