<svg width="500" height="561" viewBox="0 0 500 561" fill="none" xmlns="http://www.w3.org/2000/svg">
<path d="M129 106L134.164 121.893H150.874L137.355 131.715L142.519 147.607L129 137.785L115.481 147.607L120.645 131.715L107.126 121.893H123.836L129 106Z" fill="#FFC628"/>
<path d="M134 143L142.083 167.875H168.238L147.078 183.249L155.16 208.125L134 192.751L112.84 208.125L120.922 183.249L99.762 167.875H125.917L134 143Z" fill="#0083D7"/>
<path d="M292 116L300.083 140.875H326.238L305.078 156.249L313.16 181.125L292 165.751L270.84 181.125L278.922 156.249L257.762 140.875H283.917L292 116Z" fill="#FFC628"/>
<path d="M144.307 114.985C143.869 112.596 143.64 110.135 143.64 107.621C143.64 85.1865 161.868 67 184.353 67C194.715 67 204.173 70.862 211.359 77.2219C215.642 75.6941 220.257 74.8621 225.067 74.8621C232.682 74.8621 239.809 76.9482 245.905 80.5791C253.361 72.2462 264.21 67 276.287 67C298.772 67 317 85.1865 317 107.621C317 122.039 309.471 134.702 298.122 141.911C298.445 143.974 298.613 146.088 298.613 148.241C298.613 170.676 280.385 188.862 257.9 188.862C253.305 188.862 248.887 188.102 244.767 186.702V219H175.16V190.162C170.67 191.862 165.801 192.793 160.713 192.793C138.228 192.793 120 174.607 120 152.172C120 135.562 129.993 121.28 144.307 114.985Z" fill="#4C4C4C"/>
<path d="M266 152L274.083 176.875H300.238L279.078 192.249L287.16 217.125L266 201.751L244.84 217.125L252.922 192.249L231.762 176.875H257.917L266 152Z" fill="#0083D7"/>
<path d="M313 91L317.715 105.511H332.972L320.629 114.479L325.343 128.989L313 120.021L300.657 128.989L305.371 114.479L293.028 105.511H308.285L313 91Z" fill="#FFC628"/>
<path d="M163 27L168.164 42.8926H184.874L171.355 52.7148L176.519 68.6074L163 58.7852L149.481 68.6074L154.645 52.7148L141.126 42.8926H157.836L163 27Z" fill="#901065"/>
<path d="M183.5 143L186.082 150.946H194.437L187.678 155.857L190.26 163.804L183.5 158.893L176.74 163.804L179.322 155.857L172.563 150.946H180.918L183.5 143Z" fill="#901065"/>
<path d="M311 45L316.164 60.8926H332.874L319.355 70.7148L324.519 86.6074L311 76.7852L297.481 86.6074L302.645 70.7148L289.126 60.8926H305.836L311 45Z" fill="#901065"/>
<path d="M225.5 462.5C296.192 462.5 353.5 405.192 353.5 334.5C353.5 263.808 296.192 206.5 225.5 206.5C154.808 206.5 97.5 263.808 97.5 334.5C97.5 405.192 154.808 462.5 225.5 462.5Z" fill="#FFC628"/>
<path d="M335.882 313.242L356.987 344.598C365.156 356.73 382.073 359.012 393.167 349.493L446.058 304.066C459.083 292.884 453.594 271.615 436.789 268.123L370.086 254.258C353.938 250.901 338.056 261.008 334.268 277.058L331.455 288.953C329.48 297.308 331.084 306.125 335.876 313.25L335.882 313.242Z" fill="black"/>
<path d="M167.4 308.8C182.809 308.8 195.3 296.309 195.3 280.9C195.3 265.491 182.809 253 167.4 253C151.991 253 139.5 265.491 139.5 280.9C139.5 296.309 151.991 308.8 167.4 308.8Z" fill="white"/>
<path d="M166.68 295.86C174.788 295.86 181.36 289.288 181.36 281.18C181.36 273.072 174.788 266.5 166.68 266.5C158.572 266.5 152 273.072 152 281.18C152 289.288 158.572 295.86 166.68 295.86Z" fill="black" stroke="white" stroke-miterlimit="10"/>
<path d="M251.1 290.3C266.509 290.3 279 277.809 279 262.4C279 246.991 266.509 234.5 251.1 234.5C235.691 234.5 223.2 246.991 223.2 262.4C223.2 277.809 235.691 290.3 251.1 290.3Z" fill="white"/>
<path d="M249.68 277.36C257.788 277.36 264.36 270.788 264.36 262.68C264.36 254.572 257.788 248 249.68 248C241.572 248 235 254.572 235 262.68C235 270.788 241.572 277.36 249.68 277.36Z" fill="black" stroke="white" stroke-miterlimit="10"/>
</svg>
