<svg width="524" height="556" viewBox="0 0 524 556" fill="none" xmlns="http://www.w3.org/2000/svg">
<g clip-path="url(#clip0_60_211)">
<path d="M382.788 251.274C382.843 261.335 427.526 254.38 436.464 252.094C445.403 249.807 452.509 242.161 453.701 228.924C454.894 215.687 425.518 213.246 425.518 213.246C425.518 213.246 464.819 203.637 451.731 182.685C438.643 161.733 325.946 165.924 325.946 165.924C325.946 165.924 382.738 241.206 382.794 251.266L382.788 251.274Z" fill="#00316A"/>
<path d="M408.09 244.79C413.15 269.75 412.82 288.39 407 311C390 377 441.13 415.51 365 460C311.68 491.16 240.11 417.13 212.76 400.66C178.24 379.87 151.6 343.51 142.5 298.66C126.2 218.28 172.44 141.06 245.78 126.19C319.12 111.31 391.79 164.41 408.09 244.79Z" fill="#0083D7"/>
<path d="M195.4 249.3C210.809 249.3 223.3 236.809 223.3 221.4C223.3 205.991 210.809 193.5 195.4 193.5C179.991 193.5 167.5 205.991 167.5 221.4C167.5 236.809 179.991 249.3 195.4 249.3Z" fill="white"/>
<path d="M279.1 249.3C294.509 249.3 307 236.809 307 221.4C307 205.991 294.509 193.5 279.1 193.5C263.691 193.5 251.2 205.991 251.2 221.4C251.2 236.809 263.691 249.3 279.1 249.3Z" fill="white"/>
<path d="M194.395 212.001C199.834 211.931 204.595 214.736 209.121 218.878C211.362 220.929 211.196 224.445 208.966 226.507C206.736 228.57 203.301 228.377 201.008 226.385C197.835 223.629 195.88 222.983 194.536 223C193.116 223.019 191.12 223.773 187.908 226.517C185.599 228.49 182.156 228.612 179.966 226.507C177.775 224.403 177.676 220.885 179.942 218.862C184.391 214.889 189.077 212.07 194.395 212.001Z" fill="black"/>
<path d="M278.395 212.001C283.834 211.931 288.595 214.736 293.121 218.878C295.362 220.929 295.196 224.445 292.966 226.507C290.736 228.57 287.301 228.377 285.008 226.385C281.835 223.629 279.88 222.983 278.536 223C277.116 223.019 275.12 223.773 271.908 226.517C269.599 228.49 266.156 228.612 263.966 226.507C261.775 224.403 261.676 220.885 263.942 218.862C268.391 214.889 273.077 212.07 278.395 212.001Z" fill="black"/>
<path d="M83.1373 271.563C90.9312 265.456 100.307 261.701 110.162 260.739C120.017 259.777 129.943 261.649 138.771 266.135C145.509 269.56 151.395 274.399 156.042 280.291C158.436 283.326 157.295 287.655 153.966 289.62L152.243 290.637C148.914 292.602 144.667 291.436 142.095 288.549C139.123 285.212 135.542 282.442 131.522 280.399C125.411 277.293 118.538 275.997 111.715 276.663C104.893 277.328 98.4014 279.928 93.0058 284.157C87.6102 288.385 83.5343 294.067 81.2569 300.533C78.9795 306.999 78.5961 313.981 80.1509 320.658C81.7057 327.334 85.1341 333.428 90.0337 338.223C94.9334 343.018 101.1 346.313 107.809 347.723C114.438 349.116 121.323 348.609 127.675 346.265L212.996 307.192C216.511 305.582 220.665 307.127 222.275 310.642L223.107 312.461C224.717 315.976 223.173 320.13 219.658 321.739L134.057 360.941L133.805 361.056L133.546 361.153C124.28 364.644 114.209 365.417 104.519 363.381C94.8285 361.345 85.9209 356.584 78.8435 349.658C71.7662 342.733 66.8133 333.93 64.5674 324.286C62.3216 314.642 62.876 304.557 66.1655 295.217C69.4552 285.878 75.3435 277.671 83.1373 271.563Z" fill="#BFE6FF"/>
<path d="M210.501 301.227C206.416 305.841 209.088 312.978 214.881 314.02C211.52 318.913 214.782 325.871 220.973 326.141L220.977 326.152L246.326 327.277C252.034 327.531 256.054 321.739 253.824 316.48L248.824 304.48C248.73 304.132 248.97 304.824 248.824 304.48L240.304 284.358C238.074 279.098 231.121 277.956 227.332 282.23L210.501 301.227Z" fill="#00316A"/>
<path d="M345.269 17.4269C347.707 14.584 352.365 16.35 352.305 20.0944L350.158 154.773C350.123 156.937 348.373 158.684 346.209 158.683C307.715 158.66 287.431 150.497 258.038 125.22C256.379 123.793 256.205 121.292 257.63 119.63L345.269 17.4269Z" fill="#FFC628"/>
<path d="M345.269 17.4269C347.707 14.584 352.365 16.35 352.305 20.0944L350.158 154.773C350.123 156.937 348.373 158.684 346.209 158.683C307.715 158.66 287.431 150.497 258.038 125.22C256.379 123.793 256.205 121.292 257.63 119.63L345.269 17.4269Z" fill="#FFC628"/>
<path fill-rule="evenodd" clip-rule="evenodd" d="M347.726 60.3497C349.911 60.3497 351.691 58.5974 351.726 56.4134L352.305 20.0944C352.365 16.35 347.707 14.584 345.269 17.4269L314.125 53.7459C311.901 56.3404 313.744 60.3497 317.162 60.3497L347.726 60.3497ZM350.812 113.758C350.847 111.525 349.046 109.695 346.812 109.695L267.989 109.695C266.821 109.695 265.712 110.205 264.952 111.091L257.63 119.63C256.205 121.292 256.379 123.793 258.038 125.22C287.431 150.497 307.715 158.66 346.209 158.683C348.373 158.684 350.123 156.937 350.158 154.773L350.812 113.758Z" fill="#FFA9E2"/>
<path fill-rule="evenodd" clip-rule="evenodd" d="M347.726 60.3497C349.911 60.3497 351.691 58.5974 351.726 56.4134L352.305 20.0944C352.365 16.35 347.707 14.584 345.269 17.4269L314.125 53.7459C311.901 56.3404 313.744 60.3497 317.162 60.3497L347.726 60.3497ZM350.812 113.758C350.847 111.525 349.046 109.695 346.812 109.695L267.989 109.695C266.821 109.695 265.712 110.205 264.952 111.091L257.63 119.63C256.205 121.292 256.379 123.793 258.038 125.22C287.431 150.497 307.715 158.66 346.209 158.683C348.373 158.684 350.123 156.937 350.158 154.773L350.812 113.758Z" fill="#FFA9E2"/>
<rect x="125" y="122" width="28" height="20" rx="10" fill="#B6D95F"/>
<rect x="228.876" y="167.34" width="28" height="20" rx="10" transform="rotate(-30 228.876 167.34)" fill="#DD70B8"/>
<rect x="365.89" y="249.554" width="28" height="20" rx="10" transform="rotate(25.8684 365.89 249.554)" fill="#BFE6FF"/>
<rect x="118.39" y="197.911" width="28" height="20" rx="10" transform="rotate(52.5633 118.39 197.911)" fill="#901065"/>
</g>
<defs>
<clipPath id="clip0_60_211">
<rect width="565" height="556" fill="white"/>
</clipPath>
</defs>
</svg>
