<svg width="500" height="500" viewBox="0 0 500 500" fill="none" xmlns="http://www.w3.org/2000/svg">
<path d="M385.122 165.031C388.059 180.8 394.923 195.567 404.662 208.322C411.889 217.793 418.178 228.205 423.329 239.495C423.829 240.589 424.316 241.688 424.793 242.784C445.727 291.354 424.565 348.128 376.946 371.146C375.868 371.662 374.781 372.175 373.687 372.674C361.326 378.323 348.631 382.288 335.853 384.676C320.084 387.613 305.316 394.477 292.562 404.216C283.091 411.443 272.678 417.732 261.388 422.883C259.382 423.8 257.357 424.679 255.319 425.509C206.468 445.506 150.249 423.227 128.06 375.331C127.943 375.074 127.822 374.826 127.704 374.568C122.056 362.207 118.09 349.512 115.703 336.734C112.765 320.965 105.901 306.197 96.1626 293.443C88.9353 283.972 82.646 273.559 77.4949 262.269C76.4311 259.941 75.4246 257.602 74.4789 255.243C54.7894 206.283 76.9146 150.476 124.671 128.033C125.215 127.776 125.759 127.52 126.308 127.277C138.67 121.629 151.364 117.663 164.143 115.276C179.912 112.338 194.679 105.474 207.434 95.7353C216.905 88.508 227.317 82.2187 238.607 77.0677C240.588 76.1625 242.561 75.3077 244.555 74.4822C292.13 54.9593 347.105 75.4511 370.294 121.351C371.264 123.271 372.202 125.221 373.098 127.199C378.746 139.56 382.712 152.255 385.099 165.033L385.122 165.031Z" fill="#901065"/>
<path d="M287.705 370.266C353.065 348.914 388.741 278.62 367.39 213.26C346.038 147.899 275.744 112.223 210.384 133.575C145.024 154.926 109.347 225.22 130.699 290.581C152.051 355.941 222.344 391.617 287.705 370.266Z" fill="#FFA700"/>
<path d="M182.9 224.8C198.309 224.8 210.8 212.309 210.8 196.9C210.8 181.491 198.309 169 182.9 169C167.491 169 155 181.491 155 196.9C155 212.309 167.491 224.8 182.9 224.8Z" fill="white"/>
<path d="M266.6 224.8C282.009 224.8 294.5 212.309 294.5 196.9C294.5 181.491 282.009 169 266.6 169C251.191 169 238.7 181.491 238.7 196.9C238.7 212.309 251.191 224.8 266.6 224.8Z" fill="white"/>
<path d="M181.895 187.501C187.334 187.431 192.095 190.236 196.621 194.378C198.862 196.429 198.696 199.945 196.466 202.007C194.236 204.07 190.801 203.877 188.508 201.885C185.335 199.129 183.38 198.483 182.036 198.5C180.616 198.519 178.62 199.273 175.408 202.017C173.099 203.99 169.656 204.112 167.466 202.007C165.275 199.903 165.176 196.385 167.442 194.362C171.891 190.389 176.577 187.57 181.895 187.501Z" fill="black"/>
<path d="M265.895 187.501C271.334 187.431 276.095 190.236 280.621 194.378C282.862 196.429 282.696 199.945 280.466 202.007C278.236 204.07 274.801 203.877 272.508 201.885C269.335 199.129 267.38 198.483 266.036 198.5C264.616 198.519 262.62 199.273 259.408 202.017C257.099 203.99 253.656 204.112 251.466 202.007C249.275 199.903 249.176 196.385 251.442 194.362C255.891 190.389 260.577 187.57 265.895 187.501Z" fill="black"/>
<circle cx="152" cy="255" r="30" fill="#FFA9E2"/>
<circle cx="297" cy="255" r="30" fill="#FFA9E2"/>
</svg>
