<svg width="500" height="500" viewBox="0 0 500 500" fill="none" xmlns="http://www.w3.org/2000/svg">
<path d="M275.53 107.9C281.86 115.72 312.4 82.37 317.95 75C323.5 67.63 324.27 57.22 316.93 46.14C309.59 35.06 285.13 51.51 285.13 51.51C285.13 51.51 309.81 19.45 286.5 11.27C263.19 3.09001 177.82 76.78 177.82 76.78C177.82 76.78 269.2 100.07 275.53 107.89V107.9Z" fill="#00316A"/>
<path d="M343.09 188.79C348.15 213.75 347.82 232.39 342 255C325 321 376.13 359.51 300 404C246.68 435.16 175.11 361.13 147.76 344.66C113.24 323.87 86.5998 287.51 77.4998 242.66C61.1998 162.28 107.44 85.06 180.78 70.19C254.12 55.31 326.79 108.41 343.09 188.79Z" fill="#0083D7"/>
<path d="M130.4 193.3C145.809 193.3 158.3 180.809 158.3 165.4C158.3 149.991 145.809 137.5 130.4 137.5C114.991 137.5 102.5 149.991 102.5 165.4C102.5 180.809 114.991 193.3 130.4 193.3Z" fill="white"/>
<path d="M120.59 180.08C128.698 180.08 135.27 173.508 135.27 165.4C135.27 157.292 128.698 150.72 120.59 150.72C112.483 150.72 105.91 157.292 105.91 165.4C105.91 173.508 112.483 180.08 120.59 180.08Z" fill="black" stroke="white" stroke-miterlimit="10"/>
<path d="M214.1 193.3C229.509 193.3 242 180.809 242 165.4C242 149.991 229.509 137.5 214.1 137.5C198.691 137.5 186.2 149.991 186.2 165.4C186.2 180.809 198.691 193.3 214.1 193.3Z" fill="white"/>
<path d="M205.29 180.08C213.397 180.08 219.97 173.508 219.97 165.4C219.97 157.292 213.397 150.72 205.29 150.72C197.182 150.72 190.61 157.292 190.61 165.4C190.61 173.508 197.182 180.08 205.29 180.08Z" fill="black" stroke="white" stroke-miterlimit="10"/>
<path d="M139.7 251.74L168.43 254.83C174.9 255.53 179.88 249.24 177.72 243.1L169.47 219.63C167.31 213.49 159.49 211.7 154.88 216.29L134.4 236.67C129.12 241.92 132.29 250.94 139.69 251.74H139.7Z" fill="#00316A"/>
</svg>
