<svg width="500" height="500" viewBox="0 0 500 500" fill="none" xmlns="http://www.w3.org/2000/svg">
<path d="M295 135.5C299.5 144.5 336.5 118.5 343.5 112.5C350.5 106.5 353.5 96.5 348.71 84.1C343.92 71.7 316.5 82.5 316.5 82.5C316.5 82.5 347.5 56.5 326.5 43.5C305.5 30.5 206.27 84.1 206.27 84.1C206.27 84.1 290.5 126.5 295 135.5Z" fill="#00316A"/>
<path d="M333.09 198.79C338.15 223.75 337.82 242.39 332 265C315 331 366.13 369.51 290 414C236.68 445.16 165.11 371.13 137.76 354.66C103.24 333.87 76.6001 297.51 67.5001 252.66C51.2001 172.28 97.4401 95.06 170.78 80.19C244.12 65.31 316.79 118.41 333.09 198.79Z" fill="#0083D7"/>
<path d="M130.4 193.3C145.809 193.3 158.3 180.809 158.3 165.4C158.3 149.991 145.809 137.5 130.4 137.5C114.991 137.5 102.5 149.991 102.5 165.4C102.5 180.809 114.991 193.3 130.4 193.3Z" fill="white"/>
<path d="M135.59 170.08C143.697 170.08 150.27 163.508 150.27 155.4C150.27 147.292 143.697 140.72 135.59 140.72C127.482 140.72 120.91 147.292 120.91 155.4C120.91 163.508 127.482 170.08 135.59 170.08Z" fill="black" stroke="white" stroke-miterlimit="10"/>
<path d="M214.1 193.3C229.509 193.3 242 180.809 242 165.4C242 149.991 229.509 137.5 214.1 137.5C198.691 137.5 186.2 149.991 186.2 165.4C186.2 180.809 198.691 193.3 214.1 193.3Z" fill="white"/>
<path d="M220.29 170.08C228.398 170.08 234.97 163.508 234.97 155.4C234.97 147.292 228.398 140.72 220.29 140.72C212.183 140.72 205.61 147.292 205.61 155.4C205.61 163.508 212.183 170.08 220.29 170.08Z" fill="black" stroke="white" stroke-miterlimit="10"/>
<path d="M148.38 257.82L175.16 246.98C181.19 244.54 182.61 236.64 177.81 232.25L159.46 215.45C154.66 211.06 146.92 213.17 145.02 219.39L136.59 247.03C134.42 254.15 141.47 260.61 148.37 257.81L148.38 257.82Z" fill="#00316A"/>
</svg>
