<svg width="500" height="614" viewBox="0 0 500 614" fill="none" xmlns="http://www.w3.org/2000/svg">
<path d="M313.78 240.8C313.177 250.844 358.22 246.827 367.282 245.131C376.344 243.435 383.942 236.275 385.994 223.141C388.046 210.008 358.9 205.651 358.9 205.651C358.9 205.651 398.746 198.634 387.06 176.876C375.373 155.117 262.638 151.921 262.638 151.921C262.638 151.921 314.383 230.756 313.78 240.8Z" fill="black"/>
<path d="M216.325 401.176C219.355 401.391 222.415 401.5 225.5 401.5C244.601 401.5 262.725 397.316 279.005 389.815C279.004 389.869 279.004 389.923 279.003 389.977L279.002 390.095L279.001 390.197C279 390.298 279 390.399 279 390.5C279 409.001 290.641 439.5 305 439.5C319.359 439.5 331 409.001 331 390.5C331 379.197 335.5 348.134 339 333C339.036 332.842 339.069 332.691 339.098 332.545C348.299 314.878 353.5 294.797 353.5 273.5C353.5 202.808 296.192 145.5 225.5 145.5C154.808 145.5 97.5 202.808 97.5 273.5C97.5 277.525 97.6858 281.507 98.0492 285.437C98.1649 317.537 100.338 361.37 101.718 389.207C102.369 402.322 102.843 411.886 102.843 415C102.843 438.748 118.289 458 137.343 458C151.896 458 164.344 446.769 169.413 430.881C173.456 437.617 178.513 442.243 184 442.243C194.991 442.243 211.131 433.305 216.325 401.176Z" fill="#FFC628"/>
<path d="M167.4 229.3C182.809 229.3 195.3 216.809 195.3 201.4C195.3 185.991 182.809 173.5 167.4 173.5C151.991 173.5 139.5 185.991 139.5 201.4C139.5 216.809 151.991 229.3 167.4 229.3Z" fill="white"/>
<path d="M166.68 216.36C174.788 216.36 181.36 209.788 181.36 201.68C181.36 193.572 174.788 187 166.68 187C158.572 187 152 193.572 152 201.68C152 209.788 158.572 216.36 166.68 216.36Z" fill="black" stroke="white" stroke-miterlimit="10"/>
<path d="M251.1 229.3C266.509 229.3 279 216.809 279 201.4C279 185.991 266.509 173.5 251.1 173.5C235.691 173.5 223.2 185.991 223.2 201.4C223.2 216.809 235.691 229.3 251.1 229.3Z" fill="white"/>
<path d="M250.68 216.36C258.788 216.36 265.36 209.788 265.36 201.68C265.36 193.572 258.788 187 250.68 187C242.572 187 236 193.572 236 201.68C236 209.788 242.572 216.36 250.68 216.36Z" fill="black" stroke="white" stroke-miterlimit="10"/>
<path fill-rule="evenodd" clip-rule="evenodd" d="M279.002 390.102C279.002 390.131 279.001 390.16 279.001 390.189C279 390.29 279 390.399 279 390.5" fill="#FFC628"/>
<ellipse cx="225" cy="510" rx="110" ry="41" fill="#FFC628"/>
<path d="M332.959 276.61L303.047 299.716C291.474 308.659 290.3 325.688 300.523 336.138L349.304 385.953C361.312 398.22 382.178 391.355 384.566 374.357L394.049 306.892C396.346 290.559 385.224 275.371 368.961 272.638L356.907 270.608C348.441 269.181 339.748 271.358 332.951 276.604L332.959 276.61Z" fill="black"/>
</svg>
