<svg width="500" height="500" viewBox="0 0 500 500" fill="none" xmlns="http://www.w3.org/2000/svg">
<path d="M275.36 153.02C275.5 163.08 320.12 155.73 329.04 153.37C337.95 151.01 345 143.3 346.07 130.05C347.15 116.8 317.75 114.62 317.75 114.62C317.75 114.62 356.97 104.67 343.7 83.83C330.43 63 217.77 68.17 217.77 68.17C217.77 68.17 275.22 142.95 275.37 153.01L275.36 153.02Z" fill="#00316A"/>
<path d="M339.09 188.79C344.15 213.75 343.82 232.39 338 255C321 321 372.13 359.51 296 404C242.68 435.16 171.11 361.13 143.76 344.66C109.24 323.87 82.5998 287.51 73.4998 242.66C57.1998 162.28 103.44 85.06 176.78 70.19C250.12 55.31 322.79 108.41 339.09 188.79Z" fill="#0083D7"/>
<rect x="171.784" y="225.081" width="17" height="20" rx="4" transform="rotate(-3.13145 171.784 225.081)" fill="white"/>
<path d="M154.784 230.678L200.386 227.898C206.396 227.527 210.287 221.396 208.073 215.8L197.552 189.317C195.328 183.724 188.285 181.931 183.663 185.789L148.583 215.052C142.025 220.526 146.262 231.197 154.793 230.676L154.784 230.678Z" fill="#00316A"/>
<path d="M173 165.5C173 185.11 157.11 201 137.5 201C117.89 201 104.5 195 102 165.5C99.5002 136 116.053 138.964 137.5 139C157.11 139 173 145.89 173 165.5Z" stroke="black" stroke-width="10" stroke-miterlimit="10"/>
<path d="M211 165.598C211 185.208 226.89 201.098 246.5 201.098C266.11 201.098 279.5 195.098 282 165.598C284.5 136.098 267.947 139.063 246.5 139.098C226.89 139.098 211 145.988 211 165.598Z" stroke="black" stroke-width="10" stroke-miterlimit="10"/>
<path d="M173 165C185.003 155.75 196.997 155.667 209 164.754" stroke="black" stroke-width="10" stroke-miterlimit="10"/>
<path d="M139.5 191C151.926 191 162 180.926 162 168.5C162 156.074 151.926 146 139.5 146C127.074 146 117 156.074 117 168.5C117 180.926 127.074 191 139.5 191Z" fill="white"/>
<path d="M247.5 191C259.926 191 270 180.926 270 168.5C270 156.074 259.926 146 247.5 146C235.074 146 225 156.074 225 168.5C225 180.926 235.074 191 247.5 191Z" fill="white"/>
<path d="M139 186C148.389 186 156 178.389 156 169C156 159.611 148.389 152 139 152C129.611 152 122 159.611 122 169C122 178.389 129.611 186 139 186Z" fill="black" stroke="white" stroke-miterlimit="10"/>
<path d="M247 186C256.389 186 264 178.389 264 169C264 159.611 256.389 152 247 152C237.611 152 230 159.611 230 169C230 178.389 237.611 186 247 186Z" fill="black" stroke="white" stroke-miterlimit="10"/>
</svg>
