<svg width="500" height="466" viewBox="0 0 500 466" fill="none" xmlns="http://www.w3.org/2000/svg">
<path d="M277.27 142.09C279.44 151.92 321.66 135.73 329.92 131.61C338.18 127.49 343.52 118.53 341.9 105.33C340.28 92.13 311.05 95.93 311.05 95.93C311.05 95.93 347.46 78.28 330.26 60.55C313.06 42.82 203.76 70.59 203.76 70.59C203.76 70.59 275.1 132.26 277.27 142.08V142.09Z" fill="black"/>
<path d="M214.5 327.5C285.192 327.5 342.5 270.192 342.5 199.5C342.5 128.808 285.192 71.5 214.5 71.5C143.808 71.5 86.5 128.808 86.5 199.5C86.5 270.192 143.808 327.5 214.5 327.5Z" fill="#FFC628"/>
<path d="M327.16 190.29L340.28 225.74C345.36 239.45 361.26 245.67 374.29 239.02L436.4 207.34C451.69 199.54 451.38 177.58 435.87 170.22L374.31 141.02C359.41 133.95 341.59 140.03 334.12 154.74L328.58 165.63C324.69 173.29 324.17 182.23 327.15 190.28L327.16 190.29Z" fill="black"/>
<path d="M191.72 141.96H181.49C181.49 131.11 172.66 122.28 161.81 122.28C150.96 122.28 142.13 131.11 142.13 141.96H131.9C131.9 125.46 145.32 112.05 161.81 112.05C178.3 112.05 191.72 125.47 191.72 141.96Z" fill="black"/>
<path d="M274 141.96H263.77C263.77 131.11 254.94 122.28 244.09 122.28C233.24 122.28 224.41 131.11 224.41 141.96H214.18C214.18 125.46 227.6 112.05 244.09 112.05C260.58 112.05 274 125.47 274 141.96Z" fill="black"/>
<path d="M225.5 413C287.08 413 337 405.389 337 396C337 386.611 287.08 379 225.5 379C163.92 379 114 386.611 114 396C114 405.389 163.92 413 225.5 413Z" fill="#ADADAD"/>
</svg>
