<svg width="500" height="500" viewBox="0 0 500 500" fill="none" xmlns="http://www.w3.org/2000/svg">
<path d="M153.06 123.22C144.8 136.97 133.21 148.41 119.63 156.96C109.55 163.31 100.02 170.87 91.25 179.65C90.4 180.5 89.56 181.36 88.73 182.22C52.15 220.42 52.15 281.01 88.73 319.21C89.56 320.07 90.4 320.93 91.25 321.78C100.86 331.39 111.37 339.54 122.51 346.24C136.26 354.5 147.7 366.09 156.25 379.67C162.6 389.75 170.16 399.28 178.94 408.05C180.5 409.61 182.09 411.14 183.71 412.63C222.5 448.43 282.96 447.19 320.48 410.06C320.68 409.86 320.88 409.67 321.08 409.47C330.69 399.86 338.84 389.35 345.54 378.21C353.8 364.46 365.39 353.02 378.97 344.47C389.05 338.12 398.58 330.56 407.35 321.78C409.16 319.97 410.92 318.13 412.63 316.25C448.18 277.25 446.94 217.23 410.03 179.52C409.61 179.09 409.19 178.66 408.76 178.24C399.15 168.63 388.64 160.48 377.5 153.78C363.75 145.52 352.31 133.93 343.76 120.35C337.41 110.27 329.85 100.74 321.07 91.9701C319.53 90.4301 317.98 88.9401 316.4 87.4701C278.64 52.5601 219.97 52.5601 182.21 87.4701C180.63 88.9301 179.07 90.4301 177.54 91.9701C167.93 101.58 159.78 112.09 153.08 123.23L153.06 123.22Z" fill="#901065"/>
<path d="M251.5 376C182.741 376 127 320.259 127 251.5C127 182.741 182.741 127 251.5 127C320.259 127 376 182.741 376 251.5C376 320.259 320.259 376 251.5 376Z" fill="#FFA700"/>
<path d="M314 245C299.641 245 288 233.807 288 220C288 206.193 299.641 195 314 195C328.359 195 340 206.193 340 220C340 233.807 328.359 245 314 245Z" fill="black"/>
<path d="M203 245C188.641 245 177 233.807 177 220C177 206.193 188.641 195 203 195C217.359 195 229 206.193 229 220C229 233.807 217.359 245 203 245Z" fill="black"/>
<path d="M232.6 177.579C234.396 174.958 233.637 171.346 230.834 169.852C223.855 166.132 217.257 163.829 209.983 162.659C202.661 161.481 194.888 161.493 185.732 162.109C182.552 162.323 180.257 165.217 180.705 168.373C181.12 171.291 183.742 173.367 186.683 173.165C195.597 172.553 202.352 172.579 208.401 173.552C213.995 174.452 219.197 176.2 225.056 179.306C227.662 180.688 230.932 180.012 232.6 177.579Z" fill="black"/>
<path d="M331.134 131.177C331.439 128.155 329.235 125.431 326.199 125.321C318.94 125.059 312.597 125.889 306.2 128.017C299.748 130.163 293.448 133.566 286.294 138.109C283.73 139.737 283.045 143.16 284.724 145.691C286.404 148.222 289.813 148.901 292.379 147.276C299.107 143.015 304.466 140.186 309.672 138.454C314.442 136.868 319.26 136.148 325.094 136.292C328.131 136.368 330.829 134.199 331.134 131.177Z" fill="black"/>
<path d="M264.5 210C264.5 182.619 286.504 160.5 313.553 160.5C340.602 160.5 362.606 182.62 362.606 210C362.606 237.38 340.602 259.5 313.553 259.5C286.504 259.5 264.5 237.381 264.5 210ZM253.5 210C253.5 243.371 280.344 270.5 313.553 270.5C346.761 270.5 373.606 243.371 373.606 210C373.606 176.629 346.761 149.5 313.553 149.5C280.344 149.5 253.5 176.629 253.5 210Z" fill="black"/>
<path d="M362.195 419.754L362.198 419.985C362.292 422.364 364.237 424.276 366.645 424.303C369.052 424.33 371.039 422.461 371.186 420.085L371.194 419.854L373.5 212.359C373.527 209.873 371.535 207.836 369.05 207.809C366.565 207.781 364.528 209.773 364.5 212.259L362.195 419.754Z" fill="black"/>
<path d="M283.667 177.422C289.944 171.38 298.443 166.195 307.326 166.514L307.75 166.533L307.98 166.552C310.348 166.804 312.127 168.872 311.993 171.275C311.86 173.679 309.862 175.538 307.481 175.526L307.25 175.52L306.745 175.502C301.492 175.427 295.38 178.638 289.908 183.905C284.305 189.298 280.399 195.874 279.397 200.482C278.869 202.911 276.472 204.452 274.044 203.924C271.615 203.396 270.075 200.999 270.603 198.57C272.101 191.679 277.245 183.604 283.667 177.422Z" fill="white"/>
</svg>
