<svg width="500" height="500" viewBox="0 0 500 500" fill="none" xmlns="http://www.w3.org/2000/svg">
<path d="M325 199.5C329.5 208.5 366.5 182.5 373.5 176.5C380.5 170.5 383.5 160.5 378.71 148.1C373.92 135.7 346.5 146.5 346.5 146.5C346.5 146.5 377.5 120.5 356.5 107.5C335.5 94.5 236.27 148.1 236.27 148.1C236.27 148.1 320.5 190.5 325 199.5Z" fill="#DD70B8"/>
<path d="M225.5 401.5C296.192 401.5 353.5 344.192 353.5 273.5C353.5 202.808 296.192 145.5 225.5 145.5C154.808 145.5 97.5 202.808 97.5 273.5C97.5 344.192 154.808 401.5 225.5 401.5Z" fill="#BFE6FF"/>
<path d="M302.55 253.13L290.94 289.1C286.45 303.02 295.11 317.73 309.45 320.57L377.85 334.08C394.69 337.41 408.02 319.95 400.38 304.58L370.06 243.57C362.72 228.8 344.96 222.56 330 229.5L318.91 234.64C311.12 238.25 305.18 244.96 302.54 253.13H302.55Z" fill="#DD70B8"/>
<path d="M167.4 229.3C182.809 229.3 195.3 216.809 195.3 201.4C195.3 185.991 182.809 173.5 167.4 173.5C151.991 173.5 139.5 185.991 139.5 201.4C139.5 216.809 151.991 229.3 167.4 229.3Z" fill="white"/>
<path d="M166.68 216.36C174.788 216.36 181.36 209.788 181.36 201.68C181.36 193.572 174.788 187 166.68 187C158.572 187 152 193.572 152 201.68C152 209.788 158.572 216.36 166.68 216.36Z" fill="black" stroke="white" stroke-miterlimit="10"/>
<path d="M251.1 229.3C266.509 229.3 279 216.809 279 201.4C279 185.991 266.509 173.5 251.1 173.5C235.691 173.5 223.2 185.991 223.2 201.4C223.2 216.809 235.691 229.3 251.1 229.3Z" fill="white"/>
<path d="M250.68 216.36C258.788 216.36 265.36 209.788 265.36 201.68C265.36 193.572 258.788 187 250.68 187C242.572 187 236 193.572 236 201.68C236 209.788 242.572 216.36 250.68 216.36Z" fill="black" stroke="white" stroke-miterlimit="10"/>
<circle cx="212" cy="258" r="31" fill="#901065"/>
<circle cx="151.5" cy="256.5" r="17.5" fill="#0083D7"/>
<circle cx="272.5" cy="253.5" r="17.5" fill="#0083D7"/>
<path d="M234.5 473C296.08 473 346 465.389 346 456C346 446.611 296.08 439 234.5 439C172.92 439 123 446.611 123 456C123 465.389 172.92 473 234.5 473Z" fill="#ADADAD"/>
</svg>
