<svg width="500" height="500" viewBox="0 0 500 500" fill="none" xmlns="http://www.w3.org/2000/svg">
<path d="M269.641 162.279C274.281 171.212 310.872 144.647 317.784 138.529C324.696 132.412 327.535 122.375 322.554 110.044C317.573 97.713 290.322 108.949 290.322 108.949C290.322 108.949 320.924 82.4766 299.721 69.8024C278.518 57.1282 180.13 112.241 180.13 112.241C180.13 112.241 265 153.345 269.638 162.269L269.641 162.279Z" fill="black"/>
<path d="M214.5 361.5C285.192 361.5 342.5 304.192 342.5 233.5C342.5 162.808 285.192 105.5 214.5 105.5C143.808 105.5 86.5 162.808 86.5 233.5C86.5 304.192 143.808 361.5 214.5 361.5Z" fill="#FFC628"/>
<path d="M337.63 229.173L324.182 264.499C318.985 278.165 326.864 293.312 341.051 296.879L408.665 313.896C425.311 318.085 439.529 301.346 432.693 285.597L405.555 223.101C398.988 207.972 381.569 200.824 366.265 206.985L354.927 211.539C346.957 214.747 340.683 221.136 337.629 229.159L337.63 229.173Z" fill="black"/>
<path d="M225.5 447C287.08 447 337 439.389 337 430C337 420.611 287.08 413 225.5 413C163.92 413 114 420.611 114 430C114 439.389 163.92 447 225.5 447Z" fill="#ADADAD"/>
<path d="M149.12 195.638C145.66 197.379 141.443 195.98 139.711 192.514L138.4 189.89C136.675 186.439 138.068 182.243 141.514 180.509L152.866 174.794C156.603 172.913 157.866 168.197 155.571 164.7L148.597 154.075C146.48 150.85 147.372 146.52 150.591 144.393L153.038 142.777C156.27 140.641 160.623 141.538 162.748 144.776L180.148 171.286C182.443 174.783 181.18 179.499 177.444 181.379L149.12 195.638Z" fill="black"/>
<path d="M244.731 144.776C246.857 141.538 251.209 140.641 254.442 142.777L256.889 144.393C260.108 146.52 261 150.85 258.883 154.075L251.909 164.701C249.613 168.197 250.877 172.913 254.613 174.794L265.966 180.509C269.412 182.244 270.804 186.439 269.08 189.89L267.769 192.514C266.037 195.98 261.82 197.38 258.359 195.638L230.036 181.379C226.3 179.499 225.036 174.783 227.331 171.286L244.731 144.776Z" fill="black"/>
</svg>
