<svg width="500" height="500" viewBox="0 0 500 500" fill="none" xmlns="http://www.w3.org/2000/svg">
<path d="M302.784 99.4135C314.905 109.919 329.475 117.194 345.039 121.105C356.592 124.011 367.999 128.238 379.061 133.86C380.133 134.404 381.199 134.961 382.255 135.521C428.889 160.473 447.703 218.068 424.794 265.739C424.272 266.814 423.74 267.892 423.196 268.964C417.046 281.083 409.586 292.094 401.077 301.922C390.572 314.043 383.296 328.613 379.386 344.177C376.48 355.73 372.253 367.137 366.63 378.199C365.632 380.167 364.596 382.115 363.518 384.034C337.763 430.11 279.907 447.705 232.712 424.062C232.459 423.934 232.21 423.815 231.958 423.687C219.839 417.537 208.828 410.077 199 401.568C186.879 391.063 172.309 383.787 156.746 379.877C145.192 376.971 133.786 372.744 122.723 367.121C120.44 365.963 118.196 364.76 115.987 363.504C70.0836 337.471 52.6245 280.033 76 232.726C76.2657 232.187 76.5314 231.648 76.8097 231.115C82.9605 218.996 90.4201 207.985 98.9289 198.157C109.434 186.036 116.71 171.466 120.62 155.903C123.526 144.349 127.753 132.943 133.376 121.88C134.361 119.938 135.372 118.04 136.417 116.152C161.47 71.2424 217.24 53.0239 263.974 74.4827C265.929 75.3798 267.878 76.3213 269.81 77.31C281.929 83.4608 292.94 90.9205 302.768 99.4292L302.784 99.4135Z" fill="#901065"/>
<path d="M287.705 370.266C353.065 348.914 388.741 278.62 367.39 213.26C346.038 147.899 275.744 112.223 210.384 133.575C145.024 154.926 109.347 225.22 130.699 290.581C152.051 355.941 222.344 391.617 287.705 370.266Z" fill="#FFA700"/>
<path d="M182.9 224.8C198.309 224.8 210.8 212.309 210.8 196.9C210.8 181.491 198.309 169 182.9 169C167.491 169 155 181.491 155 196.9C155 212.309 167.491 224.8 182.9 224.8Z" fill="white"/>
<path d="M266.6 224.8C282.009 224.8 294.5 212.309 294.5 196.9C294.5 181.491 282.009 169 266.6 169C251.191 169 238.7 181.491 238.7 196.9C238.7 212.309 251.191 224.8 266.6 224.8Z" fill="white"/>
<path d="M181.895 187.501C187.334 187.431 192.095 190.236 196.621 194.378C198.862 196.429 198.696 199.945 196.466 202.007C194.236 204.07 190.801 203.877 188.508 201.885C185.335 199.129 183.38 198.483 182.036 198.5C180.616 198.519 178.62 199.273 175.408 202.017C173.099 203.99 169.656 204.112 167.466 202.007C165.275 199.903 165.176 196.385 167.442 194.362C171.891 190.389 176.577 187.57 181.895 187.501Z" fill="black"/>
<path d="M265.895 187.501C271.334 187.431 276.095 190.236 280.621 194.378C282.862 196.429 282.696 199.945 280.466 202.007C278.236 204.07 274.801 203.877 272.508 201.885C269.335 199.129 267.38 198.483 266.036 198.5C264.616 198.519 262.62 199.273 259.408 202.017C257.099 203.99 253.656 204.112 251.466 202.007C249.275 199.903 249.176 196.385 251.442 194.362C255.891 190.389 260.577 187.57 265.895 187.501Z" fill="black"/>
</svg>
