<svg width="500" height="500" viewBox="0 0 500 500" fill="none" xmlns="http://www.w3.org/2000/svg">
<g clip-path="url(#clip0_60_3)">
<path d="M277.929 93.1573C286.449 98.5079 304.552 57.0692 307.419 48.2997C310.285 39.5302 307.645 29.4312 297.114 21.3228C286.583 13.2145 268.763 36.695 268.763 36.695C268.763 36.695 281.74 -1.6267 257.037 -1.82288C232.334 -2.01907 175.406 95.333 175.406 95.333C175.406 95.333 269.405 87.7971 277.925 93.1478L277.929 93.1573Z" fill="#00316A"/>
<path d="M343.09 188.79C348.15 213.75 347.82 232.39 342 255C325 321 376.13 359.51 300 404C246.68 435.16 175.11 361.13 147.76 344.66C113.24 323.87 86.5998 287.51 77.4998 242.66C61.1998 162.28 107.44 85.06 180.78 70.19C254.12 55.31 326.79 108.41 343.09 188.79Z" fill="#0083D7"/>
<path d="M130.4 193.3C145.809 193.3 158.3 180.809 158.3 165.4C158.3 149.991 145.809 137.5 130.4 137.5C114.991 137.5 102.5 149.991 102.5 165.4C102.5 180.809 114.991 193.3 130.4 193.3Z" fill="white"/>
<path d="M214.1 193.3C229.509 193.3 242 180.809 242 165.4C242 149.991 229.509 137.5 214.1 137.5C198.691 137.5 186.2 149.991 186.2 165.4C186.2 180.809 198.691 193.3 214.1 193.3Z" fill="white"/>
<path d="M139.545 215.374L158.725 236.987C163.041 241.857 170.957 240.553 173.489 234.556L183.173 211.64C185.705 205.644 181.122 199.059 174.624 199.355L145.761 200.658C138.322 200.991 134.6 209.798 139.538 215.367L139.545 215.374Z" fill="#00316A"/>
<path d="M146.899 165.887C148.734 167.951 148.548 171.111 146.484 172.946L145.737 173.61C143.673 175.445 140.513 175.259 138.678 173.195L133.847 167.761C131.858 165.523 128.362 165.523 126.373 167.761L121.543 173.195C119.708 175.259 116.547 175.445 114.484 173.61L113.736 172.946C111.673 171.111 111.487 167.951 113.322 165.887L126.373 151.204C128.362 148.967 131.858 148.967 133.847 151.204L146.899 165.887Z" fill="black"/>
<path d="M230.899 165.887C232.734 167.951 232.548 171.111 230.484 172.946L229.737 173.61C227.673 175.445 224.513 175.259 222.678 173.195L217.847 167.761C215.858 165.523 212.362 165.523 210.373 167.761L205.543 173.195C203.708 175.259 200.547 175.445 198.484 173.61L197.736 172.946C195.673 171.111 195.487 167.951 197.322 165.887L210.373 151.204C212.362 148.967 215.858 148.967 217.847 151.204L230.899 165.887Z" fill="black"/>
</g>
<defs>
<clipPath id="clip0_60_3">
<rect width="500" height="500" fill="white"/>
</clipPath>
</defs>
</svg>
