<svg width="500" height="500" viewBox="0 0 500 500" fill="none" xmlns="http://www.w3.org/2000/svg">
<path d="M316.082 162.397C317.838 172.303 360.702 157.893 369.125 154.129C377.548 150.364 383.258 141.626 382.196 128.378C381.133 115.13 351.767 117.692 351.767 117.692C351.767 117.692 388.878 101.575 372.436 83.1383C355.994 64.7012 245.628 87.8863 245.628 87.8863C245.628 87.8863 314.331 152.482 316.087 162.388L316.082 162.397Z" fill="#00316A"/>
<path d="M343.09 188.79C348.15 213.75 347.82 232.39 342 255C325 321 376.13 359.51 300 404C246.68 435.16 175.11 361.13 147.76 344.66C113.24 323.87 86.6001 287.51 77.5001 242.66C61.2001 162.28 107.44 85.06 180.78 70.19C254.12 55.31 326.79 108.41 343.09 188.79Z" fill="#0083D7"/>
<path d="M130.4 193.3C145.809 193.3 158.3 180.809 158.3 165.4C158.3 149.991 145.809 137.5 130.4 137.5C114.991 137.5 102.5 149.991 102.5 165.4C102.5 180.809 114.991 193.3 130.4 193.3Z" fill="white"/>
<path d="M214.1 193.3C229.509 193.3 242 180.809 242 165.4C242 149.991 229.509 137.5 214.1 137.5C198.691 137.5 186.2 149.991 186.2 165.4C186.2 180.809 198.691 193.3 214.1 193.3Z" fill="white"/>
<path d="M127.593 227.31L160.046 251.196C167.352 256.58 177.767 252.494 179.473 243.579L186.002 209.507C187.707 200.592 179.54 192.947 170.763 195.243L131.782 205.431C121.735 208.052 119.225 221.146 127.581 227.303L127.593 227.31Z" fill="#00316A"/>
<path d="M148.853 162.775C151.376 164.339 151.376 168.01 148.853 169.574L125.196 184.242C123.319 185.406 120.853 184.828 119.689 182.95L118.108 180.4C116.944 178.522 117.522 176.056 119.4 174.892L127.977 169.574C130.5 168.01 130.5 164.339 127.977 162.775L119.4 157.457C117.522 156.293 116.944 153.828 118.108 151.95L119.689 149.4C120.853 147.522 123.319 146.944 125.196 148.108L148.853 162.775Z" fill="black"/>
<path d="M196.289 167.812C193.845 166.128 194.023 162.461 196.619 161.021L220.958 147.517C222.89 146.445 225.324 147.142 226.396 149.074L227.852 151.698C228.924 153.63 228.227 156.065 226.295 157.136L217.47 162.032C214.875 163.473 214.697 167.139 217.141 168.824L225.45 174.551C227.269 175.804 227.728 178.295 226.474 180.114L224.771 182.585C223.517 184.404 221.026 184.862 219.207 183.609L196.289 167.812Z" fill="black"/>
<path d="M146.699 263.845L172.944 252.236C178.857 249.625 180.017 241.742 175.11 237.533L156.359 221.443C151.452 217.235 143.837 219.578 142.151 225.816L134.656 253.515C132.722 260.653 139.928 266.837 146.69 263.85L146.699 263.845Z" fill="#00316A"/>
</svg>
