<svg width="500" height="500" viewBox="0 0 500 500" fill="none" xmlns="http://www.w3.org/2000/svg">
<path d="M346.94 123.22C355.2 136.97 366.79 148.41 380.37 156.96C390.45 163.31 399.98 170.87 408.75 179.65C409.6 180.5 410.44 181.36 411.27 182.22C447.85 220.42 447.85 281.01 411.27 319.21C410.44 320.07 409.6 320.93 408.75 321.78C399.14 331.39 388.63 339.54 377.49 346.24C363.74 354.5 352.3 366.09 343.75 379.67C337.4 389.75 329.84 399.28 321.06 408.05C319.5 409.61 317.91 411.14 316.29 412.63C277.5 448.43 217.04 447.19 179.52 410.06C179.32 409.86 179.12 409.67 178.92 409.47C169.31 399.86 161.16 389.35 154.46 378.21C146.2 364.46 134.61 353.02 121.03 344.47C110.95 338.12 101.42 330.56 92.65 321.78C90.84 319.97 89.08 318.13 87.37 316.25C51.82 277.25 53.06 217.23 89.97 179.52C90.39 179.09 90.81 178.66 91.24 178.24C100.85 168.63 111.36 160.48 122.5 153.78C136.25 145.52 147.69 133.93 156.24 120.35C162.59 110.27 170.15 100.74 178.93 91.9701C180.47 90.4301 182.02 88.9401 183.6 87.4701C221.36 52.5601 280.03 52.5601 317.79 87.4701C319.37 88.9301 320.93 90.4301 322.46 91.9701C332.07 101.58 340.22 112.09 346.92 123.23L346.94 123.22Z" fill="#901065"/>
<path d="M248.5 376C317.259 376 373 320.259 373 251.5C373 189.458 327.619 138.016 268.241 128.556C261.811 127.532 255.218 127 248.5 127C232.877 127 217.926 129.878 204.149 135.132C157.288 153.002 124 198.363 124 251.5C124 320.259 179.741 376 248.5 376Z" fill="#FFA700"/>
<path fill-rule="evenodd" clip-rule="evenodd" d="M204.149 135.132C217.926 129.878 232.877 127 248.5 127C255.218 127 261.811 127.532 268.241 128.556L230.665 207.229L312.931 184.433L162.905 376.239L212.735 269.27L129 292.474L204.149 135.132Z" fill="#0083D7"/>
<path d="M295.749 232.291C281.927 232.705 269.945 224.69 258.398 213.432C256.026 211.119 256.119 207.307 258.512 205.016L267.424 196.485C269.817 194.194 273.605 194.296 275.997 196.59C285.919 206.105 291.46 208.072 295.021 207.965C298.784 207.852 304.341 205.37 314.039 195.703C316.386 193.364 320.173 193.206 322.601 195.461L331.641 203.855C334.069 206.11 334.22 209.918 331.891 212.275C320.883 223.415 309.316 231.885 295.749 232.291Z" fill="black"/>
<path d="M194.856 231.213C181.033 231.627 169.052 223.612 157.505 212.353C155.132 210.04 155.225 206.229 157.619 203.937L166.53 195.407C168.924 193.115 172.712 193.218 175.103 195.511C185.026 205.026 190.566 206.993 194.128 206.886C197.891 206.774 203.448 204.291 213.145 194.624C215.492 192.285 219.279 192.127 221.707 194.382L230.747 202.777C233.176 205.031 233.326 208.84 230.997 211.197C219.989 222.336 208.423 230.806 194.856 231.213Z" fill="black"/>
</svg>
