<svg width="500" height="500" viewBox="0 0 500 500" fill="none" xmlns="http://www.w3.org/2000/svg">
<path d="M275.36 153.02C275.5 163.08 320.12 155.73 329.04 153.37C337.95 151.01 345 143.3 346.07 130.05C347.15 116.8 317.75 114.62 317.75 114.62C317.75 114.62 356.97 104.67 343.7 83.83C330.43 63 217.77 68.17 217.77 68.17C217.77 68.17 275.22 142.95 275.37 153.01L275.36 153.02Z" fill="#00316A"/>
<path d="M339.09 188.79C344.15 213.75 343.82 232.39 338 255C321 321 372.13 359.51 296 404C242.68 435.16 171.11 361.13 143.76 344.66C109.24 323.87 82.5998 287.51 73.4998 242.66C57.1998 162.28 103.44 85.06 176.78 70.19C250.12 55.31 322.79 108.41 339.09 188.79Z" fill="#0083D7"/>
<path d="M138.18 252.52L183.24 260.06C189.18 261.05 194.35 255.95 193.45 250L189.15 221.83C188.24 215.88 181.78 212.55 176.41 215.27L135.65 235.9C128.03 239.76 129.76 251.11 138.19 252.52H138.18Z" fill="#00316A"/>
<path d="M173 165.5C173 185.11 157.11 201 137.5 201C117.89 201 102 185.11 102 165.5C102 145.89 117.89 139 137.5 139C157.11 139 173 145.89 173 165.5Z" fill="black" stroke="black" stroke-width="10" stroke-miterlimit="10"/>
<path d="M280 165.5C280 185.11 264.11 201 244.5 201C224.89 201 209 185.11 209 165.5C209 145.89 224.89 139 244.5 139C264.11 139 280 145.89 280 165.5Z" fill="black" stroke="black" stroke-width="10" stroke-miterlimit="10"/>
<path d="M173 165C186.67 155.99 200.33 155.91 214 164.76" stroke="black" stroke-width="10" stroke-miterlimit="10"/>
</svg>
