<svg width="500" height="500" viewBox="0 0 500 500" fill="none" xmlns="http://www.w3.org/2000/svg">
<path d="M295 135.5C299.5 144.5 336.5 118.5 343.5 112.5C350.5 106.5 353.5 96.5 348.71 84.1C343.92 71.7 316.5 82.5 316.5 82.5C316.5 82.5 347.5 56.5 326.5 43.5C305.5 30.5 206.27 84.1 206.27 84.1C206.27 84.1 290.5 126.5 295 135.5Z" fill="#00316A"/>
<path d="M333.09 198.79C338.15 223.75 337.82 242.39 332 265C315 331 366.13 369.51 290 414C236.68 445.16 165.11 371.13 137.76 354.66C103.24 333.87 76.6001 297.51 67.5001 252.66C51.2001 172.28 97.4401 95.06 170.78 80.19C244.12 65.31 316.79 118.41 333.09 198.79Z" fill="#0083D7"/>
<path d="M130.4 193.3C145.809 193.3 158.3 180.809 158.3 165.4C158.3 149.991 145.809 137.5 130.4 137.5C114.991 137.5 102.5 149.991 102.5 165.4C102.5 180.809 114.991 193.3 130.4 193.3Z" fill="white"/>
<path d="M132.68 188.36C140.788 188.36 147.36 181.788 147.36 173.68C147.36 165.572 140.788 159 132.68 159C124.572 159 118 165.572 118 173.68C118 181.788 124.572 188.36 132.68 188.36Z" fill="black" stroke="white" stroke-miterlimit="10"/>
<path d="M214.1 193.3C229.509 193.3 242 180.809 242 165.4C242 149.991 229.509 137.5 214.1 137.5C198.691 137.5 186.2 149.991 186.2 165.4C186.2 180.809 198.691 193.3 214.1 193.3Z" fill="white"/>
<path d="M214.68 188.36C222.788 188.36 229.36 181.788 229.36 173.68C229.36 165.572 222.788 159 214.68 159C206.572 159 200 165.572 200 173.68C200 181.788 206.572 188.36 214.68 188.36Z" fill="black" stroke="white" stroke-miterlimit="10"/>
<path d="M151.341 258.945L176.476 244.701C182.136 241.495 182.513 233.477 177.18 229.751L156.794 215.491C151.462 211.765 144.064 214.868 142.992 221.283L138.243 249.787C137.021 257.129 144.854 262.613 151.33 258.936L151.341 258.945Z" fill="#00316A"/>
<path d="M237.082 122.735C237.338 125.761 235.09 128.449 232.053 128.509C224.79 128.654 218.461 127.721 212.1 125.489C205.684 123.238 199.44 119.734 192.361 115.075C189.823 113.405 189.194 109.972 190.914 107.469C192.635 104.965 196.055 104.341 198.594 106.008C205.252 110.377 210.564 113.293 215.741 115.109C220.485 116.774 225.291 117.572 231.126 117.522C234.164 117.496 236.827 119.708 237.082 122.735Z" fill="black"/>
<path d="M110.855 120.735C110.599 123.761 112.847 126.449 115.884 126.509C123.147 126.654 129.476 125.721 135.837 123.489C142.253 121.238 148.497 117.734 155.576 113.075C158.114 111.405 158.743 107.972 157.023 105.469C155.302 102.965 151.882 102.341 149.343 104.008C142.685 108.377 137.373 111.293 132.196 113.109C127.452 114.774 122.646 115.572 116.811 115.522C113.773 115.496 111.11 117.708 110.855 120.735Z" fill="black"/>
</svg>
