<svg width="500" height="500" viewBox="0 0 500 500" fill="none" xmlns="http://www.w3.org/2000/svg">
<path d="M269.641 162.279C274.281 171.212 310.872 144.647 317.784 138.529C324.696 132.412 327.535 122.375 322.554 110.044C317.573 97.713 290.322 108.949 290.322 108.949C290.322 108.949 320.924 82.4766 299.721 69.8024C278.518 57.1282 180.13 112.241 180.13 112.241C180.13 112.241 265 153.345 269.638 162.269L269.641 162.279Z" fill="black"/>
<path d="M214.5 361.5C285.192 361.5 342.5 304.192 342.5 233.5C342.5 162.808 285.192 105.5 214.5 105.5C143.808 105.5 86.5 162.808 86.5 233.5C86.5 304.192 143.808 361.5 214.5 361.5Z" fill="#FFC628"/>
<path d="M311.867 245.773L299.735 281.573C295.048 295.422 303.482 310.266 317.792 313.306L385.989 327.809C402.779 331.379 416.367 314.125 408.953 298.64L379.521 237.191C372.399 222.316 354.727 215.817 339.661 222.54L328.5 227.511C320.654 231.011 314.62 237.629 311.866 245.758L311.867 245.773Z" fill="black"/>
<path d="M178.328 178.528C180.906 181.42 180.645 185.855 177.746 188.425L175.551 190.371C172.664 192.93 168.251 192.67 165.683 189.791L157.225 180.304C154.441 177.182 149.559 177.182 146.775 180.304L138.317 189.791C135.749 192.67 131.336 192.93 128.449 190.371L126.254 188.425C123.355 185.855 123.094 181.42 125.672 178.528L146.775 154.86C149.559 151.738 154.441 151.738 157.225 154.86L178.328 178.528Z" fill="black"/>
<path d="M281.328 177.528C283.906 180.42 283.645 184.855 280.746 187.425L278.551 189.371C275.664 191.93 271.251 191.67 268.683 188.791L260.225 179.304C257.441 176.182 252.559 176.182 249.775 179.304L241.317 188.791C238.749 191.67 234.336 191.93 231.449 189.371L229.254 187.425C226.355 184.855 226.094 180.42 228.672 177.528L249.775 153.86C252.559 150.738 257.441 150.738 260.225 153.86L281.328 177.528Z" fill="black"/>
<path d="M132.393 332.731C148.239 323.583 165.942 272.9 147.092 240.251C137.446 223.544 116.781 217.416 100.935 226.565C91.2272 232.17 85.5806 242.208 84.8805 252.985C75.8941 249.572 65.7376 249.989 57.0347 255.013C41.189 264.162 36.1629 285.122 45.8087 301.829C65.2267 335.462 115.444 342.517 131.29 333.369L132.393 332.731Z" fill="#901065"/>
<path d="M283.557 165.013C299.403 174.162 352.147 164.152 370.997 131.502C380.643 114.795 375.617 93.835 359.771 84.6865C350.063 79.0816 338.547 79.2105 328.863 83.993C327.326 74.5039 321.887 65.9165 313.184 60.8919C297.338 51.7434 276.673 57.8706 267.027 74.5775C247.609 108.211 266.608 155.228 282.454 164.376L283.557 165.013Z" fill="#901065"/>
<path d="M256.184 330.374C268.227 338.521 310.599 333.565 327.384 308.751C335.973 296.054 333.173 279.157 321.13 271.01C313.752 266.019 304.616 265.471 296.671 268.715C295.988 261.107 292.162 253.993 285.548 249.519C273.505 241.372 256.779 245.062 248.19 257.759C230.899 283.321 243.303 321.661 255.345 329.807L256.184 330.374Z" fill="#901065"/>
</svg>
