<svg width="500" height="500" viewBox="0 0 500 500" fill="none" xmlns="http://www.w3.org/2000/svg">
<path d="M346.94 123.22C355.2 136.97 366.79 148.41 380.37 156.96C390.45 163.31 399.98 170.87 408.75 179.65C409.6 180.5 410.44 181.36 411.27 182.22C447.85 220.42 447.85 281.01 411.27 319.21C410.44 320.07 409.6 320.93 408.75 321.78C399.14 331.39 388.63 339.54 377.49 346.24C363.74 354.5 352.3 366.09 343.75 379.67C337.4 389.75 329.84 399.28 321.06 408.05C319.5 409.61 317.91 411.14 316.29 412.63C277.5 448.43 217.04 447.19 179.52 410.06C179.32 409.86 179.12 409.67 178.92 409.47C169.31 399.86 161.16 389.35 154.46 378.21C146.2 364.46 134.61 353.02 121.03 344.47C110.95 338.12 101.42 330.56 92.6501 321.78C90.8401 319.97 89.0801 318.13 87.3701 316.25C51.8201 277.25 53.0601 217.23 89.9701 179.52C90.3901 179.09 90.8101 178.66 91.2401 178.24C100.85 168.63 111.36 160.48 122.5 153.78C136.25 145.52 147.69 133.93 156.24 120.35C162.59 110.27 170.15 100.74 178.93 91.9701C180.47 90.4301 182.02 88.9401 183.6 87.4701C221.36 52.5601 280.03 52.5601 317.79 87.4701C319.37 88.9301 320.93 90.4301 322.46 91.9701C332.07 101.58 340.22 112.09 346.92 123.23L346.94 123.22Z" fill="#901065"/>
<path d="M248.5 376C317.259 376 373 320.259 373 251.5C373 182.741 317.259 127 248.5 127C179.741 127 124 182.741 124 251.5C124 320.259 179.741 376 248.5 376Z" fill="#FFA700"/>
<path d="M181.86 226.59C197.269 226.59 209.76 214.099 209.76 198.69C209.76 183.281 197.269 170.79 181.86 170.79C166.451 170.79 153.96 183.281 153.96 198.69C153.96 214.099 166.451 226.59 181.86 226.59Z" fill="white"/>
<path d="M172.05 213.37C180.158 213.37 186.73 206.798 186.73 198.69C186.73 190.582 180.158 184.01 172.05 184.01C163.943 184.01 157.37 190.582 157.37 198.69C157.37 206.798 163.943 213.37 172.05 213.37Z" fill="black" stroke="white" stroke-miterlimit="10"/>
<path d="M265.56 226.59C280.969 226.59 293.46 214.099 293.46 198.69C293.46 183.281 280.969 170.79 265.56 170.79C250.151 170.79 237.66 183.281 237.66 198.69C237.66 214.099 250.151 226.59 265.56 226.59Z" fill="white"/>
<path d="M256.75 213.37C264.858 213.37 271.43 206.798 271.43 198.69C271.43 190.582 264.858 184.01 256.75 184.01C248.643 184.01 242.07 190.582 242.07 198.69C242.07 206.798 248.643 213.37 256.75 213.37Z" fill="black" stroke="white" stroke-miterlimit="10"/>
<path d="M299.082 174.735C299.338 177.761 297.09 180.449 294.053 180.509C286.79 180.654 280.461 179.721 274.1 177.489C267.684 175.238 261.44 171.734 254.361 167.075C251.823 165.405 251.194 161.972 252.914 159.469C254.635 156.965 258.055 156.341 260.594 158.008C267.252 162.377 272.564 165.293 277.741 167.109C282.485 168.774 287.291 169.572 293.126 169.522C296.164 169.496 298.827 171.708 299.082 174.735Z" fill="black"/>
<path d="M210.082 172.735C210.338 175.761 208.09 178.449 205.053 178.509C197.79 178.654 191.461 177.721 185.1 175.489C178.684 173.238 172.44 169.734 165.361 165.075C162.823 163.405 162.194 159.972 163.914 157.469C165.635 154.965 169.055 154.341 171.594 156.008C178.252 160.377 183.564 163.293 188.741 165.109C193.485 166.774 198.291 167.572 204.126 167.522C207.164 167.496 209.827 169.708 210.082 172.735Z" fill="black"/>
</svg>
