<svg width="500" height="500" viewBox="0 0 500 500" fill="none" xmlns="http://www.w3.org/2000/svg">
<path d="M275.53 107.9C281.86 115.72 312.4 82.37 317.95 75C323.5 67.63 324.27 57.22 316.93 46.14C309.59 35.06 285.13 51.51 285.13 51.51C285.13 51.51 309.81 19.45 286.5 11.27C263.19 3.09001 177.82 76.78 177.82 76.78C177.82 76.78 269.2 100.07 275.53 107.89V107.9Z" fill="#00316A"/>
<path d="M343.09 188.79C348.15 213.75 347.82 232.39 342 255C325 321 376.13 359.51 300 404C246.68 435.16 175.11 361.13 147.76 344.66C113.24 323.87 86.6001 287.51 77.5001 242.66C61.2001 162.28 107.44 85.06 180.78 70.19C254.12 55.31 326.79 108.41 343.09 188.79Z" fill="#0083D7"/>
<path d="M130.4 193.3C145.809 193.3 158.3 180.809 158.3 165.4C158.3 149.991 145.809 137.5 130.4 137.5C114.991 137.5 102.5 149.991 102.5 165.4C102.5 180.809 114.991 193.3 130.4 193.3Z" fill="white"/>
<path d="M140.68 188.36C148.788 188.36 155.36 181.788 155.36 173.68C155.36 165.572 148.788 159 140.68 159C132.572 159 126 165.572 126 173.68C126 181.788 132.572 188.36 140.68 188.36Z" fill="black" stroke="white" stroke-miterlimit="10"/>
<path d="M214.1 193.3C229.509 193.3 242 180.809 242 165.4C242 149.991 229.509 137.5 214.1 137.5C198.691 137.5 186.2 149.991 186.2 165.4C186.2 180.809 198.691 193.3 214.1 193.3Z" fill="white"/>
<path d="M203.68 186.36C211.788 186.36 218.36 179.788 218.36 171.68C218.36 163.572 211.788 157 203.68 157C195.572 157 189 163.572 189 171.68C189 179.788 195.572 186.36 203.68 186.36Z" fill="black" stroke="white" stroke-miterlimit="10"/>
<path d="M156.787 270.914L168.017 255.944C170.548 252.574 168.695 247.72 164.562 246.89L148.767 243.714C144.634 242.884 141.049 246.645 142.078 250.73L146.644 268.876C147.819 273.553 153.889 274.774 156.784 270.919L156.787 270.914Z" fill="#901065"/>
<path d="M47.3764 217.977C45.2122 221.441 43.9372 225.36 43.6643 229.387C43.3913 233.414 44.1288 237.426 45.8115 241.065C47.4942 244.705 50.0701 247.861 53.311 250.254C56.5519 252.647 60.3579 254.203 64.3917 254.783C68.4255 255.364 72.5627 254.952 76.4368 253.584C80.3109 252.215 83.8023 249.932 86.6018 246.938C89.4013 243.943 91.4224 240.329 92.4861 236.416C93.5498 232.502 93.6233 228.41 92.7001 224.502L81.5517 189.065C80.6267 186.124 76.7692 185.337 74.6757 187.662L47.3764 217.977Z" fill="#BFE6FF"/>
<path d="M139.7 251.74L168.43 254.83C174.9 255.53 179.88 249.24 177.72 243.1L169.47 219.63C167.31 213.49 159.49 211.7 154.88 216.29L134.4 236.67C129.12 241.92 132.29 250.94 139.69 251.74H139.7Z" fill="#00316A"/>
<path d="M159.082 123.735C159.338 126.761 157.09 129.449 154.053 129.509C146.79 129.654 140.461 128.721 134.1 126.489C127.684 124.238 121.44 120.734 114.361 116.075C111.823 114.405 111.194 110.972 112.914 108.469C114.635 105.965 118.055 105.341 120.594 107.008C127.252 111.377 132.564 114.293 137.741 116.109C142.485 117.774 147.291 118.572 153.126 118.522C156.164 118.496 158.827 120.708 159.082 123.735Z" fill="black"/>
<path d="M253.082 125.735C253.338 128.761 251.09 131.449 248.053 131.509C240.79 131.654 234.461 130.721 228.1 128.489C221.684 126.238 215.44 122.734 208.361 118.075C205.823 116.405 205.194 112.972 206.914 110.469C208.635 107.965 212.055 107.341 214.594 109.008C221.252 113.377 226.564 116.293 231.741 118.109C236.485 119.774 241.291 120.572 247.126 120.522C250.164 120.496 252.827 122.708 253.082 125.735Z" fill="black"/>
<circle cx="263.5" cy="207.5" r="26.5" fill="#FFA9E2"/>
</svg>
