<svg width="500" height="500" viewBox="0 0 500 500" fill="none" xmlns="http://www.w3.org/2000/svg">
<path d="M333.09 198.79C338.15 223.75 337.82 242.39 332 265C315 331 366.13 369.51 290 414C243.67 441.075 183.561 388.732 150.656 363.738C145.691 359.967 141.346 356.819 137.76 354.66C116.2 341.675 97.7134 322.616 84.6546 299.209C76.805 285.139 70.9165 269.498 67.5001 252.66C51.2001 172.28 97.4401 95.06 170.78 80.19C244.12 65.31 316.79 118.41 333.09 198.79Z" fill="#0083D7"/>
<path d="M139.9 183.8C155.309 183.8 167.8 171.309 167.8 155.9C167.8 140.491 155.309 128 139.9 128C124.491 128 112 140.491 112 155.9C112 171.309 124.491 183.8 139.9 183.8Z" fill="white"/>
<path d="M130.68 163.36C138.788 163.36 145.36 156.788 145.36 148.68C145.36 140.572 138.788 134 130.68 134C122.572 134 116 140.572 116 148.68C116 156.788 122.572 163.36 130.68 163.36Z" fill="black" stroke="white" stroke-miterlimit="10"/>
<path d="M216.558 187.284C231.682 190.234 246.333 180.366 249.284 165.242C252.234 150.119 242.366 135.467 227.242 132.516C212.119 129.566 197.467 139.434 194.516 154.558C191.566 169.681 201.434 184.333 216.558 187.284Z" fill="white"/>
<path d="M211.68 166.36C219.788 166.36 226.36 159.788 226.36 151.68C226.36 143.572 219.788 137 211.68 137C203.572 137 197 143.572 197 151.68C197 159.788 203.572 166.36 211.68 166.36Z" fill="black" stroke="white" stroke-miterlimit="10"/>
<path d="M134.567 231.784L151.969 254.846C155.887 260.039 163.885 259.366 166.883 253.593L178.361 231.52C181.359 225.747 177.318 218.817 170.818 218.592L141.938 217.603C134.499 217.35 130.084 225.831 134.574 231.771L134.567 231.784Z" fill="#00316A"/>
<path d="M208 124.5C207.011 121.628 208.533 118.472 211.463 117.67C218.469 115.752 224.833 115.107 231.548 115.714C238.32 116.325 245.232 118.195 253.236 120.978C256.105 121.976 257.556 125.151 256.5 127.999C255.445 130.848 252.282 132.29 249.411 131.296C241.887 128.689 236.022 127.162 230.559 126.669C225.551 126.216 220.697 126.619 215.051 128.096C212.112 128.865 208.989 127.372 208 124.5ZM117 100.5C116.19 97.5722 117.903 94.514 120.88 93.9118C126.547 92.7655 131.529 92.4966 136.05 92.9919C141.995 93.6433 146.846 95.5847 151.16 98.156C155.351 100.654 159.115 103.81 162.68 106.735C164.982 108.625 167.275 110.485 169.745 112.257C172.213 114.027 173.065 117.396 171.5 119.999C169.935 122.603 166.547 123.455 164.061 121.71C160.946 119.523 158.204 117.292 155.701 115.237C151.937 112.147 148.861 109.591 145.528 107.604C142.319 105.691 138.965 104.377 134.853 103.926C131.826 103.595 128.235 103.715 123.821 104.545C120.836 105.107 117.81 103.427 117 100.5Z" fill="black"/>
<path fill-rule="evenodd" clip-rule="evenodd" d="M150.656 363.738C165.809 335.398 185.588 293.438 177.398 280.889C164.667 261.381 138.275 289.553 138.275 289.553C138.275 289.553 149.423 264.466 137.085 259.886C124.748 255.305 114.71 257.928 108.622 264.287C104.255 268.848 89.4066 287.468 84.6546 299.209C97.7134 322.616 116.2 341.675 137.76 354.66C141.346 356.819 145.691 359.967 150.656 363.738Z" fill="#00316A"/>
</svg>
