<svg width="500" height="500" viewBox="0 0 500 500" fill="none" xmlns="http://www.w3.org/2000/svg">
<g clip-path="url(#clip0_60_68)">
<path d="M235.252 96.8911C244.255 101.381 258.211 58.3677 260.204 49.3596C262.197 40.3514 258.58 30.5598 247.305 23.5224C236.031 16.485 220.597 41.5988 220.597 41.5988C220.597 41.5988 229.756 2.18991 205.153 4.41542C180.55 6.64093 133.436 109.103 133.436 109.103C133.436 109.103 226.244 92.392 235.248 96.882L235.252 96.8911Z" fill="#00316A"/>
<path d="M343.09 188.79C348.15 213.75 347.82 232.39 342 255C325 321 376.13 359.51 300 404C246.68 435.16 175.11 361.13 147.76 344.66C113.24 323.87 86.6001 287.51 77.5001 242.66C61.2001 162.28 107.44 85.06 180.78 70.19C254.12 55.31 326.79 108.41 343.09 188.79Z" fill="#0083D7"/>
<path d="M135.995 247.605L163.169 257.431C169.287 259.648 175.619 254.721 174.979 248.243L172.54 223.485C171.9 217.008 164.729 213.412 159.161 216.776L134.426 231.708C128.05 235.553 128.987 245.068 135.985 247.603L135.995 247.605Z" fill="#00316A"/>
<path d="M100.003 116.074C100.206 112.204 105.242 110.855 107.352 114.105L121.041 135.185C121.985 136.638 123.758 137.318 125.431 136.87L149.71 130.364C153.453 129.361 156.292 133.734 153.854 136.745L138.036 156.279C136.945 157.625 136.846 159.521 137.79 160.975L151.479 182.055C153.59 185.304 150.309 189.356 146.691 187.967L123.226 178.96C121.608 178.339 119.774 178.83 118.684 180.177L102.866 199.71C100.427 202.722 95.5597 200.853 95.7625 196.984L97.0779 171.883C97.1686 170.153 96.1347 168.561 94.5169 167.94L71.0514 158.932C67.4339 157.543 67.7067 152.337 71.4496 151.334L95.7281 144.829C97.4019 144.38 98.5966 142.905 98.6873 141.174L100.003 116.074Z" fill="#FFC628"/>
<path d="M242.695 118.007C245.574 115.414 250.09 118.021 249.284 121.811L244.058 146.397C243.698 148.092 244.47 149.826 245.971 150.693L267.738 163.26C271.094 165.198 270.01 170.298 266.156 170.703L241.159 173.33C239.436 173.511 238.025 174.781 237.665 176.476L232.439 201.062C231.633 204.852 226.448 205.397 224.872 201.857L214.649 178.895C213.944 177.312 212.3 176.363 210.576 176.544L185.579 179.172C181.725 179.577 179.605 174.814 182.485 172.221L201.163 155.402C202.451 154.243 202.846 152.386 202.141 150.803L191.918 127.841C190.342 124.301 194.216 120.812 197.572 122.75L219.339 135.317C220.84 136.184 222.728 135.985 224.016 134.826L242.695 118.007Z" fill="#FFC628"/>
</g>
<defs>
<clipPath id="clip0_60_68">
<rect width="500" height="500" fill="white"/>
</clipPath>
</defs>
</svg>
