<svg width="500" height="500" viewBox="0 0 500 500" fill="none" xmlns="http://www.w3.org/2000/svg">
<path d="M275.53 107.9C281.86 115.72 312.4 82.37 317.95 75C323.5 67.63 324.27 57.22 316.93 46.14C309.59 35.06 285.13 51.51 285.13 51.51C285.13 51.51 309.81 19.45 286.5 11.27C263.19 3.09001 177.82 76.78 177.82 76.78C177.82 76.78 269.2 100.07 275.53 107.89V107.9Z" fill="#00316A"/>
<path d="M343.09 188.79C348.15 213.75 347.82 232.39 342 255C325 321 376.13 359.51 300 404C246.68 435.16 175.11 361.13 147.76 344.66C113.24 323.87 86.6001 287.51 77.5001 242.66C61.2001 162.28 107.44 85.06 180.78 70.19C254.12 55.31 326.79 108.41 343.09 188.79Z" fill="#0083D7"/>
<path d="M130.4 193.3C145.809 193.3 158.3 180.809 158.3 165.4C158.3 149.991 145.809 137.5 130.4 137.5C114.991 137.5 102.5 149.991 102.5 165.4C102.5 180.809 114.991 193.3 130.4 193.3Z" fill="white"/>
<path d="M129.68 179.36C137.788 179.36 144.36 172.788 144.36 164.68C144.36 156.572 137.788 150 129.68 150C121.572 150 115 156.572 115 164.68C115 172.788 121.572 179.36 129.68 179.36Z" fill="black" stroke="white" stroke-miterlimit="10"/>
<path d="M122.163 248.864L153.233 266.44C160.228 270.403 168.957 265.709 169.514 257.688L171.654 227.029C172.212 219.007 164.22 213.147 156.743 216.095L123.534 229.176C114.974 232.544 114.151 244.327 122.152 248.859L122.163 248.864Z" fill="#00316A"/>
<path d="M203.574 175.006C200.162 175.489 197.776 171.718 199.676 168.842L220.193 137.769C221.174 136.285 223.016 135.626 224.715 136.153L228.497 137.324C231.043 138.113 232.12 141.125 230.651 143.349L223.958 153.485C222.058 156.362 224.444 160.133 227.856 159.65L239.883 157.947C242.522 157.574 244.782 159.837 244.403 162.476L243.841 166.395C243.588 168.155 242.203 169.538 240.442 169.787L203.574 175.006Z" fill="black"/>
</svg>
