<svg width="685" height="685" viewBox="0 0 685 685" fill="none" xmlns="http://www.w3.org/2000/svg">
<g clip-path="url(#clip0_60_38)">
<path d="M440.317 229.415C444.968 238.337 481.524 211.717 488.427 205.597C495.33 199.476 498.153 189.426 493.16 177.109C488.167 164.792 460.927 176.056 460.927 176.056C460.927 176.056 491.483 149.537 470.262 136.89C449.041 124.243 350.736 179.507 350.736 179.507C350.736 179.507 435.669 220.484 440.319 229.406L440.317 229.415Z" fill="#00316A"/>
<path d="M453.301 336.235C445.06 360.333 435.36 376.253 418.917 392.827C370.907 441.202 395.583 500.264 307.407 500.207C245.649 500.167 221.274 400.125 205.989 372.095C186.697 336.716 182.072 291.879 196.872 248.575C223.405 170.969 302.318 127.681 373.125 151.892C443.937 176.095 479.834 258.629 453.301 336.235Z" fill="#0083D7"/>
<path d="M267.46 232.695C280.759 240.478 297.849 236.007 305.632 222.708C313.415 209.41 308.944 192.32 295.645 184.536C282.347 176.753 265.257 181.224 257.474 194.523C249.69 207.822 254.162 224.912 267.46 232.695Z" fill="white"/>
<path d="M339.698 274.973C352.996 282.756 370.086 278.285 377.869 264.986C385.653 251.688 381.181 234.598 367.883 226.814C354.584 219.031 337.494 223.502 329.711 236.801C321.928 250.1 326.399 267.19 339.698 274.973Z" fill="white"/>
<path d="M247.579 272.369L275.678 301.25C282.003 307.759 292.947 305.436 296.091 296.921L308.115 264.379C311.259 255.864 304.455 246.984 295.421 247.811L255.297 251.471C244.956 252.411 240.334 264.917 247.568 272.36L247.579 272.369Z" fill="#00316A"/>
<path d="M260.375 308.389L288.731 303.968C295.118 302.976 298.278 295.662 294.628 290.327L280.68 269.932C277.03 264.597 269.068 264.89 265.825 270.478L251.417 295.294C247.701 301.688 253.061 309.526 260.365 308.391L260.375 308.389Z" fill="#00316A"/>
<path d="M285.432 199.996C290.163 202.684 292.854 207.509 294.669 213.37C295.567 216.272 293.647 219.222 290.681 219.876C287.715 220.53 284.847 218.628 283.874 215.751C282.528 211.769 281.167 210.224 279.999 209.561C278.764 208.859 276.66 208.502 272.502 209.247C269.513 209.784 266.48 208.15 265.653 205.227C264.825 202.305 266.516 199.219 269.493 198.617C275.341 197.436 280.808 197.369 285.432 199.996Z" fill="black"/>
<path d="M357.929 242.426C362.659 245.113 365.351 249.938 367.165 255.8C368.063 258.701 366.144 261.652 363.177 262.306C360.211 262.96 357.343 261.058 356.371 258.18C355.025 254.198 353.664 252.654 352.495 251.99C351.261 251.289 349.156 250.931 344.999 251.677C342.009 252.213 338.976 250.579 338.149 247.657C337.322 244.734 339.012 241.649 341.99 241.047C347.837 239.865 353.305 239.799 357.929 242.426Z" fill="black"/>
<path d="M394.713 321.72C395.867 323.685 397.476 325.328 399.397 326.504C401.318 327.679 403.492 328.351 405.727 328.459C407.962 328.567 410.188 328.109 412.209 327.124C414.23 326.14 415.982 324.66 417.312 322.815C418.641 320.97 419.506 318.817 419.831 316.548C420.155 314.278 419.928 311.962 419.17 309.804C418.413 307.646 417.147 305.712 415.487 304.175C413.826 302.638 411.822 301.544 409.65 300.991L392.3 297.894C389.266 297.352 386.782 300.407 387.873 303.339L394.713 321.72Z" fill="#BFE6FF"/>
<path d="M186.234 191.345C183.997 191.295 181.783 191.811 179.788 192.848C177.792 193.885 176.077 195.411 174.794 197.29C173.51 199.169 172.699 201.343 172.432 203.621C172.164 205.898 172.448 208.208 173.259 210.345C174.07 212.483 175.383 214.383 177.081 215.876C178.78 217.369 180.811 218.41 182.995 218.906C185.18 219.403 187.45 219.339 189.604 218.721C191.759 218.103 193.731 216.95 195.347 215.363L207.313 201.818C209.347 199.517 208.131 195.874 205.121 195.251L186.234 191.345Z" fill="#BFE6FF"/>
</g>
<defs>
<clipPath id="clip0_60_38">
<rect width="500" height="500" fill="white" transform="translate(252.556) rotate(30.3388)"/>
</clipPath>
</defs>
</svg>
