<svg width="500" height="500" viewBox="0 0 500 500" fill="none" xmlns="http://www.w3.org/2000/svg">
<path d="M325 199.5C329.5 208.5 366.5 182.5 373.5 176.5C380.5 170.5 383.5 160.5 378.71 148.1C373.92 135.7 346.5 146.5 346.5 146.5C346.5 146.5 377.5 120.5 356.5 107.5C335.5 94.5 236.27 148.1 236.27 148.1C236.27 148.1 320.5 190.5 325 199.5Z" fill="black"/>
<path d="M225.5 401.5C296.192 401.5 353.5 344.192 353.5 273.5C353.5 202.808 296.192 145.5 225.5 145.5C154.808 145.5 97.5 202.808 97.5 273.5C97.5 344.192 154.808 401.5 225.5 401.5Z" fill="#FFC628"/>
<path d="M302.55 253.13L290.94 289.1C286.45 303.02 295.11 317.73 309.45 320.57L377.85 334.08C394.69 337.41 408.02 319.95 400.38 304.58L370.06 243.57C362.72 228.8 344.96 222.56 330 229.5L318.91 234.64C311.12 238.25 305.18 244.96 302.54 253.13H302.55Z" fill="black"/>
<path d="M158.59 216.08C166.698 216.08 173.27 209.508 173.27 201.4C173.27 193.292 166.698 186.72 158.59 186.72C150.482 186.72 143.91 193.292 143.91 201.4C143.91 209.508 150.482 216.08 158.59 216.08Z" fill="black"/>
<path d="M242.29 216.08C250.398 216.08 256.97 209.508 256.97 201.4C256.97 193.292 250.398 186.72 242.29 186.72C234.182 186.72 227.61 193.292 227.61 201.4C227.61 209.508 234.182 216.08 242.29 216.08Z" fill="black"/>
</svg>
