<svg width="500" height="500" viewBox="0 0 500 500" fill="none" xmlns="http://www.w3.org/2000/svg">
<path d="M277.27 176.09C279.44 185.92 321.66 169.73 329.92 165.61C338.18 161.49 343.52 152.53 341.9 139.33C340.28 126.13 311.05 129.93 311.05 129.93C311.05 129.93 347.46 112.28 330.26 94.55C313.06 76.82 203.76 104.59 203.76 104.59C203.76 104.59 275.1 166.26 277.27 176.08V176.09Z" fill="black"/>
<path d="M214.5 361.5C285.192 361.5 342.5 304.192 342.5 233.5C342.5 162.808 285.192 105.5 214.5 105.5C143.808 105.5 86.5 162.808 86.5 233.5C86.5 304.192 143.808 361.5 214.5 361.5Z" fill="#FFC628"/>
<path d="M305.163 284.934L308.661 322.572C310.019 337.129 323.768 347.253 338.075 344.202L406.268 329.676C423.056 326.099 428.44 304.807 415.363 293.684L363.458 249.546C350.896 238.861 332.11 240.121 321.087 252.397L312.917 261.482C307.177 267.874 304.361 276.375 305.156 284.922L305.163 284.934Z" fill="black"/>
<path d="M191.72 175.96H181.49C181.49 165.11 172.66 156.28 161.81 156.28C150.96 156.28 142.13 165.11 142.13 175.96H131.9C131.9 159.46 145.32 146.05 161.81 146.05C178.3 146.05 191.72 159.47 191.72 175.96Z" fill="black"/>
<path d="M274 175.96H263.77C263.77 165.11 254.94 156.28 244.09 156.28C233.24 156.28 224.41 165.11 224.41 175.96H214.18C214.18 159.46 227.6 146.05 244.09 146.05C260.58 146.05 274 159.47 274 175.96Z" fill="black"/>
<circle cx="132" cy="225" r="25" fill="#DD70B8"/>
<circle cx="290" cy="225" r="25" fill="#DD70B8"/>
</svg>
