<svg width="485" height="500" viewBox="0 0 485 500" fill="none" xmlns="http://www.w3.org/2000/svg">
<g clip-path="url(#clip0_60_267)">
<path d="M336.686 180.239C340.776 189.431 378.907 165.121 386.176 159.439C393.444 153.757 396.882 143.901 392.66 131.298C388.438 118.696 360.554 128.255 360.554 128.255C360.554 128.255 392.69 103.675 372.292 89.7408C351.893 75.8064 250.36 124.89 250.36 124.89C250.36 124.89 332.598 171.037 336.688 180.229L336.686 180.239Z" fill="#00316A"/>
<path d="M343.09 188.79C348.15 213.75 347.82 232.39 342 255C325 321 376.13 359.51 300 404C246.68 435.16 175.11 361.13 147.76 344.66C113.24 323.87 86.6 287.51 77.5 242.66C61.2 162.28 107.44 85.06 180.78 70.19C254.12 55.31 326.79 108.41 343.09 188.79Z" fill="#0083D7"/>
<path d="M130.4 193.3C145.809 193.3 158.3 180.809 158.3 165.4C158.3 149.991 145.809 137.5 130.4 137.5C114.991 137.5 102.5 149.991 102.5 165.4C102.5 180.809 114.991 193.3 130.4 193.3Z" fill="white"/>
<path d="M214.1 193.3C229.509 193.3 242 180.809 242 165.4C242 149.991 229.509 137.5 214.1 137.5C198.691 137.5 186.2 149.991 186.2 165.4C186.2 180.809 198.691 193.3 214.1 193.3Z" fill="white"/>
<path d="M139.7 251.74L168.43 254.83C174.9 255.53 179.88 249.24 177.72 243.1L169.47 219.63C167.31 213.49 159.49 211.7 154.88 216.29L134.4 236.67C129.12 241.92 132.29 250.94 139.69 251.74H139.7Z" fill="#00316A"/>
<path d="M120.395 156.001C125.834 155.931 130.595 158.736 135.121 162.878C137.362 164.929 137.196 168.445 134.966 170.507C132.736 172.57 129.301 172.377 127.008 170.385C123.835 167.629 121.88 166.983 120.536 167C119.116 167.019 117.12 167.773 113.908 170.517C111.599 172.49 108.156 172.612 105.966 170.507C103.775 168.403 103.676 164.885 105.942 162.862C110.391 158.889 115.077 156.07 120.395 156.001Z" fill="black"/>
<path d="M204.395 156.001C209.834 155.931 214.595 158.736 219.121 162.878C221.362 164.929 221.196 168.445 218.966 170.507C216.736 172.57 213.301 172.377 211.008 170.385C207.835 167.629 205.88 166.983 204.536 167C203.116 167.019 201.12 167.773 197.908 170.517C195.599 172.49 192.156 172.612 189.966 170.507C187.775 168.403 187.676 164.885 189.942 162.862C194.391 158.889 199.077 156.07 204.395 156.001Z" fill="black"/>
<path d="M182.15 35.0612C182.666 34.8915 183.218 34.8649 183.748 34.9843L290.418 59.0296C293.285 59.6759 293.609 63.6315 290.886 64.7362L185.672 107.417C185.038 107.675 184.334 107.707 183.679 107.51L77.1105 75.3728C74.3024 74.526 74.2529 70.5677 77.0389 69.6509L182.15 35.0612Z" fill="black"/>
<path d="M258 114V61" stroke="black" stroke-width="5"/>
<circle cx="258.5" cy="119.5" r="8.5" fill="#FFA700"/>
</g>
<defs>
<clipPath id="clip0_60_267">
<rect width="500" height="500" fill="white"/>
</clipPath>
</defs>
</svg>
