<svg width="500" height="578" viewBox="0 0 500 578" fill="none" xmlns="http://www.w3.org/2000/svg">
<path d="M316.544 322.362C310.726 330.57 351.089 350.959 359.685 354.311C368.281 357.662 378.511 355.59 387.195 345.529C395.879 335.467 373.43 316.363 373.43 316.363C373.43 316.363 410.967 331.46 412.543 306.807C414.118 282.153 320.097 219.877 320.097 219.877C320.097 219.877 322.372 314.151 316.554 322.359L316.544 322.362Z" fill="#00316A"/>
<path d="M101 89L106.164 104.893H122.874L109.355 114.715L114.519 130.607L101 120.785L87.4809 130.607L92.6448 114.715L79.1257 104.893H95.8362L101 89Z" fill="#FFC628"/>
<path d="M106 126L114.083 150.875H140.238L119.078 166.249L127.16 191.125L106 175.751L84.8397 191.125L92.9222 166.249L71.762 150.875H97.9175L106 126Z" fill="#FFC628"/>
<path d="M264 99L272.083 123.875H298.238L277.078 139.249L285.16 164.125L264 148.751L242.84 164.125L250.922 139.249L229.762 123.875H255.917L264 99Z" fill="#FFC628"/>
<path d="M116.307 97.9846C115.869 95.5964 115.64 93.1352 115.64 90.6207C115.64 68.1865 133.868 50 156.353 50C166.715 50 176.173 53.862 183.359 60.2219C187.642 58.6941 192.257 57.8621 197.067 57.8621C204.682 57.8621 211.809 59.9482 217.905 63.5791C225.361 55.2462 236.21 50 248.287 50C270.772 50 289 68.1865 289 90.6207C289 105.039 281.471 117.702 270.122 124.911C270.445 126.974 270.613 129.088 270.613 131.241C270.613 153.676 252.385 171.862 229.9 171.862C225.305 171.862 220.887 171.102 216.767 169.702V202H147.16V173.162C142.67 174.862 137.801 175.793 132.713 175.793C110.228 175.793 92 157.607 92 135.172C92 118.562 101.993 104.28 116.307 97.9846Z" fill="#4C4C4C"/>
<path d="M346.859 272.174C351.919 297.134 351.589 315.774 345.769 338.384C328.769 404.384 379.899 442.894 303.769 487.384C250.449 518.544 178.879 444.514 151.529 428.044C117.009 407.254 90.3694 370.894 81.2694 326.044C73.3046 286.767 80.2721 248.246 98.0371 217.384C116.629 185.086 153.266 207.488 190.769 199.884C236.146 190.677 275.045 161.184 306.716 194.384C326.234 214.844 340.644 241.526 346.859 272.174Z" fill="#0083D7"/>
<path d="M143.9 278.8C159.309 278.8 171.8 266.309 171.8 250.9C171.8 235.491 159.309 223 143.9 223C128.491 223 116 235.491 116 250.9C116 266.309 128.491 278.8 143.9 278.8Z" fill="white"/>
<path d="M146.18 272.86C154.288 272.86 160.86 266.288 160.86 258.18C160.86 250.072 154.288 243.5 146.18 243.5C138.072 243.5 131.5 250.072 131.5 258.18C131.5 266.288 138.072 272.86 146.18 272.86Z" fill="black" stroke="white" stroke-miterlimit="10"/>
<path d="M231.9 271.8C247.309 271.8 259.8 259.309 259.8 243.9C259.8 228.491 247.309 216 231.9 216C216.491 216 204 228.491 204 243.9C204 259.309 216.491 271.8 231.9 271.8Z" fill="white"/>
<path d="M231.48 265.86C239.587 265.86 246.16 259.288 246.16 251.18C246.16 243.072 239.587 236.5 231.48 236.5C223.372 236.5 216.8 243.072 216.8 251.18C216.8 259.288 223.372 265.86 231.48 265.86Z" fill="black" stroke="white" stroke-miterlimit="10"/>
<circle cx="197.5" cy="300.5" r="19.5" fill="#00316A"/>
<path d="M238 135L246.083 159.875H272.238L251.078 175.249L259.16 200.125L238 184.751L216.84 200.125L224.922 175.249L203.762 159.875H229.917L238 135Z" fill="#FFC628"/>
<path d="M285 74L289.715 88.5106H304.972L292.629 97.4787L297.343 111.989L285 103.021L272.657 111.989L277.371 97.4787L265.028 88.5106H280.285L285 74Z" fill="#FFC628"/>
<path d="M135 10L140.164 25.8926H156.874L143.355 35.7148L148.519 51.6074L135 41.7852L121.481 51.6074L126.645 35.7148L113.126 25.8926H129.836L135 10Z" fill="#901065"/>
<path d="M155.5 126L158.082 133.946H166.437L159.678 138.857L162.26 146.804L155.5 141.893L148.74 146.804L151.322 138.857L144.563 133.946H152.918L155.5 126Z" fill="#901065"/>
<path d="M283 28L288.164 43.8926H304.874L291.355 53.7148L296.519 69.6074L283 59.7852L269.481 69.6074L274.645 53.7148L261.126 43.8926H277.836L283 28Z" fill="#901065"/>
</svg>
