<svg width="500" height="500" viewBox="0 0 500 500" fill="none" xmlns="http://www.w3.org/2000/svg">
<path d="M346.94 123.22C355.2 136.97 366.79 148.41 380.37 156.96C390.45 163.31 399.98 170.87 408.75 179.65C409.6 180.5 410.44 181.36 411.27 182.22C447.85 220.42 447.85 281.01 411.27 319.21C410.44 320.07 409.6 320.93 408.75 321.78C399.14 331.39 388.63 339.54 377.49 346.24C363.74 354.5 352.3 366.09 343.75 379.67C337.4 389.75 329.84 399.28 321.06 408.05C319.5 409.61 317.91 411.14 316.29 412.63C277.5 448.43 217.04 447.19 179.52 410.06C179.32 409.86 179.12 409.67 178.92 409.47C169.31 399.86 161.16 389.35 154.46 378.21C146.2 364.46 134.61 353.02 121.03 344.47C110.95 338.12 101.42 330.56 92.6501 321.78C90.8401 319.97 89.0801 318.13 87.3701 316.25C51.8201 277.25 53.0601 217.23 89.9701 179.52C90.3901 179.09 90.8101 178.66 91.2401 178.24C100.85 168.63 111.36 160.48 122.5 153.78C136.25 145.52 147.69 133.93 156.24 120.35C162.59 110.27 170.15 100.74 178.93 91.9701C180.47 90.4301 182.02 88.9401 183.6 87.4701C221.36 52.5601 280.03 52.5601 317.79 87.4701C319.37 88.9301 320.93 90.4301 322.46 91.9701C332.07 101.58 340.22 112.09 346.92 123.23L346.94 123.22Z" fill="#901065"/>
<path d="M248.5 376C317.259 376 373 320.259 373 251.5C373 182.741 317.259 127 248.5 127C179.741 127 124 182.741 124 251.5C124 320.259 179.741 376 248.5 376Z" fill="#FFA700"/>
<path d="M177.003 132.074C177.206 128.204 182.242 126.855 184.352 130.104L198.041 151.184C198.985 152.638 200.758 153.318 202.431 152.87L226.71 146.364C230.453 145.361 233.292 149.734 230.854 152.745L215.036 172.279C213.945 173.625 213.846 175.521 214.79 176.975L228.479 198.054C230.59 201.304 227.309 205.356 223.691 203.967L200.226 194.96C198.608 194.339 196.774 194.83 195.684 196.177L179.866 215.71C177.427 218.722 172.56 216.853 172.762 212.984L174.078 187.883C174.169 186.153 173.135 184.561 171.517 183.94L148.051 174.932C144.434 173.543 144.707 168.337 148.45 167.334L172.728 160.829C174.402 160.38 175.597 158.905 175.687 157.174L177.003 132.074Z" fill="#0083D7"/>
<path d="M319.695 134.007C322.574 131.414 327.09 134.021 326.284 137.811L321.058 162.397C320.698 164.092 321.47 165.826 322.971 166.693L344.738 179.26C348.094 181.198 347.01 186.298 343.156 186.703L318.159 189.33C316.436 189.511 315.025 190.781 314.665 192.476L309.439 217.062C308.633 220.852 303.448 221.397 301.872 217.857L291.649 194.895C290.944 193.312 289.3 192.363 287.576 192.544L262.579 195.172C258.725 195.577 256.605 190.814 259.485 188.221L278.163 171.402C279.451 170.243 279.846 168.386 279.141 166.803L268.918 143.841C267.342 140.301 271.216 136.812 274.572 138.75L296.339 151.317C297.84 152.184 299.728 151.985 301.016 150.826L319.695 134.007Z" fill="#0083D7"/>
</svg>
