<svg width="500" height="500" viewBox="0 0 500 500" fill="none" xmlns="http://www.w3.org/2000/svg">
<path d="M319.62 161.94C326.62 169.17 354.07 133.23 358.94 125.4C363.81 117.57 363.66 107.13 355.36 96.74C347.06 86.35 324.16 104.92 324.16 104.92C324.16 104.92 345.89 70.79 321.95 64.72C298.01 58.65 219.53 139.64 219.53 139.64C219.53 139.64 312.62 154.71 319.62 161.94Z" fill="black"/>
<path d="M253 387C323.692 387 381 329.692 381 259C381 188.308 323.692 131 253 131C182.308 131 125 188.308 125 259C125 329.692 182.308 387 253 387Z" fill="#FFC628"/>
<path d="M370.61 237.59L340.45 260.38C328.78 269.2 327.42 286.22 337.54 296.77L385.78 347.11C397.66 359.51 418.59 352.87 421.17 335.9L431.38 268.54C433.85 252.24 422.89 236.93 406.66 234.01L394.63 231.85C386.17 230.33 377.47 232.41 370.61 237.59Z" fill="black"/>
<path d="M249.914 195.905C261.341 176.67 274.741 167.745 290.504 171.153C284.398 174.331 280.95 181.334 282.552 188.354C284.154 195.373 290.012 199.965 296.69 200.369C283.754 210.522 268.162 209.034 249.914 195.905Z" fill="white"/>
<path d="M282.552 188.354C280.95 181.334 284.398 174.332 290.504 171.153C297.032 172.566 303.963 176.103 311.335 181.888C306.905 190.027 302.023 196.188 296.69 200.369C290.012 199.965 284.116 195.208 282.552 188.354Z" fill="black"/>
<path d="M168.994 214.372C180.421 195.138 193.821 186.212 209.585 189.621C203.479 192.799 200.03 199.801 201.632 206.821C203.234 213.841 209.093 218.432 215.77 218.837C202.835 228.989 187.243 227.501 168.994 214.372Z" fill="white"/>
<path d="M201.632 206.821C200.03 199.801 203.479 192.799 209.585 189.62C216.113 191.033 223.043 194.57 230.415 200.355C225.985 208.495 221.104 214.655 215.77 218.837C209.093 218.432 203.197 213.675 201.632 206.821Z" fill="black"/>
</svg>
