<svg width="500" height="500" viewBox="0 0 500 500" fill="none" xmlns="http://www.w3.org/2000/svg">
<path d="M302.784 99.4135C314.905 109.919 329.475 117.194 345.039 121.105C356.592 124.011 367.999 128.238 379.061 133.86C380.133 134.404 381.199 134.961 382.255 135.521C428.889 160.473 447.703 218.068 424.794 265.739C424.272 266.814 423.74 267.892 423.196 268.964C417.046 281.083 409.586 292.094 401.077 301.922C390.572 314.043 383.296 328.613 379.386 344.177C376.48 355.73 372.253 367.137 366.63 378.199C365.632 380.167 364.596 382.115 363.518 384.034C337.763 430.11 279.907 447.705 232.712 424.062C232.459 423.934 232.21 423.815 231.958 423.687C219.839 417.537 208.828 410.077 199 401.568C186.879 391.063 172.309 383.787 156.746 379.877C145.192 376.971 133.786 372.744 122.723 367.121C120.44 365.963 118.196 364.76 115.987 363.504C70.0836 337.471 52.6245 280.033 76 232.726C76.2657 232.187 76.5314 231.648 76.8097 231.115C82.9605 218.996 90.4201 207.985 98.9289 198.157C109.434 186.036 116.71 171.466 120.62 155.903C123.526 144.349 127.753 132.943 133.376 121.88C134.361 119.938 135.372 118.04 136.417 116.152C161.47 71.2424 217.24 53.0239 263.974 74.4827C265.929 75.3798 267.878 76.3213 269.81 77.31C281.929 83.4608 292.94 90.9205 302.768 99.4292L302.784 99.4135Z" fill="#901065"/>
<path d="M287.705 370.266C353.065 348.914 388.741 278.62 367.39 213.26C346.038 147.899 275.744 112.223 210.384 133.575C145.024 154.926 109.347 225.22 130.699 290.581C152.051 355.941 222.344 391.617 287.705 370.266Z" fill="#FFA700"/>
<path d="M194.3 220.155C186.11 221.915 178.082 218.805 169.982 213.644C167.187 211.864 166.598 208.085 168.538 205.399L170.767 202.311C172.707 199.625 176.437 199.059 179.259 200.796C185.556 204.672 188.901 205.145 190.977 204.699C193.171 204.227 196.094 202.305 200.468 196.344C202.428 193.672 206.106 192.821 208.902 194.6L212.116 196.644C214.911 198.422 215.761 202.15 213.837 204.848C208.416 212.447 202.321 218.43 194.3 220.155Z" fill="black"/>
<path d="M281.417 202.027C273.227 203.788 265.199 200.678 257.099 195.517C254.304 193.737 253.715 189.958 255.654 187.271L257.884 184.184C259.824 181.497 263.554 180.932 266.376 182.669C272.673 186.545 276.018 187.018 278.094 186.572C280.287 186.1 283.211 184.177 287.585 178.217C289.545 175.545 293.223 174.694 296.019 176.473L299.232 178.517C302.028 180.295 302.878 184.023 300.953 186.72C295.533 194.32 289.438 200.303 281.417 202.027Z" fill="black"/>
</svg>
