<svg width="500" height="500" viewBox="0 0 500 500" fill="none" xmlns="http://www.w3.org/2000/svg">
<path d="M404 249C404 343.99 339.08 421 259 421C178.92 421 114 343.99 114 249H404Z" fill="#8AB61E"/>
<path d="M166.5 244C203.227 244 233 214.227 233 177.5C233 140.773 203.227 111 166.5 111C129.773 111 100 140.773 100 177.5C100 214.227 129.773 244 166.5 244Z" fill="#FFA700"/>
<path d="M259.5 133C296.227 133 326 103.227 326 66.5C326 29.7731 296.227 0 259.5 0C222.773 0 193 29.7731 193 66.5C193 103.227 222.773 133 259.5 133Z" fill="#FFA700"/>
<path d="M350.5 244C387.227 244 417 214.227 417 177.5C417 140.773 387.227 111 350.5 111C313.773 111 284 140.773 284 177.5C284 214.227 313.773 244 350.5 244Z" fill="#FFA700"/>
<path d="M191.79 297.69C194.23 295.08 195.72 291.55 195.72 287.69C195.72 279.58 189.15 273 181.04 273C172.93 273 166.36 279.58 166.36 287.69C166.36 291.55 167.85 295.08 170.29 297.69H156.95C156.95 282.28 169.44 269.79 184.85 269.79C200.26 269.79 212.75 282.28 212.75 297.69H191.79Z" fill="white"/>
<path d="M195.72 287.69C195.72 291.55 194.23 295.08 191.79 297.69H170.29C167.85 295.08 166.36 291.55 166.36 287.69C166.36 279.58 172.93 273 181.04 273C189.15 273 195.72 279.58 195.72 287.69Z" fill="black"/>
<path d="M308.79 298C311.23 295.39 312.72 291.86 312.72 288C312.72 279.89 306.15 273.31 298.04 273.31C289.93 273.31 283.36 279.89 283.36 288C283.36 291.86 284.85 295.39 287.29 298H273.95C273.95 282.59 286.44 270.1 301.85 270.1C317.26 270.1 329.75 282.59 329.75 298H308.79Z" fill="white"/>
<path d="M312.72 288C312.72 291.86 311.23 295.39 308.79 298H287.29C284.85 295.39 283.36 291.86 283.36 288C283.36 279.89 289.93 273.31 298.04 273.31C306.15 273.31 312.72 279.89 312.72 288Z" fill="black"/>
</svg>
