<svg width="500" height="500" viewBox="0 0 500 500" fill="none" xmlns="http://www.w3.org/2000/svg">
<g clip-path="url(#clip0_60_16)">
<path d="M277.929 103.157C286.449 108.508 304.552 67.0692 307.419 58.2997C310.285 49.5302 307.645 39.4312 297.114 31.3228C286.583 23.2145 268.763 46.695 268.763 46.695C268.763 46.695 281.74 8.3733 257.037 8.17712C232.334 7.98093 175.406 105.333 175.406 105.333C175.406 105.333 269.405 97.7971 277.925 103.148L277.929 103.157Z" fill="#00316A"/>
<path d="M343.09 188.79C348.15 213.75 347.82 232.39 342 255C325 321 376.13 359.51 300 404C246.68 435.16 175.11 361.13 147.76 344.66C113.24 323.87 86.5998 287.51 77.4998 242.66C61.1998 162.28 107.44 85.06 180.78 70.19C254.12 55.31 326.79 108.41 343.09 188.79Z" fill="#0083D7"/>
<path d="M130.4 193.3C145.809 193.3 158.3 180.809 158.3 165.4C158.3 149.991 145.809 137.5 130.4 137.5C114.991 137.5 102.5 149.991 102.5 165.4C102.5 180.809 114.991 193.3 130.4 193.3Z" fill="white"/>
<path d="M214.1 193.3C229.509 193.3 242 180.809 242 165.4C242 149.991 229.509 137.5 214.1 137.5C198.691 137.5 186.2 149.991 186.2 165.4C186.2 180.809 198.691 193.3 214.1 193.3Z" fill="white"/>
<path d="M127.593 227.31L160.046 251.196C167.352 256.58 177.767 252.494 179.473 243.579L186.002 209.507C187.707 200.592 179.54 192.947 170.763 195.243L131.782 205.431C121.735 208.052 119.225 221.146 127.581 227.303L127.593 227.31Z" fill="#00316A"/>
<path d="M129.395 156.001C134.834 155.931 139.595 158.736 144.121 162.878C146.362 164.929 146.196 168.445 143.966 170.507C141.736 172.57 138.301 172.377 136.008 170.385C132.835 167.629 130.88 166.983 129.536 167C128.116 167.019 126.12 167.773 122.908 170.517C120.599 172.49 117.156 172.612 114.966 170.507C112.775 168.403 112.676 164.885 114.942 162.862C119.391 158.889 124.077 156.07 129.395 156.001Z" fill="black"/>
<path d="M213.395 156.001C218.834 155.931 223.595 158.736 228.121 162.878C230.362 164.929 230.196 168.445 227.966 170.507C225.736 172.57 222.301 172.377 220.008 170.385C216.835 167.629 214.88 166.983 213.536 167C212.116 167.019 210.12 167.773 206.908 170.517C204.599 172.49 201.156 172.612 198.966 170.507C196.775 168.403 196.676 164.885 198.942 162.862C203.391 158.889 208.077 156.07 213.395 156.001Z" fill="black"/>
</g>
<defs>
<clipPath id="clip0_60_16">
<rect width="500" height="500" fill="white"/>
</clipPath>
</defs>
</svg>
