<svg width="500" height="500" viewBox="0 0 500 500" fill="none" xmlns="http://www.w3.org/2000/svg">
<path d="M404 249C404 343.99 339.08 421 259 421C178.92 421 114 343.99 114 249H404Z" fill="#8AB61E"/>
<path d="M166.5 244C203.227 244 233 214.227 233 177.5C233 140.773 203.227 111 166.5 111C129.773 111 100 140.773 100 177.5C100 214.227 129.773 244 166.5 244Z" fill="#FFA700"/>
<path d="M258.5 244C295.227 244 325 214.227 325 177.5C325 140.773 295.227 111 258.5 111C221.773 111 192 140.773 192 177.5C192 214.227 221.773 244 258.5 244Z" fill="#FFA700"/>
<path d="M350.5 244C387.227 244 417 214.227 417 177.5C417 140.773 387.227 111 350.5 111C313.773 111 284 140.773 284 177.5C284 214.227 313.773 244 350.5 244Z" fill="#FFA700"/>
<path d="M194.613 291.409C193.614 295.138 191.261 298.162 188.229 300.052L167.461 294.487C165.78 291.334 165.254 287.539 166.253 283.811C168.352 275.977 176.401 271.322 184.235 273.421C192.069 275.52 196.712 283.576 194.613 291.409Z" fill="black"/>
<path d="M319.772 279.722C321.702 283.065 322.176 286.867 321.368 290.347L302.749 301.097C299.33 300.057 296.275 297.745 294.345 294.402C290.29 287.378 292.69 278.395 299.713 274.34C306.737 270.285 315.717 272.698 319.772 279.722Z" fill="black"/>
</svg>
