<svg width="500" height="500" viewBox="0 0 500 500" fill="none" xmlns="http://www.w3.org/2000/svg">
<path d="M346.94 123.22C355.2 136.97 366.79 148.41 380.37 156.96C390.45 163.31 399.98 170.87 408.75 179.65C409.6 180.5 410.44 181.36 411.27 182.22C447.85 220.42 447.85 281.01 411.27 319.21C410.44 320.07 409.6 320.93 408.75 321.78C399.14 331.39 388.63 339.54 377.49 346.24C363.74 354.5 352.3 366.09 343.75 379.67C337.4 389.75 329.84 399.28 321.06 408.05C319.5 409.61 317.91 411.14 316.29 412.63C277.5 448.43 217.04 447.19 179.52 410.06C179.32 409.86 179.12 409.67 178.92 409.47C169.31 399.86 161.16 389.35 154.46 378.21C146.2 364.46 134.61 353.02 121.03 344.47C110.95 338.12 101.42 330.56 92.6501 321.78C90.8401 319.97 89.0801 318.13 87.3701 316.25C51.8201 277.25 53.0601 217.23 89.9701 179.52C90.3901 179.09 90.8101 178.66 91.2401 178.24C100.85 168.63 111.36 160.48 122.5 153.78C136.25 145.52 147.69 133.93 156.24 120.35C162.59 110.27 170.15 100.74 178.93 91.9701C180.47 90.4301 182.02 88.9401 183.6 87.4701C221.36 52.5601 280.03 52.5601 317.79 87.4701C319.37 88.9301 320.93 90.4301 322.46 91.9701C332.07 101.58 340.22 112.09 346.92 123.23L346.94 123.22Z" fill="#901065"/>
<path d="M248.5 376C317.259 376 373 320.259 373 251.5C373 182.741 317.259 127 248.5 127C179.741 127 124 182.741 124 251.5C124 320.259 179.741 376 248.5 376Z" fill="#FFA700"/>
<path d="M181.86 226.59C197.269 226.59 209.76 214.099 209.76 198.69C209.76 183.281 197.269 170.79 181.86 170.79C166.451 170.79 153.96 183.281 153.96 198.69C153.96 214.099 166.451 226.59 181.86 226.59Z" fill="white"/>
<path d="M172.05 213.37C180.158 213.37 186.73 206.798 186.73 198.69C186.73 190.582 180.158 184.01 172.05 184.01C163.943 184.01 157.37 190.582 157.37 198.69C157.37 206.798 163.943 213.37 172.05 213.37Z" fill="black" stroke="white" stroke-miterlimit="10"/>
<path d="M265.56 226.59C280.969 226.59 293.46 214.099 293.46 198.69C293.46 183.281 280.969 170.79 265.56 170.79C250.151 170.79 237.66 183.281 237.66 198.69C237.66 214.099 250.151 226.59 265.56 226.59Z" fill="white"/>
<path d="M256.75 213.37C264.858 213.37 271.43 206.798 271.43 198.69C271.43 190.582 264.858 184.01 256.75 184.01C248.643 184.01 242.07 190.582 242.07 198.69C242.07 206.798 248.643 213.37 256.75 213.37Z" fill="black" stroke="white" stroke-miterlimit="10"/>
<path d="M242.422 168.549C241.233 165.754 242.528 162.498 245.393 161.491C252.246 159.083 258.55 157.989 265.29 158.119C272.088 158.251 279.115 159.626 287.296 161.837C290.228 162.63 291.9 165.694 291.049 168.61C290.197 171.526 287.144 173.188 284.211 172.399C276.521 170.331 270.563 169.223 265.078 169.117C260.051 169.02 255.237 169.765 249.71 171.638C246.833 172.612 243.612 171.344 242.422 168.549Z" fill="black"/>
<path d="M160.725 154.177C160.42 151.155 162.624 148.431 165.66 148.321C172.919 148.059 179.262 148.889 185.659 151.017C192.111 153.163 198.411 156.566 205.565 161.109C208.129 162.737 208.814 166.16 207.135 168.691C205.455 171.222 202.046 171.901 199.48 170.276C192.752 166.015 187.393 163.186 182.187 161.454C177.417 159.868 172.599 159.148 166.765 159.292C163.728 159.368 161.029 157.199 160.725 154.177Z" fill="black"/>
</svg>
