<svg width="500" height="500" viewBox="0 0 500 500" fill="none" xmlns="http://www.w3.org/2000/svg">
<path d="M306.106 296.243C300.288 304.451 340.651 324.841 349.247 328.192C357.843 331.544 368.073 329.471 376.757 319.41C385.441 309.348 362.992 290.245 362.992 290.245C362.992 290.245 400.529 305.341 402.105 280.688C403.68 256.035 309.659 193.758 309.659 193.758C309.659 193.758 311.934 288.032 306.116 296.24L306.106 296.243Z" fill="#00316A"/>
<path d="M334.076 218.49C333.714 243.955 329.429 262.099 318.935 282.954C288.292 343.831 330.066 392.331 246.218 419.619C187.492 438.731 133.297 351.178 110.074 329.27C80.7627 301.616 62.4618 260.424 63.1049 214.664C64.2662 132.656 125.866 67.0322 200.691 68.0941C275.518 69.1462 335.237 136.482 334.076 218.49Z" fill="#0083D7"/>
<circle cx="211.5" cy="216.5" r="19.5" fill="#00316A"/>
<path d="M146.558 160.658C148.167 159.144 148.243 156.612 146.729 155.004L138.103 145.838C136.589 144.23 136.665 141.698 138.274 140.184L140.459 138.128C142.067 136.614 144.599 136.691 146.113 138.299L154.739 147.464C156.253 149.073 158.785 149.15 160.394 147.635L168.79 139.732C170.399 138.218 172.931 138.295 174.445 139.903L176.501 142.088C178.015 143.696 177.938 146.228 176.33 147.742L167.933 155.645C166.324 157.16 166.248 159.691 167.762 161.3L176.955 171.067C178.469 172.676 178.393 175.207 176.784 176.722L174.6 178.778C172.991 180.292 170.459 180.215 168.945 178.606L159.752 168.839C158.238 167.23 155.706 167.154 154.097 168.668L143.562 178.584C141.953 180.099 139.421 180.022 137.907 178.413L135.851 176.229C134.337 174.62 134.414 172.089 136.022 170.574L146.558 160.658Z" fill="black"/>
<path d="M238.558 160.658C240.167 159.144 240.243 156.612 238.729 155.004L230.103 145.838C228.589 144.23 228.665 141.698 230.274 140.184L232.459 138.128C234.067 136.614 236.599 136.691 238.113 138.299L246.739 147.464C248.253 149.073 250.785 149.15 252.394 147.635L260.79 139.732C262.399 138.218 264.931 138.295 266.445 139.903L268.501 142.088C270.015 143.696 269.938 146.228 268.33 147.742L259.933 155.645C258.324 157.16 258.248 159.691 259.762 161.3L268.955 171.067C270.469 172.676 270.393 175.207 268.784 176.722L266.6 178.778C264.991 180.292 262.459 180.215 260.945 178.606L251.752 168.839C250.238 167.23 247.706 167.154 246.097 168.668L235.562 178.584C233.953 180.099 231.421 180.022 229.907 178.413L227.851 176.229C226.337 174.62 226.414 172.089 228.022 170.574L238.558 160.658Z" fill="black"/>
</svg>
