<svg width="500" height="500" viewBox="0 0 500 500" fill="none" xmlns="http://www.w3.org/2000/svg">
<path d="M404 249C404 343.99 339.08 421 259 421C178.92 421 114 343.99 114 249H404Z" fill="#8AB61E"/>
<path d="M166.5 244C203.227 244 233 214.227 233 177.5C233 140.773 203.227 111 166.5 111C129.773 111 100 140.773 100 177.5C100 214.227 129.773 244 166.5 244Z" fill="#FFA700"/>
<path d="M258.5 212C295.227 212 325 182.227 325 145.5C325 108.773 295.227 79 258.5 79C221.773 79 192 108.773 192 145.5C192 182.227 221.773 212 258.5 212Z" fill="#FFA700"/>
<path d="M350.5 244C387.227 244 417 214.227 417 177.5C417 140.773 387.227 111 350.5 111C313.773 111 284 140.773 284 177.5C284 214.227 313.773 244 350.5 244Z" fill="#FFA700"/>
<path d="M220.393 370.731C236.239 361.583 253.942 310.9 235.092 278.251C225.446 261.544 204.781 255.416 188.935 264.565C179.227 270.17 173.581 280.208 172.881 290.985C163.894 287.572 153.738 287.989 145.035 293.014C129.189 302.162 124.163 323.122 133.809 339.829C153.227 373.462 203.444 380.517 219.29 371.369L220.393 370.731Z" fill="#00316A"/>
<path d="M299.557 367.013C315.402 376.162 368.146 366.153 386.997 333.504C396.643 316.797 391.618 295.837 375.772 286.688C366.064 281.083 354.548 281.212 344.864 285.994C343.327 276.505 337.888 267.917 329.185 262.892C313.34 253.744 292.674 259.87 283.028 276.577C263.61 310.21 282.608 357.227 298.453 366.376L299.557 367.013Z" fill="#00316A"/>
</svg>
