<svg width="500" height="500" viewBox="0 0 500 500" fill="none" xmlns="http://www.w3.org/2000/svg">
<g clip-path="url(#clip0_62_181)">
<path d="M408.211 228.759C404.336 244.324 404.45 260.609 408.014 276.256C410.657 287.872 412.056 299.956 412.055 312.366C412.056 313.568 412.042 314.77 412.021 315.965C410.901 368.843 368.078 411.707 315.201 412.878C314.006 412.9 312.804 412.914 311.602 412.915C298.012 412.922 284.816 411.259 272.2 408.126C256.635 404.251 240.35 404.365 224.703 407.929C213.087 410.572 201.003 411.971 188.593 411.97C186.387 411.971 184.181 411.93 181.982 411.839C129.238 409.75 87.342 366.142 87.0408 313.356C87.0407 313.073 87.0335 312.798 87.0333 312.515C87.0268 298.924 88.6893 285.729 91.8228 273.112C95.6973 257.547 95.5834 241.262 92.0191 225.616C89.3761 213.999 87.9773 201.916 87.9784 189.506C87.9771 186.946 88.0325 184.401 88.1515 181.862C90.5657 129.146 133.863 87.5615 186.627 86.9705C187.228 86.9631 187.829 86.9558 188.43 86.9625C202.021 86.956 215.216 88.6184 227.833 91.7519C243.398 95.6265 259.682 95.5126 275.329 91.9483C286.945 89.3053 299.029 87.9064 311.439 87.9076C313.617 87.9065 315.767 87.9479 317.923 88.0247C369.31 90.0152 410.816 131.481 412.855 182.866C412.941 185.015 412.985 187.179 412.979 189.35C412.985 202.94 411.323 216.136 408.189 228.752L408.211 228.759Z" fill="#901065"/>
<path d="M248.5 376C317.259 376 373 320.259 373 251.5C373 182.741 317.259 127 248.5 127C179.741 127 124 182.741 124 251.5C124 320.259 179.741 376 248.5 376Z" fill="#FFA700"/>
<path d="M146 259C166.435 259 183 242.435 183 222C183 201.565 166.435 185 146 185C125.565 185 109 201.565 109 222C109 242.435 125.565 259 146 259Z" fill="white"/>
<path d="M323.5 205C344.763 205 362 187.539 362 166C362 144.461 344.763 127 323.5 127C302.237 127 285 144.461 285 166C285 187.539 302.237 205 323.5 205Z" fill="white"/>
<path d="M160.68 236.36C168.788 236.36 175.36 229.788 175.36 221.68C175.36 213.572 168.788 207 160.68 207C152.572 207 146 213.572 146 221.68C146 229.788 152.572 236.36 160.68 236.36Z" fill="black" stroke="white" stroke-miterlimit="10"/>
<path d="M337.68 166.36C345.788 166.36 352.36 159.788 352.36 151.68C352.36 143.572 345.788 137 337.68 137C329.572 137 323 143.572 323 151.68C323 159.788 329.572 166.36 337.68 166.36Z" fill="black" stroke="white" stroke-miterlimit="10"/>
</g>
<defs>
<clipPath id="clip0_62_181">
<rect width="500" height="500" fill="white"/>
</clipPath>
</defs>
</svg>
