<svg width="500" height="500" viewBox="0 0 500 500" fill="none" xmlns="http://www.w3.org/2000/svg">
<path d="M346.94 123.22C355.2 136.97 366.79 148.41 380.37 156.96C390.45 163.31 399.98 170.87 408.75 179.65C409.6 180.5 410.44 181.36 411.27 182.22C447.85 220.42 447.85 281.01 411.27 319.21C410.44 320.07 409.6 320.93 408.75 321.78C399.14 331.39 388.63 339.54 377.49 346.24C363.74 354.5 352.3 366.09 343.75 379.67C337.4 389.75 329.84 399.28 321.06 408.05C319.5 409.61 317.91 411.14 316.29 412.63C277.5 448.43 217.04 447.19 179.52 410.06C179.32 409.86 179.12 409.67 178.92 409.47C169.31 399.86 161.16 389.35 154.46 378.21C146.2 364.46 134.61 353.02 121.03 344.47C110.95 338.12 101.42 330.56 92.6501 321.78C90.8401 319.97 89.0801 318.13 87.3701 316.25C51.8201 277.25 53.0601 217.23 89.9701 179.52C90.3901 179.09 90.8101 178.66 91.2401 178.24C100.85 168.63 111.36 160.48 122.5 153.78C136.25 145.52 147.69 133.93 156.24 120.35C162.59 110.27 170.15 100.74 178.93 91.9701C180.47 90.4301 182.02 88.9401 183.6 87.4701C221.36 52.5601 280.03 52.5601 317.79 87.4701C319.37 88.9301 320.93 90.4301 322.46 91.9701C332.07 101.58 340.22 112.09 346.92 123.23L346.94 123.22Z" fill="#901065"/>
<path d="M248.5 376C317.259 376 373 320.259 373 251.5C373 182.741 317.259 127 248.5 127C179.741 127 124 182.741 124 251.5C124 320.259 179.741 376 248.5 376Z" fill="#FFA700"/>
<path d="M188.68 237.36C196.788 237.36 203.36 230.788 203.36 222.68C203.36 214.572 196.788 208 188.68 208C180.572 208 174 214.572 174 222.68C174 230.788 180.572 237.36 188.68 237.36Z" fill="black"/>
<path d="M295.68 237.36C303.788 237.36 310.36 230.788 310.36 222.68C310.36 214.572 303.788 208 295.68 208C287.572 208 281 214.572 281 222.68C281 230.788 287.572 237.36 295.68 237.36Z" fill="black"/>
</svg>
