<svg width="500" height="500" viewBox="0 0 500 500" fill="none" xmlns="http://www.w3.org/2000/svg">
<path d="M404 249C404 343.99 339.08 421 259 421C178.92 421 114 343.99 114 249H404Z" fill="#8AB61E"/>
<path d="M166.5 244C203.227 244 233 214.227 233 177.5C233 140.773 203.227 111 166.5 111C129.773 111 100 140.773 100 177.5C100 214.227 129.773 244 166.5 244Z" fill="#FFA700"/>
<path d="M258.5 228C295.227 228 325 198.227 325 161.5C325 124.773 295.227 95 258.5 95C221.773 95 192 124.773 192 161.5C192 198.227 221.773 228 258.5 228Z" fill="#FFA700"/>
<path d="M356.5 214C393.227 214 423 184.227 423 147.5C423 110.773 393.227 81 356.5 81C319.773 81 290 110.773 290 147.5C290 184.227 319.773 214 356.5 214Z" fill="#FFA700"/>
<path d="M220 300.46C220 331.14 195.158 356 164.5 356C133.842 356 109 331.14 109 300.46C109 269.78 133.842 259 164.5 259C195.158 259 220 269.78 220 300.46Z" fill="black" stroke="black" stroke-width="10" stroke-miterlimit="10"/>
<path d="M357 300.46C357 331.14 332.158 356 301.5 356C270.842 356 246 331.14 246 300.46C246 269.78 270.842 259 301.5 259C332.158 259 357 269.78 357 300.46Z" fill="black" stroke="black" stroke-width="10" stroke-miterlimit="10"/>
<path d="M198 300C219.339 285.464 240.661 285.334 262 299.613" stroke="black" stroke-width="10" stroke-miterlimit="10"/>
</svg>
