<svg width="500" height="500" viewBox="0 0 500 500" fill="none" xmlns="http://www.w3.org/2000/svg">
<path d="M321.78 214.8C321.177 224.844 366.22 220.827 375.282 219.131C384.344 217.435 391.942 210.275 393.994 197.141C396.046 184.008 366.9 179.651 366.9 179.651C366.9 179.651 406.746 172.634 395.06 150.876C383.373 129.117 270.638 125.921 270.638 125.921C270.638 125.921 322.383 204.756 321.78 214.8Z" fill="black"/>
<path d="M301 109C301 97.564 263.168 88.2932 216.5 88.2932C169.832 88.2932 132 97.564 132 109C132 120.436 169.832 129.707 216.5 129.707C263.168 129.707 301 120.436 301 109ZM342 109C342 127.91 326.523 139.325 318.173 144.162C308.798 149.594 297.887 153.116 288.096 155.516C267.995 160.441 242.692 163 216.5 163C190.308 163 165.005 160.441 144.904 155.516C135.113 153.116 124.202 149.594 114.827 144.162C106.477 139.325 91 127.91 91 109C91 90.0903 106.477 78.6753 114.827 73.8377C124.202 68.4064 135.113 64.8837 144.904 62.4843C165.005 57.5587 190.308 55 216.5 55C242.692 55 267.995 57.5587 288.096 62.4843C297.887 64.8837 308.798 68.4064 318.173 73.8377C326.523 78.6753 342 90.0903 342 109Z" fill="#0083D7"/>
<path d="M214.5 361.5C285.192 361.5 342.5 304.192 342.5 233.5C342.5 162.808 285.192 105.5 214.5 105.5C143.808 105.5 86.5 162.808 86.5 233.5C86.5 304.192 143.808 361.5 214.5 361.5Z" fill="#FFC628"/>
<path d="M296.923 286.215L310.043 321.665C315.123 335.375 331.023 341.595 344.053 334.945L406.163 303.265C421.453 295.465 421.143 273.505 405.633 266.145L344.073 236.945C329.173 229.875 311.353 235.955 303.883 250.665L298.343 261.555C294.453 269.215 293.933 278.155 296.913 286.205L296.923 286.215Z" fill="black"/>
<path d="M191.72 175.96H181.49C181.49 165.11 172.66 156.28 161.81 156.28C150.96 156.28 142.13 165.11 142.13 175.96H131.9C131.9 159.46 145.32 146.05 161.81 146.05C178.3 146.05 191.72 159.47 191.72 175.96Z" fill="black"/>
<path d="M274 175.96H263.77C263.77 165.11 254.94 156.28 244.09 156.28C233.24 156.28 224.41 165.11 224.41 175.96H214.18C214.18 159.46 227.6 146.05 244.09 146.05C260.58 146.05 274 159.47 274 175.96Z" fill="black"/>
</svg>
