<svg width="500" height="500" viewBox="0 0 500 500" fill="none" xmlns="http://www.w3.org/2000/svg">
<path d="M404 249C404 343.99 339.08 421 259 421C178.92 421 114 343.99 114 249H404Z" fill="#8AB61E"/>
<path d="M166.5 244C203.227 244 233 214.227 233 177.5C233 140.773 203.227 111 166.5 111C129.773 111 100 140.773 100 177.5C100 214.227 129.773 244 166.5 244Z" fill="#FFA700"/>
<path d="M258.5 244C295.227 244 325 214.227 325 177.5C325 140.773 295.227 111 258.5 111C221.773 111 192 140.773 192 177.5C192 214.227 221.773 244 258.5 244Z" fill="#FFA700"/>
<path d="M350.5 244C387.227 244 417 214.227 417 177.5C417 140.773 387.227 111 350.5 111C313.773 111 284 140.773 284 177.5C284 214.227 313.773 244 350.5 244Z" fill="#FFA700"/>
<path d="M135.923 249.973C136.126 246.103 141.162 244.754 143.272 248.004L165.942 282.911C166.886 284.365 168.658 285.045 170.332 284.597L210.536 273.824C214.279 272.821 217.119 277.193 214.68 280.205L188.486 312.552C187.395 313.899 187.296 315.794 188.24 317.248L210.909 352.155C213.02 355.405 209.739 359.457 206.121 358.068L167.263 343.152C165.645 342.531 163.811 343.022 162.721 344.369L136.527 376.716C134.088 379.727 129.221 377.859 129.424 373.989L131.602 332.424C131.693 330.693 130.659 329.101 129.041 328.48L90.1828 313.564C86.5652 312.175 86.8381 306.969 90.581 305.966L130.785 295.193C132.459 294.744 133.654 293.269 133.745 291.539L135.923 249.973Z" fill="#901065"/>
<path d="M340.394 254.354C343.274 251.761 347.789 254.368 346.983 258.158L338.33 298.872C337.969 300.567 338.741 302.301 340.242 303.167L376.289 323.979C379.644 325.916 378.56 331.016 374.707 331.421L333.312 335.772C331.589 335.953 330.178 337.223 329.817 338.918L321.164 379.631C320.358 383.421 315.173 383.966 313.597 380.427L296.667 342.402C295.962 340.819 294.318 339.87 292.595 340.051L251.2 344.402C247.347 344.807 245.226 340.044 248.106 337.451L279.037 309.6C280.325 308.441 280.72 306.584 280.015 305.001L263.085 266.976C261.509 263.436 265.384 259.948 268.74 261.885L304.786 282.697C306.287 283.563 308.175 283.365 309.463 282.205L340.394 254.354Z" fill="#901065"/>
</svg>
