<svg width="500" height="500" viewBox="0 0 500 500" fill="none" xmlns="http://www.w3.org/2000/svg">
<path d="M257.53 163.199C266.363 168.02 281.9 125.551 284.223 116.629C286.545 107.707 283.3 97.7835 272.289 90.3366C261.278 82.8897 244.929 107.41 244.929 107.41C244.929 107.41 255.54 68.3659 230.877 69.6796C206.214 70.9934 155.336 171.646 155.336 171.646C155.336 171.646 248.698 158.378 257.53 163.199Z" fill="black"/>
<path d="M225.5 401.5C296.192 401.5 353.5 344.192 353.5 273.5C353.5 202.808 296.192 145.5 225.5 145.5C154.808 145.5 97.5 202.808 97.5 273.5C97.5 344.192 154.808 401.5 225.5 401.5Z" fill="#FFC628"/>
<path d="M356.886 234.549L329.986 261.102C319.579 271.379 320.473 288.425 331.883 297.562L386.329 341.114C399.732 351.84 419.615 342.502 419.931 325.341L421.188 257.224C421.493 240.734 408.617 227.002 392.143 226.254L379.932 225.696C371.356 225.304 362.989 228.515 356.877 234.545L356.886 234.549Z" fill="black"/>
<path d="M167.4 229.3C182.809 229.3 195.3 216.809 195.3 201.4C195.3 185.991 182.809 173.5 167.4 173.5C151.991 173.5 139.5 185.991 139.5 201.4C139.5 216.809 151.991 229.3 167.4 229.3Z" fill="white"/>
<path d="M181.68 215.36C189.788 215.36 196.36 208.788 196.36 200.68C196.36 192.572 189.788 186 181.68 186C173.572 186 167 192.572 167 200.68C167 208.788 173.572 215.36 181.68 215.36Z" fill="black" stroke="white" stroke-miterlimit="10"/>
<path d="M251.1 229.3C266.509 229.3 279 216.809 279 201.4C279 185.991 266.509 173.5 251.1 173.5C235.691 173.5 223.2 185.991 223.2 201.4C223.2 216.809 235.691 229.3 251.1 229.3Z" fill="white"/>
<path d="M236.68 215.36C244.788 215.36 251.36 208.788 251.36 200.68C251.36 192.572 244.788 186 236.68 186C228.572 186 222 192.572 222 200.68C222 208.788 228.572 215.36 236.68 215.36Z" fill="black" stroke="white" stroke-miterlimit="10"/>
</svg>
