<svg width="500" height="500" viewBox="0 0 500 500" fill="none" xmlns="http://www.w3.org/2000/svg">
<path d="M325 199.5C329.5 208.5 366.5 182.5 373.5 176.5C380.5 170.5 383.5 160.5 378.71 148.1C373.92 135.7 346.5 146.5 346.5 146.5C346.5 146.5 377.5 120.5 356.5 107.5C335.5 94.5 236.27 148.1 236.27 148.1C236.27 148.1 320.5 190.5 325 199.5Z" fill="black"/>
<path d="M225.5 401.5C296.192 401.5 353.5 344.192 353.5 273.5C353.5 202.808 296.192 145.5 225.5 145.5C154.808 145.5 97.5 202.808 97.5 273.5C97.5 344.192 154.808 401.5 225.5 401.5Z" fill="#FFC628"/>
<path d="M328.8 246.462L317.19 282.432C312.7 296.352 321.36 311.062 335.7 313.902L404.1 327.412C420.94 330.742 434.27 313.282 426.63 297.912L396.31 236.902C388.97 222.132 371.21 215.892 356.25 222.832L345.16 227.972C337.37 231.582 331.43 238.292 328.79 246.462H328.8Z" fill="black"/>
<rect x="136" y="169" width="64" height="64" rx="8" fill="white"/>
<rect x="226" y="170" width="64" height="64" rx="8" fill="white"/>
<path d="M167.68 216.36C175.788 216.36 182.36 209.788 182.36 201.68C182.36 193.572 175.788 187 167.68 187C159.572 187 153 193.572 153 201.68C153 209.788 159.572 216.36 167.68 216.36Z" fill="black"/>
<path d="M257.68 215.36C265.788 215.36 272.36 208.788 272.36 200.68C272.36 192.572 265.788 186 257.68 186C249.572 186 243 192.572 243 200.68C243 208.788 249.572 215.36 257.68 215.36Z" fill="black"/>
</svg>
