<svg width="500" height="500" viewBox="0 0 500 500" fill="none" xmlns="http://www.w3.org/2000/svg">
<path d="M319.62 161.94C326.62 169.17 354.07 133.23 358.94 125.4C363.81 117.57 363.66 107.13 355.36 96.74C347.06 86.35 324.16 104.92 324.16 104.92C324.16 104.92 345.89 70.79 321.95 64.72C298.01 58.65 219.53 139.64 219.53 139.64C219.53 139.64 312.62 154.71 319.62 161.94Z" fill="black"/>
<path d="M253 387C323.692 387 381 329.692 381 259C381 188.308 323.692 131 253 131C182.308 131 125 188.308 125 259C125 329.692 182.308 387 253 387Z" fill="#FFC628"/>
<path d="M370.61 237.59L340.45 260.38C328.78 269.2 327.42 286.22 337.54 296.77L385.78 347.11C397.66 359.51 418.59 352.87 421.17 335.9L431.38 268.54C433.85 252.24 422.89 236.93 406.66 234.01L394.63 231.85C386.17 230.33 377.47 232.41 370.61 237.59Z" fill="black"/>
<path d="M229.5 198.4C214.08 214.61 199.03 220.33 184.42 213.5C191.08 211.76 196 205.7 196 198.5C196 191.3 191.31 185.52 184.89 183.64C199.76 176.62 214.63 181.54 229.5 198.4Z" fill="white"/>
<path d="M196 198.5C196 205.7 191.08 211.76 184.42 213.5C178.37 210.67 172.4 205.68 166.5 198.4C172.63 191.45 178.76 186.53 184.89 183.64C191.31 185.52 196 191.47 196 198.5Z" fill="black"/>
<path d="M312.5 198.4C297.08 214.61 282.03 220.33 267.42 213.5C274.08 211.76 279 205.7 279 198.5C279 191.3 274.31 185.52 267.89 183.64C282.76 176.62 297.63 181.54 312.5 198.4Z" fill="white"/>
<path d="M279 198.5C279 205.7 274.08 211.76 267.42 213.5C261.37 210.67 255.4 205.68 249.5 198.4C255.63 191.45 261.76 186.53 267.89 183.64C274.31 185.52 279 191.47 279 198.5Z" fill="black"/>
</svg>
