<svg width="500" height="500" viewBox="0 0 500 500" fill="none" xmlns="http://www.w3.org/2000/svg">
<path d="M325 199.5C329.5 208.5 366.5 182.5 373.5 176.5C380.5 170.5 383.5 160.5 378.71 148.1C373.92 135.7 346.5 146.5 346.5 146.5C346.5 146.5 377.5 120.5 356.5 107.5C335.5 94.5 236.27 148.1 236.27 148.1C236.27 148.1 320.5 190.5 325 199.5Z" fill="black"/>
<path d="M225.5 401.5C296.192 401.5 353.5 344.192 353.5 273.5C353.5 202.808 296.192 145.5 225.5 145.5C154.808 145.5 97.5 202.808 97.5 273.5C97.5 344.192 154.808 401.5 225.5 401.5Z" fill="#FFC628"/>
<path d="M302.55 253.13L290.94 289.1C286.45 303.02 295.11 317.73 309.45 320.57L377.85 334.08C394.69 337.41 408.02 319.95 400.38 304.58L370.06 243.57C362.72 228.8 344.96 222.56 330 229.5L318.91 234.64C311.12 238.25 305.18 244.96 302.54 253.13H302.55Z" fill="black"/>
<path d="M124.741 137.61C124.934 133.608 130.087 132.106 132.094 135.467L148.209 162.465C149.103 163.962 150.872 164.648 152.566 164.154L181.71 155.658C185.362 154.594 188.103 158.8 185.785 161.913L166.418 187.933C165.412 189.284 165.301 191.097 166.137 192.498L182.687 220.224C184.665 223.537 181.205 227.642 177.677 226.169L150.201 214.694C148.541 214.001 146.591 214.57 145.472 216.073L126.951 240.956C124.572 244.151 119.69 242.478 119.88 238.533L121.47 205.519C121.55 203.851 120.62 202.341 119.128 201.718L90.3974 189.72C86.9598 188.284 87.3999 183.151 91.0518 182.086L120.197 173.59C121.89 173.097 123.107 171.54 123.193 169.758L124.741 137.61Z" fill="#0083D7"/>
<path d="M283.776 140.24C286.521 137.551 291.012 140.372 290.244 144.303L284.045 176.029C283.702 177.783 284.479 179.611 285.962 180.543L312.074 196.944C315.321 198.984 314.424 204.159 310.75 204.579L280.42 208.047C278.805 208.231 277.509 209.479 277.18 211.168L270.884 243.389C270.123 247.286 265.077 247.665 263.552 243.94L251.462 214.396C250.759 212.68 249.087 211.63 247.37 211.826L217.806 215.206C214.079 215.633 211.857 210.689 214.579 208.023L237.081 185.981C238.26 184.826 238.605 182.981 237.945 181.368L225.54 151.057C224.038 147.386 227.709 143.953 230.956 145.993L257.068 162.394C258.551 163.326 260.395 163.143 261.62 161.943L283.776 140.24Z" fill="#0083D7"/>
</svg>
