<svg width="500" height="500" viewBox="0 0 500 500" fill="none" xmlns="http://www.w3.org/2000/svg">
<g clip-path="url(#clip0_60_188)">
<path d="M235.252 96.8911C244.255 101.381 258.211 58.3677 260.204 49.3596C262.197 40.3514 258.58 30.5598 247.305 23.5224C236.031 16.485 220.597 41.5988 220.597 41.5988C220.597 41.5988 229.756 2.18991 205.153 4.41542C180.55 6.64093 133.436 109.103 133.436 109.103C133.436 109.103 226.244 92.392 235.248 96.882L235.252 96.8911Z" fill="#00316A"/>
<path d="M343.09 188.79C348.15 213.75 347.82 232.39 342 255C325 321 376.13 359.51 300 404C246.68 435.16 175.11 361.13 147.76 344.66C113.24 323.87 86.6 287.51 77.5 242.66C61.2 162.28 107.44 85.06 180.78 70.19C254.12 55.31 326.79 108.41 343.09 188.79Z" fill="#0083D7"/>
<path d="M135.995 247.605L163.169 257.431C169.287 259.648 175.619 254.721 174.979 248.243L172.54 223.485C171.9 217.008 164.729 213.412 159.161 216.776L134.426 231.708C128.05 235.553 128.987 245.068 135.985 247.603L135.995 247.605Z" fill="#00316A"/>
<path d="M152.912 196.323C168.758 187.174 186.461 136.492 167.611 103.842C157.965 87.1352 137.3 81.0079 121.454 90.1564C111.746 95.7614 106.1 105.799 105.399 116.577C96.413 113.164 86.2565 113.58 77.5537 118.605C61.7079 127.754 56.6818 148.714 66.3276 165.421C85.7456 199.054 135.963 206.109 151.809 196.96L152.912 196.323Z" fill="#901065"/>
<path d="M153.393 196.731C169.239 187.583 186.942 136.9 168.092 104.251C158.446 87.5437 137.781 81.4164 121.935 90.5649C112.227 96.1698 106.581 106.208 105.881 116.985C96.8941 113.572 86.7376 113.989 78.0347 119.013C62.189 128.162 57.1629 149.122 66.8087 165.829C86.2267 199.462 136.444 206.517 152.29 197.369L153.393 196.731Z" fill="#901065"/>
<path d="M226.557 191.013C242.402 200.162 295.146 190.153 313.997 157.504C323.643 140.797 318.618 119.837 302.772 110.688C293.064 105.083 281.548 105.212 271.864 109.994C270.327 100.505 264.888 91.9171 256.185 86.8924C240.34 77.7436 219.674 83.8705 210.028 100.577C190.61 134.21 209.608 181.227 225.453 190.376L226.557 191.013Z" fill="#901065"/>
</g>
<defs>
<clipPath id="clip0_60_188">
<rect width="500" height="500" fill="white"/>
</clipPath>
</defs>
</svg>
