<svg width="500" height="500" viewBox="0 0 500 500" fill="none" xmlns="http://www.w3.org/2000/svg">
<path d="M346.94 123.22C355.2 136.97 366.79 148.41 380.37 156.96C390.45 163.31 399.98 170.87 408.75 179.65C409.6 180.5 410.44 181.36 411.27 182.22C447.85 220.42 447.85 281.01 411.27 319.21C410.44 320.07 409.6 320.93 408.75 321.78C399.14 331.39 388.63 339.54 377.49 346.24C363.74 354.5 352.3 366.09 343.75 379.67C337.4 389.75 329.84 399.28 321.06 408.05C319.5 409.61 317.91 411.14 316.29 412.63C277.5 448.43 217.04 447.19 179.52 410.06C179.32 409.86 179.12 409.67 178.92 409.47C169.31 399.86 161.16 389.35 154.46 378.21C146.2 364.46 134.61 353.02 121.03 344.47C110.95 338.12 101.42 330.56 92.6501 321.78C90.8401 319.97 89.0801 318.13 87.3701 316.25C51.8201 277.25 53.0601 217.23 89.9701 179.52C90.3901 179.09 90.8101 178.66 91.2401 178.24C100.85 168.63 111.36 160.48 122.5 153.78C136.25 145.52 147.69 133.93 156.24 120.35C162.59 110.27 170.15 100.74 178.93 91.9701C180.47 90.4301 182.02 88.9401 183.6 87.4701C221.36 52.5601 280.03 52.5601 317.79 87.4701C319.37 88.9301 320.93 90.4301 322.46 91.9701C332.07 101.58 340.22 112.09 346.92 123.23L346.94 123.22Z" fill="#901065"/>
<path d="M248.5 376C317.259 376 373 320.259 373 251.5C373 182.741 317.259 127 248.5 127C179.741 127 124 182.741 124 251.5C124 320.259 179.741 376 248.5 376Z" fill="#FFA700"/>
<path d="M181.86 226.59C197.269 226.59 209.76 214.099 209.76 198.69C209.76 183.281 197.269 170.79 181.86 170.79C166.451 170.79 153.96 183.281 153.96 198.69C153.96 214.099 166.451 226.59 181.86 226.59Z" fill="white"/>
<path d="M172.05 213.37C180.158 213.37 186.73 206.798 186.73 198.69C186.73 190.582 180.158 184.01 172.05 184.01C163.943 184.01 157.37 190.582 157.37 198.69C157.37 206.798 163.943 213.37 172.05 213.37Z" fill="black" stroke="white" stroke-miterlimit="10"/>
<path d="M265.56 226.59C280.969 226.59 293.46 214.099 293.46 198.69C293.46 183.281 280.969 170.79 265.56 170.79C250.151 170.79 237.66 183.281 237.66 198.69C237.66 214.099 250.151 226.59 265.56 226.59Z" fill="white"/>
<path d="M256.75 213.37C264.857 213.37 271.43 206.798 271.43 198.69C271.43 190.582 264.857 184.01 256.75 184.01C248.642 184.01 242.07 190.582 242.07 198.69C242.07 206.798 248.642 213.37 256.75 213.37Z" fill="black" stroke="white" stroke-miterlimit="10"/>
<path d="M284.686 144.701C287.318 146.217 288.246 149.595 286.564 152.125C282.544 158.175 278.17 162.844 272.711 166.799C267.205 170.789 260.767 173.922 252.904 177.084C250.086 178.217 246.906 176.778 245.83 173.938C244.753 171.097 246.19 167.931 249.007 166.795C256.391 163.814 261.815 161.111 266.257 157.892C270.328 154.942 273.723 151.448 277.008 146.625C278.717 144.114 282.053 143.186 284.686 144.701Z" fill="black"/>
<path d="M203.882 174.156C202.93 177.041 199.808 178.631 196.991 177.495C190.254 174.779 184.798 171.438 179.822 166.89C174.803 162.302 170.434 156.629 165.75 149.567C164.071 147.036 164.839 143.63 167.404 142.003C169.969 140.375 173.359 141.143 175.041 143.672C179.451 150.303 183.193 155.069 187.243 158.77C190.954 162.162 195.061 164.781 200.448 167.025C203.253 168.192 204.835 171.272 203.882 174.156Z" fill="black"/>
</svg>
