<svg width="500" height="500" viewBox="0 0 500 500" fill="none" xmlns="http://www.w3.org/2000/svg">
<path d="M278.044 193.334C284.72 200.863 313.73 166.172 318.939 158.565C324.147 150.958 324.457 140.522 316.621 129.784C308.785 119.047 285.094 136.575 285.094 136.575C285.094 136.575 308.309 103.438 284.659 96.3161C261.01 89.1942 179.034 166.65 179.034 166.65C179.034 166.65 271.368 185.805 278.044 193.334Z" fill="black"/>
<path d="M225.5 401.5C296.192 401.5 353.5 344.192 353.5 273.5C353.5 202.808 296.192 145.5 225.5 145.5C154.808 145.5 97.5 202.808 97.5 273.5C97.5 344.192 154.808 401.5 225.5 401.5Z" fill="#FFC628"/>
<path d="M302.55 253.13L290.94 289.1C286.45 303.02 295.11 317.73 309.45 320.57L377.85 334.08C394.69 337.41 408.02 319.95 400.38 304.58L370.06 243.57C362.72 228.8 344.96 222.56 330 229.5L318.91 234.64C311.12 238.25 305.18 244.96 302.54 253.13H302.55Z" fill="black"/>
<path d="M182.237 239.753C197.007 231.225 213.507 183.984 195.937 153.551C186.946 137.979 167.685 132.268 152.915 140.795C143.866 146.019 138.603 155.376 137.95 165.421C129.574 162.24 120.107 162.628 111.995 167.312C97.2256 175.839 92.5407 195.376 101.532 210.949C119.631 242.298 166.439 248.874 181.208 240.346L182.237 239.753Z" fill="#901065"/>
<path d="M248.401 239.66C263.171 248.188 312.333 238.857 329.904 208.425C338.894 192.852 334.21 173.315 319.44 164.788C310.391 159.564 299.656 159.684 290.63 164.142C289.197 155.297 284.128 147.292 276.016 142.609C261.246 134.082 241.984 139.793 232.993 155.365C214.894 186.715 232.603 230.539 247.372 239.067L248.401 239.66Z" fill="#901065"/>
</svg>
