<?xml version="1.0" encoding="UTF-8"?><svg id="matilda-ziggy-stardust_svg__Layer_1" xmlns="http://www.w3.org/2000/svg" version="1.1" viewBox="0 0 500 500"><!--Generator: Adobe Illustrator 29.8.3, SVG Export Plug-In . SVG Version: 2.1.1 Build 3)--><defs><style>.matilda-ziggy-stardust_svg__st0{fill:#901065}.matilda-ziggy-stardust_svg__st1{fill:#ffa700}.matilda-ziggy-stardust_svg__st2{fill:#0083d7;fill-rule:evenodd}</style></defs><path class="matilda-ziggy-stardust_svg__st0" d="M374.04,86.58c10.61,17.67,25.51,32.37,42.96,43.36,13.21,8.33,25.44,18.11,36.47,29.16,1.09,1.09,2.17,2.2,3.24,3.3,47.01,49.09,47.01,126.95,0,176.04-1.07,1.11-2.15,2.21-3.24,3.3-12.06,12.07-25.55,22.63-40.17,31.43-17.67,10.61-32.37,25.51-43.36,42.96-8.33,13.21-18.11,25.44-29.16,36.47-2,2-4.05,3.97-6.13,5.89-49.85,46-127.54,44.41-175.75-3.3-.26-.26-.51-.5-.77-.76-12.07-12.06-22.63-25.55-31.43-40.17-10.61-17.67-25.51-32.37-42.96-43.36-13.21-8.33-25.44-18.11-36.47-29.16-2.33-2.33-4.59-4.69-6.78-7.11-45.68-50.12-44.09-127.24,3.34-175.7.54-.55,1.08-1.11,1.63-1.64,12.35-12.35,25.85-22.82,40.17-31.43,17.67-10.61,32.37-25.51,43.36-42.96,8.33-13.21,18.11-25.44,29.16-36.47,1.98-1.98,3.97-3.89,6-5.78,48.52-44.86,123.91-44.86,172.44,0,2.03,1.88,4.03,3.8,6,5.78,12.35,12.35,22.82,25.85,31.43,40.17h.03Z"/><path class="matilda-ziggy-stardust_svg__st1" d="M247.55,411.41c88.36,0,159.99-71.63,159.99-159.99,0-79.73-58.32-145.83-134.62-157.99-8.39-1.33-16.87-2-25.37-2-20.08,0-39.29,3.7-56.99,10.45-60.22,22.96-102.99,81.25-102.99,149.54,0,88.36,71.63,159.99,159.99,159.99"/><path class="matilda-ziggy-stardust_svg__st2" d="M190.55,101.89c17.7-6.75,36.92-10.45,56.99-10.45,8.63,0,17.1.68,25.37,2l-48.29,101.1,105.71-29.29-192.79,246.48,64.03-137.46-107.6,29.82,96.57-202.19Z"/><path d="M308.26,226.74c-17.76.53-33.16-9.77-48-24.23-3.05-2.97-2.93-7.87.15-10.81l11.45-10.96c3.08-2.94,7.94-2.81,11.02.13,12.75,12.23,19.87,14.75,24.45,14.62,4.84-.15,11.98-3.33,24.44-15.76,3.02-3.01,7.88-3.21,11-.31l11.62,10.79c3.12,2.9,3.31,7.79.32,10.82-14.15,14.32-29.01,25.2-46.44,25.72M178.61,225.36c-17.76.53-33.16-9.77-48-24.24-3.05-2.97-2.93-7.87.15-10.81l11.45-10.96c3.08-2.95,7.94-2.81,11.02.13,12.75,12.23,19.87,14.75,24.45,14.62,4.84-.14,11.98-3.33,24.44-15.76,3.02-3.01,7.88-3.21,11-.31l11.62,10.79c3.12,2.9,3.31,7.79.32,10.82-14.15,14.31-29.01,25.2-46.44,25.72"/></svg>