<svg xmlns="http://www.w3.org/2000/svg" viewBox="0 0 500 500"><path fill="#901065" d="M346.94 123.22c8.26 13.75 19.85 25.19 33.43 33.74a162.5 162.5 0 0 1 28.38 22.69c.85.85 1.69 1.71 2.52 2.57 36.58 38.2 36.58 98.79 0 136.99-.83.86-1.67 1.72-2.52 2.57a163 163 0 0 1-31.26 24.46c-13.75 8.26-25.19 19.85-33.74 33.43a162.5 162.5 0 0 1-22.69 28.38c-1.56 1.56-3.15 3.09-4.77 4.58-38.79 35.8-99.25 34.56-136.77-2.57-.2-.2-.4-.39-.6-.59a163 163 0 0 1-24.46-31.26c-8.26-13.75-19.85-25.19-33.43-33.74a162.5 162.5 0 0 1-28.38-22.69c-1.81-1.81-3.57-3.65-5.28-5.53-35.55-39-34.31-99.02 2.6-136.73.42-.43.84-.86 1.27-1.28 9.61-9.61 20.12-17.76 31.26-24.46 13.75-8.26 25.19-19.85 33.74-33.43a162.5 162.5 0 0 1 22.69-28.38c1.54-1.54 3.09-3.03 4.67-4.5 37.76-34.91 96.43-34.91 134.19 0 1.58 1.46 3.14 2.96 4.67 4.5 9.61 9.61 17.76 20.12 24.46 31.26h.02Z"/><path fill="#ffa700" d="M248.5 376c68.76 0 124.5-55.74 124.5-124.5S317.26 127 248.5 127 124 182.74 124 251.5 179.74 376 248.5 376"/><path fill="#0083d7" d="M219.39 230.73c15.85-9.15 33.55-59.83 14.7-92.48-9.65-16.71-30.31-22.84-46.16-13.69-9.71 5.6-15.35 15.64-16.05 26.42-8.99-3.41-19.14-3-27.85 2.03-15.85 9.15-20.87 30.11-11.23 46.81 19.42 33.63 69.63 40.69 85.48 31.54l1.1-.64Zm79.17-3.72c15.85 9.15 68.59-.86 87.44-33.51 9.65-16.71 4.62-37.67-11.23-46.82-9.71-5.61-21.22-5.48-30.91-.69-1.54-9.49-6.98-18.08-15.68-23.1-15.85-9.15-36.51-3.02-46.16 13.68-19.42 33.63-.42 80.65 15.42 89.8l1.1.64Z" class="matilda-heart-eyes_svg__throb throb"/></svg>