<svg xmlns="http://www.w3.org/2000/svg" viewBox="0 0 500 500"><path d="M153.06 123.22c-8.26 13.75-19.85 25.19-33.43 33.74a162.5 162.5 0 0 0-28.38 22.69c-.85.85-1.69 1.71-2.52 2.57-36.58 38.2-36.58 98.79 0 136.99.83.86 1.67 1.72 2.52 2.57 9.61 9.61 20.12 17.76 31.26 24.46 13.75 8.26 25.19 19.85 33.74 33.43a162.5 162.5 0 0 0 22.69 28.38c1.56 1.56 3.15 3.09 4.77 4.58 38.79 35.8 99.25 34.56 136.77-2.57.2-.2.4-.39.6-.59 9.61-9.61 17.76-20.12 24.46-31.26 8.26-13.75 19.85-25.19 33.43-33.74a162.5 162.5 0 0 0 28.38-22.69c1.81-1.81 3.57-3.65 5.28-5.53 35.55-39 34.31-99.02-2.6-136.73-.42-.43-.84-.86-1.27-1.28a163 163 0 0 0-31.26-24.46c-13.75-8.26-25.19-19.85-33.74-33.43a162.5 162.5 0 0 0-22.69-28.38c-1.54-1.54-3.09-3.03-4.67-4.5-37.76-34.91-96.43-34.91-134.19 0-1.58 1.46-3.14 2.96-4.67 4.5a163 163 0 0 0-24.46 31.26h-.02Z" style="fill:#901065"/><path d="M251.5 376C182.74 376 127 320.26 127 251.5S182.74 127 251.5 127 376 182.74 376 251.5 320.26 376 251.5 376" style="fill:#ffa700"/><g class="matilda-monocle_svg__eyes eyes"><path d="M314 245c-14.36 0-26-11.19-26-25s11.64-25 26-25 26 11.19 26 25-11.64 25-26 25M203 245c-14.36 0-26-11.19-26-25s11.64-25 26-25 26 11.19 26 25-11.64 25-26 25"/></g><path d="M232.6 177.58c1.8-2.62 1.04-6.23-1.77-7.73-6.98-3.72-13.58-6.02-20.85-7.19-7.32-1.18-15.1-1.17-24.25-.55-3.18.21-5.47 3.11-5.03 6.26.41 2.92 3.04 4.99 5.98 4.79 8.91-.61 15.67-.59 21.72.39 5.59.9 10.8 2.65 16.65 5.75 2.61 1.38 5.88.71 7.54-1.73ZM331.13 131.18c.3-3.02-1.9-5.75-4.93-5.86-7.26-.26-13.6.57-20 2.7-6.45 2.15-12.75 5.55-19.91 10.09-2.56 1.63-3.25 5.05-1.57 7.58s5.09 3.21 7.65 1.59c6.73-4.26 12.09-7.09 17.29-8.82 4.77-1.59 9.59-2.31 15.42-2.16 3.04.08 5.74-2.09 6.04-5.12ZM264.5 210c0-27.38 22-49.5 49.05-49.5s49.05 22.12 49.05 49.5-22 49.5-49.05 49.5-49.05-22.12-49.05-49.5m-11 0c0 33.37 26.84 60.5 60.05 60.5s60.05-27.13 60.05-60.5-26.85-60.5-60.05-60.5-60.05 27.13-60.05 60.5"/><path d="M362.2 419.75v.23c.1 2.38 2.04 4.29 4.45 4.32s4.39-1.84 4.54-4.22v-.23l2.31-207.5a4.494 4.494 0 0 0-4.45-4.55 4.5 4.5 0 0 0-4.55 4.45l-2.3 207.49Z"/><path d="M283.67 177.42c6.28-6.04 14.78-11.23 23.66-10.91l.42.02.23.02c2.37.25 4.15 2.32 4.01 4.72a4.5 4.5 0 0 1-4.51 4.25h-.23l-.51-.02c-5.25-.07-11.36 3.14-16.84 8.4-5.6 5.39-9.51 11.97-10.51 16.58a4.498 4.498 0 0 1-8.79-1.91c1.5-6.89 6.64-14.97 13.06-21.15Z" style="fill:#fff"/></svg>