<svg xmlns="http://www.w3.org/2000/svg" id="matilda-star-eyes_svg__Layer_1" viewBox="0 0 500 500"><defs><style>.matilda-star-eyes_svg__st1{fill:#0083d7}</style></defs><path d="M346.94 123.22c8.26 13.75 19.85 25.19 33.43 33.74a162.5 162.5 0 0 1 28.38 22.69c.85.85 1.69 1.71 2.52 2.57 36.58 38.2 36.58 98.79 0 136.99-.83.86-1.67 1.72-2.52 2.57a163 163 0 0 1-31.26 24.46c-13.75 8.26-25.19 19.85-33.74 33.43a162.5 162.5 0 0 1-22.69 28.38c-1.56 1.56-3.15 3.09-4.77 4.58-38.79 35.8-99.25 34.56-136.77-2.57-.2-.2-.4-.39-.6-.59a163 163 0 0 1-24.46-31.26c-8.26-13.75-19.85-25.19-33.43-33.74a162.5 162.5 0 0 1-28.38-22.69c-1.81-1.81-3.57-3.65-5.28-5.53-35.55-39-34.31-99.02 2.6-136.73.42-.43.84-.86 1.27-1.28 9.61-9.61 20.12-17.76 31.26-24.46 13.75-8.26 25.19-19.85 33.74-33.43a162.5 162.5 0 0 1 22.69-28.38c1.54-1.54 3.09-3.03 4.67-4.5 37.76-34.91 96.43-34.91 134.19 0 1.58 1.46 3.14 2.96 4.67 4.5 9.61 9.61 17.76 20.12 24.46 31.26h.02Z" style="fill:#901065"/><path d="M248.5 376c68.76 0 124.5-55.74 124.5-124.5S317.26 127 248.5 127 124 182.74 124 251.5 179.74 376 248.5 376" style="fill:#ffa700"/><g class="matilda-star-eyes_svg__throb throb"><path d="M177 132.07c.2-3.87 5.24-5.22 7.35-1.97l13.69 21.08a4.02 4.02 0 0 0 4.39 1.69l24.28-6.51c3.74-1 6.58 3.37 4.14 6.38l-15.82 19.53a4.01 4.01 0 0 0-.25 4.7l13.69 21.08c2.11 3.25-1.17 7.3-4.79 5.91l-23.46-9.01a3.99 3.99 0 0 0-4.54 1.22l-15.82 19.53c-2.44 3.01-7.31 1.14-7.1-2.73l1.32-25.1c.09-1.73-.94-3.32-2.56-3.94l-23.47-9.01c-3.62-1.39-3.34-6.6.4-7.6l24.28-6.51a4 4 0 0 0 2.96-3.65l1.32-25.1ZM319.7 134.01c2.88-2.59 7.39.01 6.59 3.8l-5.23 24.59c-.36 1.69.41 3.43 1.91 4.3l21.77 12.57c3.36 1.94 2.27 7.04-1.58 7.44l-25 2.63a3.995 3.995 0 0 0-3.49 3.15l-5.23 24.59c-.81 3.79-5.99 4.34-7.57.79l-10.22-22.96a4 4 0 0 0-4.07-2.35l-25 2.63c-3.85.4-5.97-4.36-3.09-6.95l18.68-16.82a4.01 4.01 0 0 0 .98-4.6l-10.22-22.96c-1.58-3.54 2.3-7.03 5.65-5.09l21.77 12.57a4 4 0 0 0 4.68-.49l18.68-16.82Z" class="matilda-star-eyes_svg__st1"/></g></svg>