<?xml version="1.0" encoding="UTF-8"?><svg id="matilda-blank_svg__Layer_1" xmlns="http://www.w3.org/2000/svg" version="1.1" viewBox="0 0 500 500"><!--Generator: Adobe Illustrator 29.8.3, SVG Export Plug-In . SVG Version: 2.1.1 Build 3)--><defs><style>.matilda-blank_svg__st0{fill:#901065}.matilda-blank_svg__st1{fill:#ffa700}</style></defs><path class="matilda-blank_svg__st0" d="M374.29,87.42c10.59,17.63,25.46,32.3,42.87,43.27,13.18,8.31,25.39,18.07,36.39,29.1,1.09,1.09,2.17,2.19,3.23,3.3,46.91,48.99,46.91,126.69,0,175.67-1.06,1.1-2.14,2.21-3.23,3.3-12.03,12.05-25.5,22.58-40.09,31.37-17.63,10.59-32.3,25.46-43.27,42.87-8.31,13.18-18.07,25.39-29.1,36.39-2,2-4.04,3.96-6.12,5.87-49.74,45.91-127.28,44.32-175.39-3.3-.26-.26-.51-.5-.77-.76-12.05-12.03-22.58-25.5-31.37-40.09-10.59-17.63-25.46-32.3-42.87-43.27-13.18-8.31-25.39-18.07-36.39-29.1-2.32-2.32-4.58-4.68-6.77-7.09-45.59-50.01-44-126.98,3.33-175.34.54-.55,1.08-1.1,1.63-1.64,12.32-12.32,25.8-22.77,40.09-31.37,17.63-10.59,32.3-25.46,43.27-42.87,8.31-13.18,18.07-25.39,29.1-36.39,1.97-1.97,3.96-3.89,5.99-5.77,48.42-44.77,123.66-44.77,172.08,0,2.03,1.87,4.03,3.8,5.99,5.77,12.32,12.32,22.77,25.8,31.37,40.09h.03Z"/><path class="matilda-blank_svg__st1" d="M248.05,411.58c88.18,0,159.66-71.48,159.66-159.66s-71.48-159.66-159.66-159.66S88.39,163.75,88.39,251.92s71.48,159.66,159.66,159.66"/><path d="M171.34,233.79c10.4,0,18.83-8.43,18.83-18.83s-8.43-18.83-18.83-18.83-18.83,8.43-18.83,18.83,8.43,18.83,18.83,18.83M308.55,233.79c10.4,0,18.83-8.43,18.83-18.83s-8.43-18.83-18.83-18.83-18.83,8.43-18.83,18.83,8.43,18.83,18.83,18.83"/></svg>