<svg xmlns="http://www.w3.org/2000/svg" width="500" height="500" fill="none" viewBox="0 0 500 500"><path fill="#901065" d="M346.94 123.22c8.26 13.75 19.85 25.19 33.43 33.74a162.5 162.5 0 0 1 28.38 22.69c.85.85 1.69 1.71 2.52 2.57 36.58 38.2 36.58 98.79 0 136.99-.83.86-1.67 1.72-2.52 2.57a163 163 0 0 1-31.26 24.46c-13.75 8.26-25.19 19.85-33.74 33.43a162.5 162.5 0 0 1-22.69 28.38c-1.56 1.56-3.15 3.09-4.77 4.58-38.79 35.8-99.25 34.56-136.77-2.57-.2-.2-.4-.39-.6-.59a163 163 0 0 1-24.46-31.26c-8.26-13.75-19.85-25.19-33.43-33.74a162.5 162.5 0 0 1-28.38-22.69c-1.81-1.81-3.57-3.65-5.28-5.53-35.55-39-34.31-99.02 2.6-136.73.42-.43.84-.86 1.27-1.28 9.61-9.61 20.12-17.76 31.26-24.46 13.75-8.26 25.19-19.85 33.74-33.43a162.5 162.5 0 0 1 22.69-28.38c1.54-1.54 3.09-3.03 4.67-4.5 37.76-34.91 96.43-34.91 134.19 0 1.58 1.46 3.14 2.96 4.67 4.5 9.61 9.61 17.76 20.12 24.46 31.26z"/><path fill="#ffa700" d="M248.5 376c68.759 0 124.5-55.741 124.5-124.5 0-62.042-45.381-113.484-104.759-122.944A125.5 125.5 0 0 0 248.5 127c-15.623 0-30.574 2.878-44.351 8.132C157.288 153.002 124 198.363 124 251.5c0 68.759 55.741 124.5 124.5 124.5"/><path fill="#0083d7" fill-rule="evenodd" d="M204.149 135.132C217.926 129.878 232.877 127 248.5 127c6.718 0 13.311.532 19.741 1.556l-37.576 78.673 82.266-22.796-150.026 191.806 49.83-106.969L129 292.474z" clip-rule="evenodd"/><path fill="#000" d="M295.749 232.291c-13.822.414-25.804-7.601-37.351-18.859-2.372-2.313-2.279-6.125.114-8.416l8.912-8.531c2.393-2.291 6.181-2.189 8.573.105 9.922 9.515 15.463 11.482 19.024 11.375 3.763-.113 9.32-2.595 19.018-12.262 2.347-2.339 6.134-2.497 8.562-.242l9.04 8.394c2.428 2.255 2.579 6.063.25 8.42-11.008 11.14-22.575 19.61-36.142 20.016M194.856 231.213c-13.823.414-25.804-7.601-37.351-18.86-2.373-2.313-2.28-6.124.114-8.416l8.911-8.53c2.394-2.292 6.182-2.189 8.573.104 9.923 9.515 15.463 11.482 19.025 11.375 3.763-.112 9.32-2.595 19.017-12.262 2.347-2.339 6.134-2.497 8.562-.242l9.04 8.395c2.429 2.254 2.579 6.063.25 8.42-11.008 11.139-22.574 19.609-36.141 20.016"/></svg>