<svg xmlns="http://www.w3.org/2000/svg" id="matilda-raised-eyebrow_svg__Layer_1" viewBox="0 0 500 500"><defs><style>.matilda-raised-eyebrow_svg__st1{fill:#fff}.matilda-raised-eyebrow_svg__st3{stroke:#fff;stroke-miterlimit:10}</style></defs><path d="M346.94 123.22c8.26 13.75 19.85 25.19 33.43 33.74a162.5 162.5 0 0 1 28.38 22.69c.85.85 1.69 1.71 2.52 2.57 36.58 38.2 36.58 98.79 0 136.99-.83.86-1.67 1.72-2.52 2.57a163 163 0 0 1-31.26 24.46c-13.75 8.26-25.19 19.85-33.74 33.43a162.5 162.5 0 0 1-22.69 28.38c-1.56 1.56-3.15 3.09-4.77 4.58-38.79 35.8-99.25 34.56-136.77-2.57-.2-.2-.4-.39-.6-.59a163 163 0 0 1-24.46-31.26c-8.26-13.75-19.85-25.19-33.43-33.74a162.5 162.5 0 0 1-28.38-22.69c-1.81-1.81-3.57-3.65-5.28-5.53-35.55-39-34.31-99.02 2.6-136.73.42-.43.84-.86 1.27-1.28 9.61-9.61 20.12-17.76 31.26-24.46 13.75-8.26 25.19-19.85 33.74-33.43a162.5 162.5 0 0 1 22.69-28.38c1.54-1.54 3.09-3.03 4.67-4.5 37.76-34.91 96.43-34.91 134.19 0 1.58 1.46 3.14 2.96 4.67 4.5 9.61 9.61 17.76 20.12 24.46 31.26h.02Z" style="fill:#901065"/><path d="M248.5 376c68.76 0 124.5-55.74 124.5-124.5S317.26 127 248.5 127 124 182.74 124 251.5 179.74 376 248.5 376" style="fill:#ffa700"/><g class="matilda-raised-eyebrow_svg__eyes eyes"><path d="M181.86 226.59c15.41 0 27.9-12.49 27.9-27.9s-12.49-27.9-27.9-27.9-27.9 12.49-27.9 27.9 12.49 27.9 27.9 27.9" class="matilda-raised-eyebrow_svg__st1"/><path d="M172.05 213.37c8.11 0 14.68-6.57 14.68-14.68s-6.57-14.68-14.68-14.68-14.68 6.57-14.68 14.68 6.57 14.68 14.68 14.68Z" class="matilda-raised-eyebrow_svg__st3"/><path d="M265.56 226.59c15.41 0 27.9-12.49 27.9-27.9s-12.49-27.9-27.9-27.9-27.9 12.49-27.9 27.9 12.49 27.9 27.9 27.9" class="matilda-raised-eyebrow_svg__st1"/><path d="M256.75 213.37c8.11 0 14.68-6.57 14.68-14.68s-6.57-14.68-14.68-14.68-14.68 6.57-14.68 14.68 6.57 14.68 14.68 14.68Z" class="matilda-raised-eyebrow_svg__st3"/></g><path d="M242.42 168.55c-1.19-2.79.11-6.05 2.97-7.06 6.85-2.41 13.16-3.5 19.9-3.37 6.8.13 13.82 1.51 22.01 3.72 2.93.79 4.6 3.86 3.75 6.77-.85 2.92-3.9 4.58-6.84 3.79-7.69-2.07-13.65-3.18-19.13-3.28-5.03-.1-9.84.65-15.37 2.52-2.88.97-6.1-.29-7.29-3.09M160.73 154.18c-.31-3.02 1.9-5.75 4.93-5.86 7.26-.26 13.6.57 20 2.7 6.45 2.15 12.75 5.55 19.91 10.09 2.56 1.63 3.25 5.05 1.57 7.58s-5.09 3.21-7.65 1.59c-6.73-4.26-12.09-7.09-17.29-8.82-4.77-1.59-9.59-2.31-15.42-2.16-3.04.08-5.74-2.09-6.04-5.12Z"/></svg>