<?xml version="1.0" encoding="UTF-8"?><svg id="matilda-big-eyes_svg__Layer_1" xmlns="http://www.w3.org/2000/svg" version="1.1" viewBox="0 0 500 500"><!--Generator: Adobe Illustrator 29.8.3, SVG Export Plug-In . SVG Version: 2.1.1 Build 3)--><defs><style>.matilda-big-eyes_svg__st0{fill:#901065}.matilda-big-eyes_svg__st1{fill:#fff}.matilda-big-eyes_svg__st2{fill:#ffa700}.matilda-big-eyes_svg__st3{stroke:#fff;stroke-miterlimit:10}</style></defs><path class="matilda-big-eyes_svg__st0" d="M373.31,84.08c10.68,17.78,25.67,32.57,43.22,43.62,13.29,8.38,25.6,18.22,36.69,29.34,1.1,1.1,2.19,2.21,3.26,3.32,47.3,49.39,47.3,127.73,0,177.12-1.07,1.11-2.16,2.22-3.26,3.32-12.13,12.15-25.71,22.77-40.42,31.63-17.78,10.68-32.57,25.67-43.62,43.22-8.38,13.29-18.22,25.6-29.34,36.69-2.02,2.02-4.07,4-6.17,5.92-50.15,46.29-128.33,44.69-176.84-3.32-.26-.26-.52-.5-.78-.76-12.15-12.13-22.77-25.71-31.63-40.42-10.68-17.78-25.67-32.57-43.22-43.62-13.29-8.38-25.6-18.22-36.69-29.34-2.34-2.34-4.62-4.72-6.83-7.15-45.97-50.43-44.36-128.03,3.36-176.79.54-.56,1.09-1.11,1.64-1.66,12.43-12.43,26.01-22.96,40.42-31.63,17.78-10.68,32.57-25.67,43.62-43.22,8.38-13.29,18.22-25.6,29.34-36.69,1.99-1.99,4-3.92,6.04-5.82,48.82-45.14,124.68-45.14,173.5,0,2.04,1.89,4.06,3.83,6.04,5.82,12.43,12.43,22.96,26.01,31.63,40.42h.03Z"/><path class="matilda-big-eyes_svg__st2" d="M246.03,410.91c88.9,0,160.98-72.07,160.98-160.98s-72.07-160.98-160.98-160.98S85.06,161.03,85.06,249.94s72.07,160.98,160.98,160.98"/><g class="eyes"><path class="matilda-big-eyes_svg__st1" d="M113.51,259.64c26.42,0,47.84-21.42,47.84-47.84s-21.42-47.84-47.84-47.84-47.84,21.42-47.84,47.84,21.42,47.84,47.84,47.84"/><path class="matilda-big-eyes_svg__st3" d="M89.05,230.65c10.49,0,18.98-8.49,18.98-18.98s-8.49-18.98-18.98-18.98-18.98,8.49-18.98,18.98,8.49,18.98,18.98,18.98h0Z"/><path class="matilda-big-eyes_svg__st1" d="M224.05,262.22c27.49,0,49.78-22.58,49.78-50.43s-22.29-50.43-49.78-50.43-49.78,22.58-49.78,50.43,22.29,50.43,49.78,50.43"/><path class="matilda-big-eyes_svg__st3" d="M198.57,230.65c10.49,0,18.98-8.49,18.98-18.98s-8.49-18.98-18.98-18.98-18.98,8.49-18.98,18.98,8.49,18.98,18.98,18.98h0Z"/></g></svg>