<?xml version="1.0" encoding="UTF-8"?><svg id="matilda-sleeping_svg__Layer_1" xmlns="http://www.w3.org/2000/svg" version="1.1" viewBox="0 0 500 500"><!--Generator: Adobe Illustrator 29.8.3, SVG Export Plug-In . SVG Version: 2.1.1 Build 3)--><defs><style>.matilda-sleeping_svg__st0{fill:#901065}.matilda-sleeping_svg__st1{fill:#ffa700}</style></defs><path class="matilda-sleeping_svg__st0" d="M317.24,52.2c15.8,13.69,34.79,23.17,55.07,28.27,15.36,3.87,30.23,9.44,44.34,16.62,1.4.71,2.79,1.43,4.16,2.16,60.78,32.52,85.3,107.59,55.44,169.72-.68,1.41-1.38,2.81-2.08,4.2-7.82,15.44-17.51,29.87-28.83,42.96-13.69,15.8-23.17,34.79-28.27,55.07-3.87,15.36-9.44,30.23-16.63,44.34-1.3,2.56-2.65,5.1-4.06,7.61-33.57,60.05-108.97,82.99-170.49,52.17-.33-.17-.65-.32-.98-.49-15.44-7.82-29.87-17.51-42.96-28.83-15.8-13.69-34.79-23.17-55.07-28.27-15.36-3.87-30.23-9.44-44.34-16.63-2.96-1.5-5.89-3.07-8.78-4.71C13.95,362.47-8.8,287.61,21.66,225.95c.34-.7.7-1.4,1.06-2.1,7.82-15.44,17.51-29.87,28.83-42.96,13.69-15.8,23.17-34.79,28.27-55.07,3.87-15.36,9.44-30.23,16.63-44.34,1.28-2.53,2.6-5,3.96-7.47C133.06,15.48,205.75-8.26,266.66,19.7c2.55,1.17,5.09,2.4,7.61,3.69,15.44,7.82,29.87,17.51,42.96,28.83l.02-.02Z"/><path class="matilda-sleeping_svg__st1" d="M297.59,405.21c85.19-27.83,131.69-119.45,103.86-204.63-27.83-85.19-119.45-131.69-204.63-103.86-85.19,27.83-131.69,119.45-103.86,204.63,27.83,85.19,119.45,131.69,204.63,103.86"/><path d="M175.85,209.57c-10.67,2.29-21.14-1.76-31.69-8.49-3.64-2.32-4.41-7.25-1.88-10.75l2.91-4.02c2.53-3.5,7.39-4.24,11.07-1.97,8.21,5.05,12.57,5.67,15.27,5.09,2.86-.62,6.67-3.12,12.37-10.89,2.55-3.48,7.35-4.59,10.99-2.27l4.19,2.66c3.64,2.32,4.75,7.18,2.24,10.69-7.07,9.9-15.01,17.7-25.46,19.95M289.39,185.94c-10.67,2.3-21.14-1.76-31.69-8.48-3.64-2.32-4.41-7.25-1.88-10.75l2.91-4.02c2.53-3.5,7.39-4.24,11.07-1.97,8.21,5.05,12.57,5.67,15.27,5.09,2.86-.62,6.67-3.12,12.37-10.89,2.55-3.48,7.35-4.59,10.99-2.27l4.19,2.66c3.64,2.32,4.75,7.18,2.24,10.69-7.06,9.91-15.01,17.7-25.46,19.95"/></svg>