<?xml version="1.0" encoding="UTF-8"?><svg id="matilda-stern_svg__Layer_1" xmlns="http://www.w3.org/2000/svg" version="1.1" viewBox="0 0 500 500"><!--Generator: Adobe Illustrator 29.8.3, SVG Export Plug-In . SVG Version: 2.1.1 Build 3)--><defs><style>.matilda-stern_svg__st0{fill:#901065}.matilda-stern_svg__st1{fill:#fff}.matilda-stern_svg__st2{fill:#ffa700}.matilda-stern_svg__st3{stroke:#fff;stroke-miterlimit:10}</style></defs><path class="matilda-stern_svg__st0" d="M368.72,87.78c10.37,17.27,24.93,31.64,41.98,42.37,12.91,8.14,24.86,17.69,35.64,28.5,1.07,1.07,2.12,2.15,3.16,3.23,45.94,47.97,45.94,124.07,0,172.04-1.04,1.08-2.1,2.16-3.16,3.23-11.79,11.8-24.97,22.12-39.26,30.72-17.27,10.37-31.64,24.93-42.37,41.98-8.14,12.91-17.69,24.86-28.5,35.64-1.96,1.96-3.96,3.88-5.99,5.75-48.72,44.96-124.65,43.4-171.77-3.23-.25-.25-.5-.49-.75-.74-11.8-11.79-22.12-24.97-30.72-39.26-10.37-17.27-24.93-31.64-41.98-42.37-12.91-8.14-24.86-17.69-35.64-28.5-2.27-2.27-4.48-4.58-6.63-6.95C-1.91,281.22-.35,205.84,46,158.49c.53-.54,1.05-1.08,1.59-1.61,12.07-12.07,25.27-22.3,39.26-30.72,17.27-10.37,31.64-24.93,42.37-41.98,8.14-12.91,17.69-24.86,28.5-35.64,1.93-1.93,3.88-3.81,5.86-5.65C211.01-.96,284.69-.96,332.11,42.88c1.98,1.83,3.94,3.72,5.86,5.65,12.07,12.07,22.3,25.27,30.72,39.26h.03Z"/><path class="matilda-stern_svg__st2" d="M245.09,405.24c86.35,0,156.36-70,156.36-156.36s-70-156.36-156.36-156.36S88.74,162.53,88.74,248.88s70,156.36,156.36,156.36"/><g class="eyes"><path class="matilda-stern_svg__st1" d="M161.4,217.6c19.35,0,35.04-15.69,35.04-35.04s-15.69-35.04-35.04-35.04-35.04,15.69-35.04,35.04,15.69,35.04,35.04,35.04"/><path class="matilda-stern_svg__st3" d="M149.08,201c10.19,0,18.44-8.25,18.44-18.44s-8.25-18.44-18.44-18.44-18.44,8.25-18.44,18.44,8.25,18.44,18.44,18.44h0Z"/><path class="matilda-stern_svg__st1" d="M266.52,217.6c19.35,0,35.04-15.69,35.04-35.04s-15.69-35.04-35.04-35.04-35.04,15.69-35.04,35.04,15.69,35.04,35.04,35.04"/><path class="matilda-stern_svg__st3" d="M255.46,201c10.19,0,18.44-8.25,18.44-18.44s-8.25-18.44-18.44-18.44-18.44,8.25-18.44,18.44,8.25,18.44,18.44,18.44Z"/></g><path d="M290.54,114.76c3.3,1.91,4.47,6.14,2.36,9.32-5.05,7.6-10.54,13.46-17.39,18.42-6.92,5.01-15,8.94-24.88,12.92-3.54,1.42-7.54-.39-8.88-3.96-1.36-3.57.45-7.55,3.99-8.97,9.27-3.74,16.09-7.13,21.66-11.18,5.11-3.7,9.38-8.09,13.5-14.15,2.15-3.15,6.34-4.32,9.65-2.41h-.01ZM189.06,151.75c-1.19,3.62-5.11,5.61-8.65,4.19-8.46-3.42-15.31-7.61-21.56-13.31-6.3-5.76-11.79-12.89-17.67-21.75-2.11-3.18-1.14-7.46,2.07-9.49,3.22-2.05,7.47-1.08,9.59,2.1,5.54,8.33,10.24,14.32,15.32,18.96,4.66,4.26,9.82,7.55,16.59,10.36,3.53,1.47,5.51,5.34,4.31,8.95h0Z"/></svg>