<?xml version="1.0" encoding="UTF-8"?><svg id="matilda-frown_svg__Layer_1" xmlns="http://www.w3.org/2000/svg" version="1.1" viewBox="0 0 500 500"><!--Generator: Adobe Illustrator 29.8.3, SVG Export Plug-In . SVG Version: 2.1.1 Build 3)--><defs><style>.matilda-frown_svg__st0{fill:#901065}.matilda-frown_svg__st1{fill:#fff}.matilda-frown_svg__st2{fill:#ffa700}.matilda-frown_svg__st3{stroke:#fff;stroke-miterlimit:10}</style></defs><path class="matilda-frown_svg__st0" d="M374.77,89.09c10.55,17.56,25.35,32.17,42.69,43.09,13.13,8.27,25.28,17.99,36.24,28.98,1.09,1.09,2.16,2.18,3.22,3.28,46.72,48.78,46.72,126.16,0,174.95-1.06,1.1-2.13,2.2-3.22,3.28-11.98,12-25.39,22.49-39.92,31.24-17.56,10.55-32.17,25.35-43.09,42.69-8.27,13.13-17.99,25.28-28.98,36.24-1.99,1.99-4.02,3.95-6.09,5.85-49.54,45.72-126.75,44.14-174.67-3.28-.26-.26-.51-.5-.77-.75-12-11.98-22.49-25.39-31.24-39.92-10.55-17.56-25.35-32.17-42.69-43.09-13.13-8.27-25.28-17.99-36.24-28.98-2.31-2.31-4.56-4.66-6.74-7.06C-2.12,285.8-.53,209.15,46.6,160.99c.54-.55,1.07-1.1,1.62-1.63,12.27-12.27,25.69-22.68,39.92-31.24,17.56-10.55,32.17-25.35,43.09-42.69,8.27-13.13,17.99-25.28,28.98-36.24,1.97-1.97,3.95-3.87,5.96-5.75,48.22-44.58,123.15-44.58,171.37,0,2.02,1.86,4.01,3.78,5.96,5.75,12.27,12.27,22.68,25.69,31.24,39.92h.03Z"/><path class="matilda-frown_svg__st2" d="M249.06,411.91c87.81,0,159-71.18,159-159s-71.18-159-159-159S90.06,165.1,90.06,252.92s71.18,159,159,159"/><g class="eyes"><path class="matilda-frown_svg__st1" d="M163.95,221.1c19.68,0,35.63-15.95,35.63-35.63s-15.95-35.63-35.63-35.63-35.63,15.95-35.63,35.63,15.95,35.63,35.63,35.63"/><path class="matilda-frown_svg__st3" d="M151.43,204.22c10.36,0,18.75-8.39,18.75-18.75s-8.39-18.75-18.75-18.75-18.75,8.39-18.75,18.75,8.39,18.75,18.75,18.75h0Z"/><path class="matilda-frown_svg__st1" d="M270.85,221.1c19.68,0,35.63-15.95,35.63-35.63s-15.95-35.63-35.63-35.63-35.63,15.95-35.63,35.63,15.95,35.63,35.63,35.63"/><path class="matilda-frown_svg__st3" d="M259.59,204.22c10.36,0,18.75-8.39,18.75-18.75s-8.39-18.75-18.75-18.75-18.75,8.39-18.75,18.75,8.39,18.75,18.75,18.75Z"/></g><path d="M313.65,154.89c.33,3.87-2.54,7.29-6.42,7.37-9.27.19-17.36-1.01-25.48-3.86-8.2-2.87-16.17-7.36-25.21-13.29-3.24-2.13-4.05-6.51-1.85-9.72,2.2-3.19,6.56-4,9.81-1.86,8.51,5.58,15.29,9.31,21.9,11.62,6.05,2.13,12.2,3.14,19.65,3.08,3.88-.04,7.28,2.8,7.61,6.65h-.01ZM199.99,152.33c.33,3.87-2.54,7.29-6.42,7.37-9.27.19-17.36-1.01-25.48-3.86-8.2-2.87-16.17-7.36-25.21-13.29-3.24-2.13-4.05-6.51-1.85-9.72,2.2-3.19,6.56-4,9.81-1.86,8.51,5.58,15.29,9.31,21.9,11.62,6.05,2.13,12.2,3.14,19.65,3.08,3.88-.04,7.28,2.8,7.61,6.65h-.01Z"/></svg>