<?xml version="1.0" encoding="UTF-8"?><svg id="matilda-stare_svg__Layer_1" xmlns="http://www.w3.org/2000/svg" version="1.1" viewBox="0 0 500 500"><!--Generator: Adobe Illustrator 29.8.3, SVG Export Plug-In . SVG Version: 2.1.1 Build 3)--><defs><style>.matilda-stare_svg__st0{fill:#901065}.matilda-stare_svg__st1{fill:#fff}.matilda-stare_svg__st2{fill:#ffa700}.matilda-stare_svg__st3{stroke:#fff;stroke-miterlimit:10}</style></defs><path class="matilda-stare_svg__st0" d="M367.51,83.6c10.48,17.45,25.19,31.97,42.43,42.82,13.04,8.22,25.13,17.88,36.02,28.8,1.08,1.08,2.14,2.17,3.2,3.26,46.42,48.48,46.42,125.38,0,173.86-1.05,1.09-2.12,2.18-3.2,3.26-11.91,11.93-25.23,22.35-39.67,31.04-17.45,10.48-31.97,25.19-42.82,42.43-8.22,13.04-17.88,25.13-28.8,36.02-1.98,1.98-4,3.92-6.05,5.81-49.23,45.43-125.96,43.86-173.58-3.26-.25-.25-.51-.49-.76-.75-11.93-11.91-22.35-25.23-31.04-39.67-10.48-17.45-25.19-31.97-42.43-42.82-13.04-8.22-25.13-17.88-36.02-28.8-2.3-2.3-4.53-4.63-6.7-7.02-45.12-49.5-43.54-125.67,3.3-173.53.53-.55,1.07-1.09,1.61-1.62,12.2-12.2,25.53-22.54,39.67-31.04,17.45-10.48,31.97-25.19,42.82-42.43,8.22-13.04,17.88-25.13,28.8-36.02,1.95-1.95,3.92-3.85,5.93-5.71,47.92-44.31,122.38-44.31,170.3,0,2.01,1.85,3.99,3.76,5.93,5.71,12.2,12.2,22.54,25.53,31.04,39.67h.03Z"/><path class="matilda-stare_svg__st2" d="M242.57,404.41c87.27,0,158.01-70.74,158.01-158.01s-70.74-158.01-158.01-158.01S84.57,159.14,84.57,246.4s70.74,158.01,158.01,158.01"/><g class="eyes"><path class="matilda-stare_svg__st1" d="M156.91,217.85c31.54,0,57.11-25.57,57.11-57.11s-25.57-57.11-57.11-57.11-57.11,25.57-57.11,57.11,25.57,57.11,57.11,57.11"/><path class="matilda-stare_svg__st3" d="M156.27,189.93c16.47,0,29.82-13.35,29.82-29.82s-13.35-29.82-29.82-29.82-29.82,13.35-29.82,29.82,13.35,29.82,29.82,29.82Z"/><path class="matilda-stare_svg__st1" d="M326.97,217.85c31.54,0,57.11-25.57,57.11-57.11s-25.57-57.11-57.11-57.11-57.11,25.57-57.11,57.11,25.57,57.11,57.11,57.11"/><path class="matilda-stare_svg__st3" d="M327.61,189.93c16.47,0,29.82-13.35,29.82-29.82s-13.35-29.82-29.82-29.82-29.82,13.35-29.82,29.82,13.35,29.82,29.82,29.82Z"/></g></svg>