<svg xmlns="http://www.w3.org/2000/svg" id="matilda-stern_svg__Layer_1" viewBox="0 0 500 500"><defs><style>.matilda-stern_svg__st1{fill:#fff}.matilda-stern_svg__st3{stroke:#fff;stroke-miterlimit:10}</style></defs><path d="M346.94 123.22c8.26 13.75 19.85 25.19 33.43 33.74a162.5 162.5 0 0 1 28.38 22.69c.85.85 1.69 1.71 2.52 2.57 36.58 38.2 36.58 98.79 0 136.99-.83.86-1.67 1.72-2.52 2.57a163 163 0 0 1-31.26 24.46c-13.75 8.26-25.19 19.85-33.74 33.43a162.5 162.5 0 0 1-22.69 28.38c-1.56 1.56-3.15 3.09-4.77 4.58-38.79 35.8-99.25 34.56-136.77-2.57-.2-.2-.4-.39-.6-.59a163 163 0 0 1-24.46-31.26c-8.26-13.75-19.85-25.19-33.43-33.74a162.5 162.5 0 0 1-28.38-22.69c-1.81-1.81-3.57-3.65-5.28-5.53-35.55-39-34.31-99.02 2.6-136.73.42-.43.84-.86 1.27-1.28 9.61-9.61 20.12-17.76 31.26-24.46 13.75-8.26 25.19-19.85 33.74-33.43a162.5 162.5 0 0 1 22.69-28.38c1.54-1.54 3.09-3.03 4.67-4.5 37.76-34.91 96.43-34.91 134.19 0 1.58 1.46 3.14 2.96 4.67 4.5 9.61 9.61 17.76 20.12 24.46 31.26h.02Z" style="fill:#901065"/><path d="M248.5 376c68.76 0 124.5-55.74 124.5-124.5S317.26 127 248.5 127 124 182.74 124 251.5 179.74 376 248.5 376" style="fill:#ffa700"/><g class="matilda-stern_svg__eyes eyes"><path d="M181.86 226.59c15.41 0 27.9-12.49 27.9-27.9s-12.49-27.9-27.9-27.9-27.9 12.49-27.9 27.9 12.49 27.9 27.9 27.9" class="matilda-stern_svg__st1"/><path d="M172.05 213.37c8.11 0 14.68-6.57 14.68-14.68s-6.57-14.68-14.68-14.68-14.68 6.57-14.68 14.68 6.57 14.68 14.68 14.68Z" class="matilda-stern_svg__st3"/><path d="M265.56 226.59c15.41 0 27.9-12.49 27.9-27.9s-12.49-27.9-27.9-27.9-27.9 12.49-27.9 27.9 12.49 27.9 27.9 27.9" class="matilda-stern_svg__st1"/><path d="M256.75 213.37c8.11 0 14.68-6.57 14.68-14.68s-6.57-14.68-14.68-14.68-14.68 6.57-14.68 14.68 6.57 14.68 14.68 14.68Z" class="matilda-stern_svg__st3"/></g><path d="M284.69 144.7c2.63 1.52 3.56 4.89 1.88 7.42-4.02 6.05-8.39 10.72-13.85 14.67-5.51 3.99-11.94 7.12-19.81 10.29-2.82 1.13-6-.31-7.07-3.15-1.08-2.84.36-6.01 3.18-7.14 7.38-2.98 12.81-5.68 17.25-8.9 4.07-2.95 7.47-6.44 10.75-11.27 1.71-2.51 5.05-3.44 7.68-1.92ZM203.88 174.16c-.95 2.88-4.07 4.47-6.89 3.34-6.74-2.72-12.19-6.06-17.17-10.6-5.02-4.59-9.39-10.26-14.07-17.32-1.68-2.53-.91-5.94 1.65-7.56 2.56-1.63 5.95-.86 7.64 1.67 4.41 6.63 8.15 11.4 12.2 15.1 3.71 3.39 7.82 6.01 13.21 8.25 2.81 1.17 4.39 4.25 3.43 7.13Z"/></svg>