<svg xmlns="http://www.w3.org/2000/svg" width="500" height="500" fill="none" viewBox="0 0 500 500"><path fill="#901065" d="M385.122 165.031c2.937 15.769 9.801 30.536 19.54 43.291a162.6 162.6 0 0 1 18.667 31.173c.5 1.094.987 2.193 1.464 3.289 20.934 48.57-.228 105.344-47.847 128.362a195 195 0 0 1-3.259 1.528 163 163 0 0 1-37.834 12.002c-15.769 2.937-30.537 9.801-43.291 19.54a162.6 162.6 0 0 1-31.174 18.667 158 158 0 0 1-6.069 2.626c-48.851 19.997-105.07-2.282-127.259-50.178-.117-.257-.238-.505-.356-.763a163 163 0 0 1-12.001-37.834c-2.938-15.769-9.802-30.537-19.54-43.291a162.6 162.6 0 0 1-18.668-31.174 161 161 0 0 1-3.016-7.026c-19.69-48.96 2.436-104.767 50.192-127.21a73 73 0 0 1 1.637-.756 163 163 0 0 1 37.835-12.001c15.769-2.938 30.536-9.802 43.291-19.54a162.5 162.5 0 0 1 31.173-18.668 179 179 0 0 1 5.948-2.586c47.575-19.523 102.55.97 125.739 46.869.97 1.92 1.908 3.87 2.804 5.848a163 163 0 0 1 12.001 37.834z"/><path fill="#ffa700" d="M287.705 370.266c65.36-21.352 101.036-91.646 79.685-157.006-21.352-65.361-91.646-101.037-157.006-79.685-65.36 21.351-101.037 91.645-79.685 157.006 21.352 65.36 91.645 101.036 157.006 79.685"/><path fill="#fff" d="M182.9 224.8c15.409 0 27.9-12.491 27.9-27.9S198.309 169 182.9 169 155 181.491 155 196.9s12.491 27.9 27.9 27.9M266.6 224.8c15.409 0 27.9-12.491 27.9-27.9S282.009 169 266.6 169s-27.9 12.491-27.9 27.9 12.491 27.9 27.9 27.9"/><path fill="#000" d="M181.895 187.501c5.439-.07 10.2 2.735 14.726 6.877 2.241 2.051 2.075 5.567-.155 7.629-2.23 2.063-5.665 1.87-7.958-.122-3.173-2.756-5.128-3.402-6.472-3.385-1.42.019-3.416.773-6.628 3.517-2.309 1.973-5.752 2.095-7.942-.01s-2.29-5.622-.024-7.645c4.449-3.973 9.135-6.792 14.453-6.861M265.895 187.501c5.439-.07 10.2 2.735 14.726 6.877 2.241 2.051 2.075 5.567-.155 7.629-2.23 2.063-5.665 1.87-7.958-.122-3.173-2.756-5.128-3.402-6.472-3.385-1.42.019-3.416.773-6.628 3.517-2.309 1.973-5.752 2.095-7.942-.01s-2.29-5.622-.024-7.645c4.449-3.973 9.135-6.792 14.453-6.861"/><circle cx="152" cy="255" r="30" fill="#ffa9e2"/><circle cx="297" cy="255" r="30" fill="#ffa9e2"/></svg>