<svg xmlns="http://www.w3.org/2000/svg" id="matilda-stare_svg__Layer_1" viewBox="0 0 500 500"><defs><style>.matilda-stare_svg__st1{fill:#fff}.matilda-stare_svg__st3{stroke:#fff;stroke-miterlimit:10}</style></defs><path d="M346.94 123.22c8.26 13.75 19.85 25.19 33.43 33.74a162.5 162.5 0 0 1 28.38 22.69c.85.85 1.69 1.71 2.52 2.57 36.58 38.2 36.58 98.79 0 136.99-.83.86-1.67 1.72-2.52 2.57a163 163 0 0 1-31.26 24.46c-13.75 8.26-25.19 19.85-33.74 33.43a162.5 162.5 0 0 1-22.69 28.38c-1.56 1.56-3.15 3.09-4.77 4.58-38.79 35.8-99.25 34.56-136.77-2.57-.2-.2-.4-.39-.6-.59a163 163 0 0 1-24.46-31.26c-8.26-13.75-19.85-25.19-33.43-33.74a162.5 162.5 0 0 1-28.38-22.69c-1.81-1.81-3.57-3.65-5.28-5.53-35.55-39-34.31-99.02 2.6-136.73.42-.43.84-.86 1.27-1.28 9.61-9.61 20.12-17.76 31.26-24.46 13.75-8.26 25.19-19.85 33.74-33.43a162.5 162.5 0 0 1 22.69-28.38c1.54-1.54 3.09-3.03 4.67-4.5 37.76-34.91 96.43-34.91 134.19 0 1.58 1.46 3.14 2.96 4.67 4.5 9.61 9.61 17.76 20.12 24.46 31.26h.02Z" style="fill:#901065"/><path d="M248.5 376c68.76 0 124.5-55.74 124.5-124.5S317.26 127 248.5 127 124 182.74 124 251.5 179.74 376 248.5 376" style="fill:#ffa700"/><g class="matilda-stare_svg__eyes eyes"><path d="M181 229c24.85 0 45-20.15 45-45s-20.15-45-45-45-45 20.15-45 45 20.15 45 45 45" class="matilda-stare_svg__st1"/><path d="M180.5 207c12.98 0 23.5-10.52 23.5-23.5S193.48 160 180.5 160 157 170.52 157 183.5s10.52 23.5 23.5 23.5Z" class="matilda-stare_svg__st3"/><path d="M315 229c24.85 0 45-20.15 45-45s-20.15-45-45-45-45 20.15-45 45 20.15 45 45 45" class="matilda-stare_svg__st1"/><path d="M315.5 207c12.98 0 23.5-10.52 23.5-23.5S328.48 160 315.5 160 292 170.52 292 183.5s10.52 23.5 23.5 23.5Z" class="matilda-stare_svg__st3"/></g></svg>