<?xml version="1.0" encoding="UTF-8"?><svg id="matilda-heart-eyes_svg__Layer_1" xmlns="http://www.w3.org/2000/svg" version="1.1" viewBox="0 0 500 500"><!--Generator: Adobe Illustrator 29.8.3, SVG Export Plug-In . SVG Version: 2.1.1 Build 3)--><defs><style>.matilda-heart-eyes_svg__st0{fill:#901065}.matilda-heart-eyes_svg__st1{fill:#0083d7}.matilda-heart-eyes_svg__st2{fill:#ffa700}</style></defs><path class="matilda-heart-eyes_svg__st0" d="M374.77,89.09c10.55,17.56,25.35,32.17,42.69,43.09,13.13,8.27,25.28,17.99,36.24,28.98,1.09,1.09,2.16,2.18,3.22,3.28,46.72,48.78,46.72,126.16,0,174.95-1.06,1.1-2.13,2.2-3.22,3.28-11.98,12-25.39,22.49-39.92,31.24-17.56,10.55-32.17,25.35-43.09,42.69-8.27,13.13-17.99,25.28-28.98,36.24-1.99,1.99-4.02,3.95-6.09,5.85-49.54,45.72-126.75,44.14-174.67-3.28-.26-.26-.51-.5-.77-.75-12-11.98-22.49-25.39-31.24-39.92-10.55-17.56-25.35-32.17-42.69-43.09-13.13-8.27-25.28-17.99-36.24-28.98-2.31-2.31-4.56-4.66-6.74-7.06C-2.12,285.8-.53,209.15,46.6,160.99c.54-.55,1.07-1.1,1.62-1.63,12.27-12.27,25.69-22.68,39.92-31.24,17.56-10.55,32.17-25.35,43.09-42.69,8.27-13.13,17.99-25.28,28.98-36.24,1.97-1.97,3.95-3.87,5.96-5.75,48.22-44.58,123.15-44.58,171.37,0,2.02,1.86,4.01,3.78,5.96,5.75,12.27,12.27,22.68,25.69,31.24,39.92h.03Z"/><path class="matilda-heart-eyes_svg__st2" d="M249.06,411.91c87.81,0,159-71.18,159-159s-71.18-159-159-159S90.06,165.1,90.06,252.92s71.18,159,159,159"/><path class="matilda-heart-eyes_svg__st1 throb" d="M211.88,226.39c20.24-11.69,42.85-76.41,18.77-118.1-12.32-21.34-38.71-29.17-58.95-17.48-12.4,7.15-19.6,19.97-20.5,33.74-11.48-4.35-24.44-3.83-35.57,2.59-20.24,11.69-26.65,38.45-14.34,59.78,24.8,42.95,88.92,51.96,109.16,40.28l1.4-.82h.01ZM312.99,221.64c20.24,11.69,87.59-1.1,111.67-42.79,12.32-21.34,5.9-48.11-14.34-59.79-12.4-7.16-27.1-7-39.47-.88-1.97-12.12-8.91-23.09-20.02-29.5-20.24-11.69-46.63-3.86-58.95,17.47-24.8,42.95-.54,103,19.69,114.68l1.4.82h.03Z"/></svg>