<svg xmlns="http://www.w3.org/2000/svg" id="petra-heart-eyes_svg__Layer_1" viewBox="0 0 500 500"><defs><style>.petra-heart-eyes_svg__st0{fill:#901065}</style></defs><path d="M278.04 193.33c6.68 7.53 35.69-27.16 40.89-34.77 5.21-7.61 5.52-18.04-2.32-28.78s-31.53 6.79-31.53 6.79 23.21-33.14-.43-40.26c-23.65-7.12-105.62 70.33-105.62 70.33s92.33 19.15 99.01 26.68Z"/><path d="M225.5 401.5c70.69 0 128-57.31 128-128s-57.31-128-128-128-128 57.31-128 128 57.31 128 128 128" style="fill:#ffc628"/><path d="m302.55 253.13-11.61 35.97c-4.49 13.92 4.17 28.63 18.51 31.47l68.4 13.51c16.84 3.33 30.17-14.13 22.53-29.5l-30.32-61.01c-7.34-14.77-25.1-21.01-40.06-14.07l-11.09 5.14a30.84 30.84 0 0 0-16.37 18.49Z"/><g class="petra-heart-eyes_svg__throb throb"><path d="M182.24 239.75c14.77-8.53 31.27-55.77 13.7-86.2-8.99-15.57-28.25-21.28-43.02-12.76-9.05 5.22-14.31 14.58-14.96 24.63-8.38-3.18-17.84-2.79-25.95 1.89-14.77 8.53-19.45 28.06-10.46 43.64 18.1 31.35 64.91 37.92 79.68 29.4l1.03-.59ZM248.4 239.66c14.77 8.53 63.93-.8 81.5-31.24 8.99-15.57 4.31-35.11-10.46-43.64-9.05-5.22-19.78-5.1-28.81-.65-1.43-8.85-6.5-16.85-14.61-21.53-14.77-8.53-34.03-2.82-43.02 12.76-18.1 31.35-.39 75.17 14.38 83.7l1.03.59Z" class="petra-heart-eyes_svg__st0"/></g></svg>