<?xml version="1.0" encoding="UTF-8"?><svg id="petra-happy_svg__Layer_1" xmlns="http://www.w3.org/2000/svg" version="1.1" viewBox="0 0 500 466"><!--Generator: Adobe Illustrator 29.8.3, SVG Export Plug-In . SVG Version: 2.1.1 Build 3)--><defs><style>.petra-happy_svg__st0{fill:#ffc628}.petra-happy_svg__st1{fill:#adadad}</style></defs><path d="M277.57,116.06c2.73,12.37,55.86-8,66.26-13.19,10.4-5.18,17.12-16.46,15.08-33.07-2.04-16.61-38.82-11.83-38.82-11.83,0,0,45.82-22.21,24.18-44.53-21.65-22.31-159.2,12.64-159.2,12.64,0,0,89.78,77.61,92.51,89.97h0Z"/><path class="petra-happy_svg__st0" d="M198.57,349.4c88.97,0,161.09-72.12,161.09-161.09S287.54,27.23,198.57,27.23,37.48,99.35,37.48,188.31s72.12,161.09,161.09,161.09"/><path d="M340.35,176.72l16.51,44.61c6.39,17.25,26.4,25.08,42.8,16.71l78.16-39.87c19.24-9.82,18.85-37.45-.67-46.72l-77.47-36.75c-18.75-8.9-41.18-1.25-50.58,17.27l-6.97,13.7c-4.9,9.64-5.55,20.88-1.8,31.02h.01ZM169.9,115.9h-12.87c0-13.65-11.11-24.77-24.77-24.77s-24.77,11.11-24.77,24.77h-12.87c0-20.77,16.89-37.64,37.64-37.64s37.64,16.89,37.64,37.64M273.45,115.9h-12.87c0-13.65-11.11-24.77-24.77-24.77s-24.77,11.11-24.77,24.77h-12.87c0-20.77,16.89-37.64,37.64-37.64s37.64,16.89,37.64,37.64"/><path class="petra-happy_svg__st1" d="M212.41,457c77.5,0,140.32-9.58,140.32-21.39s-62.82-21.39-140.32-21.39-140.32,9.58-140.32,21.39,62.82,21.39,140.32,21.39"/></svg>