<svg xmlns="http://www.w3.org/2000/svg" id="petra-squint_svg__Layer_1" viewBox="0 0 500 500"><defs><style>.petra-squint_svg__st0{fill:#fff}.petra-squint_svg__st2{stroke:#fff;stroke-miterlimit:10}</style></defs><path d="M257.53 163.2c8.83 4.82 24.37-37.65 26.69-46.57s-.92-18.85-11.93-26.29-27.36 17.07-27.36 17.07 10.61-39.04-14.05-37.73-75.54 101.97-75.54 101.97 93.36-13.27 102.19-8.45"/><path d="M225.5 401.5c70.69 0 128-57.31 128-128s-57.31-128-128-128-128 57.31-128 128 57.31 128 128 128" style="fill:#ffc628"/><path d="m356.89 234.55-26.9 26.55c-10.41 10.28-9.51 27.32 1.9 36.46l54.45 43.55c13.4 10.73 33.29 1.39 33.6-15.77l1.26-68.12c.31-16.49-12.57-30.22-29.04-30.97l-12.21-.56a30.83 30.83 0 0 0-23.05 8.85Z"/><g class="petra-squint_svg__eyes eyes"><path d="M167.4 229.3c15.41 0 27.9-12.49 27.9-27.9s-12.49-27.9-27.9-27.9-27.9 12.49-27.9 27.9 12.49 27.9 27.9 27.9" class="petra-squint_svg__st0"/><path d="M181.68 215.36c8.11 0 14.68-6.57 14.68-14.68S189.79 186 181.68 186 167 192.57 167 200.68s6.57 14.68 14.68 14.68Z" class="petra-squint_svg__st2"/><path d="M251.1 229.3c15.41 0 27.9-12.49 27.9-27.9s-12.49-27.9-27.9-27.9-27.9 12.49-27.9 27.9 12.49 27.9 27.9 27.9" class="petra-squint_svg__st0"/><path d="M236.68 215.36c8.11 0 14.68-6.57 14.68-14.68S244.79 186 236.68 186 222 192.57 222 200.68s6.57 14.68 14.68 14.68Z" class="petra-squint_svg__st2"/></g></svg>