<?xml version="1.0" encoding="UTF-8"?><svg id="petra-heart-eyes_svg__Layer_1" xmlns="http://www.w3.org/2000/svg" version="1.1" viewBox="0 0 500 500"><!--Generator: Adobe Illustrator 29.8.3, SVG Export Plug-In . SVG Version: 2.1.1 Build 3)--><defs><style>.petra-heart-eyes_svg__st0{fill:#901065}.petra-heart-eyes_svg__st1{fill:#ffc628}</style></defs><path d="M296.81,163.34c10.58,11.92,56.51-43,64.74-55.05,8.25-12.05,8.74-28.56-3.67-45.57s-49.92,10.75-49.92,10.75c0,0,36.75-52.47-.68-63.74-37.44-11.27-167.22,111.35-167.22,111.35,0,0,146.18,30.32,156.76,42.24v.02Z"/><path class="petra-heart-eyes_svg__st1" d="M213.63,492.93c111.92,0,202.66-90.74,202.66-202.66s-90.74-202.66-202.66-202.66S10.97,178.35,10.97,290.27s90.74,202.66,202.66,202.66"/><path d="M335.62,258.02l-18.38,56.95c-7.11,22.04,6.6,45.33,29.31,49.83l108.29,21.39c26.66,5.27,47.77-22.37,35.67-46.71l-48-96.59c-11.62-23.38-39.74-33.26-63.43-22.28l-17.56,8.14c-12.34,5.72-21.73,16.33-25.92,29.27h.02Z"/><path class="petra-heart-eyes_svg__st0 throb" d="M145.13,236.83c23.38-13.51,49.51-88.3,21.69-136.48-14.23-24.65-44.73-33.69-68.11-20.2-14.33,8.26-22.66,23.08-23.69,39-13.27-5.03-28.25-4.42-41.09,2.99-23.38,13.51-30.79,44.43-16.56,69.09,28.66,49.64,102.77,60.04,126.15,46.55l1.63-.93-.03-.02ZM249.88,236.69c23.38,13.51,101.22-1.27,129.04-49.46,14.23-24.65,6.82-55.59-16.56-69.09-14.33-8.26-31.32-8.07-45.61-1.03-2.26-14.01-10.29-26.68-23.13-34.09-23.38-13.51-53.88-4.46-68.11,20.2-28.66,49.64-.62,119.01,22.77,132.52l1.63.93-.02.02Z"/></svg>