<?xml version="1.0" encoding="UTF-8"?><svg id="petra-clown_svg__Layer_1" xmlns="http://www.w3.org/2000/svg" version="1.1" viewBox="0 0 500 500"><!--Generator: Adobe Illustrator 29.8.3, SVG Export Plug-In . SVG Version: 2.1.1 Build 3)--><defs><style>.petra-clown_svg__st0{fill:#dd70b8}.petra-clown_svg__st1{fill:#901065}.petra-clown_svg__st2{fill:#fff}.petra-clown_svg__st3{fill:#0083d7}.petra-clown_svg__st4{stroke:#fff;stroke-miterlimit:10}.petra-clown_svg__st5{fill:#adadad}.petra-clown_svg__st6{fill:#bfe6ff}</style></defs><path class="petra-clown_svg__st0" d="M376.76,131.34c5.95,11.9,54.88-22.48,64.13-30.41s13.22-21.16,6.89-37.55c-6.33-16.4-42.59-2.12-42.59-2.12,0,0,40.99-34.38,13.22-51.57-27.77-17.19-158.98,53.69-158.98,53.69,0,0,111.38,56.07,117.33,67.97"/><path class="petra-clown_svg__st6" d="M245.19,398.45c93.48,0,169.26-75.78,169.26-169.26S338.67,59.94,245.19,59.94,75.93,135.72,75.93,229.2s75.78,169.26,169.26,169.26"/><path class="petra-clown_svg__st0" d="M347.08,202.26l-15.35,47.56c-5.94,18.41,5.51,37.86,24.48,41.61l90.45,17.86c22.27,4.4,39.89-18.68,29.79-39.01l-40.09-80.68c-9.71-19.53-33.19-27.78-52.97-18.61l-14.66,6.8c-10.31,4.78-18.15,13.64-21.65,24.45h.01Z"/><g class="eyes"><path class="petra-clown_svg__st2" d="M168.36,170.75c20.38,0,36.89-16.52,36.89-36.89s-16.52-36.89-36.89-36.89-36.89,16.52-36.89,36.89,16.52,36.89,36.89,36.89"/><path class="petra-clown_svg__st4" d="M167.41,153.64c10.72,0,19.41-8.69,19.41-19.41s-8.69-19.41-19.41-19.41-19.41,8.69-19.41,19.41,8.69,19.41,19.41,19.41h0Z"/><path class="petra-clown_svg__st2" d="M279.04,170.75c20.38,0,36.89-16.52,36.89-36.89s-16.52-36.89-36.89-36.89-36.89,16.52-36.89,36.89,16.52,36.89,36.89,36.89"/><path class="petra-clown_svg__st4" d="M278.49,153.64c10.72,0,19.41-8.69,19.41-19.41s-8.69-19.41-19.41-19.41-19.41,8.69-19.41,19.41,8.69,19.41,19.41,19.41h0Z"/></g><circle class="petra-clown_svg__st1" cx="227.34" cy="208.7" r="40.99"/><circle class="petra-clown_svg__st3" cx="147.34" cy="206.72" r="23.14"/><circle class="petra-clown_svg__st3" cx="307.34" cy="202.75" r="23.14"/><path class="petra-clown_svg__st5" d="M257.09,493c81.43,0,147.44-10.06,147.44-22.48s-66.01-22.48-147.44-22.48-147.44,10.06-147.44,22.48,66.01,22.48,147.44,22.48"/></svg>