<svg xmlns="http://www.w3.org/2000/svg" width="500" height="500" fill="none" viewBox="0 0 500 500"><path fill="#000" d="M269.641 162.279c4.64 8.933 41.231-17.632 48.143-23.75s9.751-16.154 4.77-28.485-32.232-1.095-32.232-1.095 30.602-26.472 9.399-39.147-119.591 42.439-119.591 42.439 84.87 41.104 89.508 50.028z"/><path fill="#ffc628" d="M214.5 361.5c70.692 0 128-57.308 128-128s-57.308-128-128-128-128 57.308-128 128 57.308 128 128 128"/><path fill="#000" d="m337.63 229.173-13.448 35.326c-5.197 13.666 2.682 28.813 16.869 32.38l67.614 17.017c16.646 4.189 30.864-12.55 24.028-28.299l-27.138-62.496c-6.567-15.129-23.986-22.277-39.29-16.116l-11.338 4.554a30.82 30.82 0 0 0-17.298 17.62z"/><path fill="#adadad" d="M225.5 447c61.58 0 111.5-7.611 111.5-17s-49.92-17-111.5-17S114 420.611 114 430s49.92 17 111.5 17"/><path fill="#000" d="M149.12 195.638a7 7 0 0 1-9.409-3.124l-1.311-2.624a7 7 0 0 1 3.114-9.381l11.352-5.715c3.737-1.881 5-6.597 2.705-10.094l-6.974-10.625a7 7 0 0 1 1.994-9.682l2.447-1.616a7 7 0 0 1 9.71 1.999l17.4 26.51c2.295 3.497 1.032 8.213-2.704 10.093zM244.731 144.776a7 7 0 0 1 9.711-1.999l2.447 1.616a7 7 0 0 1 1.994 9.682l-6.974 10.626c-2.296 3.496-1.032 8.212 2.704 10.093l11.353 5.715a7 7 0 0 1 3.114 9.381l-1.311 2.624a7 7 0 0 1-9.41 3.124l-28.323-14.259c-3.736-1.88-5-6.596-2.705-10.093z"/></svg>