<?xml version="1.0" encoding="UTF-8"?><svg id="petra-side-eye_svg__Layer_1" xmlns="http://www.w3.org/2000/svg" version="1.1" viewBox="0 0 500 500"><!--Generator: Adobe Illustrator 29.8.3, SVG Export Plug-In . SVG Version: 2.1.1 Build 3)--><defs><style>.petra-side-eye_svg__st0{fill:#fff}.petra-side-eye_svg__st1{fill:#ffc628}</style></defs><path d="M317.18,154.94c10.44,10.78,51.36-42.81,58.63-54.48s7.04-27.24-5.34-42.73c-12.38-15.49-46.52,12.2-46.52,12.2,0,0,32.4-50.89-3.3-59.94C284.96.93,167.94,121.69,167.94,121.69c0,0,138.8,22.47,149.23,33.25"/><path class="petra-side-eye_svg__st1" d="M217.85,490.5c105.4,0,190.85-85.45,190.85-190.85s-85.45-190.85-190.85-190.85S27,194.26,27,299.65s85.45,190.85,190.85,190.85"/><path d="M393.2,267.73l-44.97,33.98c-17.4,13.15-19.43,38.53-4.34,54.26l71.93,75.06c17.71,18.49,48.92,8.59,52.77-16.71l15.22-100.43c3.68-24.3-12.66-47.13-36.86-51.48l-17.94-3.22c-12.61-2.27-25.59.83-35.81,8.56"/><g class="eyes"><path class="petra-side-eye_svg__st0" d="M182.81,209.3c-22.99,24.17-45.43,32.7-67.21,22.51,9.93-2.59,17.27-11.63,17.27-22.36s-6.99-19.35-16.56-22.16c22.17-10.47,44.34-3.13,66.51,22.01"/><path d="M132.86,209.45c0,10.74-7.34,19.77-17.27,22.36-9.02-4.22-17.92-11.66-26.72-22.51,9.14-10.36,18.28-17.7,27.42-22.01,9.57,2.8,16.56,11.67,16.56,22.16"/><path class="petra-side-eye_svg__st0" d="M306.56,209.3c-22.99,24.17-45.43,32.7-67.21,22.51,9.93-2.59,17.27-11.63,17.27-22.36s-6.99-19.35-16.56-22.16c22.17-10.47,44.34-3.13,66.51,22.01"/><path d="M256.61,209.45c0,10.74-7.34,19.77-17.27,22.36-9.02-4.22-17.92-11.66-26.72-22.51,9.14-10.36,18.28-17.7,27.42-22.01,9.57,2.8,16.56,11.67,16.56,22.16"/></g></svg>