<?xml version="1.0" encoding="UTF-8"?><svg id="petra-hearts_svg__Layer_1" xmlns="http://www.w3.org/2000/svg" version="1.1" viewBox="0 0 500 500"><!--Generator: Adobe Illustrator 29.8.3, SVG Export Plug-In . SVG Version: 2.1.1 Build 3)--><defs><style>.petra-hearts_svg__st0{fill:#901065}.petra-hearts_svg__st1{fill:#ffc628}</style></defs><path d="M308.84,168.12c6.12,11.78,54.41-23.26,63.52-31.34s12.87-21.31,6.29-37.59c-6.57-16.27-42.53-1.45-42.53-1.45,0,0,40.38-34.93,12.4-51.66-27.97-16.72-157.81,56-157.81,56,0,0,111.99,54.23,118.11,66.02v.03Z"/><path class="petra-hearts_svg__st1" d="M236.08,431c93.28,0,168.9-75.62,168.9-168.9s-75.62-168.9-168.9-168.9-168.9,75.62-168.9,168.9,75.62,168.9,168.9,168.9"/><path d="M364.56,278.29l-16.01,47.24c-6.19,18.28,4.95,37.86,23.83,41.87l89.99,19.13c22.16,4.71,40.09-18.05,30.3-38.49l-38.83-81.09c-9.4-19.64-32.71-28.2-52.6-19.33l-14.73,6.56c-10.35,4.62-18.31,13.35-21.94,24.08v.03ZM188.35,189.56c3.4,3.81,3.07,9.65-.74,13.04,0,0-.02.01-.02.02l-2.9,2.57c-3.81,3.38-9.64,3.04-13.02-.77l-11.16-12.52c-3.67-4.12-10.12-4.12-13.79,0l-11.16,12.52c-3.39,3.8-9.21,4.14-13.02.77l-2.9-2.57c-3.82-3.38-4.17-9.22-.79-13.04,0,0,.01-.02.02-.02l27.84-31.23c3.67-4.12,10.12-4.12,13.79,0l27.84,31.23h.03ZM324.26,188.24c3.4,3.81,3.07,9.65-.74,13.04,0,0-.02.01-.02.02l-2.9,2.57c-3.81,3.38-9.64,3.04-13.02-.77l-11.16-12.52c-3.67-4.12-10.12-4.12-13.79,0l-11.16,12.52c-3.39,3.8-9.21,4.14-13.02.77l-2.9-2.57c-3.82-3.38-4.17-9.22-.79-13.04,0,0,.01-.02.02-.02l27.84-31.23c3.67-4.12,10.12-4.12,13.79,0l27.84,31.23h.03Z"/><path class="petra-hearts_svg__st0" d="M127.73,393.04c20.92-12.07,44.27-78.95,19.4-122.03-12.73-22.05-40-30.14-60.91-18.06-12.81,7.39-20.26,20.64-21.18,34.86-11.86-4.5-25.26-3.96-36.75,2.68-20.92,12.07-27.54,39.73-14.82,61.78,25.63,44.38,91.89,53.69,112.8,41.62l1.45-.84h.01ZM327.21,171.72c20.92,12.07,90.51-1.13,115.38-44.22,12.73-22.05,6.1-49.71-14.82-61.78-12.81-7.39-28-7.23-40.79-.91-2.03-12.52-9.21-23.86-20.69-30.48-20.92-12.07-48.18-3.99-60.91,18.06-25.63,44.38-.55,106.42,20.36,118.5l1.45.84h.01ZM291.08,389.92c15.89,10.75,71.81,4.21,93.95-28.53,11.34-16.76,7.64-39.05-8.25-49.8-9.74-6.58-21.79-7.31-32.28-3.03-.9-10.04-5.95-19.42-14.67-25.34-15.89-10.75-37.96-5.89-49.3,10.87-22.82,33.73-6.45,84.32,9.43,95.07l1.11.75Z"/></svg>