<?xml version="1.0" encoding="UTF-8"?><svg id="petra-blank_svg__Layer_1" xmlns="http://www.w3.org/2000/svg" version="1.1" viewBox="0 0 500 500"><!--Generator: Adobe Illustrator 29.8.3, SVG Export Plug-In . SVG Version: 2.1.1 Build 3)--><defs><style>.petra-blank_svg__st0{fill:#ffc628}</style></defs><path d="M370.07,166.2c7.24,14.47,66.73-27.33,77.98-36.98,11.26-9.65,16.08-25.73,8.38-45.67-7.7-19.94-51.79-2.57-51.79-2.57,0,0,49.85-41.81,16.08-62.71-33.77-20.9-193.32,65.28-193.32,65.28,0,0,135.44,68.18,142.67,82.65"/><path class="petra-blank_svg__st0" d="M210.08,491c113.66,0,205.81-92.15,205.81-205.81s-92.15-205.81-205.81-205.81S4.27,171.52,4.27,285.19s92.15,205.81,205.81,205.81"/><path d="M333.97,252.43l-18.67,57.84c-7.22,22.38,6.71,46.04,29.76,50.6l109.98,21.72c27.08,5.35,48.51-22.72,36.23-47.43l-48.75-98.1c-11.8-23.75-40.36-33.78-64.41-22.62l-17.83,8.26c-12.53,5.81-22.07,16.59-26.32,29.73h.02Z"/><path d="M102.49,192.86c13.04,0,23.6-10.56,23.6-23.6s-10.56-23.6-23.6-23.6-23.6,10.56-23.6,23.6,10.56,23.6,23.6,23.6M237.08,192.86c13.04,0,23.6-10.56,23.6-23.6s-10.56-23.6-23.6-23.6-23.6,10.56-23.6,23.6,10.56,23.6,23.6,23.6"/></svg>