<svg xmlns="http://www.w3.org/2000/svg" width="500" height="466" fill="none" viewBox="0 0 500 466"><path fill="#000" d="M277.27 142.09c2.17 9.83 44.39-6.36 52.65-10.48s13.6-13.08 11.98-26.28-30.85-9.4-30.85-9.4 36.41-17.65 19.21-35.38-126.5 10.04-126.5 10.04 71.34 61.67 73.51 71.49z"/><path fill="#ffc628" d="M214.5 327.5c70.692 0 128-57.308 128-128s-57.308-128-128-128-128 57.308-128 128 57.308 128 128 128"/><path fill="#000" d="m327.16 190.29 13.12 35.45c5.08 13.71 20.98 19.93 34.01 13.28l62.11-31.68c15.29-7.8 14.98-29.76-.53-37.12l-61.56-29.2c-14.9-7.07-32.72-.99-40.19 13.72l-5.54 10.89a30.82 30.82 0 0 0-1.43 24.65zM191.72 141.96h-10.23c0-10.85-8.83-19.68-19.68-19.68s-19.68 8.83-19.68 19.68H131.9c0-16.5 13.42-29.91 29.91-29.91s29.91 13.42 29.91 29.91M274 141.96h-10.23c0-10.85-8.83-19.68-19.68-19.68s-19.68 8.83-19.68 19.68h-10.23c0-16.5 13.42-29.91 29.91-29.91S274 125.47 274 141.96"/><path fill="#adadad" d="M225.5 413c61.58 0 111.5-7.611 111.5-17s-49.92-17-111.5-17S114 386.611 114 396s49.92 17 111.5 17"/></svg>