<svg xmlns="http://www.w3.org/2000/svg" id="petra-star-eyes_svg__Layer_1" viewBox="0 0 500 500"><defs><style>.petra-star-eyes_svg__st1{fill:#0083d7}</style></defs><path d="M325 199.5c4.5 9 41.5-17 48.5-23s10-16 5.21-28.4-32.21-1.6-32.21-1.6 31-26 10-39-120.23 40.6-120.23 40.6 84.23 42.4 88.73 51.4"/><path d="M225.5 401.5c70.69 0 128-57.31 128-128s-57.31-128-128-128-128 57.31-128 128 57.31 128 128 128" style="fill:#ffc628"/><path d="m302.55 253.13-11.61 35.97c-4.49 13.92 4.17 28.63 18.51 31.47l68.4 13.51c16.84 3.33 30.17-14.13 22.53-29.5l-30.32-61.01c-7.34-14.77-25.1-21.01-40.06-14.07l-11.09 5.14a30.84 30.84 0 0 0-16.37 18.49Z"/><g class="petra-star-eyes_svg__throb throb"><path d="M124.74 137.61c.19-4 5.35-5.5 7.35-2.14l16.12 27c.89 1.5 2.66 2.18 4.36 1.69l29.14-8.5c3.65-1.06 6.39 3.14 4.07 6.25l-19.37 26.02c-1.01 1.35-1.12 3.16-.28 4.57l16.55 27.73c1.98 3.31-1.48 7.42-5.01 5.95l-27.48-11.48c-1.66-.69-3.61-.12-4.73 1.38l-18.52 24.88c-2.38 3.2-7.26 1.52-7.07-2.42l1.59-33.01c.08-1.67-.85-3.18-2.34-3.8l-28.73-12c-3.44-1.44-3-6.57.65-7.63l29.15-8.5c1.69-.49 2.91-2.05 3-3.83l1.55-32.15ZM283.78 140.24c2.74-2.69 7.24.13 6.47 4.06l-6.2 31.73c-.34 1.75.43 3.58 1.92 4.51l26.11 16.4c3.25 2.04 2.35 7.21-1.32 7.63l-30.33 3.47c-1.62.18-2.91 1.43-3.24 3.12l-6.3 32.22c-.76 3.9-5.81 4.28-7.33.55l-12.09-29.54c-.7-1.72-2.38-2.77-4.09-2.57l-29.56 3.38c-3.73.43-5.95-4.52-3.23-7.18l22.5-22.04c1.18-1.15 1.52-3 .86-4.61l-12.41-30.31c-1.5-3.67 2.17-7.1 5.42-5.06l26.11 16.4c1.48.93 3.33.75 4.55-.45l22.16-21.7Z" class="petra-star-eyes_svg__st1"/></g></svg>