<svg xmlns="http://www.w3.org/2000/svg" width="500" height="500" fill="none" viewBox="0 0 500 500"><path fill="#000" d="M269.641 162.279c4.64 8.933 41.231-17.632 48.143-23.75s9.751-16.154 4.77-28.485-32.232-1.095-32.232-1.095 30.602-26.472 9.399-39.147-119.591 42.439-119.591 42.439 84.87 41.104 89.508 50.028z"/><path fill="#ffc628" d="M214.5 361.5c70.692 0 128-57.308 128-128s-57.308-128-128-128-128 57.308-128 128 57.308 128 128 128"/><path fill="#000" d="m331.372 215.631 21.848 30.846c8.455 11.928 25.423 13.821 36.288 4.025l51.794-46.675c12.751-11.492 6.768-32.624-10.119-35.718l-67.02-12.273c-16.222-2.972-31.861 7.513-35.269 23.655l-2.533 11.953a30.82 30.82 0 0 0 4.999 24.18z"/><path fill="#adadad" d="M225.5 447c61.58 0 111.5-7.611 111.5-17s-49.92-17-111.5-17S114 420.611 114 430s49.92 17 111.5 17"/><path fill="#000" d="M178.328 178.528a7 7 0 0 1-.582 9.897l-2.195 1.946a7 7 0 0 1-9.868-.58l-8.458-9.487c-2.784-3.122-7.666-3.122-10.45 0l-8.458 9.487a7 7 0 0 1-9.868.58l-2.195-1.946a7 7 0 0 1-.582-9.897l21.103-23.668c2.784-3.122 7.666-3.122 10.45 0zM281.328 177.528a7 7 0 0 1-.582 9.897l-2.195 1.946a7 7 0 0 1-9.868-.58l-8.458-9.487c-2.784-3.122-7.666-3.122-10.45 0l-8.458 9.487a7 7 0 0 1-9.868.58l-2.195-1.946a7 7 0 0 1-.582-9.897l21.103-23.668c2.784-3.122 7.666-3.122 10.45 0z"/></svg>