<svg xmlns="http://www.w3.org/2000/svg" id="petra-square-eyes_svg__Layer_1" viewBox="0 0 500 500"><defs><style>.petra-square-eyes_svg__st0{fill:#fff}</style></defs><path d="M325 199.5c4.5 9 41.5-17 48.5-23s10-16 5.21-28.4-32.21-1.6-32.21-1.6 31-26 10-39-120.23 40.6-120.23 40.6 84.23 42.4 88.73 51.4"/><path d="M225.5 401.5c70.69 0 128-57.31 128-128s-57.31-128-128-128-128 57.31-128 128 57.31 128 128 128" style="fill:#ffc628"/><path d="m328.8 246.46-11.61 35.97c-4.49 13.92 4.17 28.63 18.51 31.47l68.4 13.51c16.84 3.33 30.17-14.13 22.53-29.5l-30.32-61.01c-7.34-14.77-25.1-21.01-40.06-14.07l-11.09 5.14a30.84 30.84 0 0 0-16.37 18.49Z"/><g class="petra-square-eyes_svg__eyes eyes"><rect width="64" height="64" x="136" y="168.68" class="petra-square-eyes_svg__st0" rx="8" ry="8"/><rect width="64" height="64" x="226" y="170" class="petra-square-eyes_svg__st0" rx="8" ry="8"/><path d="M167.68 216.36c8.11 0 14.68-6.57 14.68-14.68S175.79 187 167.68 187 153 193.57 153 201.68s6.57 14.68 14.68 14.68M257.68 215.36c8.11 0 14.68-6.57 14.68-14.68S265.79 186 257.68 186 243 192.57 243 200.68s6.57 14.68 14.68 14.68"/></g></svg>