<?xml version="1.0" encoding="UTF-8"?><svg id="petra-very-happy_svg__Layer_1" xmlns="http://www.w3.org/2000/svg" version="1.1" viewBox="0 0 500 500"><!--Generator: Adobe Illustrator 29.8.3, SVG Export Plug-In . SVG Version: 2.1.1 Build 3)--><defs><style>.petra-very-happy_svg__st0{fill:#dd70b8}.petra-very-happy_svg__st1{fill:#ffc628}</style></defs><path d="M283.03,178.7c3.16,14.31,64.62-9.26,76.64-15.26,12.02-6,19.8-19.04,17.44-38.26-2.36-19.22-44.91-13.68-44.91-13.68,0,0,53-25.69,27.96-51.5-25.04-25.81-184.15,14.62-184.15,14.62,0,0,103.85,89.77,107.01,104.07h0Z"/><path class="petra-very-happy_svg__st1" d="M191.65,448.61c102.91,0,186.33-83.42,186.33-186.33s-83.42-186.33-186.33-186.33S5.32,159.37,5.32,262.28s83.42,186.33,186.33,186.33"/><path d="M323.63,337.15l5.09,54.79c1.98,21.19,21.99,35.93,42.82,31.49l99.27-21.15c24.44-5.21,32.28-36.2,13.24-52.39l-75.56-64.25c-18.29-15.55-45.63-13.72-61.68,4.15l-11.89,13.23c-8.36,9.3-12.45,21.67-11.3,34.12v.02ZM158.49,178.51h-14.89c0-15.79-12.85-28.65-28.65-28.65s-28.65,12.85-28.65,28.65h-14.89c0-24.02,19.54-43.54,43.54-43.54s43.54,19.54,43.54,43.54M278.27,178.51h-14.89c0-15.79-12.85-28.65-28.65-28.65s-28.65,12.85-28.65,28.65h-14.89c0-24.02,19.54-43.54,43.54-43.54s43.54,19.54,43.54,43.54"/><circle class="petra-very-happy_svg__st0" cx="71.56" cy="249.9" r="36.39"/><circle class="petra-very-happy_svg__st0" cx="301.56" cy="249.9" r="36.39"/></svg>